M48
; DRILL file {KiCad (5.1.6)-1} date 09/10/20 20:13:15
; FORMAT={-:-/ absolute / metric / decimal}
; #@! TF.CreationDate,2020-09-10T20:13:15+09:00
; #@! TF.GenerationSoftware,Kicad,Pcbnew,(5.1.6)-1
FMAT,2
METRIC
T1C0.400
T2C0.800
T3C1.000
T4C1.100
T5C1.700
T6C6.400
%
G90
G05
T1
X170.0Y-65.0
T2
X170.18Y-80.01
X172.18Y-80.01
X157.48Y-80.01
X159.48Y-80.01
X102.87Y-107.95
X102.87Y-110.49
X102.87Y-113.03
X102.87Y-115.57
X102.87Y-118.11
X102.87Y-120.65
X102.87Y-123.19
X102.87Y-125.73
X102.87Y-128.27
X102.87Y-130.81
X102.87Y-133.35
X102.87Y-135.89
X102.87Y-138.43
X102.87Y-140.97
X118.11Y-107.95
X118.11Y-110.49
X118.11Y-113.03
X118.11Y-115.57
X118.11Y-118.11
X118.11Y-120.65
X118.11Y-123.19
X118.11Y-125.73
X118.11Y-128.27
X118.11Y-130.81
X118.11Y-133.35
X118.11Y-135.89
X118.11Y-138.43
X118.11Y-140.97
X134.62Y-80.01
X134.62Y-82.55
X134.62Y-85.09
X134.62Y-87.63
X142.24Y-80.01
X142.24Y-82.55
X142.24Y-85.09
X142.24Y-87.63
T3
X193.04Y-80.01
X193.04Y-82.51
X109.22Y-80.01
X109.22Y-82.51
T4
X166.37Y-114.3
X166.37Y-118.8
X172.87Y-114.3
X172.87Y-118.8
X124.46Y-97.79
X124.46Y-102.29
X130.96Y-97.79
X130.96Y-102.29
X166.37Y-129.54
X166.37Y-134.04
X172.87Y-129.54
X172.87Y-134.04
X153.67Y-129.54
X153.67Y-134.04
X160.17Y-129.54
X160.17Y-134.04
X186.055Y-97.79
X186.055Y-102.29
X192.555Y-97.79
X192.555Y-102.29
X179.07Y-129.54
X179.07Y-134.04
X185.57Y-129.54
X185.57Y-134.04
X162.56Y-87.63
X165.1Y-87.63
X167.64Y-87.63
T5
X193.04Y-59.69
X193.04Y-63.65
X193.04Y-67.61
X193.04Y-71.57
X109.22Y-59.69
X109.22Y-63.65
X109.22Y-67.61
X109.22Y-71.57
T6
X110.49Y-99.695
T0
M30
