G04 #@! TF.GenerationSoftware,KiCad,Pcbnew,(5.1.6)-1*
G04 #@! TF.CreationDate,2020-09-10T20:19:44+09:00*
G04 #@! TF.ProjectId,ControllerPCB,436f6e74-726f-46c6-9c65-725043422e6b,rev?*
G04 #@! TF.SameCoordinates,Original*
G04 #@! TF.FileFunction,Paste,Bot*
G04 #@! TF.FilePolarity,Positive*
%FSLAX46Y46*%
G04 Gerber Fmt 4.6, Leading zero omitted, Abs format (unit mm)*
G04 Created by KiCad (PCBNEW (5.1.6)-1) date 2020-09-10 20:19:44*
%MOMM*%
%LPD*%
G01*
G04 APERTURE LIST*
G04 APERTURE END LIST*
G04 #@! TO.C,R4*
G36*
G01*
X124810000Y-84076250D02*
X124810000Y-83563750D01*
G75*
G02*
X125028750Y-83345000I218750J0D01*
G01*
X125466250Y-83345000D01*
G75*
G02*
X125685000Y-83563750I0J-218750D01*
G01*
X125685000Y-84076250D01*
G75*
G02*
X125466250Y-84295000I-218750J0D01*
G01*
X125028750Y-84295000D01*
G75*
G02*
X124810000Y-84076250I0J218750D01*
G01*
G37*
G36*
G01*
X123235000Y-84076250D02*
X123235000Y-83563750D01*
G75*
G02*
X123453750Y-83345000I218750J0D01*
G01*
X123891250Y-83345000D01*
G75*
G02*
X124110000Y-83563750I0J-218750D01*
G01*
X124110000Y-84076250D01*
G75*
G02*
X123891250Y-84295000I-218750J0D01*
G01*
X123453750Y-84295000D01*
G75*
G02*
X123235000Y-84076250I0J218750D01*
G01*
G37*
G04 #@! TD*
G04 #@! TO.C,R3*
G36*
G01*
X124810000Y-78996250D02*
X124810000Y-78483750D01*
G75*
G02*
X125028750Y-78265000I218750J0D01*
G01*
X125466250Y-78265000D01*
G75*
G02*
X125685000Y-78483750I0J-218750D01*
G01*
X125685000Y-78996250D01*
G75*
G02*
X125466250Y-79215000I-218750J0D01*
G01*
X125028750Y-79215000D01*
G75*
G02*
X124810000Y-78996250I0J218750D01*
G01*
G37*
G36*
G01*
X123235000Y-78996250D02*
X123235000Y-78483750D01*
G75*
G02*
X123453750Y-78265000I218750J0D01*
G01*
X123891250Y-78265000D01*
G75*
G02*
X124110000Y-78483750I0J-218750D01*
G01*
X124110000Y-78996250D01*
G75*
G02*
X123891250Y-79215000I-218750J0D01*
G01*
X123453750Y-79215000D01*
G75*
G02*
X123235000Y-78996250I0J218750D01*
G01*
G37*
G04 #@! TD*
G04 #@! TO.C,R2*
G36*
G01*
X116490000Y-83563750D02*
X116490000Y-84076250D01*
G75*
G02*
X116271250Y-84295000I-218750J0D01*
G01*
X115833750Y-84295000D01*
G75*
G02*
X115615000Y-84076250I0J218750D01*
G01*
X115615000Y-83563750D01*
G75*
G02*
X115833750Y-83345000I218750J0D01*
G01*
X116271250Y-83345000D01*
G75*
G02*
X116490000Y-83563750I0J-218750D01*
G01*
G37*
G36*
G01*
X118065000Y-83563750D02*
X118065000Y-84076250D01*
G75*
G02*
X117846250Y-84295000I-218750J0D01*
G01*
X117408750Y-84295000D01*
G75*
G02*
X117190000Y-84076250I0J218750D01*
G01*
X117190000Y-83563750D01*
G75*
G02*
X117408750Y-83345000I218750J0D01*
G01*
X117846250Y-83345000D01*
G75*
G02*
X118065000Y-83563750I0J-218750D01*
G01*
G37*
G04 #@! TD*
G04 #@! TO.C,R1*
G36*
G01*
X116490000Y-78483750D02*
X116490000Y-78996250D01*
G75*
G02*
X116271250Y-79215000I-218750J0D01*
G01*
X115833750Y-79215000D01*
G75*
G02*
X115615000Y-78996250I0J218750D01*
G01*
X115615000Y-78483750D01*
G75*
G02*
X115833750Y-78265000I218750J0D01*
G01*
X116271250Y-78265000D01*
G75*
G02*
X116490000Y-78483750I0J-218750D01*
G01*
G37*
G36*
G01*
X118065000Y-78483750D02*
X118065000Y-78996250D01*
G75*
G02*
X117846250Y-79215000I-218750J0D01*
G01*
X117408750Y-79215000D01*
G75*
G02*
X117190000Y-78996250I0J218750D01*
G01*
X117190000Y-78483750D01*
G75*
G02*
X117408750Y-78265000I218750J0D01*
G01*
X117846250Y-78265000D01*
G75*
G02*
X118065000Y-78483750I0J-218750D01*
G01*
G37*
G04 #@! TD*
M02*
