G04 #@! TF.GenerationSoftware,KiCad,Pcbnew,(5.1.6)-1*
G04 #@! TF.CreationDate,2020-09-10T20:19:44+09:00*
G04 #@! TF.ProjectId,ControllerPCB,436f6e74-726f-46c6-9c65-725043422e6b,rev?*
G04 #@! TF.SameCoordinates,Original*
G04 #@! TF.FileFunction,Paste,Top*
G04 #@! TF.FilePolarity,Positive*
%FSLAX46Y46*%
G04 Gerber Fmt 4.6, Leading zero omitted, Abs format (unit mm)*
G04 Created by KiCad (PCBNEW (5.1.6)-1) date 2020-09-10 20:19:44*
%MOMM*%
%LPD*%
G01*
G04 APERTURE LIST*
G04 APERTURE END LIST*
G04 #@! TO.C,R6*
G36*
G01*
X145158750Y-95600000D02*
X145671250Y-95600000D01*
G75*
G02*
X145890000Y-95818750I0J-218750D01*
G01*
X145890000Y-96256250D01*
G75*
G02*
X145671250Y-96475000I-218750J0D01*
G01*
X145158750Y-96475000D01*
G75*
G02*
X144940000Y-96256250I0J218750D01*
G01*
X144940000Y-95818750D01*
G75*
G02*
X145158750Y-95600000I218750J0D01*
G01*
G37*
G36*
G01*
X145158750Y-94025000D02*
X145671250Y-94025000D01*
G75*
G02*
X145890000Y-94243750I0J-218750D01*
G01*
X145890000Y-94681250D01*
G75*
G02*
X145671250Y-94900000I-218750J0D01*
G01*
X145158750Y-94900000D01*
G75*
G02*
X144940000Y-94681250I0J218750D01*
G01*
X144940000Y-94243750D01*
G75*
G02*
X145158750Y-94025000I218750J0D01*
G01*
G37*
G04 #@! TD*
G04 #@! TO.C,R5*
G36*
G01*
X156588750Y-95600000D02*
X157101250Y-95600000D01*
G75*
G02*
X157320000Y-95818750I0J-218750D01*
G01*
X157320000Y-96256250D01*
G75*
G02*
X157101250Y-96475000I-218750J0D01*
G01*
X156588750Y-96475000D01*
G75*
G02*
X156370000Y-96256250I0J218750D01*
G01*
X156370000Y-95818750D01*
G75*
G02*
X156588750Y-95600000I218750J0D01*
G01*
G37*
G36*
G01*
X156588750Y-94025000D02*
X157101250Y-94025000D01*
G75*
G02*
X157320000Y-94243750I0J-218750D01*
G01*
X157320000Y-94681250D01*
G75*
G02*
X157101250Y-94900000I-218750J0D01*
G01*
X156588750Y-94900000D01*
G75*
G02*
X156370000Y-94681250I0J218750D01*
G01*
X156370000Y-94243750D01*
G75*
G02*
X156588750Y-94025000I218750J0D01*
G01*
G37*
G04 #@! TD*
G04 #@! TO.C,D2*
G36*
G01*
X145671250Y-101250000D02*
X145158750Y-101250000D01*
G75*
G02*
X144940000Y-101031250I0J218750D01*
G01*
X144940000Y-100593750D01*
G75*
G02*
X145158750Y-100375000I218750J0D01*
G01*
X145671250Y-100375000D01*
G75*
G02*
X145890000Y-100593750I0J-218750D01*
G01*
X145890000Y-101031250D01*
G75*
G02*
X145671250Y-101250000I-218750J0D01*
G01*
G37*
G36*
G01*
X145671250Y-102825000D02*
X145158750Y-102825000D01*
G75*
G02*
X144940000Y-102606250I0J218750D01*
G01*
X144940000Y-102168750D01*
G75*
G02*
X145158750Y-101950000I218750J0D01*
G01*
X145671250Y-101950000D01*
G75*
G02*
X145890000Y-102168750I0J-218750D01*
G01*
X145890000Y-102606250D01*
G75*
G02*
X145671250Y-102825000I-218750J0D01*
G01*
G37*
G04 #@! TD*
G04 #@! TO.C,D1*
G36*
G01*
X157101250Y-101250000D02*
X156588750Y-101250000D01*
G75*
G02*
X156370000Y-101031250I0J218750D01*
G01*
X156370000Y-100593750D01*
G75*
G02*
X156588750Y-100375000I218750J0D01*
G01*
X157101250Y-100375000D01*
G75*
G02*
X157320000Y-100593750I0J-218750D01*
G01*
X157320000Y-101031250D01*
G75*
G02*
X157101250Y-101250000I-218750J0D01*
G01*
G37*
G36*
G01*
X157101250Y-102825000D02*
X156588750Y-102825000D01*
G75*
G02*
X156370000Y-102606250I0J218750D01*
G01*
X156370000Y-102168750D01*
G75*
G02*
X156588750Y-101950000I218750J0D01*
G01*
X157101250Y-101950000D01*
G75*
G02*
X157320000Y-102168750I0J-218750D01*
G01*
X157320000Y-102606250D01*
G75*
G02*
X157101250Y-102825000I-218750J0D01*
G01*
G37*
G04 #@! TD*
M02*
