G04 #@! TF.GenerationSoftware,KiCad,Pcbnew,(5.1.6)-1*
G04 #@! TF.CreationDate,2020-09-10T20:19:44+09:00*
G04 #@! TF.ProjectId,ControllerPCB,436f6e74-726f-46c6-9c65-725043422e6b,rev?*
G04 #@! TF.SameCoordinates,Original*
G04 #@! TF.FileFunction,Copper,L2,Bot*
G04 #@! TF.FilePolarity,Positive*
%FSLAX46Y46*%
G04 Gerber Fmt 4.6, Leading zero omitted, Abs format (unit mm)*
G04 Created by KiCad (PCBNEW (5.1.6)-1) date 2020-09-10 20:19:44*
%MOMM*%
%LPD*%
G01*
G04 APERTURE LIST*
G04 #@! TA.AperFunction,ComponentPad*
%ADD10O,1.905000X2.000000*%
G04 #@! TD*
G04 #@! TA.AperFunction,ComponentPad*
%ADD11R,1.905000X2.000000*%
G04 #@! TD*
G04 #@! TA.AperFunction,ComponentPad*
%ADD12C,2.000000*%
G04 #@! TD*
G04 #@! TA.AperFunction,ComponentPad*
%ADD13O,1.600000X1.600000*%
G04 #@! TD*
G04 #@! TA.AperFunction,ComponentPad*
%ADD14R,1.600000X1.600000*%
G04 #@! TD*
G04 #@! TA.AperFunction,ComponentPad*
%ADD15O,2.000000X1.700000*%
G04 #@! TD*
G04 #@! TA.AperFunction,ComponentPad*
%ADD16C,2.700000*%
G04 #@! TD*
G04 #@! TA.AperFunction,ComponentPad*
%ADD17C,1.600000*%
G04 #@! TD*
G04 #@! TA.AperFunction,ViaPad*
%ADD18C,0.800000*%
G04 #@! TD*
G04 #@! TA.AperFunction,Conductor*
%ADD19C,0.250000*%
G04 #@! TD*
G04 #@! TA.AperFunction,Conductor*
%ADD20C,0.254000*%
G04 #@! TD*
G04 APERTURE END LIST*
D10*
G04 #@! TO.P,U1,3*
G04 #@! TO.N,+3V3*
X167640000Y-87630000D03*
G04 #@! TO.P,U1,2*
G04 #@! TO.N,GND*
X165100000Y-87630000D03*
D11*
G04 #@! TO.P,U1,1*
G04 #@! TO.N,+5V*
X162560000Y-87630000D03*
G04 #@! TD*
D12*
G04 #@! TO.P,SW6,1*
G04 #@! TO.N,/ShutDown*
X192555000Y-97790000D03*
G04 #@! TO.P,SW6,2*
G04 #@! TO.N,GND*
X192555000Y-102290000D03*
G04 #@! TO.P,SW6,1*
G04 #@! TO.N,/ShutDown*
X186055000Y-97790000D03*
G04 #@! TO.P,SW6,2*
G04 #@! TO.N,GND*
X186055000Y-102290000D03*
G04 #@! TD*
G04 #@! TO.P,SW5,1*
G04 #@! TO.N,/stop_one*
X185570000Y-129540000D03*
G04 #@! TO.P,SW5,2*
G04 #@! TO.N,GND*
X185570000Y-134040000D03*
G04 #@! TO.P,SW5,1*
G04 #@! TO.N,/stop_one*
X179070000Y-129540000D03*
G04 #@! TO.P,SW5,2*
G04 #@! TO.N,GND*
X179070000Y-134040000D03*
G04 #@! TD*
G04 #@! TO.P,SW4,1*
G04 #@! TO.N,/stop_ten*
X172870000Y-129540000D03*
G04 #@! TO.P,SW4,2*
G04 #@! TO.N,GND*
X172870000Y-134040000D03*
G04 #@! TO.P,SW4,1*
G04 #@! TO.N,/stop_ten*
X166370000Y-129540000D03*
G04 #@! TO.P,SW4,2*
G04 #@! TO.N,GND*
X166370000Y-134040000D03*
G04 #@! TD*
G04 #@! TO.P,SW3,1*
G04 #@! TO.N,/roll_start*
X172870000Y-114300000D03*
G04 #@! TO.P,SW3,2*
G04 #@! TO.N,GND*
X172870000Y-118800000D03*
G04 #@! TO.P,SW3,1*
G04 #@! TO.N,/roll_start*
X166370000Y-114300000D03*
G04 #@! TO.P,SW3,2*
G04 #@! TO.N,GND*
X166370000Y-118800000D03*
G04 #@! TD*
G04 #@! TO.P,SW2,1*
G04 #@! TO.N,/stop_hun*
X160170000Y-129540000D03*
G04 #@! TO.P,SW2,2*
G04 #@! TO.N,GND*
X160170000Y-134040000D03*
G04 #@! TO.P,SW2,1*
G04 #@! TO.N,/stop_hun*
X153670000Y-129540000D03*
G04 #@! TO.P,SW2,2*
G04 #@! TO.N,GND*
X153670000Y-134040000D03*
G04 #@! TD*
G04 #@! TO.P,SW1,1*
G04 #@! TO.N,GND*
X130960000Y-97790000D03*
G04 #@! TO.P,SW1,2*
G04 #@! TO.N,/RESET*
X130960000Y-102290000D03*
G04 #@! TO.P,SW1,1*
G04 #@! TO.N,GND*
X124460000Y-97790000D03*
G04 #@! TO.P,SW1,2*
G04 #@! TO.N,/RESET*
X124460000Y-102290000D03*
G04 #@! TD*
G04 #@! TO.P,R4,2*
G04 #@! TO.N,/SDA*
G04 #@! TA.AperFunction,SMDPad,CuDef*
G36*
G01*
X124810000Y-84076250D02*
X124810000Y-83563750D01*
G75*
G02*
X125028750Y-83345000I218750J0D01*
G01*
X125466250Y-83345000D01*
G75*
G02*
X125685000Y-83563750I0J-218750D01*
G01*
X125685000Y-84076250D01*
G75*
G02*
X125466250Y-84295000I-218750J0D01*
G01*
X125028750Y-84295000D01*
G75*
G02*
X124810000Y-84076250I0J218750D01*
G01*
G37*
G04 #@! TD.AperFunction*
G04 #@! TO.P,R4,1*
G04 #@! TO.N,+3V3*
G04 #@! TA.AperFunction,SMDPad,CuDef*
G36*
G01*
X123235000Y-84076250D02*
X123235000Y-83563750D01*
G75*
G02*
X123453750Y-83345000I218750J0D01*
G01*
X123891250Y-83345000D01*
G75*
G02*
X124110000Y-83563750I0J-218750D01*
G01*
X124110000Y-84076250D01*
G75*
G02*
X123891250Y-84295000I-218750J0D01*
G01*
X123453750Y-84295000D01*
G75*
G02*
X123235000Y-84076250I0J218750D01*
G01*
G37*
G04 #@! TD.AperFunction*
G04 #@! TD*
G04 #@! TO.P,R3,2*
G04 #@! TO.N,/SCL*
G04 #@! TA.AperFunction,SMDPad,CuDef*
G36*
G01*
X124810000Y-78996250D02*
X124810000Y-78483750D01*
G75*
G02*
X125028750Y-78265000I218750J0D01*
G01*
X125466250Y-78265000D01*
G75*
G02*
X125685000Y-78483750I0J-218750D01*
G01*
X125685000Y-78996250D01*
G75*
G02*
X125466250Y-79215000I-218750J0D01*
G01*
X125028750Y-79215000D01*
G75*
G02*
X124810000Y-78996250I0J218750D01*
G01*
G37*
G04 #@! TD.AperFunction*
G04 #@! TO.P,R3,1*
G04 #@! TO.N,+3V3*
G04 #@! TA.AperFunction,SMDPad,CuDef*
G36*
G01*
X123235000Y-78996250D02*
X123235000Y-78483750D01*
G75*
G02*
X123453750Y-78265000I218750J0D01*
G01*
X123891250Y-78265000D01*
G75*
G02*
X124110000Y-78483750I0J-218750D01*
G01*
X124110000Y-78996250D01*
G75*
G02*
X123891250Y-79215000I-218750J0D01*
G01*
X123453750Y-79215000D01*
G75*
G02*
X123235000Y-78996250I0J218750D01*
G01*
G37*
G04 #@! TD.AperFunction*
G04 #@! TD*
G04 #@! TO.P,R2,2*
G04 #@! TO.N,/SCL_5V*
G04 #@! TA.AperFunction,SMDPad,CuDef*
G36*
G01*
X116490000Y-83563750D02*
X116490000Y-84076250D01*
G75*
G02*
X116271250Y-84295000I-218750J0D01*
G01*
X115833750Y-84295000D01*
G75*
G02*
X115615000Y-84076250I0J218750D01*
G01*
X115615000Y-83563750D01*
G75*
G02*
X115833750Y-83345000I218750J0D01*
G01*
X116271250Y-83345000D01*
G75*
G02*
X116490000Y-83563750I0J-218750D01*
G01*
G37*
G04 #@! TD.AperFunction*
G04 #@! TO.P,R2,1*
G04 #@! TO.N,+5V*
G04 #@! TA.AperFunction,SMDPad,CuDef*
G36*
G01*
X118065000Y-83563750D02*
X118065000Y-84076250D01*
G75*
G02*
X117846250Y-84295000I-218750J0D01*
G01*
X117408750Y-84295000D01*
G75*
G02*
X117190000Y-84076250I0J218750D01*
G01*
X117190000Y-83563750D01*
G75*
G02*
X117408750Y-83345000I218750J0D01*
G01*
X117846250Y-83345000D01*
G75*
G02*
X118065000Y-83563750I0J-218750D01*
G01*
G37*
G04 #@! TD.AperFunction*
G04 #@! TD*
G04 #@! TO.P,R1,2*
G04 #@! TO.N,/SDA_5V*
G04 #@! TA.AperFunction,SMDPad,CuDef*
G36*
G01*
X116490000Y-78483750D02*
X116490000Y-78996250D01*
G75*
G02*
X116271250Y-79215000I-218750J0D01*
G01*
X115833750Y-79215000D01*
G75*
G02*
X115615000Y-78996250I0J218750D01*
G01*
X115615000Y-78483750D01*
G75*
G02*
X115833750Y-78265000I218750J0D01*
G01*
X116271250Y-78265000D01*
G75*
G02*
X116490000Y-78483750I0J-218750D01*
G01*
G37*
G04 #@! TD.AperFunction*
G04 #@! TO.P,R1,1*
G04 #@! TO.N,+5V*
G04 #@! TA.AperFunction,SMDPad,CuDef*
G36*
G01*
X118065000Y-78483750D02*
X118065000Y-78996250D01*
G75*
G02*
X117846250Y-79215000I-218750J0D01*
G01*
X117408750Y-79215000D01*
G75*
G02*
X117190000Y-78996250I0J218750D01*
G01*
X117190000Y-78483750D01*
G75*
G02*
X117408750Y-78265000I218750J0D01*
G01*
X117846250Y-78265000D01*
G75*
G02*
X118065000Y-78483750I0J-218750D01*
G01*
G37*
G04 #@! TD.AperFunction*
G04 #@! TD*
D13*
G04 #@! TO.P,J6,8*
G04 #@! TO.N,+5V*
X142240000Y-80010000D03*
G04 #@! TO.P,J6,4*
G04 #@! TO.N,Net-(J6-Pad4)*
X134620000Y-87630000D03*
G04 #@! TO.P,J6,7*
G04 #@! TO.N,/SCL_5V*
X142240000Y-82550000D03*
G04 #@! TO.P,J6,3*
G04 #@! TO.N,/SDA*
X134620000Y-85090000D03*
G04 #@! TO.P,J6,6*
G04 #@! TO.N,/SDA_5V*
X142240000Y-85090000D03*
G04 #@! TO.P,J6,2*
G04 #@! TO.N,/SCL*
X134620000Y-82550000D03*
G04 #@! TO.P,J6,5*
G04 #@! TO.N,GND*
X142240000Y-87630000D03*
D14*
G04 #@! TO.P,J6,1*
G04 #@! TO.N,+3V3*
X134620000Y-80010000D03*
G04 #@! TD*
D15*
G04 #@! TO.P,J5,2*
G04 #@! TO.N,/SCL_5V*
X109220000Y-82510000D03*
G04 #@! TO.P,J5,1*
G04 #@! TO.N,/SDA_5V*
G04 #@! TA.AperFunction,ComponentPad*
G36*
G01*
X108470000Y-79160000D02*
X109970000Y-79160000D01*
G75*
G02*
X110220000Y-79410000I0J-250000D01*
G01*
X110220000Y-80610000D01*
G75*
G02*
X109970000Y-80860000I-250000J0D01*
G01*
X108470000Y-80860000D01*
G75*
G02*
X108220000Y-80610000I0J250000D01*
G01*
X108220000Y-79410000D01*
G75*
G02*
X108470000Y-79160000I250000J0D01*
G01*
G37*
G04 #@! TD.AperFunction*
G04 #@! TD*
D16*
G04 #@! TO.P,J4,4*
G04 #@! TO.N,GND*
X193040000Y-71570000D03*
G04 #@! TO.P,J4,3*
G04 #@! TO.N,+12V*
X193040000Y-67610000D03*
G04 #@! TO.P,J4,2*
G04 #@! TO.N,+5V*
X193040000Y-63650000D03*
G04 #@! TO.P,J4,1*
G04 #@! TO.N,+48V*
G04 #@! TA.AperFunction,ComponentPad*
G36*
G01*
X191940001Y-58340000D02*
X194139999Y-58340000D01*
G75*
G02*
X194390000Y-58590001I0J-250001D01*
G01*
X194390000Y-60789999D01*
G75*
G02*
X194139999Y-61040000I-250001J0D01*
G01*
X191940001Y-61040000D01*
G75*
G02*
X191690000Y-60789999I0J250001D01*
G01*
X191690000Y-58590001D01*
G75*
G02*
X191940001Y-58340000I250001J0D01*
G01*
G37*
G04 #@! TD.AperFunction*
G04 #@! TD*
D13*
G04 #@! TO.P,J3,28*
G04 #@! TO.N,+3V3*
X118110000Y-107950000D03*
G04 #@! TO.P,J3,14*
G04 #@! TO.N,GND*
X102870000Y-140970000D03*
G04 #@! TO.P,J3,27*
G04 #@! TO.N,Net-(J3-Pad27)*
X118110000Y-110490000D03*
G04 #@! TO.P,J3,13*
G04 #@! TO.N,/ShutDown*
X102870000Y-138430000D03*
G04 #@! TO.P,J3,26*
G04 #@! TO.N,Net-(J3-Pad26)*
X118110000Y-113030000D03*
G04 #@! TO.P,J3,12*
G04 #@! TO.N,/LED_roll*
X102870000Y-135890000D03*
G04 #@! TO.P,J3,25*
G04 #@! TO.N,Net-(J3-Pad25)*
X118110000Y-115570000D03*
G04 #@! TO.P,J3,11*
G04 #@! TO.N,/LED_ShutDown*
X102870000Y-133350000D03*
G04 #@! TO.P,J3,24*
G04 #@! TO.N,Net-(J3-Pad24)*
X118110000Y-118110000D03*
G04 #@! TO.P,J3,10*
G04 #@! TO.N,Net-(J3-Pad10)*
X102870000Y-130810000D03*
G04 #@! TO.P,J3,23*
G04 #@! TO.N,Net-(J3-Pad23)*
X118110000Y-120650000D03*
G04 #@! TO.P,J3,9*
G04 #@! TO.N,Net-(J3-Pad9)*
X102870000Y-128270000D03*
G04 #@! TO.P,J3,22*
G04 #@! TO.N,Net-(J3-Pad22)*
X118110000Y-123190000D03*
G04 #@! TO.P,J3,8*
G04 #@! TO.N,Net-(J3-Pad8)*
X102870000Y-125730000D03*
G04 #@! TO.P,J3,21*
G04 #@! TO.N,/RESET*
X118110000Y-125730000D03*
G04 #@! TO.P,J3,7*
G04 #@! TO.N,Net-(J3-Pad7)*
X102870000Y-123190000D03*
G04 #@! TO.P,J3,20*
G04 #@! TO.N,Net-(J3-Pad20)*
X118110000Y-128270000D03*
G04 #@! TO.P,J3,6*
G04 #@! TO.N,Net-(J3-Pad6)*
X102870000Y-120650000D03*
G04 #@! TO.P,J3,19*
G04 #@! TO.N,/SDA*
X118110000Y-130810000D03*
G04 #@! TO.P,J3,5*
G04 #@! TO.N,Net-(J3-Pad5)*
X102870000Y-118110000D03*
G04 #@! TO.P,J3,18*
G04 #@! TO.N,/stop_hun*
X118110000Y-133350000D03*
G04 #@! TO.P,J3,4*
G04 #@! TO.N,Net-(J3-Pad4)*
X102870000Y-115570000D03*
G04 #@! TO.P,J3,17*
G04 #@! TO.N,/stop_ten*
X118110000Y-135890000D03*
G04 #@! TO.P,J3,3*
G04 #@! TO.N,Net-(J3-Pad3)*
X102870000Y-113030000D03*
G04 #@! TO.P,J3,16*
G04 #@! TO.N,/stop_one*
X118110000Y-138430000D03*
G04 #@! TO.P,J3,2*
G04 #@! TO.N,/SCL*
X102870000Y-110490000D03*
G04 #@! TO.P,J3,15*
G04 #@! TO.N,/roll_start*
X118110000Y-140970000D03*
D14*
G04 #@! TO.P,J3,1*
G04 #@! TO.N,GND*
X102870000Y-107950000D03*
G04 #@! TD*
D15*
G04 #@! TO.P,J2,2*
G04 #@! TO.N,/SCL_5V*
X193040000Y-82510000D03*
G04 #@! TO.P,J2,1*
G04 #@! TO.N,/SDA_5V*
G04 #@! TA.AperFunction,ComponentPad*
G36*
G01*
X192290000Y-79160000D02*
X193790000Y-79160000D01*
G75*
G02*
X194040000Y-79410000I0J-250000D01*
G01*
X194040000Y-80610000D01*
G75*
G02*
X193790000Y-80860000I-250000J0D01*
G01*
X192290000Y-80860000D01*
G75*
G02*
X192040000Y-80610000I0J250000D01*
G01*
X192040000Y-79410000D01*
G75*
G02*
X192290000Y-79160000I250000J0D01*
G01*
G37*
G04 #@! TD.AperFunction*
G04 #@! TD*
D16*
G04 #@! TO.P,J1,4*
G04 #@! TO.N,GND*
X109220000Y-71570000D03*
G04 #@! TO.P,J1,3*
G04 #@! TO.N,+12V*
X109220000Y-67610000D03*
G04 #@! TO.P,J1,2*
G04 #@! TO.N,+5V*
X109220000Y-63650000D03*
G04 #@! TO.P,J1,1*
G04 #@! TO.N,+48V*
G04 #@! TA.AperFunction,ComponentPad*
G36*
G01*
X108120001Y-58340000D02*
X110319999Y-58340000D01*
G75*
G02*
X110570000Y-58590001I0J-250001D01*
G01*
X110570000Y-60789999D01*
G75*
G02*
X110319999Y-61040000I-250001J0D01*
G01*
X108120001Y-61040000D01*
G75*
G02*
X107870000Y-60789999I0J250001D01*
G01*
X107870000Y-58590001D01*
G75*
G02*
X108120001Y-58340000I250001J0D01*
G01*
G37*
G04 #@! TD.AperFunction*
G04 #@! TD*
D17*
G04 #@! TO.P,C2,2*
G04 #@! TO.N,GND*
X172180000Y-80010000D03*
D14*
G04 #@! TO.P,C2,1*
G04 #@! TO.N,+3V3*
X170180000Y-80010000D03*
G04 #@! TD*
D17*
G04 #@! TO.P,C1,2*
G04 #@! TO.N,GND*
X159480000Y-80010000D03*
D14*
G04 #@! TO.P,C1,1*
G04 #@! TO.N,+5V*
X157480000Y-80010000D03*
G04 #@! TD*
D18*
G04 #@! TO.N,GND*
X170000000Y-65000000D03*
G04 #@! TD*
D19*
G04 #@! TO.N,GND*
X163768200Y-84298200D02*
X165100000Y-85630000D01*
X165100000Y-85630000D02*
X165100000Y-87630000D01*
X159480000Y-80010000D02*
X163768200Y-84298200D01*
X172180000Y-80010000D02*
X172180000Y-79949900D01*
X172180000Y-79949900D02*
X171114700Y-78884600D01*
X171114700Y-78884600D02*
X169181800Y-78884600D01*
X169181800Y-78884600D02*
X163768200Y-84298200D01*
X174207000Y-132703000D02*
X172870000Y-134040000D01*
X172870000Y-118800000D02*
X174207000Y-120137000D01*
X174207000Y-120137000D02*
X174207000Y-132703000D01*
X174207000Y-132703000D02*
X177733000Y-132703000D01*
X177733000Y-132703000D02*
X179070000Y-134040000D01*
X142240000Y-87630000D02*
X141114700Y-87630000D01*
X141114700Y-87630000D02*
X141114700Y-87635300D01*
X141114700Y-87635300D02*
X130960000Y-97790000D01*
G04 #@! TO.N,+5V*
X162560000Y-87630000D02*
X163909500Y-88979500D01*
X163909500Y-88979500D02*
X168157400Y-88979500D01*
X168157400Y-88979500D02*
X193040000Y-64096900D01*
X193040000Y-64096900D02*
X193040000Y-63650000D01*
X157480000Y-81135300D02*
X162560000Y-86215300D01*
X162560000Y-86215300D02*
X162560000Y-87630000D01*
X142240000Y-80010000D02*
X143365300Y-80010000D01*
X157480000Y-80572600D02*
X143927900Y-80572600D01*
X143927900Y-80572600D02*
X143365300Y-80010000D01*
X157480000Y-80572600D02*
X157480000Y-81135300D01*
X157480000Y-80010000D02*
X157480000Y-80572600D01*
X119383600Y-76983900D02*
X117627500Y-78740000D01*
X141114700Y-80010000D02*
X138088600Y-76983900D01*
X138088600Y-76983900D02*
X119383600Y-76983900D01*
X109220000Y-63650000D02*
X119383600Y-73813600D01*
X119383600Y-73813600D02*
X119383600Y-76983900D01*
X142240000Y-80010000D02*
X141114700Y-80010000D01*
X117627500Y-78740000D02*
X117627500Y-83820000D01*
G04 #@! TO.N,+3V3*
X170180000Y-80010000D02*
X170180000Y-81135300D01*
X170180000Y-81135300D02*
X167640000Y-83675300D01*
X167640000Y-83675300D02*
X167640000Y-87630000D01*
X123672500Y-83820000D02*
X118110000Y-89382500D01*
X118110000Y-89382500D02*
X118110000Y-107950000D01*
X125137500Y-80205000D02*
X125137500Y-82355000D01*
X125137500Y-82355000D02*
X123672500Y-83820000D01*
X123672500Y-78740000D02*
X125137500Y-80205000D01*
X134620000Y-80010000D02*
X125332500Y-80010000D01*
X125332500Y-80010000D02*
X125137500Y-80205000D01*
G04 #@! TO.N,/SCL_5V*
X142240000Y-82550000D02*
X141114700Y-82550000D01*
X141114700Y-82550000D02*
X136050400Y-77485700D01*
X136050400Y-77485700D02*
X123034900Y-77485700D01*
X123034900Y-77485700D02*
X119158100Y-81362500D01*
X119158100Y-81362500D02*
X119158100Y-83539200D01*
X119158100Y-83539200D02*
X118075900Y-84621400D01*
X118075900Y-84621400D02*
X116853900Y-84621400D01*
X116853900Y-84621400D02*
X116052500Y-83820000D01*
X109220000Y-82510000D02*
X114742500Y-82510000D01*
X114742500Y-82510000D02*
X116052500Y-83820000D01*
G04 #@! TO.N,/SDA_5V*
X109220000Y-80010000D02*
X114782500Y-80010000D01*
X114782500Y-80010000D02*
X116052500Y-78740000D01*
G04 #@! TO.N,/RESET*
X124460000Y-102290000D02*
X124460000Y-118459000D01*
X124460000Y-118459000D02*
X118314300Y-124604700D01*
X118314300Y-124604700D02*
X118110000Y-124604700D01*
X118110000Y-125730000D02*
X118110000Y-124604700D01*
G04 #@! TO.N,/SDA*
X126517500Y-85090000D02*
X125247500Y-83820000D01*
X134620000Y-85090000D02*
X126517500Y-85090000D01*
X126517500Y-85090000D02*
X126517500Y-121558500D01*
X126517500Y-121558500D02*
X118391300Y-129684700D01*
X118391300Y-129684700D02*
X118110000Y-129684700D01*
X118110000Y-130810000D02*
X118110000Y-129684700D01*
G04 #@! TO.N,/SCL*
X134620000Y-81424700D02*
X135323300Y-81424700D01*
X135323300Y-81424700D02*
X135745400Y-81002600D01*
X135745400Y-81002600D02*
X135745400Y-79066100D01*
X135745400Y-79066100D02*
X135419300Y-78740000D01*
X135419300Y-78740000D02*
X125247500Y-78740000D01*
X134620000Y-82550000D02*
X134620000Y-81424700D01*
X123220100Y-77937400D02*
X124444900Y-77937400D01*
X122395900Y-78761600D02*
X123220100Y-77937400D01*
X124444900Y-77937400D02*
X125247500Y-78740000D01*
X111760000Y-87630000D02*
X117386300Y-87630000D01*
X102870000Y-110490000D02*
X102870000Y-109364700D01*
X122395900Y-82620400D02*
X122395900Y-78761600D01*
X117386300Y-87630000D02*
X122395900Y-82620400D01*
X103573400Y-109364700D02*
X103995300Y-108942800D01*
X102870000Y-109364700D02*
X103573400Y-109364700D01*
X103995300Y-108942800D02*
X103995300Y-95394700D01*
X103995300Y-95394700D02*
X111760000Y-87630000D01*
G04 #@! TO.N,/roll_start*
X118110000Y-140970000D02*
X119235300Y-140970000D01*
X119235300Y-140970000D02*
X145905300Y-114300000D01*
X145905300Y-114300000D02*
X166370000Y-114300000D01*
G04 #@! TD*
D20*
G04 #@! TO.N,GND*
G36*
X199340001Y-149340000D02*
G01*
X100660000Y-149340000D01*
X100660000Y-141319039D01*
X101478096Y-141319039D01*
X101518754Y-141453087D01*
X101638963Y-141707420D01*
X101806481Y-141933414D01*
X102014869Y-142122385D01*
X102256119Y-142267070D01*
X102520960Y-142361909D01*
X102743000Y-142240624D01*
X102743000Y-141097000D01*
X102997000Y-141097000D01*
X102997000Y-142240624D01*
X103219040Y-142361909D01*
X103483881Y-142267070D01*
X103725131Y-142122385D01*
X103933519Y-141933414D01*
X104101037Y-141707420D01*
X104221246Y-141453087D01*
X104261904Y-141319039D01*
X104139915Y-141097000D01*
X102997000Y-141097000D01*
X102743000Y-141097000D01*
X101600085Y-141097000D01*
X101478096Y-141319039D01*
X100660000Y-141319039D01*
X100660000Y-108750000D01*
X101431928Y-108750000D01*
X101444188Y-108874482D01*
X101480498Y-108994180D01*
X101539463Y-109104494D01*
X101618815Y-109201185D01*
X101715506Y-109280537D01*
X101825820Y-109339502D01*
X101945518Y-109375812D01*
X101953961Y-109376643D01*
X101755363Y-109575241D01*
X101598320Y-109810273D01*
X101490147Y-110071426D01*
X101435000Y-110348665D01*
X101435000Y-110631335D01*
X101490147Y-110908574D01*
X101598320Y-111169727D01*
X101755363Y-111404759D01*
X101955241Y-111604637D01*
X102187759Y-111760000D01*
X101955241Y-111915363D01*
X101755363Y-112115241D01*
X101598320Y-112350273D01*
X101490147Y-112611426D01*
X101435000Y-112888665D01*
X101435000Y-113171335D01*
X101490147Y-113448574D01*
X101598320Y-113709727D01*
X101755363Y-113944759D01*
X101955241Y-114144637D01*
X102187759Y-114300000D01*
X101955241Y-114455363D01*
X101755363Y-114655241D01*
X101598320Y-114890273D01*
X101490147Y-115151426D01*
X101435000Y-115428665D01*
X101435000Y-115711335D01*
X101490147Y-115988574D01*
X101598320Y-116249727D01*
X101755363Y-116484759D01*
X101955241Y-116684637D01*
X102187759Y-116840000D01*
X101955241Y-116995363D01*
X101755363Y-117195241D01*
X101598320Y-117430273D01*
X101490147Y-117691426D01*
X101435000Y-117968665D01*
X101435000Y-118251335D01*
X101490147Y-118528574D01*
X101598320Y-118789727D01*
X101755363Y-119024759D01*
X101955241Y-119224637D01*
X102187759Y-119380000D01*
X101955241Y-119535363D01*
X101755363Y-119735241D01*
X101598320Y-119970273D01*
X101490147Y-120231426D01*
X101435000Y-120508665D01*
X101435000Y-120791335D01*
X101490147Y-121068574D01*
X101598320Y-121329727D01*
X101755363Y-121564759D01*
X101955241Y-121764637D01*
X102187759Y-121920000D01*
X101955241Y-122075363D01*
X101755363Y-122275241D01*
X101598320Y-122510273D01*
X101490147Y-122771426D01*
X101435000Y-123048665D01*
X101435000Y-123331335D01*
X101490147Y-123608574D01*
X101598320Y-123869727D01*
X101755363Y-124104759D01*
X101955241Y-124304637D01*
X102187759Y-124460000D01*
X101955241Y-124615363D01*
X101755363Y-124815241D01*
X101598320Y-125050273D01*
X101490147Y-125311426D01*
X101435000Y-125588665D01*
X101435000Y-125871335D01*
X101490147Y-126148574D01*
X101598320Y-126409727D01*
X101755363Y-126644759D01*
X101955241Y-126844637D01*
X102187759Y-127000000D01*
X101955241Y-127155363D01*
X101755363Y-127355241D01*
X101598320Y-127590273D01*
X101490147Y-127851426D01*
X101435000Y-128128665D01*
X101435000Y-128411335D01*
X101490147Y-128688574D01*
X101598320Y-128949727D01*
X101755363Y-129184759D01*
X101955241Y-129384637D01*
X102187759Y-129540000D01*
X101955241Y-129695363D01*
X101755363Y-129895241D01*
X101598320Y-130130273D01*
X101490147Y-130391426D01*
X101435000Y-130668665D01*
X101435000Y-130951335D01*
X101490147Y-131228574D01*
X101598320Y-131489727D01*
X101755363Y-131724759D01*
X101955241Y-131924637D01*
X102187759Y-132080000D01*
X101955241Y-132235363D01*
X101755363Y-132435241D01*
X101598320Y-132670273D01*
X101490147Y-132931426D01*
X101435000Y-133208665D01*
X101435000Y-133491335D01*
X101490147Y-133768574D01*
X101598320Y-134029727D01*
X101755363Y-134264759D01*
X101955241Y-134464637D01*
X102187759Y-134620000D01*
X101955241Y-134775363D01*
X101755363Y-134975241D01*
X101598320Y-135210273D01*
X101490147Y-135471426D01*
X101435000Y-135748665D01*
X101435000Y-136031335D01*
X101490147Y-136308574D01*
X101598320Y-136569727D01*
X101755363Y-136804759D01*
X101955241Y-137004637D01*
X102187759Y-137160000D01*
X101955241Y-137315363D01*
X101755363Y-137515241D01*
X101598320Y-137750273D01*
X101490147Y-138011426D01*
X101435000Y-138288665D01*
X101435000Y-138571335D01*
X101490147Y-138848574D01*
X101598320Y-139109727D01*
X101755363Y-139344759D01*
X101955241Y-139544637D01*
X102190273Y-139701680D01*
X102200865Y-139706067D01*
X102014869Y-139817615D01*
X101806481Y-140006586D01*
X101638963Y-140232580D01*
X101518754Y-140486913D01*
X101478096Y-140620961D01*
X101600085Y-140843000D01*
X102743000Y-140843000D01*
X102743000Y-140823000D01*
X102997000Y-140823000D01*
X102997000Y-140843000D01*
X104139915Y-140843000D01*
X104261904Y-140620961D01*
X104221246Y-140486913D01*
X104101037Y-140232580D01*
X103933519Y-140006586D01*
X103725131Y-139817615D01*
X103539135Y-139706067D01*
X103549727Y-139701680D01*
X103784759Y-139544637D01*
X103984637Y-139344759D01*
X104141680Y-139109727D01*
X104249853Y-138848574D01*
X104305000Y-138571335D01*
X104305000Y-138288665D01*
X104249853Y-138011426D01*
X104141680Y-137750273D01*
X103984637Y-137515241D01*
X103784759Y-137315363D01*
X103552241Y-137160000D01*
X103784759Y-137004637D01*
X103984637Y-136804759D01*
X104141680Y-136569727D01*
X104249853Y-136308574D01*
X104305000Y-136031335D01*
X104305000Y-135748665D01*
X104249853Y-135471426D01*
X104141680Y-135210273D01*
X103984637Y-134975241D01*
X103784759Y-134775363D01*
X103552241Y-134620000D01*
X103784759Y-134464637D01*
X103984637Y-134264759D01*
X104141680Y-134029727D01*
X104249853Y-133768574D01*
X104305000Y-133491335D01*
X104305000Y-133208665D01*
X104249853Y-132931426D01*
X104141680Y-132670273D01*
X103984637Y-132435241D01*
X103784759Y-132235363D01*
X103552241Y-132080000D01*
X103784759Y-131924637D01*
X103984637Y-131724759D01*
X104141680Y-131489727D01*
X104249853Y-131228574D01*
X104305000Y-130951335D01*
X104305000Y-130668665D01*
X104249853Y-130391426D01*
X104141680Y-130130273D01*
X103984637Y-129895241D01*
X103784759Y-129695363D01*
X103552241Y-129540000D01*
X103784759Y-129384637D01*
X103984637Y-129184759D01*
X104141680Y-128949727D01*
X104249853Y-128688574D01*
X104305000Y-128411335D01*
X104305000Y-128128665D01*
X104249853Y-127851426D01*
X104141680Y-127590273D01*
X103984637Y-127355241D01*
X103784759Y-127155363D01*
X103552241Y-127000000D01*
X103784759Y-126844637D01*
X103984637Y-126644759D01*
X104141680Y-126409727D01*
X104249853Y-126148574D01*
X104305000Y-125871335D01*
X104305000Y-125588665D01*
X104249853Y-125311426D01*
X104141680Y-125050273D01*
X103984637Y-124815241D01*
X103784759Y-124615363D01*
X103552241Y-124460000D01*
X103784759Y-124304637D01*
X103984637Y-124104759D01*
X104141680Y-123869727D01*
X104249853Y-123608574D01*
X104305000Y-123331335D01*
X104305000Y-123048665D01*
X104249853Y-122771426D01*
X104141680Y-122510273D01*
X103984637Y-122275241D01*
X103784759Y-122075363D01*
X103552241Y-121920000D01*
X103784759Y-121764637D01*
X103984637Y-121564759D01*
X104141680Y-121329727D01*
X104249853Y-121068574D01*
X104305000Y-120791335D01*
X104305000Y-120508665D01*
X104249853Y-120231426D01*
X104141680Y-119970273D01*
X103984637Y-119735241D01*
X103784759Y-119535363D01*
X103552241Y-119380000D01*
X103784759Y-119224637D01*
X103984637Y-119024759D01*
X104141680Y-118789727D01*
X104249853Y-118528574D01*
X104305000Y-118251335D01*
X104305000Y-117968665D01*
X104249853Y-117691426D01*
X104141680Y-117430273D01*
X103984637Y-117195241D01*
X103784759Y-116995363D01*
X103552241Y-116840000D01*
X103784759Y-116684637D01*
X103984637Y-116484759D01*
X104141680Y-116249727D01*
X104249853Y-115988574D01*
X104305000Y-115711335D01*
X104305000Y-115428665D01*
X104249853Y-115151426D01*
X104141680Y-114890273D01*
X103984637Y-114655241D01*
X103784759Y-114455363D01*
X103552241Y-114300000D01*
X103784759Y-114144637D01*
X103984637Y-113944759D01*
X104141680Y-113709727D01*
X104249853Y-113448574D01*
X104305000Y-113171335D01*
X104305000Y-112888665D01*
X104249853Y-112611426D01*
X104141680Y-112350273D01*
X103984637Y-112115241D01*
X103784759Y-111915363D01*
X103552241Y-111760000D01*
X103784759Y-111604637D01*
X103984637Y-111404759D01*
X104141680Y-111169727D01*
X104249853Y-110908574D01*
X104305000Y-110631335D01*
X104305000Y-110348665D01*
X104249853Y-110071426D01*
X104159531Y-109853370D01*
X104506298Y-109506603D01*
X104535301Y-109482801D01*
X104630274Y-109367076D01*
X104700846Y-109235047D01*
X104744303Y-109091786D01*
X104755300Y-108980133D01*
X104755300Y-108980125D01*
X104758976Y-108942800D01*
X104755300Y-108905475D01*
X104755300Y-99317285D01*
X106655000Y-99317285D01*
X106655000Y-100072715D01*
X106802377Y-100813628D01*
X107091467Y-101511554D01*
X107511161Y-102139670D01*
X108045330Y-102673839D01*
X108673446Y-103093533D01*
X109371372Y-103382623D01*
X110112285Y-103530000D01*
X110867715Y-103530000D01*
X111608628Y-103382623D01*
X112306554Y-103093533D01*
X112934670Y-102673839D01*
X113468839Y-102139670D01*
X113888533Y-101511554D01*
X114177623Y-100813628D01*
X114325000Y-100072715D01*
X114325000Y-99317285D01*
X114177623Y-98576372D01*
X113888533Y-97878446D01*
X113468839Y-97250330D01*
X112934670Y-96716161D01*
X112306554Y-96296467D01*
X111608628Y-96007377D01*
X110867715Y-95860000D01*
X110112285Y-95860000D01*
X109371372Y-96007377D01*
X108673446Y-96296467D01*
X108045330Y-96716161D01*
X107511161Y-97250330D01*
X107091467Y-97878446D01*
X106802377Y-98576372D01*
X106655000Y-99317285D01*
X104755300Y-99317285D01*
X104755300Y-95709501D01*
X112074802Y-88390000D01*
X117348978Y-88390000D01*
X117386300Y-88393676D01*
X117423622Y-88390000D01*
X117423633Y-88390000D01*
X117535286Y-88379003D01*
X117678547Y-88335546D01*
X117810576Y-88264974D01*
X117926301Y-88170001D01*
X117950104Y-88140997D01*
X122604529Y-83486572D01*
X122596928Y-83563750D01*
X122596928Y-83820770D01*
X117599003Y-88818696D01*
X117569999Y-88842499D01*
X117521431Y-88901680D01*
X117475026Y-88958224D01*
X117417953Y-89065000D01*
X117404454Y-89090254D01*
X117360997Y-89233515D01*
X117350000Y-89345168D01*
X117350000Y-89345178D01*
X117346324Y-89382500D01*
X117350000Y-89419822D01*
X117350001Y-106731956D01*
X117195241Y-106835363D01*
X116995363Y-107035241D01*
X116838320Y-107270273D01*
X116730147Y-107531426D01*
X116675000Y-107808665D01*
X116675000Y-108091335D01*
X116730147Y-108368574D01*
X116838320Y-108629727D01*
X116995363Y-108864759D01*
X117195241Y-109064637D01*
X117427759Y-109220000D01*
X117195241Y-109375363D01*
X116995363Y-109575241D01*
X116838320Y-109810273D01*
X116730147Y-110071426D01*
X116675000Y-110348665D01*
X116675000Y-110631335D01*
X116730147Y-110908574D01*
X116838320Y-111169727D01*
X116995363Y-111404759D01*
X117195241Y-111604637D01*
X117427759Y-111760000D01*
X117195241Y-111915363D01*
X116995363Y-112115241D01*
X116838320Y-112350273D01*
X116730147Y-112611426D01*
X116675000Y-112888665D01*
X116675000Y-113171335D01*
X116730147Y-113448574D01*
X116838320Y-113709727D01*
X116995363Y-113944759D01*
X117195241Y-114144637D01*
X117427759Y-114300000D01*
X117195241Y-114455363D01*
X116995363Y-114655241D01*
X116838320Y-114890273D01*
X116730147Y-115151426D01*
X116675000Y-115428665D01*
X116675000Y-115711335D01*
X116730147Y-115988574D01*
X116838320Y-116249727D01*
X116995363Y-116484759D01*
X117195241Y-116684637D01*
X117427759Y-116840000D01*
X117195241Y-116995363D01*
X116995363Y-117195241D01*
X116838320Y-117430273D01*
X116730147Y-117691426D01*
X116675000Y-117968665D01*
X116675000Y-118251335D01*
X116730147Y-118528574D01*
X116838320Y-118789727D01*
X116995363Y-119024759D01*
X117195241Y-119224637D01*
X117427759Y-119380000D01*
X117195241Y-119535363D01*
X116995363Y-119735241D01*
X116838320Y-119970273D01*
X116730147Y-120231426D01*
X116675000Y-120508665D01*
X116675000Y-120791335D01*
X116730147Y-121068574D01*
X116838320Y-121329727D01*
X116995363Y-121564759D01*
X117195241Y-121764637D01*
X117427759Y-121920000D01*
X117195241Y-122075363D01*
X116995363Y-122275241D01*
X116838320Y-122510273D01*
X116730147Y-122771426D01*
X116675000Y-123048665D01*
X116675000Y-123331335D01*
X116730147Y-123608574D01*
X116838320Y-123869727D01*
X116995363Y-124104759D01*
X117195241Y-124304637D01*
X117371167Y-124422187D01*
X117360997Y-124455714D01*
X117355842Y-124508053D01*
X117195241Y-124615363D01*
X116995363Y-124815241D01*
X116838320Y-125050273D01*
X116730147Y-125311426D01*
X116675000Y-125588665D01*
X116675000Y-125871335D01*
X116730147Y-126148574D01*
X116838320Y-126409727D01*
X116995363Y-126644759D01*
X117195241Y-126844637D01*
X117427759Y-127000000D01*
X117195241Y-127155363D01*
X116995363Y-127355241D01*
X116838320Y-127590273D01*
X116730147Y-127851426D01*
X116675000Y-128128665D01*
X116675000Y-128411335D01*
X116730147Y-128688574D01*
X116838320Y-128949727D01*
X116995363Y-129184759D01*
X117195241Y-129384637D01*
X117371167Y-129502187D01*
X117360997Y-129535714D01*
X117355842Y-129588053D01*
X117195241Y-129695363D01*
X116995363Y-129895241D01*
X116838320Y-130130273D01*
X116730147Y-130391426D01*
X116675000Y-130668665D01*
X116675000Y-130951335D01*
X116730147Y-131228574D01*
X116838320Y-131489727D01*
X116995363Y-131724759D01*
X117195241Y-131924637D01*
X117427759Y-132080000D01*
X117195241Y-132235363D01*
X116995363Y-132435241D01*
X116838320Y-132670273D01*
X116730147Y-132931426D01*
X116675000Y-133208665D01*
X116675000Y-133491335D01*
X116730147Y-133768574D01*
X116838320Y-134029727D01*
X116995363Y-134264759D01*
X117195241Y-134464637D01*
X117427759Y-134620000D01*
X117195241Y-134775363D01*
X116995363Y-134975241D01*
X116838320Y-135210273D01*
X116730147Y-135471426D01*
X116675000Y-135748665D01*
X116675000Y-136031335D01*
X116730147Y-136308574D01*
X116838320Y-136569727D01*
X116995363Y-136804759D01*
X117195241Y-137004637D01*
X117427759Y-137160000D01*
X117195241Y-137315363D01*
X116995363Y-137515241D01*
X116838320Y-137750273D01*
X116730147Y-138011426D01*
X116675000Y-138288665D01*
X116675000Y-138571335D01*
X116730147Y-138848574D01*
X116838320Y-139109727D01*
X116995363Y-139344759D01*
X117195241Y-139544637D01*
X117427759Y-139700000D01*
X117195241Y-139855363D01*
X116995363Y-140055241D01*
X116838320Y-140290273D01*
X116730147Y-140551426D01*
X116675000Y-140828665D01*
X116675000Y-141111335D01*
X116730147Y-141388574D01*
X116838320Y-141649727D01*
X116995363Y-141884759D01*
X117195241Y-142084637D01*
X117430273Y-142241680D01*
X117691426Y-142349853D01*
X117968665Y-142405000D01*
X118251335Y-142405000D01*
X118528574Y-142349853D01*
X118789727Y-142241680D01*
X119024759Y-142084637D01*
X119224637Y-141884759D01*
X119331947Y-141724158D01*
X119384286Y-141719003D01*
X119527547Y-141675546D01*
X119659576Y-141604974D01*
X119775301Y-141510001D01*
X119799104Y-141480997D01*
X126104688Y-135175413D01*
X152714192Y-135175413D01*
X152809956Y-135439814D01*
X153099571Y-135580704D01*
X153411108Y-135662384D01*
X153732595Y-135681718D01*
X154051675Y-135637961D01*
X154356088Y-135532795D01*
X154530044Y-135439814D01*
X154625808Y-135175413D01*
X159214192Y-135175413D01*
X159309956Y-135439814D01*
X159599571Y-135580704D01*
X159911108Y-135662384D01*
X160232595Y-135681718D01*
X160551675Y-135637961D01*
X160856088Y-135532795D01*
X161030044Y-135439814D01*
X161125808Y-135175413D01*
X165414192Y-135175413D01*
X165509956Y-135439814D01*
X165799571Y-135580704D01*
X166111108Y-135662384D01*
X166432595Y-135681718D01*
X166751675Y-135637961D01*
X167056088Y-135532795D01*
X167230044Y-135439814D01*
X167325808Y-135175413D01*
X171914192Y-135175413D01*
X172009956Y-135439814D01*
X172299571Y-135580704D01*
X172611108Y-135662384D01*
X172932595Y-135681718D01*
X173251675Y-135637961D01*
X173556088Y-135532795D01*
X173730044Y-135439814D01*
X173825808Y-135175413D01*
X178114192Y-135175413D01*
X178209956Y-135439814D01*
X178499571Y-135580704D01*
X178811108Y-135662384D01*
X179132595Y-135681718D01*
X179451675Y-135637961D01*
X179756088Y-135532795D01*
X179930044Y-135439814D01*
X180025808Y-135175413D01*
X184614192Y-135175413D01*
X184709956Y-135439814D01*
X184999571Y-135580704D01*
X185311108Y-135662384D01*
X185632595Y-135681718D01*
X185951675Y-135637961D01*
X186256088Y-135532795D01*
X186430044Y-135439814D01*
X186525808Y-135175413D01*
X185570000Y-134219605D01*
X184614192Y-135175413D01*
X180025808Y-135175413D01*
X179070000Y-134219605D01*
X178114192Y-135175413D01*
X173825808Y-135175413D01*
X172870000Y-134219605D01*
X171914192Y-135175413D01*
X167325808Y-135175413D01*
X166370000Y-134219605D01*
X165414192Y-135175413D01*
X161125808Y-135175413D01*
X160170000Y-134219605D01*
X159214192Y-135175413D01*
X154625808Y-135175413D01*
X153670000Y-134219605D01*
X152714192Y-135175413D01*
X126104688Y-135175413D01*
X127177506Y-134102595D01*
X152028282Y-134102595D01*
X152072039Y-134421675D01*
X152177205Y-134726088D01*
X152270186Y-134900044D01*
X152534587Y-134995808D01*
X153490395Y-134040000D01*
X153849605Y-134040000D01*
X154805413Y-134995808D01*
X155069814Y-134900044D01*
X155210704Y-134610429D01*
X155292384Y-134298892D01*
X155304189Y-134102595D01*
X158528282Y-134102595D01*
X158572039Y-134421675D01*
X158677205Y-134726088D01*
X158770186Y-134900044D01*
X159034587Y-134995808D01*
X159990395Y-134040000D01*
X160349605Y-134040000D01*
X161305413Y-134995808D01*
X161569814Y-134900044D01*
X161710704Y-134610429D01*
X161792384Y-134298892D01*
X161804189Y-134102595D01*
X164728282Y-134102595D01*
X164772039Y-134421675D01*
X164877205Y-134726088D01*
X164970186Y-134900044D01*
X165234587Y-134995808D01*
X166190395Y-134040000D01*
X166549605Y-134040000D01*
X167505413Y-134995808D01*
X167769814Y-134900044D01*
X167910704Y-134610429D01*
X167992384Y-134298892D01*
X168004189Y-134102595D01*
X171228282Y-134102595D01*
X171272039Y-134421675D01*
X171377205Y-134726088D01*
X171470186Y-134900044D01*
X171734587Y-134995808D01*
X172690395Y-134040000D01*
X173049605Y-134040000D01*
X174005413Y-134995808D01*
X174269814Y-134900044D01*
X174410704Y-134610429D01*
X174492384Y-134298892D01*
X174504189Y-134102595D01*
X177428282Y-134102595D01*
X177472039Y-134421675D01*
X177577205Y-134726088D01*
X177670186Y-134900044D01*
X177934587Y-134995808D01*
X178890395Y-134040000D01*
X179249605Y-134040000D01*
X180205413Y-134995808D01*
X180469814Y-134900044D01*
X180610704Y-134610429D01*
X180692384Y-134298892D01*
X180704189Y-134102595D01*
X183928282Y-134102595D01*
X183972039Y-134421675D01*
X184077205Y-134726088D01*
X184170186Y-134900044D01*
X184434587Y-134995808D01*
X185390395Y-134040000D01*
X185749605Y-134040000D01*
X186705413Y-134995808D01*
X186969814Y-134900044D01*
X187110704Y-134610429D01*
X187192384Y-134298892D01*
X187211718Y-133977405D01*
X187167961Y-133658325D01*
X187062795Y-133353912D01*
X186969814Y-133179956D01*
X186705413Y-133084192D01*
X185749605Y-134040000D01*
X185390395Y-134040000D01*
X184434587Y-133084192D01*
X184170186Y-133179956D01*
X184029296Y-133469571D01*
X183947616Y-133781108D01*
X183928282Y-134102595D01*
X180704189Y-134102595D01*
X180711718Y-133977405D01*
X180667961Y-133658325D01*
X180562795Y-133353912D01*
X180469814Y-133179956D01*
X180205413Y-133084192D01*
X179249605Y-134040000D01*
X178890395Y-134040000D01*
X177934587Y-133084192D01*
X177670186Y-133179956D01*
X177529296Y-133469571D01*
X177447616Y-133781108D01*
X177428282Y-134102595D01*
X174504189Y-134102595D01*
X174511718Y-133977405D01*
X174467961Y-133658325D01*
X174362795Y-133353912D01*
X174269814Y-133179956D01*
X174005413Y-133084192D01*
X173049605Y-134040000D01*
X172690395Y-134040000D01*
X171734587Y-133084192D01*
X171470186Y-133179956D01*
X171329296Y-133469571D01*
X171247616Y-133781108D01*
X171228282Y-134102595D01*
X168004189Y-134102595D01*
X168011718Y-133977405D01*
X167967961Y-133658325D01*
X167862795Y-133353912D01*
X167769814Y-133179956D01*
X167505413Y-133084192D01*
X166549605Y-134040000D01*
X166190395Y-134040000D01*
X165234587Y-133084192D01*
X164970186Y-133179956D01*
X164829296Y-133469571D01*
X164747616Y-133781108D01*
X164728282Y-134102595D01*
X161804189Y-134102595D01*
X161811718Y-133977405D01*
X161767961Y-133658325D01*
X161662795Y-133353912D01*
X161569814Y-133179956D01*
X161305413Y-133084192D01*
X160349605Y-134040000D01*
X159990395Y-134040000D01*
X159034587Y-133084192D01*
X158770186Y-133179956D01*
X158629296Y-133469571D01*
X158547616Y-133781108D01*
X158528282Y-134102595D01*
X155304189Y-134102595D01*
X155311718Y-133977405D01*
X155267961Y-133658325D01*
X155162795Y-133353912D01*
X155069814Y-133179956D01*
X154805413Y-133084192D01*
X153849605Y-134040000D01*
X153490395Y-134040000D01*
X152534587Y-133084192D01*
X152270186Y-133179956D01*
X152129296Y-133469571D01*
X152047616Y-133781108D01*
X152028282Y-134102595D01*
X127177506Y-134102595D01*
X128375514Y-132904587D01*
X152714192Y-132904587D01*
X153670000Y-133860395D01*
X154625808Y-132904587D01*
X159214192Y-132904587D01*
X160170000Y-133860395D01*
X161125808Y-132904587D01*
X165414192Y-132904587D01*
X166370000Y-133860395D01*
X167325808Y-132904587D01*
X171914192Y-132904587D01*
X172870000Y-133860395D01*
X173825808Y-132904587D01*
X178114192Y-132904587D01*
X179070000Y-133860395D01*
X180025808Y-132904587D01*
X184614192Y-132904587D01*
X185570000Y-133860395D01*
X186525808Y-132904587D01*
X186430044Y-132640186D01*
X186140429Y-132499296D01*
X185828892Y-132417616D01*
X185507405Y-132398282D01*
X185188325Y-132442039D01*
X184883912Y-132547205D01*
X184709956Y-132640186D01*
X184614192Y-132904587D01*
X180025808Y-132904587D01*
X179930044Y-132640186D01*
X179640429Y-132499296D01*
X179328892Y-132417616D01*
X179007405Y-132398282D01*
X178688325Y-132442039D01*
X178383912Y-132547205D01*
X178209956Y-132640186D01*
X178114192Y-132904587D01*
X173825808Y-132904587D01*
X173730044Y-132640186D01*
X173440429Y-132499296D01*
X173128892Y-132417616D01*
X172807405Y-132398282D01*
X172488325Y-132442039D01*
X172183912Y-132547205D01*
X172009956Y-132640186D01*
X171914192Y-132904587D01*
X167325808Y-132904587D01*
X167230044Y-132640186D01*
X166940429Y-132499296D01*
X166628892Y-132417616D01*
X166307405Y-132398282D01*
X165988325Y-132442039D01*
X165683912Y-132547205D01*
X165509956Y-132640186D01*
X165414192Y-132904587D01*
X161125808Y-132904587D01*
X161030044Y-132640186D01*
X160740429Y-132499296D01*
X160428892Y-132417616D01*
X160107405Y-132398282D01*
X159788325Y-132442039D01*
X159483912Y-132547205D01*
X159309956Y-132640186D01*
X159214192Y-132904587D01*
X154625808Y-132904587D01*
X154530044Y-132640186D01*
X154240429Y-132499296D01*
X153928892Y-132417616D01*
X153607405Y-132398282D01*
X153288325Y-132442039D01*
X152983912Y-132547205D01*
X152809956Y-132640186D01*
X152714192Y-132904587D01*
X128375514Y-132904587D01*
X131901134Y-129378967D01*
X152035000Y-129378967D01*
X152035000Y-129701033D01*
X152097832Y-130016912D01*
X152221082Y-130314463D01*
X152400013Y-130582252D01*
X152627748Y-130809987D01*
X152895537Y-130988918D01*
X153193088Y-131112168D01*
X153508967Y-131175000D01*
X153831033Y-131175000D01*
X154146912Y-131112168D01*
X154444463Y-130988918D01*
X154712252Y-130809987D01*
X154939987Y-130582252D01*
X155118918Y-130314463D01*
X155242168Y-130016912D01*
X155305000Y-129701033D01*
X155305000Y-129378967D01*
X158535000Y-129378967D01*
X158535000Y-129701033D01*
X158597832Y-130016912D01*
X158721082Y-130314463D01*
X158900013Y-130582252D01*
X159127748Y-130809987D01*
X159395537Y-130988918D01*
X159693088Y-131112168D01*
X160008967Y-131175000D01*
X160331033Y-131175000D01*
X160646912Y-131112168D01*
X160944463Y-130988918D01*
X161212252Y-130809987D01*
X161439987Y-130582252D01*
X161618918Y-130314463D01*
X161742168Y-130016912D01*
X161805000Y-129701033D01*
X161805000Y-129378967D01*
X164735000Y-129378967D01*
X164735000Y-129701033D01*
X164797832Y-130016912D01*
X164921082Y-130314463D01*
X165100013Y-130582252D01*
X165327748Y-130809987D01*
X165595537Y-130988918D01*
X165893088Y-131112168D01*
X166208967Y-131175000D01*
X166531033Y-131175000D01*
X166846912Y-131112168D01*
X167144463Y-130988918D01*
X167412252Y-130809987D01*
X167639987Y-130582252D01*
X167818918Y-130314463D01*
X167942168Y-130016912D01*
X168005000Y-129701033D01*
X168005000Y-129378967D01*
X171235000Y-129378967D01*
X171235000Y-129701033D01*
X171297832Y-130016912D01*
X171421082Y-130314463D01*
X171600013Y-130582252D01*
X171827748Y-130809987D01*
X172095537Y-130988918D01*
X172393088Y-131112168D01*
X172708967Y-131175000D01*
X173031033Y-131175000D01*
X173346912Y-131112168D01*
X173644463Y-130988918D01*
X173912252Y-130809987D01*
X174139987Y-130582252D01*
X174318918Y-130314463D01*
X174442168Y-130016912D01*
X174505000Y-129701033D01*
X174505000Y-129378967D01*
X177435000Y-129378967D01*
X177435000Y-129701033D01*
X177497832Y-130016912D01*
X177621082Y-130314463D01*
X177800013Y-130582252D01*
X178027748Y-130809987D01*
X178295537Y-130988918D01*
X178593088Y-131112168D01*
X178908967Y-131175000D01*
X179231033Y-131175000D01*
X179546912Y-131112168D01*
X179844463Y-130988918D01*
X180112252Y-130809987D01*
X180339987Y-130582252D01*
X180518918Y-130314463D01*
X180642168Y-130016912D01*
X180705000Y-129701033D01*
X180705000Y-129378967D01*
X183935000Y-129378967D01*
X183935000Y-129701033D01*
X183997832Y-130016912D01*
X184121082Y-130314463D01*
X184300013Y-130582252D01*
X184527748Y-130809987D01*
X184795537Y-130988918D01*
X185093088Y-131112168D01*
X185408967Y-131175000D01*
X185731033Y-131175000D01*
X186046912Y-131112168D01*
X186344463Y-130988918D01*
X186612252Y-130809987D01*
X186839987Y-130582252D01*
X187018918Y-130314463D01*
X187142168Y-130016912D01*
X187205000Y-129701033D01*
X187205000Y-129378967D01*
X187142168Y-129063088D01*
X187018918Y-128765537D01*
X186839987Y-128497748D01*
X186612252Y-128270013D01*
X186344463Y-128091082D01*
X186046912Y-127967832D01*
X185731033Y-127905000D01*
X185408967Y-127905000D01*
X185093088Y-127967832D01*
X184795537Y-128091082D01*
X184527748Y-128270013D01*
X184300013Y-128497748D01*
X184121082Y-128765537D01*
X183997832Y-129063088D01*
X183935000Y-129378967D01*
X180705000Y-129378967D01*
X180642168Y-129063088D01*
X180518918Y-128765537D01*
X180339987Y-128497748D01*
X180112252Y-128270013D01*
X179844463Y-128091082D01*
X179546912Y-127967832D01*
X179231033Y-127905000D01*
X178908967Y-127905000D01*
X178593088Y-127967832D01*
X178295537Y-128091082D01*
X178027748Y-128270013D01*
X177800013Y-128497748D01*
X177621082Y-128765537D01*
X177497832Y-129063088D01*
X177435000Y-129378967D01*
X174505000Y-129378967D01*
X174442168Y-129063088D01*
X174318918Y-128765537D01*
X174139987Y-128497748D01*
X173912252Y-128270013D01*
X173644463Y-128091082D01*
X173346912Y-127967832D01*
X173031033Y-127905000D01*
X172708967Y-127905000D01*
X172393088Y-127967832D01*
X172095537Y-128091082D01*
X171827748Y-128270013D01*
X171600013Y-128497748D01*
X171421082Y-128765537D01*
X171297832Y-129063088D01*
X171235000Y-129378967D01*
X168005000Y-129378967D01*
X167942168Y-129063088D01*
X167818918Y-128765537D01*
X167639987Y-128497748D01*
X167412252Y-128270013D01*
X167144463Y-128091082D01*
X166846912Y-127967832D01*
X166531033Y-127905000D01*
X166208967Y-127905000D01*
X165893088Y-127967832D01*
X165595537Y-128091082D01*
X165327748Y-128270013D01*
X165100013Y-128497748D01*
X164921082Y-128765537D01*
X164797832Y-129063088D01*
X164735000Y-129378967D01*
X161805000Y-129378967D01*
X161742168Y-129063088D01*
X161618918Y-128765537D01*
X161439987Y-128497748D01*
X161212252Y-128270013D01*
X160944463Y-128091082D01*
X160646912Y-127967832D01*
X160331033Y-127905000D01*
X160008967Y-127905000D01*
X159693088Y-127967832D01*
X159395537Y-128091082D01*
X159127748Y-128270013D01*
X158900013Y-128497748D01*
X158721082Y-128765537D01*
X158597832Y-129063088D01*
X158535000Y-129378967D01*
X155305000Y-129378967D01*
X155242168Y-129063088D01*
X155118918Y-128765537D01*
X154939987Y-128497748D01*
X154712252Y-128270013D01*
X154444463Y-128091082D01*
X154146912Y-127967832D01*
X153831033Y-127905000D01*
X153508967Y-127905000D01*
X153193088Y-127967832D01*
X152895537Y-128091082D01*
X152627748Y-128270013D01*
X152400013Y-128497748D01*
X152221082Y-128765537D01*
X152097832Y-129063088D01*
X152035000Y-129378967D01*
X131901134Y-129378967D01*
X141344688Y-119935413D01*
X165414192Y-119935413D01*
X165509956Y-120199814D01*
X165799571Y-120340704D01*
X166111108Y-120422384D01*
X166432595Y-120441718D01*
X166751675Y-120397961D01*
X167056088Y-120292795D01*
X167230044Y-120199814D01*
X167325808Y-119935413D01*
X171914192Y-119935413D01*
X172009956Y-120199814D01*
X172299571Y-120340704D01*
X172611108Y-120422384D01*
X172932595Y-120441718D01*
X173251675Y-120397961D01*
X173556088Y-120292795D01*
X173730044Y-120199814D01*
X173825808Y-119935413D01*
X172870000Y-118979605D01*
X171914192Y-119935413D01*
X167325808Y-119935413D01*
X166370000Y-118979605D01*
X165414192Y-119935413D01*
X141344688Y-119935413D01*
X142417506Y-118862595D01*
X164728282Y-118862595D01*
X164772039Y-119181675D01*
X164877205Y-119486088D01*
X164970186Y-119660044D01*
X165234587Y-119755808D01*
X166190395Y-118800000D01*
X166549605Y-118800000D01*
X167505413Y-119755808D01*
X167769814Y-119660044D01*
X167910704Y-119370429D01*
X167992384Y-119058892D01*
X168004189Y-118862595D01*
X171228282Y-118862595D01*
X171272039Y-119181675D01*
X171377205Y-119486088D01*
X171470186Y-119660044D01*
X171734587Y-119755808D01*
X172690395Y-118800000D01*
X173049605Y-118800000D01*
X174005413Y-119755808D01*
X174269814Y-119660044D01*
X174410704Y-119370429D01*
X174492384Y-119058892D01*
X174511718Y-118737405D01*
X174467961Y-118418325D01*
X174362795Y-118113912D01*
X174269814Y-117939956D01*
X174005413Y-117844192D01*
X173049605Y-118800000D01*
X172690395Y-118800000D01*
X171734587Y-117844192D01*
X171470186Y-117939956D01*
X171329296Y-118229571D01*
X171247616Y-118541108D01*
X171228282Y-118862595D01*
X168004189Y-118862595D01*
X168011718Y-118737405D01*
X167967961Y-118418325D01*
X167862795Y-118113912D01*
X167769814Y-117939956D01*
X167505413Y-117844192D01*
X166549605Y-118800000D01*
X166190395Y-118800000D01*
X165234587Y-117844192D01*
X164970186Y-117939956D01*
X164829296Y-118229571D01*
X164747616Y-118541108D01*
X164728282Y-118862595D01*
X142417506Y-118862595D01*
X143615514Y-117664587D01*
X165414192Y-117664587D01*
X166370000Y-118620395D01*
X167325808Y-117664587D01*
X171914192Y-117664587D01*
X172870000Y-118620395D01*
X173825808Y-117664587D01*
X173730044Y-117400186D01*
X173440429Y-117259296D01*
X173128892Y-117177616D01*
X172807405Y-117158282D01*
X172488325Y-117202039D01*
X172183912Y-117307205D01*
X172009956Y-117400186D01*
X171914192Y-117664587D01*
X167325808Y-117664587D01*
X167230044Y-117400186D01*
X166940429Y-117259296D01*
X166628892Y-117177616D01*
X166307405Y-117158282D01*
X165988325Y-117202039D01*
X165683912Y-117307205D01*
X165509956Y-117400186D01*
X165414192Y-117664587D01*
X143615514Y-117664587D01*
X146220102Y-115060000D01*
X164915091Y-115060000D01*
X164921082Y-115074463D01*
X165100013Y-115342252D01*
X165327748Y-115569987D01*
X165595537Y-115748918D01*
X165893088Y-115872168D01*
X166208967Y-115935000D01*
X166531033Y-115935000D01*
X166846912Y-115872168D01*
X167144463Y-115748918D01*
X167412252Y-115569987D01*
X167639987Y-115342252D01*
X167818918Y-115074463D01*
X167942168Y-114776912D01*
X168005000Y-114461033D01*
X168005000Y-114138967D01*
X171235000Y-114138967D01*
X171235000Y-114461033D01*
X171297832Y-114776912D01*
X171421082Y-115074463D01*
X171600013Y-115342252D01*
X171827748Y-115569987D01*
X172095537Y-115748918D01*
X172393088Y-115872168D01*
X172708967Y-115935000D01*
X173031033Y-115935000D01*
X173346912Y-115872168D01*
X173644463Y-115748918D01*
X173912252Y-115569987D01*
X174139987Y-115342252D01*
X174318918Y-115074463D01*
X174442168Y-114776912D01*
X174505000Y-114461033D01*
X174505000Y-114138967D01*
X174442168Y-113823088D01*
X174318918Y-113525537D01*
X174139987Y-113257748D01*
X173912252Y-113030013D01*
X173644463Y-112851082D01*
X173346912Y-112727832D01*
X173031033Y-112665000D01*
X172708967Y-112665000D01*
X172393088Y-112727832D01*
X172095537Y-112851082D01*
X171827748Y-113030013D01*
X171600013Y-113257748D01*
X171421082Y-113525537D01*
X171297832Y-113823088D01*
X171235000Y-114138967D01*
X168005000Y-114138967D01*
X167942168Y-113823088D01*
X167818918Y-113525537D01*
X167639987Y-113257748D01*
X167412252Y-113030013D01*
X167144463Y-112851082D01*
X166846912Y-112727832D01*
X166531033Y-112665000D01*
X166208967Y-112665000D01*
X165893088Y-112727832D01*
X165595537Y-112851082D01*
X165327748Y-113030013D01*
X165100013Y-113257748D01*
X164921082Y-113525537D01*
X164915091Y-113540000D01*
X145942625Y-113540000D01*
X145905300Y-113536324D01*
X145867975Y-113540000D01*
X145867967Y-113540000D01*
X145756314Y-113550997D01*
X145613053Y-113594454D01*
X145481024Y-113665026D01*
X145365299Y-113759999D01*
X145341501Y-113788997D01*
X119149947Y-139980551D01*
X119024759Y-139855363D01*
X118792241Y-139700000D01*
X119024759Y-139544637D01*
X119224637Y-139344759D01*
X119381680Y-139109727D01*
X119489853Y-138848574D01*
X119545000Y-138571335D01*
X119545000Y-138288665D01*
X119489853Y-138011426D01*
X119381680Y-137750273D01*
X119224637Y-137515241D01*
X119024759Y-137315363D01*
X118792241Y-137160000D01*
X119024759Y-137004637D01*
X119224637Y-136804759D01*
X119381680Y-136569727D01*
X119489853Y-136308574D01*
X119545000Y-136031335D01*
X119545000Y-135748665D01*
X119489853Y-135471426D01*
X119381680Y-135210273D01*
X119224637Y-134975241D01*
X119024759Y-134775363D01*
X118792241Y-134620000D01*
X119024759Y-134464637D01*
X119224637Y-134264759D01*
X119381680Y-134029727D01*
X119489853Y-133768574D01*
X119545000Y-133491335D01*
X119545000Y-133208665D01*
X119489853Y-132931426D01*
X119381680Y-132670273D01*
X119224637Y-132435241D01*
X119024759Y-132235363D01*
X118792241Y-132080000D01*
X119024759Y-131924637D01*
X119224637Y-131724759D01*
X119381680Y-131489727D01*
X119489853Y-131228574D01*
X119545000Y-130951335D01*
X119545000Y-130668665D01*
X119489853Y-130391426D01*
X119381680Y-130130273D01*
X119237023Y-129913778D01*
X127028503Y-122122299D01*
X127057501Y-122098501D01*
X127152474Y-121982776D01*
X127223046Y-121850747D01*
X127266503Y-121707486D01*
X127277500Y-121595833D01*
X127277500Y-121595824D01*
X127281176Y-121558501D01*
X127277500Y-121521178D01*
X127277500Y-102128967D01*
X129325000Y-102128967D01*
X129325000Y-102451033D01*
X129387832Y-102766912D01*
X129511082Y-103064463D01*
X129690013Y-103332252D01*
X129917748Y-103559987D01*
X130185537Y-103738918D01*
X130483088Y-103862168D01*
X130798967Y-103925000D01*
X131121033Y-103925000D01*
X131436912Y-103862168D01*
X131734463Y-103738918D01*
X132002252Y-103559987D01*
X132136826Y-103425413D01*
X185099192Y-103425413D01*
X185194956Y-103689814D01*
X185484571Y-103830704D01*
X185796108Y-103912384D01*
X186117595Y-103931718D01*
X186436675Y-103887961D01*
X186741088Y-103782795D01*
X186915044Y-103689814D01*
X187010808Y-103425413D01*
X191599192Y-103425413D01*
X191694956Y-103689814D01*
X191984571Y-103830704D01*
X192296108Y-103912384D01*
X192617595Y-103931718D01*
X192936675Y-103887961D01*
X193241088Y-103782795D01*
X193415044Y-103689814D01*
X193510808Y-103425413D01*
X192555000Y-102469605D01*
X191599192Y-103425413D01*
X187010808Y-103425413D01*
X186055000Y-102469605D01*
X185099192Y-103425413D01*
X132136826Y-103425413D01*
X132229987Y-103332252D01*
X132408918Y-103064463D01*
X132532168Y-102766912D01*
X132595000Y-102451033D01*
X132595000Y-102352595D01*
X184413282Y-102352595D01*
X184457039Y-102671675D01*
X184562205Y-102976088D01*
X184655186Y-103150044D01*
X184919587Y-103245808D01*
X185875395Y-102290000D01*
X186234605Y-102290000D01*
X187190413Y-103245808D01*
X187454814Y-103150044D01*
X187595704Y-102860429D01*
X187677384Y-102548892D01*
X187689189Y-102352595D01*
X190913282Y-102352595D01*
X190957039Y-102671675D01*
X191062205Y-102976088D01*
X191155186Y-103150044D01*
X191419587Y-103245808D01*
X192375395Y-102290000D01*
X192734605Y-102290000D01*
X193690413Y-103245808D01*
X193954814Y-103150044D01*
X194095704Y-102860429D01*
X194177384Y-102548892D01*
X194196718Y-102227405D01*
X194152961Y-101908325D01*
X194047795Y-101603912D01*
X193954814Y-101429956D01*
X193690413Y-101334192D01*
X192734605Y-102290000D01*
X192375395Y-102290000D01*
X191419587Y-101334192D01*
X191155186Y-101429956D01*
X191014296Y-101719571D01*
X190932616Y-102031108D01*
X190913282Y-102352595D01*
X187689189Y-102352595D01*
X187696718Y-102227405D01*
X187652961Y-101908325D01*
X187547795Y-101603912D01*
X187454814Y-101429956D01*
X187190413Y-101334192D01*
X186234605Y-102290000D01*
X185875395Y-102290000D01*
X184919587Y-101334192D01*
X184655186Y-101429956D01*
X184514296Y-101719571D01*
X184432616Y-102031108D01*
X184413282Y-102352595D01*
X132595000Y-102352595D01*
X132595000Y-102128967D01*
X132532168Y-101813088D01*
X132408918Y-101515537D01*
X132229987Y-101247748D01*
X132136826Y-101154587D01*
X185099192Y-101154587D01*
X186055000Y-102110395D01*
X187010808Y-101154587D01*
X191599192Y-101154587D01*
X192555000Y-102110395D01*
X193510808Y-101154587D01*
X193415044Y-100890186D01*
X193125429Y-100749296D01*
X192813892Y-100667616D01*
X192492405Y-100648282D01*
X192173325Y-100692039D01*
X191868912Y-100797205D01*
X191694956Y-100890186D01*
X191599192Y-101154587D01*
X187010808Y-101154587D01*
X186915044Y-100890186D01*
X186625429Y-100749296D01*
X186313892Y-100667616D01*
X185992405Y-100648282D01*
X185673325Y-100692039D01*
X185368912Y-100797205D01*
X185194956Y-100890186D01*
X185099192Y-101154587D01*
X132136826Y-101154587D01*
X132002252Y-101020013D01*
X131734463Y-100841082D01*
X131436912Y-100717832D01*
X131121033Y-100655000D01*
X130798967Y-100655000D01*
X130483088Y-100717832D01*
X130185537Y-100841082D01*
X129917748Y-101020013D01*
X129690013Y-101247748D01*
X129511082Y-101515537D01*
X129387832Y-101813088D01*
X129325000Y-102128967D01*
X127277500Y-102128967D01*
X127277500Y-98925413D01*
X130004192Y-98925413D01*
X130099956Y-99189814D01*
X130389571Y-99330704D01*
X130701108Y-99412384D01*
X131022595Y-99431718D01*
X131341675Y-99387961D01*
X131646088Y-99282795D01*
X131820044Y-99189814D01*
X131915808Y-98925413D01*
X130960000Y-97969605D01*
X130004192Y-98925413D01*
X127277500Y-98925413D01*
X127277500Y-97852595D01*
X129318282Y-97852595D01*
X129362039Y-98171675D01*
X129467205Y-98476088D01*
X129560186Y-98650044D01*
X129824587Y-98745808D01*
X130780395Y-97790000D01*
X131139605Y-97790000D01*
X132095413Y-98745808D01*
X132359814Y-98650044D01*
X132500704Y-98360429D01*
X132582384Y-98048892D01*
X132601718Y-97727405D01*
X132588219Y-97628967D01*
X184420000Y-97628967D01*
X184420000Y-97951033D01*
X184482832Y-98266912D01*
X184606082Y-98564463D01*
X184785013Y-98832252D01*
X185012748Y-99059987D01*
X185280537Y-99238918D01*
X185578088Y-99362168D01*
X185893967Y-99425000D01*
X186216033Y-99425000D01*
X186531912Y-99362168D01*
X186829463Y-99238918D01*
X187097252Y-99059987D01*
X187324987Y-98832252D01*
X187503918Y-98564463D01*
X187627168Y-98266912D01*
X187690000Y-97951033D01*
X187690000Y-97628967D01*
X190920000Y-97628967D01*
X190920000Y-97951033D01*
X190982832Y-98266912D01*
X191106082Y-98564463D01*
X191285013Y-98832252D01*
X191512748Y-99059987D01*
X191780537Y-99238918D01*
X192078088Y-99362168D01*
X192393967Y-99425000D01*
X192716033Y-99425000D01*
X193031912Y-99362168D01*
X193329463Y-99238918D01*
X193597252Y-99059987D01*
X193824987Y-98832252D01*
X194003918Y-98564463D01*
X194127168Y-98266912D01*
X194190000Y-97951033D01*
X194190000Y-97628967D01*
X194127168Y-97313088D01*
X194003918Y-97015537D01*
X193824987Y-96747748D01*
X193597252Y-96520013D01*
X193329463Y-96341082D01*
X193031912Y-96217832D01*
X192716033Y-96155000D01*
X192393967Y-96155000D01*
X192078088Y-96217832D01*
X191780537Y-96341082D01*
X191512748Y-96520013D01*
X191285013Y-96747748D01*
X191106082Y-97015537D01*
X190982832Y-97313088D01*
X190920000Y-97628967D01*
X187690000Y-97628967D01*
X187627168Y-97313088D01*
X187503918Y-97015537D01*
X187324987Y-96747748D01*
X187097252Y-96520013D01*
X186829463Y-96341082D01*
X186531912Y-96217832D01*
X186216033Y-96155000D01*
X185893967Y-96155000D01*
X185578088Y-96217832D01*
X185280537Y-96341082D01*
X185012748Y-96520013D01*
X184785013Y-96747748D01*
X184606082Y-97015537D01*
X184482832Y-97313088D01*
X184420000Y-97628967D01*
X132588219Y-97628967D01*
X132557961Y-97408325D01*
X132452795Y-97103912D01*
X132359814Y-96929956D01*
X132095413Y-96834192D01*
X131139605Y-97790000D01*
X130780395Y-97790000D01*
X129824587Y-96834192D01*
X129560186Y-96929956D01*
X129419296Y-97219571D01*
X129337616Y-97531108D01*
X129318282Y-97852595D01*
X127277500Y-97852595D01*
X127277500Y-96654587D01*
X130004192Y-96654587D01*
X130960000Y-97610395D01*
X131915808Y-96654587D01*
X131820044Y-96390186D01*
X131530429Y-96249296D01*
X131218892Y-96167616D01*
X130897405Y-96148282D01*
X130578325Y-96192039D01*
X130273912Y-96297205D01*
X130099956Y-96390186D01*
X130004192Y-96654587D01*
X127277500Y-96654587D01*
X127277500Y-85850000D01*
X133401957Y-85850000D01*
X133505363Y-86004759D01*
X133705241Y-86204637D01*
X133937759Y-86360000D01*
X133705241Y-86515363D01*
X133505363Y-86715241D01*
X133348320Y-86950273D01*
X133240147Y-87211426D01*
X133185000Y-87488665D01*
X133185000Y-87771335D01*
X133240147Y-88048574D01*
X133348320Y-88309727D01*
X133505363Y-88544759D01*
X133705241Y-88744637D01*
X133940273Y-88901680D01*
X134201426Y-89009853D01*
X134478665Y-89065000D01*
X134761335Y-89065000D01*
X135038574Y-89009853D01*
X135299727Y-88901680D01*
X135534759Y-88744637D01*
X135734637Y-88544759D01*
X135891680Y-88309727D01*
X135999853Y-88048574D01*
X136013684Y-87979039D01*
X140848096Y-87979039D01*
X140888754Y-88113087D01*
X141008963Y-88367420D01*
X141176481Y-88593414D01*
X141384869Y-88782385D01*
X141626119Y-88927070D01*
X141890960Y-89021909D01*
X142113000Y-88900624D01*
X142113000Y-87757000D01*
X142367000Y-87757000D01*
X142367000Y-88900624D01*
X142589040Y-89021909D01*
X142853881Y-88927070D01*
X143095131Y-88782385D01*
X143303519Y-88593414D01*
X143471037Y-88367420D01*
X143591246Y-88113087D01*
X143631904Y-87979039D01*
X143509915Y-87757000D01*
X142367000Y-87757000D01*
X142113000Y-87757000D01*
X140970085Y-87757000D01*
X140848096Y-87979039D01*
X136013684Y-87979039D01*
X136055000Y-87771335D01*
X136055000Y-87488665D01*
X135999853Y-87211426D01*
X135891680Y-86950273D01*
X135734637Y-86715241D01*
X135534759Y-86515363D01*
X135302241Y-86360000D01*
X135534759Y-86204637D01*
X135734637Y-86004759D01*
X135891680Y-85769727D01*
X135999853Y-85508574D01*
X136055000Y-85231335D01*
X136055000Y-84948665D01*
X135999853Y-84671426D01*
X135891680Y-84410273D01*
X135734637Y-84175241D01*
X135534759Y-83975363D01*
X135302241Y-83820000D01*
X135534759Y-83664637D01*
X135734637Y-83464759D01*
X135891680Y-83229727D01*
X135999853Y-82968574D01*
X136055000Y-82691335D01*
X136055000Y-82408665D01*
X135999853Y-82131426D01*
X135909502Y-81913299D01*
X136256398Y-81566403D01*
X136285401Y-81542601D01*
X136380374Y-81426876D01*
X136450946Y-81294847D01*
X136494403Y-81151586D01*
X136505400Y-81039933D01*
X136505400Y-81039932D01*
X136509077Y-81002600D01*
X136505400Y-80965267D01*
X136505400Y-79103422D01*
X136509076Y-79066099D01*
X136505400Y-79028776D01*
X136505400Y-79028767D01*
X136503951Y-79014052D01*
X140550901Y-83061003D01*
X140574699Y-83090001D01*
X140690424Y-83184974D01*
X140822453Y-83255546D01*
X140965714Y-83299003D01*
X141018053Y-83304158D01*
X141125363Y-83464759D01*
X141325241Y-83664637D01*
X141557759Y-83820000D01*
X141325241Y-83975363D01*
X141125363Y-84175241D01*
X140968320Y-84410273D01*
X140860147Y-84671426D01*
X140805000Y-84948665D01*
X140805000Y-85231335D01*
X140860147Y-85508574D01*
X140968320Y-85769727D01*
X141125363Y-86004759D01*
X141325241Y-86204637D01*
X141560273Y-86361680D01*
X141570865Y-86366067D01*
X141384869Y-86477615D01*
X141176481Y-86666586D01*
X141008963Y-86892580D01*
X140888754Y-87146913D01*
X140848096Y-87280961D01*
X140970085Y-87503000D01*
X142113000Y-87503000D01*
X142113000Y-87483000D01*
X142367000Y-87483000D01*
X142367000Y-87503000D01*
X143509915Y-87503000D01*
X143631904Y-87280961D01*
X143591246Y-87146913D01*
X143471037Y-86892580D01*
X143303519Y-86666586D01*
X143095131Y-86477615D01*
X142909135Y-86366067D01*
X142919727Y-86361680D01*
X143154759Y-86204637D01*
X143354637Y-86004759D01*
X143511680Y-85769727D01*
X143619853Y-85508574D01*
X143675000Y-85231335D01*
X143675000Y-84948665D01*
X143619853Y-84671426D01*
X143511680Y-84410273D01*
X143354637Y-84175241D01*
X143154759Y-83975363D01*
X142922241Y-83820000D01*
X143154759Y-83664637D01*
X143354637Y-83464759D01*
X143511680Y-83229727D01*
X143619853Y-82968574D01*
X143675000Y-82691335D01*
X143675000Y-82408665D01*
X143619853Y-82131426D01*
X143511680Y-81870273D01*
X143354637Y-81635241D01*
X143154759Y-81435363D01*
X142922241Y-81280000D01*
X143154759Y-81124637D01*
X143279947Y-80999449D01*
X143364100Y-81083602D01*
X143387899Y-81112601D01*
X143503624Y-81207574D01*
X143635653Y-81278146D01*
X143778914Y-81321603D01*
X143815100Y-81325167D01*
X143927900Y-81336277D01*
X143965233Y-81332600D01*
X156315835Y-81332600D01*
X156325506Y-81340537D01*
X156435820Y-81399502D01*
X156555518Y-81435812D01*
X156680000Y-81448072D01*
X156785425Y-81448072D01*
X156845026Y-81559576D01*
X156909038Y-81637574D01*
X156940000Y-81675301D01*
X156968998Y-81699099D01*
X161328831Y-86058933D01*
X161253006Y-86099463D01*
X161156315Y-86178815D01*
X161076963Y-86275506D01*
X161017998Y-86385820D01*
X160981688Y-86505518D01*
X160969428Y-86630000D01*
X160969428Y-88630000D01*
X160981688Y-88754482D01*
X161017998Y-88874180D01*
X161076963Y-88984494D01*
X161156315Y-89081185D01*
X161253006Y-89160537D01*
X161363320Y-89219502D01*
X161483018Y-89255812D01*
X161607500Y-89268072D01*
X163123270Y-89268072D01*
X163345701Y-89490503D01*
X163369499Y-89519501D01*
X163485224Y-89614474D01*
X163617253Y-89685046D01*
X163760514Y-89728503D01*
X163872167Y-89739500D01*
X163872176Y-89739500D01*
X163909499Y-89743176D01*
X163946822Y-89739500D01*
X168120078Y-89739500D01*
X168157400Y-89743176D01*
X168194722Y-89739500D01*
X168194733Y-89739500D01*
X168306386Y-89728503D01*
X168449647Y-89685046D01*
X168581676Y-89614474D01*
X168697401Y-89519501D01*
X168721204Y-89490497D01*
X175701701Y-82510000D01*
X191397815Y-82510000D01*
X191426487Y-82801111D01*
X191511401Y-83081034D01*
X191649294Y-83339014D01*
X191834866Y-83565134D01*
X192060986Y-83750706D01*
X192318966Y-83888599D01*
X192598889Y-83973513D01*
X192817050Y-83995000D01*
X193262950Y-83995000D01*
X193481111Y-83973513D01*
X193761034Y-83888599D01*
X194019014Y-83750706D01*
X194245134Y-83565134D01*
X194430706Y-83339014D01*
X194568599Y-83081034D01*
X194653513Y-82801111D01*
X194682185Y-82510000D01*
X194653513Y-82218889D01*
X194568599Y-81938966D01*
X194430706Y-81680986D01*
X194245134Y-81454866D01*
X194181663Y-81402777D01*
X194283386Y-81348405D01*
X194417962Y-81237962D01*
X194528405Y-81103386D01*
X194610472Y-80949850D01*
X194661008Y-80783254D01*
X194678072Y-80610000D01*
X194678072Y-79410000D01*
X194661008Y-79236746D01*
X194610472Y-79070150D01*
X194528405Y-78916614D01*
X194417962Y-78782038D01*
X194283386Y-78671595D01*
X194129850Y-78589528D01*
X193963254Y-78538992D01*
X193790000Y-78521928D01*
X192290000Y-78521928D01*
X192116746Y-78538992D01*
X191950150Y-78589528D01*
X191796614Y-78671595D01*
X191662038Y-78782038D01*
X191551595Y-78916614D01*
X191469528Y-79070150D01*
X191418992Y-79236746D01*
X191401928Y-79410000D01*
X191401928Y-80610000D01*
X191418992Y-80783254D01*
X191469528Y-80949850D01*
X191551595Y-81103386D01*
X191662038Y-81237962D01*
X191796614Y-81348405D01*
X191898337Y-81402777D01*
X191834866Y-81454866D01*
X191649294Y-81680986D01*
X191511401Y-81938966D01*
X191426487Y-82218889D01*
X191397815Y-82510000D01*
X175701701Y-82510000D01*
X185256863Y-72954838D01*
X191834767Y-72954838D01*
X191972724Y-73255044D01*
X192321967Y-73430882D01*
X192698804Y-73535207D01*
X193088753Y-73564009D01*
X193476828Y-73516184D01*
X193848116Y-73393568D01*
X194107276Y-73255044D01*
X194245233Y-72954838D01*
X193040000Y-71749605D01*
X191834767Y-72954838D01*
X185256863Y-72954838D01*
X186592949Y-71618753D01*
X191045991Y-71618753D01*
X191093816Y-72006828D01*
X191216432Y-72378116D01*
X191354956Y-72637276D01*
X191655162Y-72775233D01*
X192860395Y-71570000D01*
X193219605Y-71570000D01*
X194424838Y-72775233D01*
X194725044Y-72637276D01*
X194900882Y-72288033D01*
X195005207Y-71911196D01*
X195034009Y-71521247D01*
X194986184Y-71133172D01*
X194863568Y-70761884D01*
X194725044Y-70502724D01*
X194424838Y-70364767D01*
X193219605Y-71570000D01*
X192860395Y-71570000D01*
X191655162Y-70364767D01*
X191354956Y-70502724D01*
X191179118Y-70851967D01*
X191074793Y-71228804D01*
X191045991Y-71618753D01*
X186592949Y-71618753D01*
X191119010Y-67092693D01*
X191055000Y-67414495D01*
X191055000Y-67805505D01*
X191131282Y-68189003D01*
X191280915Y-68550250D01*
X191498149Y-68875364D01*
X191774636Y-69151851D01*
X192099750Y-69369085D01*
X192460997Y-69518718D01*
X192841627Y-69594430D01*
X192603172Y-69623816D01*
X192231884Y-69746432D01*
X191972724Y-69884956D01*
X191834767Y-70185162D01*
X193040000Y-71390395D01*
X194245233Y-70185162D01*
X194107276Y-69884956D01*
X193758033Y-69709118D01*
X193381196Y-69604793D01*
X193239053Y-69594294D01*
X193619003Y-69518718D01*
X193980250Y-69369085D01*
X194305364Y-69151851D01*
X194581851Y-68875364D01*
X194799085Y-68550250D01*
X194948718Y-68189003D01*
X195025000Y-67805505D01*
X195025000Y-67414495D01*
X194948718Y-67030997D01*
X194799085Y-66669750D01*
X194581851Y-66344636D01*
X194305364Y-66068149D01*
X193980250Y-65850915D01*
X193619003Y-65701282D01*
X193260642Y-65630000D01*
X193619003Y-65558718D01*
X193980250Y-65409085D01*
X194305364Y-65191851D01*
X194581851Y-64915364D01*
X194799085Y-64590250D01*
X194948718Y-64229003D01*
X195025000Y-63845505D01*
X195025000Y-63454495D01*
X194948718Y-63070997D01*
X194799085Y-62709750D01*
X194581851Y-62384636D01*
X194305364Y-62108149D01*
X193980250Y-61890915D01*
X193619003Y-61741282D01*
X193301223Y-61678072D01*
X194139999Y-61678072D01*
X194313253Y-61661008D01*
X194479850Y-61610471D01*
X194633386Y-61528405D01*
X194767961Y-61417961D01*
X194878405Y-61283386D01*
X194960471Y-61129850D01*
X195011008Y-60963253D01*
X195028072Y-60789999D01*
X195028072Y-58590001D01*
X195011008Y-58416747D01*
X194960471Y-58250150D01*
X194878405Y-58096614D01*
X194767961Y-57962039D01*
X194633386Y-57851595D01*
X194479850Y-57769529D01*
X194313253Y-57718992D01*
X194139999Y-57701928D01*
X191940001Y-57701928D01*
X191766747Y-57718992D01*
X191600150Y-57769529D01*
X191446614Y-57851595D01*
X191312039Y-57962039D01*
X191201595Y-58096614D01*
X191119529Y-58250150D01*
X191068992Y-58416747D01*
X191051928Y-58590001D01*
X191051928Y-60789999D01*
X191068992Y-60963253D01*
X191119529Y-61129850D01*
X191201595Y-61283386D01*
X191312039Y-61417961D01*
X191446614Y-61528405D01*
X191600150Y-61610471D01*
X191766747Y-61661008D01*
X191940001Y-61678072D01*
X192778777Y-61678072D01*
X192460997Y-61741282D01*
X192099750Y-61890915D01*
X191774636Y-62108149D01*
X191498149Y-62384636D01*
X191280915Y-62709750D01*
X191131282Y-63070997D01*
X191055000Y-63454495D01*
X191055000Y-63845505D01*
X191131282Y-64229003D01*
X191280915Y-64590250D01*
X191357392Y-64704705D01*
X169105497Y-86956602D01*
X168966345Y-86696265D01*
X168767963Y-86454537D01*
X168526234Y-86256155D01*
X168400000Y-86188682D01*
X168400000Y-83990101D01*
X170691008Y-81699095D01*
X170720001Y-81675301D01*
X170743795Y-81646308D01*
X170743799Y-81646304D01*
X170814973Y-81559577D01*
X170824047Y-81542601D01*
X170874575Y-81448072D01*
X170980000Y-81448072D01*
X171104482Y-81435812D01*
X171224180Y-81399502D01*
X171334494Y-81340537D01*
X171431185Y-81261185D01*
X171441807Y-81248242D01*
X171693996Y-81367571D01*
X171968184Y-81436300D01*
X172250512Y-81450217D01*
X172530130Y-81408787D01*
X172796292Y-81313603D01*
X172921514Y-81246671D01*
X172993097Y-81002702D01*
X172180000Y-80189605D01*
X172165858Y-80203748D01*
X171986253Y-80024143D01*
X172000395Y-80010000D01*
X172359605Y-80010000D01*
X173172702Y-80823097D01*
X173416671Y-80751514D01*
X173537571Y-80496004D01*
X173606300Y-80221816D01*
X173620217Y-79939488D01*
X173578787Y-79659870D01*
X173483603Y-79393708D01*
X173416671Y-79268486D01*
X173172702Y-79196903D01*
X172359605Y-80010000D01*
X172000395Y-80010000D01*
X171986253Y-79995858D01*
X172165858Y-79816253D01*
X172180000Y-79830395D01*
X172993097Y-79017298D01*
X172921514Y-78773329D01*
X172666004Y-78652429D01*
X172391816Y-78583700D01*
X172109488Y-78569783D01*
X171829870Y-78611213D01*
X171563708Y-78706397D01*
X171441691Y-78771616D01*
X171431185Y-78758815D01*
X171334494Y-78679463D01*
X171224180Y-78620498D01*
X171104482Y-78584188D01*
X170980000Y-78571928D01*
X169380000Y-78571928D01*
X169255518Y-78584188D01*
X169135820Y-78620498D01*
X169025506Y-78679463D01*
X168928815Y-78758815D01*
X168849463Y-78855506D01*
X168790498Y-78965820D01*
X168754188Y-79085518D01*
X168741928Y-79210000D01*
X168741928Y-80810000D01*
X168754188Y-80934482D01*
X168790498Y-81054180D01*
X168849463Y-81164494D01*
X168928815Y-81261185D01*
X168956551Y-81283947D01*
X167129003Y-83111496D01*
X167099999Y-83135299D01*
X167044871Y-83202474D01*
X167005026Y-83251024D01*
X166971538Y-83313676D01*
X166934454Y-83383054D01*
X166890997Y-83526315D01*
X166880000Y-83637968D01*
X166880000Y-83637978D01*
X166876324Y-83675300D01*
X166880000Y-83712623D01*
X166880001Y-86188681D01*
X166753765Y-86256155D01*
X166512037Y-86454537D01*
X166364838Y-86633900D01*
X166209437Y-86448685D01*
X165966923Y-86254031D01*
X165691094Y-86110429D01*
X165472980Y-86039437D01*
X165227000Y-86159406D01*
X165227000Y-87503000D01*
X165247000Y-87503000D01*
X165247000Y-87757000D01*
X165227000Y-87757000D01*
X165227000Y-87777000D01*
X164973000Y-87777000D01*
X164973000Y-87757000D01*
X164953000Y-87757000D01*
X164953000Y-87503000D01*
X164973000Y-87503000D01*
X164973000Y-86159406D01*
X164727020Y-86039437D01*
X164508906Y-86110429D01*
X164233077Y-86254031D01*
X164092059Y-86367219D01*
X164043037Y-86275506D01*
X163963685Y-86178815D01*
X163866994Y-86099463D01*
X163756680Y-86040498D01*
X163636982Y-86004188D01*
X163512500Y-85991928D01*
X163286439Y-85991928D01*
X163265546Y-85923053D01*
X163220619Y-85839002D01*
X163194974Y-85791023D01*
X163123799Y-85704297D01*
X163100001Y-85675299D01*
X163071004Y-85651502D01*
X158703449Y-81283948D01*
X158731185Y-81261185D01*
X158741807Y-81248242D01*
X158993996Y-81367571D01*
X159268184Y-81436300D01*
X159550512Y-81450217D01*
X159830130Y-81408787D01*
X160096292Y-81313603D01*
X160221514Y-81246671D01*
X160293097Y-81002702D01*
X159480000Y-80189605D01*
X159465858Y-80203748D01*
X159286253Y-80024143D01*
X159300395Y-80010000D01*
X159659605Y-80010000D01*
X160472702Y-80823097D01*
X160716671Y-80751514D01*
X160837571Y-80496004D01*
X160906300Y-80221816D01*
X160920217Y-79939488D01*
X160878787Y-79659870D01*
X160783603Y-79393708D01*
X160716671Y-79268486D01*
X160472702Y-79196903D01*
X159659605Y-80010000D01*
X159300395Y-80010000D01*
X159286253Y-79995858D01*
X159465858Y-79816253D01*
X159480000Y-79830395D01*
X160293097Y-79017298D01*
X160221514Y-78773329D01*
X159966004Y-78652429D01*
X159691816Y-78583700D01*
X159409488Y-78569783D01*
X159129870Y-78611213D01*
X158863708Y-78706397D01*
X158741691Y-78771616D01*
X158731185Y-78758815D01*
X158634494Y-78679463D01*
X158524180Y-78620498D01*
X158404482Y-78584188D01*
X158280000Y-78571928D01*
X156680000Y-78571928D01*
X156555518Y-78584188D01*
X156435820Y-78620498D01*
X156325506Y-78679463D01*
X156228815Y-78758815D01*
X156149463Y-78855506D01*
X156090498Y-78965820D01*
X156054188Y-79085518D01*
X156041928Y-79210000D01*
X156041928Y-79812600D01*
X144242702Y-79812600D01*
X143929103Y-79499002D01*
X143905301Y-79469999D01*
X143789576Y-79375026D01*
X143657547Y-79304454D01*
X143514286Y-79260997D01*
X143461947Y-79255842D01*
X143354637Y-79095241D01*
X143154759Y-78895363D01*
X142919727Y-78738320D01*
X142658574Y-78630147D01*
X142381335Y-78575000D01*
X142098665Y-78575000D01*
X141821426Y-78630147D01*
X141560273Y-78738320D01*
X141325241Y-78895363D01*
X141200053Y-79020551D01*
X138652404Y-76472903D01*
X138628601Y-76443899D01*
X138512876Y-76348926D01*
X138380847Y-76278354D01*
X138237586Y-76234897D01*
X138125933Y-76223900D01*
X138125922Y-76223900D01*
X138088600Y-76220224D01*
X138051278Y-76223900D01*
X120143600Y-76223900D01*
X120143600Y-73850923D01*
X120147276Y-73813600D01*
X120143600Y-73776277D01*
X120143600Y-73776267D01*
X120132603Y-73664614D01*
X120089146Y-73521353D01*
X120040788Y-73430882D01*
X120018574Y-73389323D01*
X119947399Y-73302597D01*
X119923601Y-73273599D01*
X119894604Y-73249802D01*
X111054056Y-64409254D01*
X111128718Y-64229003D01*
X111205000Y-63845505D01*
X111205000Y-63454495D01*
X111128718Y-63070997D01*
X110979085Y-62709750D01*
X110761851Y-62384636D01*
X110485364Y-62108149D01*
X110160250Y-61890915D01*
X109799003Y-61741282D01*
X109481223Y-61678072D01*
X110319999Y-61678072D01*
X110493253Y-61661008D01*
X110659850Y-61610471D01*
X110813386Y-61528405D01*
X110947961Y-61417961D01*
X111058405Y-61283386D01*
X111140471Y-61129850D01*
X111191008Y-60963253D01*
X111208072Y-60789999D01*
X111208072Y-58590001D01*
X111191008Y-58416747D01*
X111140471Y-58250150D01*
X111058405Y-58096614D01*
X110947961Y-57962039D01*
X110813386Y-57851595D01*
X110659850Y-57769529D01*
X110493253Y-57718992D01*
X110319999Y-57701928D01*
X108120001Y-57701928D01*
X107946747Y-57718992D01*
X107780150Y-57769529D01*
X107626614Y-57851595D01*
X107492039Y-57962039D01*
X107381595Y-58096614D01*
X107299529Y-58250150D01*
X107248992Y-58416747D01*
X107231928Y-58590001D01*
X107231928Y-60789999D01*
X107248992Y-60963253D01*
X107299529Y-61129850D01*
X107381595Y-61283386D01*
X107492039Y-61417961D01*
X107626614Y-61528405D01*
X107780150Y-61610471D01*
X107946747Y-61661008D01*
X108120001Y-61678072D01*
X108958777Y-61678072D01*
X108640997Y-61741282D01*
X108279750Y-61890915D01*
X107954636Y-62108149D01*
X107678149Y-62384636D01*
X107460915Y-62709750D01*
X107311282Y-63070997D01*
X107235000Y-63454495D01*
X107235000Y-63845505D01*
X107311282Y-64229003D01*
X107460915Y-64590250D01*
X107678149Y-64915364D01*
X107954636Y-65191851D01*
X108279750Y-65409085D01*
X108640997Y-65558718D01*
X108999358Y-65630000D01*
X108640997Y-65701282D01*
X108279750Y-65850915D01*
X107954636Y-66068149D01*
X107678149Y-66344636D01*
X107460915Y-66669750D01*
X107311282Y-67030997D01*
X107235000Y-67414495D01*
X107235000Y-67805505D01*
X107311282Y-68189003D01*
X107460915Y-68550250D01*
X107678149Y-68875364D01*
X107954636Y-69151851D01*
X108279750Y-69369085D01*
X108640997Y-69518718D01*
X109021627Y-69594430D01*
X108783172Y-69623816D01*
X108411884Y-69746432D01*
X108152724Y-69884956D01*
X108014767Y-70185162D01*
X109220000Y-71390395D01*
X110425233Y-70185162D01*
X110287276Y-69884956D01*
X109938033Y-69709118D01*
X109561196Y-69604793D01*
X109419053Y-69594294D01*
X109799003Y-69518718D01*
X110160250Y-69369085D01*
X110485364Y-69151851D01*
X110761851Y-68875364D01*
X110979085Y-68550250D01*
X111128718Y-68189003D01*
X111205000Y-67805505D01*
X111205000Y-67414495D01*
X111128718Y-67030997D01*
X110979085Y-66669750D01*
X110761851Y-66344636D01*
X110485364Y-66068149D01*
X110160250Y-65850915D01*
X109799003Y-65701282D01*
X109440642Y-65630000D01*
X109799003Y-65558718D01*
X109979254Y-65484056D01*
X118623600Y-74128402D01*
X118623601Y-76669096D01*
X117665770Y-77626928D01*
X117408750Y-77626928D01*
X117241592Y-77643392D01*
X117080858Y-77692150D01*
X116932725Y-77771329D01*
X116840000Y-77847426D01*
X116747275Y-77771329D01*
X116599142Y-77692150D01*
X116438408Y-77643392D01*
X116271250Y-77626928D01*
X115833750Y-77626928D01*
X115666592Y-77643392D01*
X115505858Y-77692150D01*
X115357725Y-77771329D01*
X115227885Y-77877885D01*
X115121329Y-78007725D01*
X115042150Y-78155858D01*
X114993392Y-78316592D01*
X114976928Y-78483750D01*
X114976928Y-78740770D01*
X114467699Y-79250000D01*
X110842313Y-79250000D01*
X110841008Y-79236746D01*
X110790472Y-79070150D01*
X110708405Y-78916614D01*
X110597962Y-78782038D01*
X110463386Y-78671595D01*
X110309850Y-78589528D01*
X110143254Y-78538992D01*
X109970000Y-78521928D01*
X108470000Y-78521928D01*
X108296746Y-78538992D01*
X108130150Y-78589528D01*
X107976614Y-78671595D01*
X107842038Y-78782038D01*
X107731595Y-78916614D01*
X107649528Y-79070150D01*
X107598992Y-79236746D01*
X107581928Y-79410000D01*
X107581928Y-80610000D01*
X107598992Y-80783254D01*
X107649528Y-80949850D01*
X107731595Y-81103386D01*
X107842038Y-81237962D01*
X107976614Y-81348405D01*
X108078337Y-81402777D01*
X108014866Y-81454866D01*
X107829294Y-81680986D01*
X107691401Y-81938966D01*
X107606487Y-82218889D01*
X107577815Y-82510000D01*
X107606487Y-82801111D01*
X107691401Y-83081034D01*
X107829294Y-83339014D01*
X108014866Y-83565134D01*
X108240986Y-83750706D01*
X108498966Y-83888599D01*
X108778889Y-83973513D01*
X108997050Y-83995000D01*
X109442950Y-83995000D01*
X109661111Y-83973513D01*
X109941034Y-83888599D01*
X110199014Y-83750706D01*
X110425134Y-83565134D01*
X110610706Y-83339014D01*
X110647595Y-83270000D01*
X114427699Y-83270000D01*
X114976928Y-83819230D01*
X114976928Y-84076250D01*
X114993392Y-84243408D01*
X115042150Y-84404142D01*
X115121329Y-84552275D01*
X115227885Y-84682115D01*
X115357725Y-84788671D01*
X115505858Y-84867850D01*
X115666592Y-84916608D01*
X115833750Y-84933072D01*
X116090770Y-84933072D01*
X116290101Y-85132402D01*
X116313899Y-85161401D01*
X116429624Y-85256374D01*
X116561653Y-85326946D01*
X116704914Y-85370403D01*
X116816567Y-85381400D01*
X116816575Y-85381400D01*
X116853900Y-85385076D01*
X116891225Y-85381400D01*
X118038578Y-85381400D01*
X118075900Y-85385076D01*
X118113222Y-85381400D01*
X118113233Y-85381400D01*
X118224886Y-85370403D01*
X118368147Y-85326946D01*
X118500176Y-85256374D01*
X118615901Y-85161401D01*
X118639704Y-85132398D01*
X119669103Y-84102999D01*
X119698101Y-84079201D01*
X119767203Y-83995000D01*
X119793074Y-83963477D01*
X119863646Y-83831447D01*
X119907103Y-83688186D01*
X119918100Y-83576533D01*
X119918100Y-83576523D01*
X119921776Y-83539200D01*
X119918100Y-83501877D01*
X119918100Y-81677301D01*
X121635901Y-79959501D01*
X121635900Y-82305598D01*
X117071499Y-86870000D01*
X111797322Y-86870000D01*
X111759999Y-86866324D01*
X111722676Y-86870000D01*
X111722667Y-86870000D01*
X111611014Y-86880997D01*
X111479647Y-86920846D01*
X111467753Y-86924454D01*
X111335723Y-86995026D01*
X111252083Y-87063668D01*
X111219999Y-87089999D01*
X111196201Y-87118997D01*
X103484298Y-94830901D01*
X103455300Y-94854699D01*
X103431502Y-94883697D01*
X103431501Y-94883698D01*
X103360326Y-94970424D01*
X103289754Y-95102454D01*
X103246298Y-95245715D01*
X103231624Y-95394700D01*
X103235301Y-95432032D01*
X103235300Y-106514525D01*
X103155750Y-106515000D01*
X102997000Y-106673750D01*
X102997000Y-107823000D01*
X103017000Y-107823000D01*
X103017000Y-108077000D01*
X102997000Y-108077000D01*
X102997000Y-108097000D01*
X102743000Y-108097000D01*
X102743000Y-108077000D01*
X101593750Y-108077000D01*
X101435000Y-108235750D01*
X101431928Y-108750000D01*
X100660000Y-108750000D01*
X100660000Y-107150000D01*
X101431928Y-107150000D01*
X101435000Y-107664250D01*
X101593750Y-107823000D01*
X102743000Y-107823000D01*
X102743000Y-106673750D01*
X102584250Y-106515000D01*
X102070000Y-106511928D01*
X101945518Y-106524188D01*
X101825820Y-106560498D01*
X101715506Y-106619463D01*
X101618815Y-106698815D01*
X101539463Y-106795506D01*
X101480498Y-106905820D01*
X101444188Y-107025518D01*
X101431928Y-107150000D01*
X100660000Y-107150000D01*
X100660000Y-72954838D01*
X108014767Y-72954838D01*
X108152724Y-73255044D01*
X108501967Y-73430882D01*
X108878804Y-73535207D01*
X109268753Y-73564009D01*
X109656828Y-73516184D01*
X110028116Y-73393568D01*
X110287276Y-73255044D01*
X110425233Y-72954838D01*
X109220000Y-71749605D01*
X108014767Y-72954838D01*
X100660000Y-72954838D01*
X100660000Y-71618753D01*
X107225991Y-71618753D01*
X107273816Y-72006828D01*
X107396432Y-72378116D01*
X107534956Y-72637276D01*
X107835162Y-72775233D01*
X109040395Y-71570000D01*
X109399605Y-71570000D01*
X110604838Y-72775233D01*
X110905044Y-72637276D01*
X111080882Y-72288033D01*
X111185207Y-71911196D01*
X111214009Y-71521247D01*
X111166184Y-71133172D01*
X111043568Y-70761884D01*
X110905044Y-70502724D01*
X110604838Y-70364767D01*
X109399605Y-71570000D01*
X109040395Y-71570000D01*
X107835162Y-70364767D01*
X107534956Y-70502724D01*
X107359118Y-70851967D01*
X107254793Y-71228804D01*
X107225991Y-71618753D01*
X100660000Y-71618753D01*
X100660000Y-50660000D01*
X199340000Y-50660000D01*
X199340001Y-149340000D01*
G37*
X199340001Y-149340000D02*
X100660000Y-149340000D01*
X100660000Y-141319039D01*
X101478096Y-141319039D01*
X101518754Y-141453087D01*
X101638963Y-141707420D01*
X101806481Y-141933414D01*
X102014869Y-142122385D01*
X102256119Y-142267070D01*
X102520960Y-142361909D01*
X102743000Y-142240624D01*
X102743000Y-141097000D01*
X102997000Y-141097000D01*
X102997000Y-142240624D01*
X103219040Y-142361909D01*
X103483881Y-142267070D01*
X103725131Y-142122385D01*
X103933519Y-141933414D01*
X104101037Y-141707420D01*
X104221246Y-141453087D01*
X104261904Y-141319039D01*
X104139915Y-141097000D01*
X102997000Y-141097000D01*
X102743000Y-141097000D01*
X101600085Y-141097000D01*
X101478096Y-141319039D01*
X100660000Y-141319039D01*
X100660000Y-108750000D01*
X101431928Y-108750000D01*
X101444188Y-108874482D01*
X101480498Y-108994180D01*
X101539463Y-109104494D01*
X101618815Y-109201185D01*
X101715506Y-109280537D01*
X101825820Y-109339502D01*
X101945518Y-109375812D01*
X101953961Y-109376643D01*
X101755363Y-109575241D01*
X101598320Y-109810273D01*
X101490147Y-110071426D01*
X101435000Y-110348665D01*
X101435000Y-110631335D01*
X101490147Y-110908574D01*
X101598320Y-111169727D01*
X101755363Y-111404759D01*
X101955241Y-111604637D01*
X102187759Y-111760000D01*
X101955241Y-111915363D01*
X101755363Y-112115241D01*
X101598320Y-112350273D01*
X101490147Y-112611426D01*
X101435000Y-112888665D01*
X101435000Y-113171335D01*
X101490147Y-113448574D01*
X101598320Y-113709727D01*
X101755363Y-113944759D01*
X101955241Y-114144637D01*
X102187759Y-114300000D01*
X101955241Y-114455363D01*
X101755363Y-114655241D01*
X101598320Y-114890273D01*
X101490147Y-115151426D01*
X101435000Y-115428665D01*
X101435000Y-115711335D01*
X101490147Y-115988574D01*
X101598320Y-116249727D01*
X101755363Y-116484759D01*
X101955241Y-116684637D01*
X102187759Y-116840000D01*
X101955241Y-116995363D01*
X101755363Y-117195241D01*
X101598320Y-117430273D01*
X101490147Y-117691426D01*
X101435000Y-117968665D01*
X101435000Y-118251335D01*
X101490147Y-118528574D01*
X101598320Y-118789727D01*
X101755363Y-119024759D01*
X101955241Y-119224637D01*
X102187759Y-119380000D01*
X101955241Y-119535363D01*
X101755363Y-119735241D01*
X101598320Y-119970273D01*
X101490147Y-120231426D01*
X101435000Y-120508665D01*
X101435000Y-120791335D01*
X101490147Y-121068574D01*
X101598320Y-121329727D01*
X101755363Y-121564759D01*
X101955241Y-121764637D01*
X102187759Y-121920000D01*
X101955241Y-122075363D01*
X101755363Y-122275241D01*
X101598320Y-122510273D01*
X101490147Y-122771426D01*
X101435000Y-123048665D01*
X101435000Y-123331335D01*
X101490147Y-123608574D01*
X101598320Y-123869727D01*
X101755363Y-124104759D01*
X101955241Y-124304637D01*
X102187759Y-124460000D01*
X101955241Y-124615363D01*
X101755363Y-124815241D01*
X101598320Y-125050273D01*
X101490147Y-125311426D01*
X101435000Y-125588665D01*
X101435000Y-125871335D01*
X101490147Y-126148574D01*
X101598320Y-126409727D01*
X101755363Y-126644759D01*
X101955241Y-126844637D01*
X102187759Y-127000000D01*
X101955241Y-127155363D01*
X101755363Y-127355241D01*
X101598320Y-127590273D01*
X101490147Y-127851426D01*
X101435000Y-128128665D01*
X101435000Y-128411335D01*
X101490147Y-128688574D01*
X101598320Y-128949727D01*
X101755363Y-129184759D01*
X101955241Y-129384637D01*
X102187759Y-129540000D01*
X101955241Y-129695363D01*
X101755363Y-129895241D01*
X101598320Y-130130273D01*
X101490147Y-130391426D01*
X101435000Y-130668665D01*
X101435000Y-130951335D01*
X101490147Y-131228574D01*
X101598320Y-131489727D01*
X101755363Y-131724759D01*
X101955241Y-131924637D01*
X102187759Y-132080000D01*
X101955241Y-132235363D01*
X101755363Y-132435241D01*
X101598320Y-132670273D01*
X101490147Y-132931426D01*
X101435000Y-133208665D01*
X101435000Y-133491335D01*
X101490147Y-133768574D01*
X101598320Y-134029727D01*
X101755363Y-134264759D01*
X101955241Y-134464637D01*
X102187759Y-134620000D01*
X101955241Y-134775363D01*
X101755363Y-134975241D01*
X101598320Y-135210273D01*
X101490147Y-135471426D01*
X101435000Y-135748665D01*
X101435000Y-136031335D01*
X101490147Y-136308574D01*
X101598320Y-136569727D01*
X101755363Y-136804759D01*
X101955241Y-137004637D01*
X102187759Y-137160000D01*
X101955241Y-137315363D01*
X101755363Y-137515241D01*
X101598320Y-137750273D01*
X101490147Y-138011426D01*
X101435000Y-138288665D01*
X101435000Y-138571335D01*
X101490147Y-138848574D01*
X101598320Y-139109727D01*
X101755363Y-139344759D01*
X101955241Y-139544637D01*
X102190273Y-139701680D01*
X102200865Y-139706067D01*
X102014869Y-139817615D01*
X101806481Y-140006586D01*
X101638963Y-140232580D01*
X101518754Y-140486913D01*
X101478096Y-140620961D01*
X101600085Y-140843000D01*
X102743000Y-140843000D01*
X102743000Y-140823000D01*
X102997000Y-140823000D01*
X102997000Y-140843000D01*
X104139915Y-140843000D01*
X104261904Y-140620961D01*
X104221246Y-140486913D01*
X104101037Y-140232580D01*
X103933519Y-140006586D01*
X103725131Y-139817615D01*
X103539135Y-139706067D01*
X103549727Y-139701680D01*
X103784759Y-139544637D01*
X103984637Y-139344759D01*
X104141680Y-139109727D01*
X104249853Y-138848574D01*
X104305000Y-138571335D01*
X104305000Y-138288665D01*
X104249853Y-138011426D01*
X104141680Y-137750273D01*
X103984637Y-137515241D01*
X103784759Y-137315363D01*
X103552241Y-137160000D01*
X103784759Y-137004637D01*
X103984637Y-136804759D01*
X104141680Y-136569727D01*
X104249853Y-136308574D01*
X104305000Y-136031335D01*
X104305000Y-135748665D01*
X104249853Y-135471426D01*
X104141680Y-135210273D01*
X103984637Y-134975241D01*
X103784759Y-134775363D01*
X103552241Y-134620000D01*
X103784759Y-134464637D01*
X103984637Y-134264759D01*
X104141680Y-134029727D01*
X104249853Y-133768574D01*
X104305000Y-133491335D01*
X104305000Y-133208665D01*
X104249853Y-132931426D01*
X104141680Y-132670273D01*
X103984637Y-132435241D01*
X103784759Y-132235363D01*
X103552241Y-132080000D01*
X103784759Y-131924637D01*
X103984637Y-131724759D01*
X104141680Y-131489727D01*
X104249853Y-131228574D01*
X104305000Y-130951335D01*
X104305000Y-130668665D01*
X104249853Y-130391426D01*
X104141680Y-130130273D01*
X103984637Y-129895241D01*
X103784759Y-129695363D01*
X103552241Y-129540000D01*
X103784759Y-129384637D01*
X103984637Y-129184759D01*
X104141680Y-128949727D01*
X104249853Y-128688574D01*
X104305000Y-128411335D01*
X104305000Y-128128665D01*
X104249853Y-127851426D01*
X104141680Y-127590273D01*
X103984637Y-127355241D01*
X103784759Y-127155363D01*
X103552241Y-127000000D01*
X103784759Y-126844637D01*
X103984637Y-126644759D01*
X104141680Y-126409727D01*
X104249853Y-126148574D01*
X104305000Y-125871335D01*
X104305000Y-125588665D01*
X104249853Y-125311426D01*
X104141680Y-125050273D01*
X103984637Y-124815241D01*
X103784759Y-124615363D01*
X103552241Y-124460000D01*
X103784759Y-124304637D01*
X103984637Y-124104759D01*
X104141680Y-123869727D01*
X104249853Y-123608574D01*
X104305000Y-123331335D01*
X104305000Y-123048665D01*
X104249853Y-122771426D01*
X104141680Y-122510273D01*
X103984637Y-122275241D01*
X103784759Y-122075363D01*
X103552241Y-121920000D01*
X103784759Y-121764637D01*
X103984637Y-121564759D01*
X104141680Y-121329727D01*
X104249853Y-121068574D01*
X104305000Y-120791335D01*
X104305000Y-120508665D01*
X104249853Y-120231426D01*
X104141680Y-119970273D01*
X103984637Y-119735241D01*
X103784759Y-119535363D01*
X103552241Y-119380000D01*
X103784759Y-119224637D01*
X103984637Y-119024759D01*
X104141680Y-118789727D01*
X104249853Y-118528574D01*
X104305000Y-118251335D01*
X104305000Y-117968665D01*
X104249853Y-117691426D01*
X104141680Y-117430273D01*
X103984637Y-117195241D01*
X103784759Y-116995363D01*
X103552241Y-116840000D01*
X103784759Y-116684637D01*
X103984637Y-116484759D01*
X104141680Y-116249727D01*
X104249853Y-115988574D01*
X104305000Y-115711335D01*
X104305000Y-115428665D01*
X104249853Y-115151426D01*
X104141680Y-114890273D01*
X103984637Y-114655241D01*
X103784759Y-114455363D01*
X103552241Y-114300000D01*
X103784759Y-114144637D01*
X103984637Y-113944759D01*
X104141680Y-113709727D01*
X104249853Y-113448574D01*
X104305000Y-113171335D01*
X104305000Y-112888665D01*
X104249853Y-112611426D01*
X104141680Y-112350273D01*
X103984637Y-112115241D01*
X103784759Y-111915363D01*
X103552241Y-111760000D01*
X103784759Y-111604637D01*
X103984637Y-111404759D01*
X104141680Y-111169727D01*
X104249853Y-110908574D01*
X104305000Y-110631335D01*
X104305000Y-110348665D01*
X104249853Y-110071426D01*
X104159531Y-109853370D01*
X104506298Y-109506603D01*
X104535301Y-109482801D01*
X104630274Y-109367076D01*
X104700846Y-109235047D01*
X104744303Y-109091786D01*
X104755300Y-108980133D01*
X104755300Y-108980125D01*
X104758976Y-108942800D01*
X104755300Y-108905475D01*
X104755300Y-99317285D01*
X106655000Y-99317285D01*
X106655000Y-100072715D01*
X106802377Y-100813628D01*
X107091467Y-101511554D01*
X107511161Y-102139670D01*
X108045330Y-102673839D01*
X108673446Y-103093533D01*
X109371372Y-103382623D01*
X110112285Y-103530000D01*
X110867715Y-103530000D01*
X111608628Y-103382623D01*
X112306554Y-103093533D01*
X112934670Y-102673839D01*
X113468839Y-102139670D01*
X113888533Y-101511554D01*
X114177623Y-100813628D01*
X114325000Y-100072715D01*
X114325000Y-99317285D01*
X114177623Y-98576372D01*
X113888533Y-97878446D01*
X113468839Y-97250330D01*
X112934670Y-96716161D01*
X112306554Y-96296467D01*
X111608628Y-96007377D01*
X110867715Y-95860000D01*
X110112285Y-95860000D01*
X109371372Y-96007377D01*
X108673446Y-96296467D01*
X108045330Y-96716161D01*
X107511161Y-97250330D01*
X107091467Y-97878446D01*
X106802377Y-98576372D01*
X106655000Y-99317285D01*
X104755300Y-99317285D01*
X104755300Y-95709501D01*
X112074802Y-88390000D01*
X117348978Y-88390000D01*
X117386300Y-88393676D01*
X117423622Y-88390000D01*
X117423633Y-88390000D01*
X117535286Y-88379003D01*
X117678547Y-88335546D01*
X117810576Y-88264974D01*
X117926301Y-88170001D01*
X117950104Y-88140997D01*
X122604529Y-83486572D01*
X122596928Y-83563750D01*
X122596928Y-83820770D01*
X117599003Y-88818696D01*
X117569999Y-88842499D01*
X117521431Y-88901680D01*
X117475026Y-88958224D01*
X117417953Y-89065000D01*
X117404454Y-89090254D01*
X117360997Y-89233515D01*
X117350000Y-89345168D01*
X117350000Y-89345178D01*
X117346324Y-89382500D01*
X117350000Y-89419822D01*
X117350001Y-106731956D01*
X117195241Y-106835363D01*
X116995363Y-107035241D01*
X116838320Y-107270273D01*
X116730147Y-107531426D01*
X116675000Y-107808665D01*
X116675000Y-108091335D01*
X116730147Y-108368574D01*
X116838320Y-108629727D01*
X116995363Y-108864759D01*
X117195241Y-109064637D01*
X117427759Y-109220000D01*
X117195241Y-109375363D01*
X116995363Y-109575241D01*
X116838320Y-109810273D01*
X116730147Y-110071426D01*
X116675000Y-110348665D01*
X116675000Y-110631335D01*
X116730147Y-110908574D01*
X116838320Y-111169727D01*
X116995363Y-111404759D01*
X117195241Y-111604637D01*
X117427759Y-111760000D01*
X117195241Y-111915363D01*
X116995363Y-112115241D01*
X116838320Y-112350273D01*
X116730147Y-112611426D01*
X116675000Y-112888665D01*
X116675000Y-113171335D01*
X116730147Y-113448574D01*
X116838320Y-113709727D01*
X116995363Y-113944759D01*
X117195241Y-114144637D01*
X117427759Y-114300000D01*
X117195241Y-114455363D01*
X116995363Y-114655241D01*
X116838320Y-114890273D01*
X116730147Y-115151426D01*
X116675000Y-115428665D01*
X116675000Y-115711335D01*
X116730147Y-115988574D01*
X116838320Y-116249727D01*
X116995363Y-116484759D01*
X117195241Y-116684637D01*
X117427759Y-116840000D01*
X117195241Y-116995363D01*
X116995363Y-117195241D01*
X116838320Y-117430273D01*
X116730147Y-117691426D01*
X116675000Y-117968665D01*
X116675000Y-118251335D01*
X116730147Y-118528574D01*
X116838320Y-118789727D01*
X116995363Y-119024759D01*
X117195241Y-119224637D01*
X117427759Y-119380000D01*
X117195241Y-119535363D01*
X116995363Y-119735241D01*
X116838320Y-119970273D01*
X116730147Y-120231426D01*
X116675000Y-120508665D01*
X116675000Y-120791335D01*
X116730147Y-121068574D01*
X116838320Y-121329727D01*
X116995363Y-121564759D01*
X117195241Y-121764637D01*
X117427759Y-121920000D01*
X117195241Y-122075363D01*
X116995363Y-122275241D01*
X116838320Y-122510273D01*
X116730147Y-122771426D01*
X116675000Y-123048665D01*
X116675000Y-123331335D01*
X116730147Y-123608574D01*
X116838320Y-123869727D01*
X116995363Y-124104759D01*
X117195241Y-124304637D01*
X117371167Y-124422187D01*
X117360997Y-124455714D01*
X117355842Y-124508053D01*
X117195241Y-124615363D01*
X116995363Y-124815241D01*
X116838320Y-125050273D01*
X116730147Y-125311426D01*
X116675000Y-125588665D01*
X116675000Y-125871335D01*
X116730147Y-126148574D01*
X116838320Y-126409727D01*
X116995363Y-126644759D01*
X117195241Y-126844637D01*
X117427759Y-127000000D01*
X117195241Y-127155363D01*
X116995363Y-127355241D01*
X116838320Y-127590273D01*
X116730147Y-127851426D01*
X116675000Y-128128665D01*
X116675000Y-128411335D01*
X116730147Y-128688574D01*
X116838320Y-128949727D01*
X116995363Y-129184759D01*
X117195241Y-129384637D01*
X117371167Y-129502187D01*
X117360997Y-129535714D01*
X117355842Y-129588053D01*
X117195241Y-129695363D01*
X116995363Y-129895241D01*
X116838320Y-130130273D01*
X116730147Y-130391426D01*
X116675000Y-130668665D01*
X116675000Y-130951335D01*
X116730147Y-131228574D01*
X116838320Y-131489727D01*
X116995363Y-131724759D01*
X117195241Y-131924637D01*
X117427759Y-132080000D01*
X117195241Y-132235363D01*
X116995363Y-132435241D01*
X116838320Y-132670273D01*
X116730147Y-132931426D01*
X116675000Y-133208665D01*
X116675000Y-133491335D01*
X116730147Y-133768574D01*
X116838320Y-134029727D01*
X116995363Y-134264759D01*
X117195241Y-134464637D01*
X117427759Y-134620000D01*
X117195241Y-134775363D01*
X116995363Y-134975241D01*
X116838320Y-135210273D01*
X116730147Y-135471426D01*
X116675000Y-135748665D01*
X116675000Y-136031335D01*
X116730147Y-136308574D01*
X116838320Y-136569727D01*
X116995363Y-136804759D01*
X117195241Y-137004637D01*
X117427759Y-137160000D01*
X117195241Y-137315363D01*
X116995363Y-137515241D01*
X116838320Y-137750273D01*
X116730147Y-138011426D01*
X116675000Y-138288665D01*
X116675000Y-138571335D01*
X116730147Y-138848574D01*
X116838320Y-139109727D01*
X116995363Y-139344759D01*
X117195241Y-139544637D01*
X117427759Y-139700000D01*
X117195241Y-139855363D01*
X116995363Y-140055241D01*
X116838320Y-140290273D01*
X116730147Y-140551426D01*
X116675000Y-140828665D01*
X116675000Y-141111335D01*
X116730147Y-141388574D01*
X116838320Y-141649727D01*
X116995363Y-141884759D01*
X117195241Y-142084637D01*
X117430273Y-142241680D01*
X117691426Y-142349853D01*
X117968665Y-142405000D01*
X118251335Y-142405000D01*
X118528574Y-142349853D01*
X118789727Y-142241680D01*
X119024759Y-142084637D01*
X119224637Y-141884759D01*
X119331947Y-141724158D01*
X119384286Y-141719003D01*
X119527547Y-141675546D01*
X119659576Y-141604974D01*
X119775301Y-141510001D01*
X119799104Y-141480997D01*
X126104688Y-135175413D01*
X152714192Y-135175413D01*
X152809956Y-135439814D01*
X153099571Y-135580704D01*
X153411108Y-135662384D01*
X153732595Y-135681718D01*
X154051675Y-135637961D01*
X154356088Y-135532795D01*
X154530044Y-135439814D01*
X154625808Y-135175413D01*
X159214192Y-135175413D01*
X159309956Y-135439814D01*
X159599571Y-135580704D01*
X159911108Y-135662384D01*
X160232595Y-135681718D01*
X160551675Y-135637961D01*
X160856088Y-135532795D01*
X161030044Y-135439814D01*
X161125808Y-135175413D01*
X165414192Y-135175413D01*
X165509956Y-135439814D01*
X165799571Y-135580704D01*
X166111108Y-135662384D01*
X166432595Y-135681718D01*
X166751675Y-135637961D01*
X167056088Y-135532795D01*
X167230044Y-135439814D01*
X167325808Y-135175413D01*
X171914192Y-135175413D01*
X172009956Y-135439814D01*
X172299571Y-135580704D01*
X172611108Y-135662384D01*
X172932595Y-135681718D01*
X173251675Y-135637961D01*
X173556088Y-135532795D01*
X173730044Y-135439814D01*
X173825808Y-135175413D01*
X178114192Y-135175413D01*
X178209956Y-135439814D01*
X178499571Y-135580704D01*
X178811108Y-135662384D01*
X179132595Y-135681718D01*
X179451675Y-135637961D01*
X179756088Y-135532795D01*
X179930044Y-135439814D01*
X180025808Y-135175413D01*
X184614192Y-135175413D01*
X184709956Y-135439814D01*
X184999571Y-135580704D01*
X185311108Y-135662384D01*
X185632595Y-135681718D01*
X185951675Y-135637961D01*
X186256088Y-135532795D01*
X186430044Y-135439814D01*
X186525808Y-135175413D01*
X185570000Y-134219605D01*
X184614192Y-135175413D01*
X180025808Y-135175413D01*
X179070000Y-134219605D01*
X178114192Y-135175413D01*
X173825808Y-135175413D01*
X172870000Y-134219605D01*
X171914192Y-135175413D01*
X167325808Y-135175413D01*
X166370000Y-134219605D01*
X165414192Y-135175413D01*
X161125808Y-135175413D01*
X160170000Y-134219605D01*
X159214192Y-135175413D01*
X154625808Y-135175413D01*
X153670000Y-134219605D01*
X152714192Y-135175413D01*
X126104688Y-135175413D01*
X127177506Y-134102595D01*
X152028282Y-134102595D01*
X152072039Y-134421675D01*
X152177205Y-134726088D01*
X152270186Y-134900044D01*
X152534587Y-134995808D01*
X153490395Y-134040000D01*
X153849605Y-134040000D01*
X154805413Y-134995808D01*
X155069814Y-134900044D01*
X155210704Y-134610429D01*
X155292384Y-134298892D01*
X155304189Y-134102595D01*
X158528282Y-134102595D01*
X158572039Y-134421675D01*
X158677205Y-134726088D01*
X158770186Y-134900044D01*
X159034587Y-134995808D01*
X159990395Y-134040000D01*
X160349605Y-134040000D01*
X161305413Y-134995808D01*
X161569814Y-134900044D01*
X161710704Y-134610429D01*
X161792384Y-134298892D01*
X161804189Y-134102595D01*
X164728282Y-134102595D01*
X164772039Y-134421675D01*
X164877205Y-134726088D01*
X164970186Y-134900044D01*
X165234587Y-134995808D01*
X166190395Y-134040000D01*
X166549605Y-134040000D01*
X167505413Y-134995808D01*
X167769814Y-134900044D01*
X167910704Y-134610429D01*
X167992384Y-134298892D01*
X168004189Y-134102595D01*
X171228282Y-134102595D01*
X171272039Y-134421675D01*
X171377205Y-134726088D01*
X171470186Y-134900044D01*
X171734587Y-134995808D01*
X172690395Y-134040000D01*
X173049605Y-134040000D01*
X174005413Y-134995808D01*
X174269814Y-134900044D01*
X174410704Y-134610429D01*
X174492384Y-134298892D01*
X174504189Y-134102595D01*
X177428282Y-134102595D01*
X177472039Y-134421675D01*
X177577205Y-134726088D01*
X177670186Y-134900044D01*
X177934587Y-134995808D01*
X178890395Y-134040000D01*
X179249605Y-134040000D01*
X180205413Y-134995808D01*
X180469814Y-134900044D01*
X180610704Y-134610429D01*
X180692384Y-134298892D01*
X180704189Y-134102595D01*
X183928282Y-134102595D01*
X183972039Y-134421675D01*
X184077205Y-134726088D01*
X184170186Y-134900044D01*
X184434587Y-134995808D01*
X185390395Y-134040000D01*
X185749605Y-134040000D01*
X186705413Y-134995808D01*
X186969814Y-134900044D01*
X187110704Y-134610429D01*
X187192384Y-134298892D01*
X187211718Y-133977405D01*
X187167961Y-133658325D01*
X187062795Y-133353912D01*
X186969814Y-133179956D01*
X186705413Y-133084192D01*
X185749605Y-134040000D01*
X185390395Y-134040000D01*
X184434587Y-133084192D01*
X184170186Y-133179956D01*
X184029296Y-133469571D01*
X183947616Y-133781108D01*
X183928282Y-134102595D01*
X180704189Y-134102595D01*
X180711718Y-133977405D01*
X180667961Y-133658325D01*
X180562795Y-133353912D01*
X180469814Y-133179956D01*
X180205413Y-133084192D01*
X179249605Y-134040000D01*
X178890395Y-134040000D01*
X177934587Y-133084192D01*
X177670186Y-133179956D01*
X177529296Y-133469571D01*
X177447616Y-133781108D01*
X177428282Y-134102595D01*
X174504189Y-134102595D01*
X174511718Y-133977405D01*
X174467961Y-133658325D01*
X174362795Y-133353912D01*
X174269814Y-133179956D01*
X174005413Y-133084192D01*
X173049605Y-134040000D01*
X172690395Y-134040000D01*
X171734587Y-133084192D01*
X171470186Y-133179956D01*
X171329296Y-133469571D01*
X171247616Y-133781108D01*
X171228282Y-134102595D01*
X168004189Y-134102595D01*
X168011718Y-133977405D01*
X167967961Y-133658325D01*
X167862795Y-133353912D01*
X167769814Y-133179956D01*
X167505413Y-133084192D01*
X166549605Y-134040000D01*
X166190395Y-134040000D01*
X165234587Y-133084192D01*
X164970186Y-133179956D01*
X164829296Y-133469571D01*
X164747616Y-133781108D01*
X164728282Y-134102595D01*
X161804189Y-134102595D01*
X161811718Y-133977405D01*
X161767961Y-133658325D01*
X161662795Y-133353912D01*
X161569814Y-133179956D01*
X161305413Y-133084192D01*
X160349605Y-134040000D01*
X159990395Y-134040000D01*
X159034587Y-133084192D01*
X158770186Y-133179956D01*
X158629296Y-133469571D01*
X158547616Y-133781108D01*
X158528282Y-134102595D01*
X155304189Y-134102595D01*
X155311718Y-133977405D01*
X155267961Y-133658325D01*
X155162795Y-133353912D01*
X155069814Y-133179956D01*
X154805413Y-133084192D01*
X153849605Y-134040000D01*
X153490395Y-134040000D01*
X152534587Y-133084192D01*
X152270186Y-133179956D01*
X152129296Y-133469571D01*
X152047616Y-133781108D01*
X152028282Y-134102595D01*
X127177506Y-134102595D01*
X128375514Y-132904587D01*
X152714192Y-132904587D01*
X153670000Y-133860395D01*
X154625808Y-132904587D01*
X159214192Y-132904587D01*
X160170000Y-133860395D01*
X161125808Y-132904587D01*
X165414192Y-132904587D01*
X166370000Y-133860395D01*
X167325808Y-132904587D01*
X171914192Y-132904587D01*
X172870000Y-133860395D01*
X173825808Y-132904587D01*
X178114192Y-132904587D01*
X179070000Y-133860395D01*
X180025808Y-132904587D01*
X184614192Y-132904587D01*
X185570000Y-133860395D01*
X186525808Y-132904587D01*
X186430044Y-132640186D01*
X186140429Y-132499296D01*
X185828892Y-132417616D01*
X185507405Y-132398282D01*
X185188325Y-132442039D01*
X184883912Y-132547205D01*
X184709956Y-132640186D01*
X184614192Y-132904587D01*
X180025808Y-132904587D01*
X179930044Y-132640186D01*
X179640429Y-132499296D01*
X179328892Y-132417616D01*
X179007405Y-132398282D01*
X178688325Y-132442039D01*
X178383912Y-132547205D01*
X178209956Y-132640186D01*
X178114192Y-132904587D01*
X173825808Y-132904587D01*
X173730044Y-132640186D01*
X173440429Y-132499296D01*
X173128892Y-132417616D01*
X172807405Y-132398282D01*
X172488325Y-132442039D01*
X172183912Y-132547205D01*
X172009956Y-132640186D01*
X171914192Y-132904587D01*
X167325808Y-132904587D01*
X167230044Y-132640186D01*
X166940429Y-132499296D01*
X166628892Y-132417616D01*
X166307405Y-132398282D01*
X165988325Y-132442039D01*
X165683912Y-132547205D01*
X165509956Y-132640186D01*
X165414192Y-132904587D01*
X161125808Y-132904587D01*
X161030044Y-132640186D01*
X160740429Y-132499296D01*
X160428892Y-132417616D01*
X160107405Y-132398282D01*
X159788325Y-132442039D01*
X159483912Y-132547205D01*
X159309956Y-132640186D01*
X159214192Y-132904587D01*
X154625808Y-132904587D01*
X154530044Y-132640186D01*
X154240429Y-132499296D01*
X153928892Y-132417616D01*
X153607405Y-132398282D01*
X153288325Y-132442039D01*
X152983912Y-132547205D01*
X152809956Y-132640186D01*
X152714192Y-132904587D01*
X128375514Y-132904587D01*
X131901134Y-129378967D01*
X152035000Y-129378967D01*
X152035000Y-129701033D01*
X152097832Y-130016912D01*
X152221082Y-130314463D01*
X152400013Y-130582252D01*
X152627748Y-130809987D01*
X152895537Y-130988918D01*
X153193088Y-131112168D01*
X153508967Y-131175000D01*
X153831033Y-131175000D01*
X154146912Y-131112168D01*
X154444463Y-130988918D01*
X154712252Y-130809987D01*
X154939987Y-130582252D01*
X155118918Y-130314463D01*
X155242168Y-130016912D01*
X155305000Y-129701033D01*
X155305000Y-129378967D01*
X158535000Y-129378967D01*
X158535000Y-129701033D01*
X158597832Y-130016912D01*
X158721082Y-130314463D01*
X158900013Y-130582252D01*
X159127748Y-130809987D01*
X159395537Y-130988918D01*
X159693088Y-131112168D01*
X160008967Y-131175000D01*
X160331033Y-131175000D01*
X160646912Y-131112168D01*
X160944463Y-130988918D01*
X161212252Y-130809987D01*
X161439987Y-130582252D01*
X161618918Y-130314463D01*
X161742168Y-130016912D01*
X161805000Y-129701033D01*
X161805000Y-129378967D01*
X164735000Y-129378967D01*
X164735000Y-129701033D01*
X164797832Y-130016912D01*
X164921082Y-130314463D01*
X165100013Y-130582252D01*
X165327748Y-130809987D01*
X165595537Y-130988918D01*
X165893088Y-131112168D01*
X166208967Y-131175000D01*
X166531033Y-131175000D01*
X166846912Y-131112168D01*
X167144463Y-130988918D01*
X167412252Y-130809987D01*
X167639987Y-130582252D01*
X167818918Y-130314463D01*
X167942168Y-130016912D01*
X168005000Y-129701033D01*
X168005000Y-129378967D01*
X171235000Y-129378967D01*
X171235000Y-129701033D01*
X171297832Y-130016912D01*
X171421082Y-130314463D01*
X171600013Y-130582252D01*
X171827748Y-130809987D01*
X172095537Y-130988918D01*
X172393088Y-131112168D01*
X172708967Y-131175000D01*
X173031033Y-131175000D01*
X173346912Y-131112168D01*
X173644463Y-130988918D01*
X173912252Y-130809987D01*
X174139987Y-130582252D01*
X174318918Y-130314463D01*
X174442168Y-130016912D01*
X174505000Y-129701033D01*
X174505000Y-129378967D01*
X177435000Y-129378967D01*
X177435000Y-129701033D01*
X177497832Y-130016912D01*
X177621082Y-130314463D01*
X177800013Y-130582252D01*
X178027748Y-130809987D01*
X178295537Y-130988918D01*
X178593088Y-131112168D01*
X178908967Y-131175000D01*
X179231033Y-131175000D01*
X179546912Y-131112168D01*
X179844463Y-130988918D01*
X180112252Y-130809987D01*
X180339987Y-130582252D01*
X180518918Y-130314463D01*
X180642168Y-130016912D01*
X180705000Y-129701033D01*
X180705000Y-129378967D01*
X183935000Y-129378967D01*
X183935000Y-129701033D01*
X183997832Y-130016912D01*
X184121082Y-130314463D01*
X184300013Y-130582252D01*
X184527748Y-130809987D01*
X184795537Y-130988918D01*
X185093088Y-131112168D01*
X185408967Y-131175000D01*
X185731033Y-131175000D01*
X186046912Y-131112168D01*
X186344463Y-130988918D01*
X186612252Y-130809987D01*
X186839987Y-130582252D01*
X187018918Y-130314463D01*
X187142168Y-130016912D01*
X187205000Y-129701033D01*
X187205000Y-129378967D01*
X187142168Y-129063088D01*
X187018918Y-128765537D01*
X186839987Y-128497748D01*
X186612252Y-128270013D01*
X186344463Y-128091082D01*
X186046912Y-127967832D01*
X185731033Y-127905000D01*
X185408967Y-127905000D01*
X185093088Y-127967832D01*
X184795537Y-128091082D01*
X184527748Y-128270013D01*
X184300013Y-128497748D01*
X184121082Y-128765537D01*
X183997832Y-129063088D01*
X183935000Y-129378967D01*
X180705000Y-129378967D01*
X180642168Y-129063088D01*
X180518918Y-128765537D01*
X180339987Y-128497748D01*
X180112252Y-128270013D01*
X179844463Y-128091082D01*
X179546912Y-127967832D01*
X179231033Y-127905000D01*
X178908967Y-127905000D01*
X178593088Y-127967832D01*
X178295537Y-128091082D01*
X178027748Y-128270013D01*
X177800013Y-128497748D01*
X177621082Y-128765537D01*
X177497832Y-129063088D01*
X177435000Y-129378967D01*
X174505000Y-129378967D01*
X174442168Y-129063088D01*
X174318918Y-128765537D01*
X174139987Y-128497748D01*
X173912252Y-128270013D01*
X173644463Y-128091082D01*
X173346912Y-127967832D01*
X173031033Y-127905000D01*
X172708967Y-127905000D01*
X172393088Y-127967832D01*
X172095537Y-128091082D01*
X171827748Y-128270013D01*
X171600013Y-128497748D01*
X171421082Y-128765537D01*
X171297832Y-129063088D01*
X171235000Y-129378967D01*
X168005000Y-129378967D01*
X167942168Y-129063088D01*
X167818918Y-128765537D01*
X167639987Y-128497748D01*
X167412252Y-128270013D01*
X167144463Y-128091082D01*
X166846912Y-127967832D01*
X166531033Y-127905000D01*
X166208967Y-127905000D01*
X165893088Y-127967832D01*
X165595537Y-128091082D01*
X165327748Y-128270013D01*
X165100013Y-128497748D01*
X164921082Y-128765537D01*
X164797832Y-129063088D01*
X164735000Y-129378967D01*
X161805000Y-129378967D01*
X161742168Y-129063088D01*
X161618918Y-128765537D01*
X161439987Y-128497748D01*
X161212252Y-128270013D01*
X160944463Y-128091082D01*
X160646912Y-127967832D01*
X160331033Y-127905000D01*
X160008967Y-127905000D01*
X159693088Y-127967832D01*
X159395537Y-128091082D01*
X159127748Y-128270013D01*
X158900013Y-128497748D01*
X158721082Y-128765537D01*
X158597832Y-129063088D01*
X158535000Y-129378967D01*
X155305000Y-129378967D01*
X155242168Y-129063088D01*
X155118918Y-128765537D01*
X154939987Y-128497748D01*
X154712252Y-128270013D01*
X154444463Y-128091082D01*
X154146912Y-127967832D01*
X153831033Y-127905000D01*
X153508967Y-127905000D01*
X153193088Y-127967832D01*
X152895537Y-128091082D01*
X152627748Y-128270013D01*
X152400013Y-128497748D01*
X152221082Y-128765537D01*
X152097832Y-129063088D01*
X152035000Y-129378967D01*
X131901134Y-129378967D01*
X141344688Y-119935413D01*
X165414192Y-119935413D01*
X165509956Y-120199814D01*
X165799571Y-120340704D01*
X166111108Y-120422384D01*
X166432595Y-120441718D01*
X166751675Y-120397961D01*
X167056088Y-120292795D01*
X167230044Y-120199814D01*
X167325808Y-119935413D01*
X171914192Y-119935413D01*
X172009956Y-120199814D01*
X172299571Y-120340704D01*
X172611108Y-120422384D01*
X172932595Y-120441718D01*
X173251675Y-120397961D01*
X173556088Y-120292795D01*
X173730044Y-120199814D01*
X173825808Y-119935413D01*
X172870000Y-118979605D01*
X171914192Y-119935413D01*
X167325808Y-119935413D01*
X166370000Y-118979605D01*
X165414192Y-119935413D01*
X141344688Y-119935413D01*
X142417506Y-118862595D01*
X164728282Y-118862595D01*
X164772039Y-119181675D01*
X164877205Y-119486088D01*
X164970186Y-119660044D01*
X165234587Y-119755808D01*
X166190395Y-118800000D01*
X166549605Y-118800000D01*
X167505413Y-119755808D01*
X167769814Y-119660044D01*
X167910704Y-119370429D01*
X167992384Y-119058892D01*
X168004189Y-118862595D01*
X171228282Y-118862595D01*
X171272039Y-119181675D01*
X171377205Y-119486088D01*
X171470186Y-119660044D01*
X171734587Y-119755808D01*
X172690395Y-118800000D01*
X173049605Y-118800000D01*
X174005413Y-119755808D01*
X174269814Y-119660044D01*
X174410704Y-119370429D01*
X174492384Y-119058892D01*
X174511718Y-118737405D01*
X174467961Y-118418325D01*
X174362795Y-118113912D01*
X174269814Y-117939956D01*
X174005413Y-117844192D01*
X173049605Y-118800000D01*
X172690395Y-118800000D01*
X171734587Y-117844192D01*
X171470186Y-117939956D01*
X171329296Y-118229571D01*
X171247616Y-118541108D01*
X171228282Y-118862595D01*
X168004189Y-118862595D01*
X168011718Y-118737405D01*
X167967961Y-118418325D01*
X167862795Y-118113912D01*
X167769814Y-117939956D01*
X167505413Y-117844192D01*
X166549605Y-118800000D01*
X166190395Y-118800000D01*
X165234587Y-117844192D01*
X164970186Y-117939956D01*
X164829296Y-118229571D01*
X164747616Y-118541108D01*
X164728282Y-118862595D01*
X142417506Y-118862595D01*
X143615514Y-117664587D01*
X165414192Y-117664587D01*
X166370000Y-118620395D01*
X167325808Y-117664587D01*
X171914192Y-117664587D01*
X172870000Y-118620395D01*
X173825808Y-117664587D01*
X173730044Y-117400186D01*
X173440429Y-117259296D01*
X173128892Y-117177616D01*
X172807405Y-117158282D01*
X172488325Y-117202039D01*
X172183912Y-117307205D01*
X172009956Y-117400186D01*
X171914192Y-117664587D01*
X167325808Y-117664587D01*
X167230044Y-117400186D01*
X166940429Y-117259296D01*
X166628892Y-117177616D01*
X166307405Y-117158282D01*
X165988325Y-117202039D01*
X165683912Y-117307205D01*
X165509956Y-117400186D01*
X165414192Y-117664587D01*
X143615514Y-117664587D01*
X146220102Y-115060000D01*
X164915091Y-115060000D01*
X164921082Y-115074463D01*
X165100013Y-115342252D01*
X165327748Y-115569987D01*
X165595537Y-115748918D01*
X165893088Y-115872168D01*
X166208967Y-115935000D01*
X166531033Y-115935000D01*
X166846912Y-115872168D01*
X167144463Y-115748918D01*
X167412252Y-115569987D01*
X167639987Y-115342252D01*
X167818918Y-115074463D01*
X167942168Y-114776912D01*
X168005000Y-114461033D01*
X168005000Y-114138967D01*
X171235000Y-114138967D01*
X171235000Y-114461033D01*
X171297832Y-114776912D01*
X171421082Y-115074463D01*
X171600013Y-115342252D01*
X171827748Y-115569987D01*
X172095537Y-115748918D01*
X172393088Y-115872168D01*
X172708967Y-115935000D01*
X173031033Y-115935000D01*
X173346912Y-115872168D01*
X173644463Y-115748918D01*
X173912252Y-115569987D01*
X174139987Y-115342252D01*
X174318918Y-115074463D01*
X174442168Y-114776912D01*
X174505000Y-114461033D01*
X174505000Y-114138967D01*
X174442168Y-113823088D01*
X174318918Y-113525537D01*
X174139987Y-113257748D01*
X173912252Y-113030013D01*
X173644463Y-112851082D01*
X173346912Y-112727832D01*
X173031033Y-112665000D01*
X172708967Y-112665000D01*
X172393088Y-112727832D01*
X172095537Y-112851082D01*
X171827748Y-113030013D01*
X171600013Y-113257748D01*
X171421082Y-113525537D01*
X171297832Y-113823088D01*
X171235000Y-114138967D01*
X168005000Y-114138967D01*
X167942168Y-113823088D01*
X167818918Y-113525537D01*
X167639987Y-113257748D01*
X167412252Y-113030013D01*
X167144463Y-112851082D01*
X166846912Y-112727832D01*
X166531033Y-112665000D01*
X166208967Y-112665000D01*
X165893088Y-112727832D01*
X165595537Y-112851082D01*
X165327748Y-113030013D01*
X165100013Y-113257748D01*
X164921082Y-113525537D01*
X164915091Y-113540000D01*
X145942625Y-113540000D01*
X145905300Y-113536324D01*
X145867975Y-113540000D01*
X145867967Y-113540000D01*
X145756314Y-113550997D01*
X145613053Y-113594454D01*
X145481024Y-113665026D01*
X145365299Y-113759999D01*
X145341501Y-113788997D01*
X119149947Y-139980551D01*
X119024759Y-139855363D01*
X118792241Y-139700000D01*
X119024759Y-139544637D01*
X119224637Y-139344759D01*
X119381680Y-139109727D01*
X119489853Y-138848574D01*
X119545000Y-138571335D01*
X119545000Y-138288665D01*
X119489853Y-138011426D01*
X119381680Y-137750273D01*
X119224637Y-137515241D01*
X119024759Y-137315363D01*
X118792241Y-137160000D01*
X119024759Y-137004637D01*
X119224637Y-136804759D01*
X119381680Y-136569727D01*
X119489853Y-136308574D01*
X119545000Y-136031335D01*
X119545000Y-135748665D01*
X119489853Y-135471426D01*
X119381680Y-135210273D01*
X119224637Y-134975241D01*
X119024759Y-134775363D01*
X118792241Y-134620000D01*
X119024759Y-134464637D01*
X119224637Y-134264759D01*
X119381680Y-134029727D01*
X119489853Y-133768574D01*
X119545000Y-133491335D01*
X119545000Y-133208665D01*
X119489853Y-132931426D01*
X119381680Y-132670273D01*
X119224637Y-132435241D01*
X119024759Y-132235363D01*
X118792241Y-132080000D01*
X119024759Y-131924637D01*
X119224637Y-131724759D01*
X119381680Y-131489727D01*
X119489853Y-131228574D01*
X119545000Y-130951335D01*
X119545000Y-130668665D01*
X119489853Y-130391426D01*
X119381680Y-130130273D01*
X119237023Y-129913778D01*
X127028503Y-122122299D01*
X127057501Y-122098501D01*
X127152474Y-121982776D01*
X127223046Y-121850747D01*
X127266503Y-121707486D01*
X127277500Y-121595833D01*
X127277500Y-121595824D01*
X127281176Y-121558501D01*
X127277500Y-121521178D01*
X127277500Y-102128967D01*
X129325000Y-102128967D01*
X129325000Y-102451033D01*
X129387832Y-102766912D01*
X129511082Y-103064463D01*
X129690013Y-103332252D01*
X129917748Y-103559987D01*
X130185537Y-103738918D01*
X130483088Y-103862168D01*
X130798967Y-103925000D01*
X131121033Y-103925000D01*
X131436912Y-103862168D01*
X131734463Y-103738918D01*
X132002252Y-103559987D01*
X132136826Y-103425413D01*
X185099192Y-103425413D01*
X185194956Y-103689814D01*
X185484571Y-103830704D01*
X185796108Y-103912384D01*
X186117595Y-103931718D01*
X186436675Y-103887961D01*
X186741088Y-103782795D01*
X186915044Y-103689814D01*
X187010808Y-103425413D01*
X191599192Y-103425413D01*
X191694956Y-103689814D01*
X191984571Y-103830704D01*
X192296108Y-103912384D01*
X192617595Y-103931718D01*
X192936675Y-103887961D01*
X193241088Y-103782795D01*
X193415044Y-103689814D01*
X193510808Y-103425413D01*
X192555000Y-102469605D01*
X191599192Y-103425413D01*
X187010808Y-103425413D01*
X186055000Y-102469605D01*
X185099192Y-103425413D01*
X132136826Y-103425413D01*
X132229987Y-103332252D01*
X132408918Y-103064463D01*
X132532168Y-102766912D01*
X132595000Y-102451033D01*
X132595000Y-102352595D01*
X184413282Y-102352595D01*
X184457039Y-102671675D01*
X184562205Y-102976088D01*
X184655186Y-103150044D01*
X184919587Y-103245808D01*
X185875395Y-102290000D01*
X186234605Y-102290000D01*
X187190413Y-103245808D01*
X187454814Y-103150044D01*
X187595704Y-102860429D01*
X187677384Y-102548892D01*
X187689189Y-102352595D01*
X190913282Y-102352595D01*
X190957039Y-102671675D01*
X191062205Y-102976088D01*
X191155186Y-103150044D01*
X191419587Y-103245808D01*
X192375395Y-102290000D01*
X192734605Y-102290000D01*
X193690413Y-103245808D01*
X193954814Y-103150044D01*
X194095704Y-102860429D01*
X194177384Y-102548892D01*
X194196718Y-102227405D01*
X194152961Y-101908325D01*
X194047795Y-101603912D01*
X193954814Y-101429956D01*
X193690413Y-101334192D01*
X192734605Y-102290000D01*
X192375395Y-102290000D01*
X191419587Y-101334192D01*
X191155186Y-101429956D01*
X191014296Y-101719571D01*
X190932616Y-102031108D01*
X190913282Y-102352595D01*
X187689189Y-102352595D01*
X187696718Y-102227405D01*
X187652961Y-101908325D01*
X187547795Y-101603912D01*
X187454814Y-101429956D01*
X187190413Y-101334192D01*
X186234605Y-102290000D01*
X185875395Y-102290000D01*
X184919587Y-101334192D01*
X184655186Y-101429956D01*
X184514296Y-101719571D01*
X184432616Y-102031108D01*
X184413282Y-102352595D01*
X132595000Y-102352595D01*
X132595000Y-102128967D01*
X132532168Y-101813088D01*
X132408918Y-101515537D01*
X132229987Y-101247748D01*
X132136826Y-101154587D01*
X185099192Y-101154587D01*
X186055000Y-102110395D01*
X187010808Y-101154587D01*
X191599192Y-101154587D01*
X192555000Y-102110395D01*
X193510808Y-101154587D01*
X193415044Y-100890186D01*
X193125429Y-100749296D01*
X192813892Y-100667616D01*
X192492405Y-100648282D01*
X192173325Y-100692039D01*
X191868912Y-100797205D01*
X191694956Y-100890186D01*
X191599192Y-101154587D01*
X187010808Y-101154587D01*
X186915044Y-100890186D01*
X186625429Y-100749296D01*
X186313892Y-100667616D01*
X185992405Y-100648282D01*
X185673325Y-100692039D01*
X185368912Y-100797205D01*
X185194956Y-100890186D01*
X185099192Y-101154587D01*
X132136826Y-101154587D01*
X132002252Y-101020013D01*
X131734463Y-100841082D01*
X131436912Y-100717832D01*
X131121033Y-100655000D01*
X130798967Y-100655000D01*
X130483088Y-100717832D01*
X130185537Y-100841082D01*
X129917748Y-101020013D01*
X129690013Y-101247748D01*
X129511082Y-101515537D01*
X129387832Y-101813088D01*
X129325000Y-102128967D01*
X127277500Y-102128967D01*
X127277500Y-98925413D01*
X130004192Y-98925413D01*
X130099956Y-99189814D01*
X130389571Y-99330704D01*
X130701108Y-99412384D01*
X131022595Y-99431718D01*
X131341675Y-99387961D01*
X131646088Y-99282795D01*
X131820044Y-99189814D01*
X131915808Y-98925413D01*
X130960000Y-97969605D01*
X130004192Y-98925413D01*
X127277500Y-98925413D01*
X127277500Y-97852595D01*
X129318282Y-97852595D01*
X129362039Y-98171675D01*
X129467205Y-98476088D01*
X129560186Y-98650044D01*
X129824587Y-98745808D01*
X130780395Y-97790000D01*
X131139605Y-97790000D01*
X132095413Y-98745808D01*
X132359814Y-98650044D01*
X132500704Y-98360429D01*
X132582384Y-98048892D01*
X132601718Y-97727405D01*
X132588219Y-97628967D01*
X184420000Y-97628967D01*
X184420000Y-97951033D01*
X184482832Y-98266912D01*
X184606082Y-98564463D01*
X184785013Y-98832252D01*
X185012748Y-99059987D01*
X185280537Y-99238918D01*
X185578088Y-99362168D01*
X185893967Y-99425000D01*
X186216033Y-99425000D01*
X186531912Y-99362168D01*
X186829463Y-99238918D01*
X187097252Y-99059987D01*
X187324987Y-98832252D01*
X187503918Y-98564463D01*
X187627168Y-98266912D01*
X187690000Y-97951033D01*
X187690000Y-97628967D01*
X190920000Y-97628967D01*
X190920000Y-97951033D01*
X190982832Y-98266912D01*
X191106082Y-98564463D01*
X191285013Y-98832252D01*
X191512748Y-99059987D01*
X191780537Y-99238918D01*
X192078088Y-99362168D01*
X192393967Y-99425000D01*
X192716033Y-99425000D01*
X193031912Y-99362168D01*
X193329463Y-99238918D01*
X193597252Y-99059987D01*
X193824987Y-98832252D01*
X194003918Y-98564463D01*
X194127168Y-98266912D01*
X194190000Y-97951033D01*
X194190000Y-97628967D01*
X194127168Y-97313088D01*
X194003918Y-97015537D01*
X193824987Y-96747748D01*
X193597252Y-96520013D01*
X193329463Y-96341082D01*
X193031912Y-96217832D01*
X192716033Y-96155000D01*
X192393967Y-96155000D01*
X192078088Y-96217832D01*
X191780537Y-96341082D01*
X191512748Y-96520013D01*
X191285013Y-96747748D01*
X191106082Y-97015537D01*
X190982832Y-97313088D01*
X190920000Y-97628967D01*
X187690000Y-97628967D01*
X187627168Y-97313088D01*
X187503918Y-97015537D01*
X187324987Y-96747748D01*
X187097252Y-96520013D01*
X186829463Y-96341082D01*
X186531912Y-96217832D01*
X186216033Y-96155000D01*
X185893967Y-96155000D01*
X185578088Y-96217832D01*
X185280537Y-96341082D01*
X185012748Y-96520013D01*
X184785013Y-96747748D01*
X184606082Y-97015537D01*
X184482832Y-97313088D01*
X184420000Y-97628967D01*
X132588219Y-97628967D01*
X132557961Y-97408325D01*
X132452795Y-97103912D01*
X132359814Y-96929956D01*
X132095413Y-96834192D01*
X131139605Y-97790000D01*
X130780395Y-97790000D01*
X129824587Y-96834192D01*
X129560186Y-96929956D01*
X129419296Y-97219571D01*
X129337616Y-97531108D01*
X129318282Y-97852595D01*
X127277500Y-97852595D01*
X127277500Y-96654587D01*
X130004192Y-96654587D01*
X130960000Y-97610395D01*
X131915808Y-96654587D01*
X131820044Y-96390186D01*
X131530429Y-96249296D01*
X131218892Y-96167616D01*
X130897405Y-96148282D01*
X130578325Y-96192039D01*
X130273912Y-96297205D01*
X130099956Y-96390186D01*
X130004192Y-96654587D01*
X127277500Y-96654587D01*
X127277500Y-85850000D01*
X133401957Y-85850000D01*
X133505363Y-86004759D01*
X133705241Y-86204637D01*
X133937759Y-86360000D01*
X133705241Y-86515363D01*
X133505363Y-86715241D01*
X133348320Y-86950273D01*
X133240147Y-87211426D01*
X133185000Y-87488665D01*
X133185000Y-87771335D01*
X133240147Y-88048574D01*
X133348320Y-88309727D01*
X133505363Y-88544759D01*
X133705241Y-88744637D01*
X133940273Y-88901680D01*
X134201426Y-89009853D01*
X134478665Y-89065000D01*
X134761335Y-89065000D01*
X135038574Y-89009853D01*
X135299727Y-88901680D01*
X135534759Y-88744637D01*
X135734637Y-88544759D01*
X135891680Y-88309727D01*
X135999853Y-88048574D01*
X136013684Y-87979039D01*
X140848096Y-87979039D01*
X140888754Y-88113087D01*
X141008963Y-88367420D01*
X141176481Y-88593414D01*
X141384869Y-88782385D01*
X141626119Y-88927070D01*
X141890960Y-89021909D01*
X142113000Y-88900624D01*
X142113000Y-87757000D01*
X142367000Y-87757000D01*
X142367000Y-88900624D01*
X142589040Y-89021909D01*
X142853881Y-88927070D01*
X143095131Y-88782385D01*
X143303519Y-88593414D01*
X143471037Y-88367420D01*
X143591246Y-88113087D01*
X143631904Y-87979039D01*
X143509915Y-87757000D01*
X142367000Y-87757000D01*
X142113000Y-87757000D01*
X140970085Y-87757000D01*
X140848096Y-87979039D01*
X136013684Y-87979039D01*
X136055000Y-87771335D01*
X136055000Y-87488665D01*
X135999853Y-87211426D01*
X135891680Y-86950273D01*
X135734637Y-86715241D01*
X135534759Y-86515363D01*
X135302241Y-86360000D01*
X135534759Y-86204637D01*
X135734637Y-86004759D01*
X135891680Y-85769727D01*
X135999853Y-85508574D01*
X136055000Y-85231335D01*
X136055000Y-84948665D01*
X135999853Y-84671426D01*
X135891680Y-84410273D01*
X135734637Y-84175241D01*
X135534759Y-83975363D01*
X135302241Y-83820000D01*
X135534759Y-83664637D01*
X135734637Y-83464759D01*
X135891680Y-83229727D01*
X135999853Y-82968574D01*
X136055000Y-82691335D01*
X136055000Y-82408665D01*
X135999853Y-82131426D01*
X135909502Y-81913299D01*
X136256398Y-81566403D01*
X136285401Y-81542601D01*
X136380374Y-81426876D01*
X136450946Y-81294847D01*
X136494403Y-81151586D01*
X136505400Y-81039933D01*
X136505400Y-81039932D01*
X136509077Y-81002600D01*
X136505400Y-80965267D01*
X136505400Y-79103422D01*
X136509076Y-79066099D01*
X136505400Y-79028776D01*
X136505400Y-79028767D01*
X136503951Y-79014052D01*
X140550901Y-83061003D01*
X140574699Y-83090001D01*
X140690424Y-83184974D01*
X140822453Y-83255546D01*
X140965714Y-83299003D01*
X141018053Y-83304158D01*
X141125363Y-83464759D01*
X141325241Y-83664637D01*
X141557759Y-83820000D01*
X141325241Y-83975363D01*
X141125363Y-84175241D01*
X140968320Y-84410273D01*
X140860147Y-84671426D01*
X140805000Y-84948665D01*
X140805000Y-85231335D01*
X140860147Y-85508574D01*
X140968320Y-85769727D01*
X141125363Y-86004759D01*
X141325241Y-86204637D01*
X141560273Y-86361680D01*
X141570865Y-86366067D01*
X141384869Y-86477615D01*
X141176481Y-86666586D01*
X141008963Y-86892580D01*
X140888754Y-87146913D01*
X140848096Y-87280961D01*
X140970085Y-87503000D01*
X142113000Y-87503000D01*
X142113000Y-87483000D01*
X142367000Y-87483000D01*
X142367000Y-87503000D01*
X143509915Y-87503000D01*
X143631904Y-87280961D01*
X143591246Y-87146913D01*
X143471037Y-86892580D01*
X143303519Y-86666586D01*
X143095131Y-86477615D01*
X142909135Y-86366067D01*
X142919727Y-86361680D01*
X143154759Y-86204637D01*
X143354637Y-86004759D01*
X143511680Y-85769727D01*
X143619853Y-85508574D01*
X143675000Y-85231335D01*
X143675000Y-84948665D01*
X143619853Y-84671426D01*
X143511680Y-84410273D01*
X143354637Y-84175241D01*
X143154759Y-83975363D01*
X142922241Y-83820000D01*
X143154759Y-83664637D01*
X143354637Y-83464759D01*
X143511680Y-83229727D01*
X143619853Y-82968574D01*
X143675000Y-82691335D01*
X143675000Y-82408665D01*
X143619853Y-82131426D01*
X143511680Y-81870273D01*
X143354637Y-81635241D01*
X143154759Y-81435363D01*
X142922241Y-81280000D01*
X143154759Y-81124637D01*
X143279947Y-80999449D01*
X143364100Y-81083602D01*
X143387899Y-81112601D01*
X143503624Y-81207574D01*
X143635653Y-81278146D01*
X143778914Y-81321603D01*
X143815100Y-81325167D01*
X143927900Y-81336277D01*
X143965233Y-81332600D01*
X156315835Y-81332600D01*
X156325506Y-81340537D01*
X156435820Y-81399502D01*
X156555518Y-81435812D01*
X156680000Y-81448072D01*
X156785425Y-81448072D01*
X156845026Y-81559576D01*
X156909038Y-81637574D01*
X156940000Y-81675301D01*
X156968998Y-81699099D01*
X161328831Y-86058933D01*
X161253006Y-86099463D01*
X161156315Y-86178815D01*
X161076963Y-86275506D01*
X161017998Y-86385820D01*
X160981688Y-86505518D01*
X160969428Y-86630000D01*
X160969428Y-88630000D01*
X160981688Y-88754482D01*
X161017998Y-88874180D01*
X161076963Y-88984494D01*
X161156315Y-89081185D01*
X161253006Y-89160537D01*
X161363320Y-89219502D01*
X161483018Y-89255812D01*
X161607500Y-89268072D01*
X163123270Y-89268072D01*
X163345701Y-89490503D01*
X163369499Y-89519501D01*
X163485224Y-89614474D01*
X163617253Y-89685046D01*
X163760514Y-89728503D01*
X163872167Y-89739500D01*
X163872176Y-89739500D01*
X163909499Y-89743176D01*
X163946822Y-89739500D01*
X168120078Y-89739500D01*
X168157400Y-89743176D01*
X168194722Y-89739500D01*
X168194733Y-89739500D01*
X168306386Y-89728503D01*
X168449647Y-89685046D01*
X168581676Y-89614474D01*
X168697401Y-89519501D01*
X168721204Y-89490497D01*
X175701701Y-82510000D01*
X191397815Y-82510000D01*
X191426487Y-82801111D01*
X191511401Y-83081034D01*
X191649294Y-83339014D01*
X191834866Y-83565134D01*
X192060986Y-83750706D01*
X192318966Y-83888599D01*
X192598889Y-83973513D01*
X192817050Y-83995000D01*
X193262950Y-83995000D01*
X193481111Y-83973513D01*
X193761034Y-83888599D01*
X194019014Y-83750706D01*
X194245134Y-83565134D01*
X194430706Y-83339014D01*
X194568599Y-83081034D01*
X194653513Y-82801111D01*
X194682185Y-82510000D01*
X194653513Y-82218889D01*
X194568599Y-81938966D01*
X194430706Y-81680986D01*
X194245134Y-81454866D01*
X194181663Y-81402777D01*
X194283386Y-81348405D01*
X194417962Y-81237962D01*
X194528405Y-81103386D01*
X194610472Y-80949850D01*
X194661008Y-80783254D01*
X194678072Y-80610000D01*
X194678072Y-79410000D01*
X194661008Y-79236746D01*
X194610472Y-79070150D01*
X194528405Y-78916614D01*
X194417962Y-78782038D01*
X194283386Y-78671595D01*
X194129850Y-78589528D01*
X193963254Y-78538992D01*
X193790000Y-78521928D01*
X192290000Y-78521928D01*
X192116746Y-78538992D01*
X191950150Y-78589528D01*
X191796614Y-78671595D01*
X191662038Y-78782038D01*
X191551595Y-78916614D01*
X191469528Y-79070150D01*
X191418992Y-79236746D01*
X191401928Y-79410000D01*
X191401928Y-80610000D01*
X191418992Y-80783254D01*
X191469528Y-80949850D01*
X191551595Y-81103386D01*
X191662038Y-81237962D01*
X191796614Y-81348405D01*
X191898337Y-81402777D01*
X191834866Y-81454866D01*
X191649294Y-81680986D01*
X191511401Y-81938966D01*
X191426487Y-82218889D01*
X191397815Y-82510000D01*
X175701701Y-82510000D01*
X185256863Y-72954838D01*
X191834767Y-72954838D01*
X191972724Y-73255044D01*
X192321967Y-73430882D01*
X192698804Y-73535207D01*
X193088753Y-73564009D01*
X193476828Y-73516184D01*
X193848116Y-73393568D01*
X194107276Y-73255044D01*
X194245233Y-72954838D01*
X193040000Y-71749605D01*
X191834767Y-72954838D01*
X185256863Y-72954838D01*
X186592949Y-71618753D01*
X191045991Y-71618753D01*
X191093816Y-72006828D01*
X191216432Y-72378116D01*
X191354956Y-72637276D01*
X191655162Y-72775233D01*
X192860395Y-71570000D01*
X193219605Y-71570000D01*
X194424838Y-72775233D01*
X194725044Y-72637276D01*
X194900882Y-72288033D01*
X195005207Y-71911196D01*
X195034009Y-71521247D01*
X194986184Y-71133172D01*
X194863568Y-70761884D01*
X194725044Y-70502724D01*
X194424838Y-70364767D01*
X193219605Y-71570000D01*
X192860395Y-71570000D01*
X191655162Y-70364767D01*
X191354956Y-70502724D01*
X191179118Y-70851967D01*
X191074793Y-71228804D01*
X191045991Y-71618753D01*
X186592949Y-71618753D01*
X191119010Y-67092693D01*
X191055000Y-67414495D01*
X191055000Y-67805505D01*
X191131282Y-68189003D01*
X191280915Y-68550250D01*
X191498149Y-68875364D01*
X191774636Y-69151851D01*
X192099750Y-69369085D01*
X192460997Y-69518718D01*
X192841627Y-69594430D01*
X192603172Y-69623816D01*
X192231884Y-69746432D01*
X191972724Y-69884956D01*
X191834767Y-70185162D01*
X193040000Y-71390395D01*
X194245233Y-70185162D01*
X194107276Y-69884956D01*
X193758033Y-69709118D01*
X193381196Y-69604793D01*
X193239053Y-69594294D01*
X193619003Y-69518718D01*
X193980250Y-69369085D01*
X194305364Y-69151851D01*
X194581851Y-68875364D01*
X194799085Y-68550250D01*
X194948718Y-68189003D01*
X195025000Y-67805505D01*
X195025000Y-67414495D01*
X194948718Y-67030997D01*
X194799085Y-66669750D01*
X194581851Y-66344636D01*
X194305364Y-66068149D01*
X193980250Y-65850915D01*
X193619003Y-65701282D01*
X193260642Y-65630000D01*
X193619003Y-65558718D01*
X193980250Y-65409085D01*
X194305364Y-65191851D01*
X194581851Y-64915364D01*
X194799085Y-64590250D01*
X194948718Y-64229003D01*
X195025000Y-63845505D01*
X195025000Y-63454495D01*
X194948718Y-63070997D01*
X194799085Y-62709750D01*
X194581851Y-62384636D01*
X194305364Y-62108149D01*
X193980250Y-61890915D01*
X193619003Y-61741282D01*
X193301223Y-61678072D01*
X194139999Y-61678072D01*
X194313253Y-61661008D01*
X194479850Y-61610471D01*
X194633386Y-61528405D01*
X194767961Y-61417961D01*
X194878405Y-61283386D01*
X194960471Y-61129850D01*
X195011008Y-60963253D01*
X195028072Y-60789999D01*
X195028072Y-58590001D01*
X195011008Y-58416747D01*
X194960471Y-58250150D01*
X194878405Y-58096614D01*
X194767961Y-57962039D01*
X194633386Y-57851595D01*
X194479850Y-57769529D01*
X194313253Y-57718992D01*
X194139999Y-57701928D01*
X191940001Y-57701928D01*
X191766747Y-57718992D01*
X191600150Y-57769529D01*
X191446614Y-57851595D01*
X191312039Y-57962039D01*
X191201595Y-58096614D01*
X191119529Y-58250150D01*
X191068992Y-58416747D01*
X191051928Y-58590001D01*
X191051928Y-60789999D01*
X191068992Y-60963253D01*
X191119529Y-61129850D01*
X191201595Y-61283386D01*
X191312039Y-61417961D01*
X191446614Y-61528405D01*
X191600150Y-61610471D01*
X191766747Y-61661008D01*
X191940001Y-61678072D01*
X192778777Y-61678072D01*
X192460997Y-61741282D01*
X192099750Y-61890915D01*
X191774636Y-62108149D01*
X191498149Y-62384636D01*
X191280915Y-62709750D01*
X191131282Y-63070997D01*
X191055000Y-63454495D01*
X191055000Y-63845505D01*
X191131282Y-64229003D01*
X191280915Y-64590250D01*
X191357392Y-64704705D01*
X169105497Y-86956602D01*
X168966345Y-86696265D01*
X168767963Y-86454537D01*
X168526234Y-86256155D01*
X168400000Y-86188682D01*
X168400000Y-83990101D01*
X170691008Y-81699095D01*
X170720001Y-81675301D01*
X170743795Y-81646308D01*
X170743799Y-81646304D01*
X170814973Y-81559577D01*
X170824047Y-81542601D01*
X170874575Y-81448072D01*
X170980000Y-81448072D01*
X171104482Y-81435812D01*
X171224180Y-81399502D01*
X171334494Y-81340537D01*
X171431185Y-81261185D01*
X171441807Y-81248242D01*
X171693996Y-81367571D01*
X171968184Y-81436300D01*
X172250512Y-81450217D01*
X172530130Y-81408787D01*
X172796292Y-81313603D01*
X172921514Y-81246671D01*
X172993097Y-81002702D01*
X172180000Y-80189605D01*
X172165858Y-80203748D01*
X171986253Y-80024143D01*
X172000395Y-80010000D01*
X172359605Y-80010000D01*
X173172702Y-80823097D01*
X173416671Y-80751514D01*
X173537571Y-80496004D01*
X173606300Y-80221816D01*
X173620217Y-79939488D01*
X173578787Y-79659870D01*
X173483603Y-79393708D01*
X173416671Y-79268486D01*
X173172702Y-79196903D01*
X172359605Y-80010000D01*
X172000395Y-80010000D01*
X171986253Y-79995858D01*
X172165858Y-79816253D01*
X172180000Y-79830395D01*
X172993097Y-79017298D01*
X172921514Y-78773329D01*
X172666004Y-78652429D01*
X172391816Y-78583700D01*
X172109488Y-78569783D01*
X171829870Y-78611213D01*
X171563708Y-78706397D01*
X171441691Y-78771616D01*
X171431185Y-78758815D01*
X171334494Y-78679463D01*
X171224180Y-78620498D01*
X171104482Y-78584188D01*
X170980000Y-78571928D01*
X169380000Y-78571928D01*
X169255518Y-78584188D01*
X169135820Y-78620498D01*
X169025506Y-78679463D01*
X168928815Y-78758815D01*
X168849463Y-78855506D01*
X168790498Y-78965820D01*
X168754188Y-79085518D01*
X168741928Y-79210000D01*
X168741928Y-80810000D01*
X168754188Y-80934482D01*
X168790498Y-81054180D01*
X168849463Y-81164494D01*
X168928815Y-81261185D01*
X168956551Y-81283947D01*
X167129003Y-83111496D01*
X167099999Y-83135299D01*
X167044871Y-83202474D01*
X167005026Y-83251024D01*
X166971538Y-83313676D01*
X166934454Y-83383054D01*
X166890997Y-83526315D01*
X166880000Y-83637968D01*
X166880000Y-83637978D01*
X166876324Y-83675300D01*
X166880000Y-83712623D01*
X166880001Y-86188681D01*
X166753765Y-86256155D01*
X166512037Y-86454537D01*
X166364838Y-86633900D01*
X166209437Y-86448685D01*
X165966923Y-86254031D01*
X165691094Y-86110429D01*
X165472980Y-86039437D01*
X165227000Y-86159406D01*
X165227000Y-87503000D01*
X165247000Y-87503000D01*
X165247000Y-87757000D01*
X165227000Y-87757000D01*
X165227000Y-87777000D01*
X164973000Y-87777000D01*
X164973000Y-87757000D01*
X164953000Y-87757000D01*
X164953000Y-87503000D01*
X164973000Y-87503000D01*
X164973000Y-86159406D01*
X164727020Y-86039437D01*
X164508906Y-86110429D01*
X164233077Y-86254031D01*
X164092059Y-86367219D01*
X164043037Y-86275506D01*
X163963685Y-86178815D01*
X163866994Y-86099463D01*
X163756680Y-86040498D01*
X163636982Y-86004188D01*
X163512500Y-85991928D01*
X163286439Y-85991928D01*
X163265546Y-85923053D01*
X163220619Y-85839002D01*
X163194974Y-85791023D01*
X163123799Y-85704297D01*
X163100001Y-85675299D01*
X163071004Y-85651502D01*
X158703449Y-81283948D01*
X158731185Y-81261185D01*
X158741807Y-81248242D01*
X158993996Y-81367571D01*
X159268184Y-81436300D01*
X159550512Y-81450217D01*
X159830130Y-81408787D01*
X160096292Y-81313603D01*
X160221514Y-81246671D01*
X160293097Y-81002702D01*
X159480000Y-80189605D01*
X159465858Y-80203748D01*
X159286253Y-80024143D01*
X159300395Y-80010000D01*
X159659605Y-80010000D01*
X160472702Y-80823097D01*
X160716671Y-80751514D01*
X160837571Y-80496004D01*
X160906300Y-80221816D01*
X160920217Y-79939488D01*
X160878787Y-79659870D01*
X160783603Y-79393708D01*
X160716671Y-79268486D01*
X160472702Y-79196903D01*
X159659605Y-80010000D01*
X159300395Y-80010000D01*
X159286253Y-79995858D01*
X159465858Y-79816253D01*
X159480000Y-79830395D01*
X160293097Y-79017298D01*
X160221514Y-78773329D01*
X159966004Y-78652429D01*
X159691816Y-78583700D01*
X159409488Y-78569783D01*
X159129870Y-78611213D01*
X158863708Y-78706397D01*
X158741691Y-78771616D01*
X158731185Y-78758815D01*
X158634494Y-78679463D01*
X158524180Y-78620498D01*
X158404482Y-78584188D01*
X158280000Y-78571928D01*
X156680000Y-78571928D01*
X156555518Y-78584188D01*
X156435820Y-78620498D01*
X156325506Y-78679463D01*
X156228815Y-78758815D01*
X156149463Y-78855506D01*
X156090498Y-78965820D01*
X156054188Y-79085518D01*
X156041928Y-79210000D01*
X156041928Y-79812600D01*
X144242702Y-79812600D01*
X143929103Y-79499002D01*
X143905301Y-79469999D01*
X143789576Y-79375026D01*
X143657547Y-79304454D01*
X143514286Y-79260997D01*
X143461947Y-79255842D01*
X143354637Y-79095241D01*
X143154759Y-78895363D01*
X142919727Y-78738320D01*
X142658574Y-78630147D01*
X142381335Y-78575000D01*
X142098665Y-78575000D01*
X141821426Y-78630147D01*
X141560273Y-78738320D01*
X141325241Y-78895363D01*
X141200053Y-79020551D01*
X138652404Y-76472903D01*
X138628601Y-76443899D01*
X138512876Y-76348926D01*
X138380847Y-76278354D01*
X138237586Y-76234897D01*
X138125933Y-76223900D01*
X138125922Y-76223900D01*
X138088600Y-76220224D01*
X138051278Y-76223900D01*
X120143600Y-76223900D01*
X120143600Y-73850923D01*
X120147276Y-73813600D01*
X120143600Y-73776277D01*
X120143600Y-73776267D01*
X120132603Y-73664614D01*
X120089146Y-73521353D01*
X120040788Y-73430882D01*
X120018574Y-73389323D01*
X119947399Y-73302597D01*
X119923601Y-73273599D01*
X119894604Y-73249802D01*
X111054056Y-64409254D01*
X111128718Y-64229003D01*
X111205000Y-63845505D01*
X111205000Y-63454495D01*
X111128718Y-63070997D01*
X110979085Y-62709750D01*
X110761851Y-62384636D01*
X110485364Y-62108149D01*
X110160250Y-61890915D01*
X109799003Y-61741282D01*
X109481223Y-61678072D01*
X110319999Y-61678072D01*
X110493253Y-61661008D01*
X110659850Y-61610471D01*
X110813386Y-61528405D01*
X110947961Y-61417961D01*
X111058405Y-61283386D01*
X111140471Y-61129850D01*
X111191008Y-60963253D01*
X111208072Y-60789999D01*
X111208072Y-58590001D01*
X111191008Y-58416747D01*
X111140471Y-58250150D01*
X111058405Y-58096614D01*
X110947961Y-57962039D01*
X110813386Y-57851595D01*
X110659850Y-57769529D01*
X110493253Y-57718992D01*
X110319999Y-57701928D01*
X108120001Y-57701928D01*
X107946747Y-57718992D01*
X107780150Y-57769529D01*
X107626614Y-57851595D01*
X107492039Y-57962039D01*
X107381595Y-58096614D01*
X107299529Y-58250150D01*
X107248992Y-58416747D01*
X107231928Y-58590001D01*
X107231928Y-60789999D01*
X107248992Y-60963253D01*
X107299529Y-61129850D01*
X107381595Y-61283386D01*
X107492039Y-61417961D01*
X107626614Y-61528405D01*
X107780150Y-61610471D01*
X107946747Y-61661008D01*
X108120001Y-61678072D01*
X108958777Y-61678072D01*
X108640997Y-61741282D01*
X108279750Y-61890915D01*
X107954636Y-62108149D01*
X107678149Y-62384636D01*
X107460915Y-62709750D01*
X107311282Y-63070997D01*
X107235000Y-63454495D01*
X107235000Y-63845505D01*
X107311282Y-64229003D01*
X107460915Y-64590250D01*
X107678149Y-64915364D01*
X107954636Y-65191851D01*
X108279750Y-65409085D01*
X108640997Y-65558718D01*
X108999358Y-65630000D01*
X108640997Y-65701282D01*
X108279750Y-65850915D01*
X107954636Y-66068149D01*
X107678149Y-66344636D01*
X107460915Y-66669750D01*
X107311282Y-67030997D01*
X107235000Y-67414495D01*
X107235000Y-67805505D01*
X107311282Y-68189003D01*
X107460915Y-68550250D01*
X107678149Y-68875364D01*
X107954636Y-69151851D01*
X108279750Y-69369085D01*
X108640997Y-69518718D01*
X109021627Y-69594430D01*
X108783172Y-69623816D01*
X108411884Y-69746432D01*
X108152724Y-69884956D01*
X108014767Y-70185162D01*
X109220000Y-71390395D01*
X110425233Y-70185162D01*
X110287276Y-69884956D01*
X109938033Y-69709118D01*
X109561196Y-69604793D01*
X109419053Y-69594294D01*
X109799003Y-69518718D01*
X110160250Y-69369085D01*
X110485364Y-69151851D01*
X110761851Y-68875364D01*
X110979085Y-68550250D01*
X111128718Y-68189003D01*
X111205000Y-67805505D01*
X111205000Y-67414495D01*
X111128718Y-67030997D01*
X110979085Y-66669750D01*
X110761851Y-66344636D01*
X110485364Y-66068149D01*
X110160250Y-65850915D01*
X109799003Y-65701282D01*
X109440642Y-65630000D01*
X109799003Y-65558718D01*
X109979254Y-65484056D01*
X118623600Y-74128402D01*
X118623601Y-76669096D01*
X117665770Y-77626928D01*
X117408750Y-77626928D01*
X117241592Y-77643392D01*
X117080858Y-77692150D01*
X116932725Y-77771329D01*
X116840000Y-77847426D01*
X116747275Y-77771329D01*
X116599142Y-77692150D01*
X116438408Y-77643392D01*
X116271250Y-77626928D01*
X115833750Y-77626928D01*
X115666592Y-77643392D01*
X115505858Y-77692150D01*
X115357725Y-77771329D01*
X115227885Y-77877885D01*
X115121329Y-78007725D01*
X115042150Y-78155858D01*
X114993392Y-78316592D01*
X114976928Y-78483750D01*
X114976928Y-78740770D01*
X114467699Y-79250000D01*
X110842313Y-79250000D01*
X110841008Y-79236746D01*
X110790472Y-79070150D01*
X110708405Y-78916614D01*
X110597962Y-78782038D01*
X110463386Y-78671595D01*
X110309850Y-78589528D01*
X110143254Y-78538992D01*
X109970000Y-78521928D01*
X108470000Y-78521928D01*
X108296746Y-78538992D01*
X108130150Y-78589528D01*
X107976614Y-78671595D01*
X107842038Y-78782038D01*
X107731595Y-78916614D01*
X107649528Y-79070150D01*
X107598992Y-79236746D01*
X107581928Y-79410000D01*
X107581928Y-80610000D01*
X107598992Y-80783254D01*
X107649528Y-80949850D01*
X107731595Y-81103386D01*
X107842038Y-81237962D01*
X107976614Y-81348405D01*
X108078337Y-81402777D01*
X108014866Y-81454866D01*
X107829294Y-81680986D01*
X107691401Y-81938966D01*
X107606487Y-82218889D01*
X107577815Y-82510000D01*
X107606487Y-82801111D01*
X107691401Y-83081034D01*
X107829294Y-83339014D01*
X108014866Y-83565134D01*
X108240986Y-83750706D01*
X108498966Y-83888599D01*
X108778889Y-83973513D01*
X108997050Y-83995000D01*
X109442950Y-83995000D01*
X109661111Y-83973513D01*
X109941034Y-83888599D01*
X110199014Y-83750706D01*
X110425134Y-83565134D01*
X110610706Y-83339014D01*
X110647595Y-83270000D01*
X114427699Y-83270000D01*
X114976928Y-83819230D01*
X114976928Y-84076250D01*
X114993392Y-84243408D01*
X115042150Y-84404142D01*
X115121329Y-84552275D01*
X115227885Y-84682115D01*
X115357725Y-84788671D01*
X115505858Y-84867850D01*
X115666592Y-84916608D01*
X115833750Y-84933072D01*
X116090770Y-84933072D01*
X116290101Y-85132402D01*
X116313899Y-85161401D01*
X116429624Y-85256374D01*
X116561653Y-85326946D01*
X116704914Y-85370403D01*
X116816567Y-85381400D01*
X116816575Y-85381400D01*
X116853900Y-85385076D01*
X116891225Y-85381400D01*
X118038578Y-85381400D01*
X118075900Y-85385076D01*
X118113222Y-85381400D01*
X118113233Y-85381400D01*
X118224886Y-85370403D01*
X118368147Y-85326946D01*
X118500176Y-85256374D01*
X118615901Y-85161401D01*
X118639704Y-85132398D01*
X119669103Y-84102999D01*
X119698101Y-84079201D01*
X119767203Y-83995000D01*
X119793074Y-83963477D01*
X119863646Y-83831447D01*
X119907103Y-83688186D01*
X119918100Y-83576533D01*
X119918100Y-83576523D01*
X119921776Y-83539200D01*
X119918100Y-83501877D01*
X119918100Y-81677301D01*
X121635901Y-79959501D01*
X121635900Y-82305598D01*
X117071499Y-86870000D01*
X111797322Y-86870000D01*
X111759999Y-86866324D01*
X111722676Y-86870000D01*
X111722667Y-86870000D01*
X111611014Y-86880997D01*
X111479647Y-86920846D01*
X111467753Y-86924454D01*
X111335723Y-86995026D01*
X111252083Y-87063668D01*
X111219999Y-87089999D01*
X111196201Y-87118997D01*
X103484298Y-94830901D01*
X103455300Y-94854699D01*
X103431502Y-94883697D01*
X103431501Y-94883698D01*
X103360326Y-94970424D01*
X103289754Y-95102454D01*
X103246298Y-95245715D01*
X103231624Y-95394700D01*
X103235301Y-95432032D01*
X103235300Y-106514525D01*
X103155750Y-106515000D01*
X102997000Y-106673750D01*
X102997000Y-107823000D01*
X103017000Y-107823000D01*
X103017000Y-108077000D01*
X102997000Y-108077000D01*
X102997000Y-108097000D01*
X102743000Y-108097000D01*
X102743000Y-108077000D01*
X101593750Y-108077000D01*
X101435000Y-108235750D01*
X101431928Y-108750000D01*
X100660000Y-108750000D01*
X100660000Y-107150000D01*
X101431928Y-107150000D01*
X101435000Y-107664250D01*
X101593750Y-107823000D01*
X102743000Y-107823000D01*
X102743000Y-106673750D01*
X102584250Y-106515000D01*
X102070000Y-106511928D01*
X101945518Y-106524188D01*
X101825820Y-106560498D01*
X101715506Y-106619463D01*
X101618815Y-106698815D01*
X101539463Y-106795506D01*
X101480498Y-106905820D01*
X101444188Y-107025518D01*
X101431928Y-107150000D01*
X100660000Y-107150000D01*
X100660000Y-72954838D01*
X108014767Y-72954838D01*
X108152724Y-73255044D01*
X108501967Y-73430882D01*
X108878804Y-73535207D01*
X109268753Y-73564009D01*
X109656828Y-73516184D01*
X110028116Y-73393568D01*
X110287276Y-73255044D01*
X110425233Y-72954838D01*
X109220000Y-71749605D01*
X108014767Y-72954838D01*
X100660000Y-72954838D01*
X100660000Y-71618753D01*
X107225991Y-71618753D01*
X107273816Y-72006828D01*
X107396432Y-72378116D01*
X107534956Y-72637276D01*
X107835162Y-72775233D01*
X109040395Y-71570000D01*
X109399605Y-71570000D01*
X110604838Y-72775233D01*
X110905044Y-72637276D01*
X111080882Y-72288033D01*
X111185207Y-71911196D01*
X111214009Y-71521247D01*
X111166184Y-71133172D01*
X111043568Y-70761884D01*
X110905044Y-70502724D01*
X110604838Y-70364767D01*
X109399605Y-71570000D01*
X109040395Y-71570000D01*
X107835162Y-70364767D01*
X107534956Y-70502724D01*
X107359118Y-70851967D01*
X107254793Y-71228804D01*
X107225991Y-71618753D01*
X100660000Y-71618753D01*
X100660000Y-50660000D01*
X199340000Y-50660000D01*
X199340001Y-149340000D01*
G36*
X124552725Y-84788671D02*
G01*
X124700858Y-84867850D01*
X124861592Y-84916608D01*
X125028750Y-84933072D01*
X125285771Y-84933072D01*
X125757500Y-85404802D01*
X125757500Y-96892899D01*
X125595413Y-96834192D01*
X124639605Y-97790000D01*
X125595413Y-98745808D01*
X125757500Y-98687101D01*
X125757500Y-101288925D01*
X125729987Y-101247748D01*
X125502252Y-101020013D01*
X125234463Y-100841082D01*
X124936912Y-100717832D01*
X124621033Y-100655000D01*
X124298967Y-100655000D01*
X123983088Y-100717832D01*
X123685537Y-100841082D01*
X123417748Y-101020013D01*
X123190013Y-101247748D01*
X123011082Y-101515537D01*
X122887832Y-101813088D01*
X122825000Y-102128967D01*
X122825000Y-102451033D01*
X122887832Y-102766912D01*
X123011082Y-103064463D01*
X123190013Y-103332252D01*
X123417748Y-103559987D01*
X123685537Y-103738918D01*
X123700000Y-103744909D01*
X123700001Y-118144197D01*
X119362552Y-122481646D01*
X119224637Y-122275241D01*
X119024759Y-122075363D01*
X118792241Y-121920000D01*
X119024759Y-121764637D01*
X119224637Y-121564759D01*
X119381680Y-121329727D01*
X119489853Y-121068574D01*
X119545000Y-120791335D01*
X119545000Y-120508665D01*
X119489853Y-120231426D01*
X119381680Y-119970273D01*
X119224637Y-119735241D01*
X119024759Y-119535363D01*
X118792241Y-119380000D01*
X119024759Y-119224637D01*
X119224637Y-119024759D01*
X119381680Y-118789727D01*
X119489853Y-118528574D01*
X119545000Y-118251335D01*
X119545000Y-117968665D01*
X119489853Y-117691426D01*
X119381680Y-117430273D01*
X119224637Y-117195241D01*
X119024759Y-116995363D01*
X118792241Y-116840000D01*
X119024759Y-116684637D01*
X119224637Y-116484759D01*
X119381680Y-116249727D01*
X119489853Y-115988574D01*
X119545000Y-115711335D01*
X119545000Y-115428665D01*
X119489853Y-115151426D01*
X119381680Y-114890273D01*
X119224637Y-114655241D01*
X119024759Y-114455363D01*
X118792241Y-114300000D01*
X119024759Y-114144637D01*
X119224637Y-113944759D01*
X119381680Y-113709727D01*
X119489853Y-113448574D01*
X119545000Y-113171335D01*
X119545000Y-112888665D01*
X119489853Y-112611426D01*
X119381680Y-112350273D01*
X119224637Y-112115241D01*
X119024759Y-111915363D01*
X118792241Y-111760000D01*
X119024759Y-111604637D01*
X119224637Y-111404759D01*
X119381680Y-111169727D01*
X119489853Y-110908574D01*
X119545000Y-110631335D01*
X119545000Y-110348665D01*
X119489853Y-110071426D01*
X119381680Y-109810273D01*
X119224637Y-109575241D01*
X119024759Y-109375363D01*
X118792241Y-109220000D01*
X119024759Y-109064637D01*
X119224637Y-108864759D01*
X119381680Y-108629727D01*
X119489853Y-108368574D01*
X119545000Y-108091335D01*
X119545000Y-107808665D01*
X119489853Y-107531426D01*
X119381680Y-107270273D01*
X119224637Y-107035241D01*
X119024759Y-106835363D01*
X118870000Y-106731957D01*
X118870000Y-98925413D01*
X123504192Y-98925413D01*
X123599956Y-99189814D01*
X123889571Y-99330704D01*
X124201108Y-99412384D01*
X124522595Y-99431718D01*
X124841675Y-99387961D01*
X125146088Y-99282795D01*
X125320044Y-99189814D01*
X125415808Y-98925413D01*
X124460000Y-97969605D01*
X123504192Y-98925413D01*
X118870000Y-98925413D01*
X118870000Y-97852595D01*
X122818282Y-97852595D01*
X122862039Y-98171675D01*
X122967205Y-98476088D01*
X123060186Y-98650044D01*
X123324587Y-98745808D01*
X124280395Y-97790000D01*
X123324587Y-96834192D01*
X123060186Y-96929956D01*
X122919296Y-97219571D01*
X122837616Y-97531108D01*
X122818282Y-97852595D01*
X118870000Y-97852595D01*
X118870000Y-96654587D01*
X123504192Y-96654587D01*
X124460000Y-97610395D01*
X125415808Y-96654587D01*
X125320044Y-96390186D01*
X125030429Y-96249296D01*
X124718892Y-96167616D01*
X124397405Y-96148282D01*
X124078325Y-96192039D01*
X123773912Y-96297205D01*
X123599956Y-96390186D01*
X123504192Y-96654587D01*
X118870000Y-96654587D01*
X118870000Y-89697301D01*
X123634230Y-84933072D01*
X123891250Y-84933072D01*
X124058408Y-84916608D01*
X124219142Y-84867850D01*
X124367275Y-84788671D01*
X124460000Y-84712574D01*
X124552725Y-84788671D01*
G37*
X124552725Y-84788671D02*
X124700858Y-84867850D01*
X124861592Y-84916608D01*
X125028750Y-84933072D01*
X125285771Y-84933072D01*
X125757500Y-85404802D01*
X125757500Y-96892899D01*
X125595413Y-96834192D01*
X124639605Y-97790000D01*
X125595413Y-98745808D01*
X125757500Y-98687101D01*
X125757500Y-101288925D01*
X125729987Y-101247748D01*
X125502252Y-101020013D01*
X125234463Y-100841082D01*
X124936912Y-100717832D01*
X124621033Y-100655000D01*
X124298967Y-100655000D01*
X123983088Y-100717832D01*
X123685537Y-100841082D01*
X123417748Y-101020013D01*
X123190013Y-101247748D01*
X123011082Y-101515537D01*
X122887832Y-101813088D01*
X122825000Y-102128967D01*
X122825000Y-102451033D01*
X122887832Y-102766912D01*
X123011082Y-103064463D01*
X123190013Y-103332252D01*
X123417748Y-103559987D01*
X123685537Y-103738918D01*
X123700000Y-103744909D01*
X123700001Y-118144197D01*
X119362552Y-122481646D01*
X119224637Y-122275241D01*
X119024759Y-122075363D01*
X118792241Y-121920000D01*
X119024759Y-121764637D01*
X119224637Y-121564759D01*
X119381680Y-121329727D01*
X119489853Y-121068574D01*
X119545000Y-120791335D01*
X119545000Y-120508665D01*
X119489853Y-120231426D01*
X119381680Y-119970273D01*
X119224637Y-119735241D01*
X119024759Y-119535363D01*
X118792241Y-119380000D01*
X119024759Y-119224637D01*
X119224637Y-119024759D01*
X119381680Y-118789727D01*
X119489853Y-118528574D01*
X119545000Y-118251335D01*
X119545000Y-117968665D01*
X119489853Y-117691426D01*
X119381680Y-117430273D01*
X119224637Y-117195241D01*
X119024759Y-116995363D01*
X118792241Y-116840000D01*
X119024759Y-116684637D01*
X119224637Y-116484759D01*
X119381680Y-116249727D01*
X119489853Y-115988574D01*
X119545000Y-115711335D01*
X119545000Y-115428665D01*
X119489853Y-115151426D01*
X119381680Y-114890273D01*
X119224637Y-114655241D01*
X119024759Y-114455363D01*
X118792241Y-114300000D01*
X119024759Y-114144637D01*
X119224637Y-113944759D01*
X119381680Y-113709727D01*
X119489853Y-113448574D01*
X119545000Y-113171335D01*
X119545000Y-112888665D01*
X119489853Y-112611426D01*
X119381680Y-112350273D01*
X119224637Y-112115241D01*
X119024759Y-111915363D01*
X118792241Y-111760000D01*
X119024759Y-111604637D01*
X119224637Y-111404759D01*
X119381680Y-111169727D01*
X119489853Y-110908574D01*
X119545000Y-110631335D01*
X119545000Y-110348665D01*
X119489853Y-110071426D01*
X119381680Y-109810273D01*
X119224637Y-109575241D01*
X119024759Y-109375363D01*
X118792241Y-109220000D01*
X119024759Y-109064637D01*
X119224637Y-108864759D01*
X119381680Y-108629727D01*
X119489853Y-108368574D01*
X119545000Y-108091335D01*
X119545000Y-107808665D01*
X119489853Y-107531426D01*
X119381680Y-107270273D01*
X119224637Y-107035241D01*
X119024759Y-106835363D01*
X118870000Y-106731957D01*
X118870000Y-98925413D01*
X123504192Y-98925413D01*
X123599956Y-99189814D01*
X123889571Y-99330704D01*
X124201108Y-99412384D01*
X124522595Y-99431718D01*
X124841675Y-99387961D01*
X125146088Y-99282795D01*
X125320044Y-99189814D01*
X125415808Y-98925413D01*
X124460000Y-97969605D01*
X123504192Y-98925413D01*
X118870000Y-98925413D01*
X118870000Y-97852595D01*
X122818282Y-97852595D01*
X122862039Y-98171675D01*
X122967205Y-98476088D01*
X123060186Y-98650044D01*
X123324587Y-98745808D01*
X124280395Y-97790000D01*
X123324587Y-96834192D01*
X123060186Y-96929956D01*
X122919296Y-97219571D01*
X122837616Y-97531108D01*
X122818282Y-97852595D01*
X118870000Y-97852595D01*
X118870000Y-96654587D01*
X123504192Y-96654587D01*
X124460000Y-97610395D01*
X125415808Y-96654587D01*
X125320044Y-96390186D01*
X125030429Y-96249296D01*
X124718892Y-96167616D01*
X124397405Y-96148282D01*
X124078325Y-96192039D01*
X123773912Y-96297205D01*
X123599956Y-96390186D01*
X123504192Y-96654587D01*
X118870000Y-96654587D01*
X118870000Y-89697301D01*
X123634230Y-84933072D01*
X123891250Y-84933072D01*
X124058408Y-84916608D01*
X124219142Y-84867850D01*
X124367275Y-84788671D01*
X124460000Y-84712574D01*
X124552725Y-84788671D01*
G04 #@! TD*
M02*
