G04 #@! TF.GenerationSoftware,KiCad,Pcbnew,(5.1.6)-1*
G04 #@! TF.CreationDate,2020-09-10T20:19:44+09:00*
G04 #@! TF.ProjectId,ControllerPCB,436f6e74-726f-46c6-9c65-725043422e6b,rev?*
G04 #@! TF.SameCoordinates,Original*
G04 #@! TF.FileFunction,Legend,Top*
G04 #@! TF.FilePolarity,Positive*
%FSLAX46Y46*%
G04 Gerber Fmt 4.6, Leading zero omitted, Abs format (unit mm)*
G04 Created by KiCad (PCBNEW (5.1.6)-1) date 2020-09-10 20:19:44*
%MOMM*%
%LPD*%
G01*
G04 APERTURE LIST*
%ADD10C,0.150000*%
%ADD11C,0.300000*%
%ADD12C,0.120000*%
G04 APERTURE END LIST*
D10*
X185015238Y-78303809D02*
X184967619Y-78446666D01*
X184967619Y-78684761D01*
X185015238Y-78780000D01*
X185062857Y-78827619D01*
X185158095Y-78875238D01*
X185253333Y-78875238D01*
X185348571Y-78827619D01*
X185396190Y-78780000D01*
X185443809Y-78684761D01*
X185491428Y-78494285D01*
X185539047Y-78399047D01*
X185586666Y-78351428D01*
X185681904Y-78303809D01*
X185777142Y-78303809D01*
X185872380Y-78351428D01*
X185920000Y-78399047D01*
X185967619Y-78494285D01*
X185967619Y-78732380D01*
X185920000Y-78875238D01*
X184967619Y-79303809D02*
X185967619Y-79303809D01*
X185967619Y-79541904D01*
X185920000Y-79684761D01*
X185824761Y-79780000D01*
X185729523Y-79827619D01*
X185539047Y-79875238D01*
X185396190Y-79875238D01*
X185205714Y-79827619D01*
X185110476Y-79780000D01*
X185015238Y-79684761D01*
X184967619Y-79541904D01*
X184967619Y-79303809D01*
X185253333Y-80256190D02*
X185253333Y-80732380D01*
X184967619Y-80160952D02*
X185967619Y-80494285D01*
X184967619Y-80827619D01*
X185015238Y-81875238D02*
X184967619Y-82018095D01*
X184967619Y-82256190D01*
X185015238Y-82351428D01*
X185062857Y-82399047D01*
X185158095Y-82446666D01*
X185253333Y-82446666D01*
X185348571Y-82399047D01*
X185396190Y-82351428D01*
X185443809Y-82256190D01*
X185491428Y-82065714D01*
X185539047Y-81970476D01*
X185586666Y-81922857D01*
X185681904Y-81875238D01*
X185777142Y-81875238D01*
X185872380Y-81922857D01*
X185920000Y-81970476D01*
X185967619Y-82065714D01*
X185967619Y-82303809D01*
X185920000Y-82446666D01*
X185062857Y-83446666D02*
X185015238Y-83399047D01*
X184967619Y-83256190D01*
X184967619Y-83160952D01*
X185015238Y-83018095D01*
X185110476Y-82922857D01*
X185205714Y-82875238D01*
X185396190Y-82827619D01*
X185539047Y-82827619D01*
X185729523Y-82875238D01*
X185824761Y-82922857D01*
X185920000Y-83018095D01*
X185967619Y-83160952D01*
X185967619Y-83256190D01*
X185920000Y-83399047D01*
X185872380Y-83446666D01*
X184967619Y-84351428D02*
X184967619Y-83875238D01*
X185967619Y-83875238D01*
X115165238Y-78303809D02*
X115117619Y-78446666D01*
X115117619Y-78684761D01*
X115165238Y-78780000D01*
X115212857Y-78827619D01*
X115308095Y-78875238D01*
X115403333Y-78875238D01*
X115498571Y-78827619D01*
X115546190Y-78780000D01*
X115593809Y-78684761D01*
X115641428Y-78494285D01*
X115689047Y-78399047D01*
X115736666Y-78351428D01*
X115831904Y-78303809D01*
X115927142Y-78303809D01*
X116022380Y-78351428D01*
X116070000Y-78399047D01*
X116117619Y-78494285D01*
X116117619Y-78732380D01*
X116070000Y-78875238D01*
X115117619Y-79303809D02*
X116117619Y-79303809D01*
X116117619Y-79541904D01*
X116070000Y-79684761D01*
X115974761Y-79780000D01*
X115879523Y-79827619D01*
X115689047Y-79875238D01*
X115546190Y-79875238D01*
X115355714Y-79827619D01*
X115260476Y-79780000D01*
X115165238Y-79684761D01*
X115117619Y-79541904D01*
X115117619Y-79303809D01*
X115403333Y-80256190D02*
X115403333Y-80732380D01*
X115117619Y-80160952D02*
X116117619Y-80494285D01*
X115117619Y-80827619D01*
X115165238Y-81875238D02*
X115117619Y-82018095D01*
X115117619Y-82256190D01*
X115165238Y-82351428D01*
X115212857Y-82399047D01*
X115308095Y-82446666D01*
X115403333Y-82446666D01*
X115498571Y-82399047D01*
X115546190Y-82351428D01*
X115593809Y-82256190D01*
X115641428Y-82065714D01*
X115689047Y-81970476D01*
X115736666Y-81922857D01*
X115831904Y-81875238D01*
X115927142Y-81875238D01*
X116022380Y-81922857D01*
X116070000Y-81970476D01*
X116117619Y-82065714D01*
X116117619Y-82303809D01*
X116070000Y-82446666D01*
X115212857Y-83446666D02*
X115165238Y-83399047D01*
X115117619Y-83256190D01*
X115117619Y-83160952D01*
X115165238Y-83018095D01*
X115260476Y-82922857D01*
X115355714Y-82875238D01*
X115546190Y-82827619D01*
X115689047Y-82827619D01*
X115879523Y-82875238D01*
X115974761Y-82922857D01*
X116070000Y-83018095D01*
X116117619Y-83160952D01*
X116117619Y-83256190D01*
X116070000Y-83399047D01*
X116022380Y-83446666D01*
X115117619Y-84351428D02*
X115117619Y-83875238D01*
X116117619Y-83875238D01*
X185348571Y-58087619D02*
X185348571Y-58849523D01*
X184967619Y-58468571D02*
X185729523Y-58468571D01*
X185634285Y-59754285D02*
X184967619Y-59754285D01*
X186015238Y-59516190D02*
X185300952Y-59278095D01*
X185300952Y-59897142D01*
X185539047Y-60420952D02*
X185586666Y-60325714D01*
X185634285Y-60278095D01*
X185729523Y-60230476D01*
X185777142Y-60230476D01*
X185872380Y-60278095D01*
X185920000Y-60325714D01*
X185967619Y-60420952D01*
X185967619Y-60611428D01*
X185920000Y-60706666D01*
X185872380Y-60754285D01*
X185777142Y-60801904D01*
X185729523Y-60801904D01*
X185634285Y-60754285D01*
X185586666Y-60706666D01*
X185539047Y-60611428D01*
X185539047Y-60420952D01*
X185491428Y-60325714D01*
X185443809Y-60278095D01*
X185348571Y-60230476D01*
X185158095Y-60230476D01*
X185062857Y-60278095D01*
X185015238Y-60325714D01*
X184967619Y-60420952D01*
X184967619Y-60611428D01*
X185015238Y-60706666D01*
X185062857Y-60754285D01*
X185158095Y-60801904D01*
X185348571Y-60801904D01*
X185443809Y-60754285D01*
X185491428Y-60706666D01*
X185539047Y-60611428D01*
X185967619Y-61087619D02*
X184967619Y-61420952D01*
X185967619Y-61754285D01*
X185348571Y-62849523D02*
X185348571Y-63611428D01*
X184967619Y-63230476D02*
X185729523Y-63230476D01*
X185967619Y-64563809D02*
X185967619Y-64087619D01*
X185491428Y-64040000D01*
X185539047Y-64087619D01*
X185586666Y-64182857D01*
X185586666Y-64420952D01*
X185539047Y-64516190D01*
X185491428Y-64563809D01*
X185396190Y-64611428D01*
X185158095Y-64611428D01*
X185062857Y-64563809D01*
X185015238Y-64516190D01*
X184967619Y-64420952D01*
X184967619Y-64182857D01*
X185015238Y-64087619D01*
X185062857Y-64040000D01*
X185967619Y-64897142D02*
X184967619Y-65230476D01*
X185967619Y-65563809D01*
X185348571Y-66659047D02*
X185348571Y-67420952D01*
X184967619Y-67040000D02*
X185729523Y-67040000D01*
X184967619Y-68420952D02*
X184967619Y-67849523D01*
X184967619Y-68135238D02*
X185967619Y-68135238D01*
X185824761Y-68040000D01*
X185729523Y-67944761D01*
X185681904Y-67849523D01*
X185872380Y-68801904D02*
X185920000Y-68849523D01*
X185967619Y-68944761D01*
X185967619Y-69182857D01*
X185920000Y-69278095D01*
X185872380Y-69325714D01*
X185777142Y-69373333D01*
X185681904Y-69373333D01*
X185539047Y-69325714D01*
X184967619Y-68754285D01*
X184967619Y-69373333D01*
X185967619Y-69659047D02*
X184967619Y-69992380D01*
X185967619Y-70325714D01*
X185920000Y-71944761D02*
X185967619Y-71849523D01*
X185967619Y-71706666D01*
X185920000Y-71563809D01*
X185824761Y-71468571D01*
X185729523Y-71420952D01*
X185539047Y-71373333D01*
X185396190Y-71373333D01*
X185205714Y-71420952D01*
X185110476Y-71468571D01*
X185015238Y-71563809D01*
X184967619Y-71706666D01*
X184967619Y-71801904D01*
X185015238Y-71944761D01*
X185062857Y-71992380D01*
X185396190Y-71992380D01*
X185396190Y-71801904D01*
X184967619Y-72420952D02*
X185967619Y-72420952D01*
X184967619Y-72992380D01*
X185967619Y-72992380D01*
X184967619Y-73468571D02*
X185967619Y-73468571D01*
X185967619Y-73706666D01*
X185920000Y-73849523D01*
X185824761Y-73944761D01*
X185729523Y-73992380D01*
X185539047Y-74040000D01*
X185396190Y-74040000D01*
X185205714Y-73992380D01*
X185110476Y-73944761D01*
X185015238Y-73849523D01*
X184967619Y-73706666D01*
X184967619Y-73468571D01*
X115498571Y-58087619D02*
X115498571Y-58849523D01*
X115117619Y-58468571D02*
X115879523Y-58468571D01*
X115784285Y-59754285D02*
X115117619Y-59754285D01*
X116165238Y-59516190D02*
X115450952Y-59278095D01*
X115450952Y-59897142D01*
X115689047Y-60420952D02*
X115736666Y-60325714D01*
X115784285Y-60278095D01*
X115879523Y-60230476D01*
X115927142Y-60230476D01*
X116022380Y-60278095D01*
X116070000Y-60325714D01*
X116117619Y-60420952D01*
X116117619Y-60611428D01*
X116070000Y-60706666D01*
X116022380Y-60754285D01*
X115927142Y-60801904D01*
X115879523Y-60801904D01*
X115784285Y-60754285D01*
X115736666Y-60706666D01*
X115689047Y-60611428D01*
X115689047Y-60420952D01*
X115641428Y-60325714D01*
X115593809Y-60278095D01*
X115498571Y-60230476D01*
X115308095Y-60230476D01*
X115212857Y-60278095D01*
X115165238Y-60325714D01*
X115117619Y-60420952D01*
X115117619Y-60611428D01*
X115165238Y-60706666D01*
X115212857Y-60754285D01*
X115308095Y-60801904D01*
X115498571Y-60801904D01*
X115593809Y-60754285D01*
X115641428Y-60706666D01*
X115689047Y-60611428D01*
X116117619Y-61087619D02*
X115117619Y-61420952D01*
X116117619Y-61754285D01*
X115498571Y-62849523D02*
X115498571Y-63611428D01*
X115117619Y-63230476D02*
X115879523Y-63230476D01*
X116117619Y-64563809D02*
X116117619Y-64087619D01*
X115641428Y-64040000D01*
X115689047Y-64087619D01*
X115736666Y-64182857D01*
X115736666Y-64420952D01*
X115689047Y-64516190D01*
X115641428Y-64563809D01*
X115546190Y-64611428D01*
X115308095Y-64611428D01*
X115212857Y-64563809D01*
X115165238Y-64516190D01*
X115117619Y-64420952D01*
X115117619Y-64182857D01*
X115165238Y-64087619D01*
X115212857Y-64040000D01*
X116117619Y-64897142D02*
X115117619Y-65230476D01*
X116117619Y-65563809D01*
X115498571Y-66659047D02*
X115498571Y-67420952D01*
X115117619Y-67040000D02*
X115879523Y-67040000D01*
X115117619Y-68420952D02*
X115117619Y-67849523D01*
X115117619Y-68135238D02*
X116117619Y-68135238D01*
X115974761Y-68040000D01*
X115879523Y-67944761D01*
X115831904Y-67849523D01*
X116022380Y-68801904D02*
X116070000Y-68849523D01*
X116117619Y-68944761D01*
X116117619Y-69182857D01*
X116070000Y-69278095D01*
X116022380Y-69325714D01*
X115927142Y-69373333D01*
X115831904Y-69373333D01*
X115689047Y-69325714D01*
X115117619Y-68754285D01*
X115117619Y-69373333D01*
X116117619Y-69659047D02*
X115117619Y-69992380D01*
X116117619Y-70325714D01*
X116070000Y-71944761D02*
X116117619Y-71849523D01*
X116117619Y-71706666D01*
X116070000Y-71563809D01*
X115974761Y-71468571D01*
X115879523Y-71420952D01*
X115689047Y-71373333D01*
X115546190Y-71373333D01*
X115355714Y-71420952D01*
X115260476Y-71468571D01*
X115165238Y-71563809D01*
X115117619Y-71706666D01*
X115117619Y-71801904D01*
X115165238Y-71944761D01*
X115212857Y-71992380D01*
X115546190Y-71992380D01*
X115546190Y-71801904D01*
X115117619Y-72420952D02*
X116117619Y-72420952D01*
X115117619Y-72992380D01*
X116117619Y-72992380D01*
X115117619Y-73468571D02*
X116117619Y-73468571D01*
X116117619Y-73706666D01*
X116070000Y-73849523D01*
X115974761Y-73944761D01*
X115879523Y-73992380D01*
X115689047Y-74040000D01*
X115546190Y-74040000D01*
X115355714Y-73992380D01*
X115260476Y-73944761D01*
X115165238Y-73849523D01*
X115117619Y-73706666D01*
X115117619Y-73468571D01*
D11*
X125777857Y-107993571D02*
X125277857Y-107279285D01*
X124920714Y-107993571D02*
X124920714Y-106493571D01*
X125492142Y-106493571D01*
X125635000Y-106565000D01*
X125706428Y-106636428D01*
X125777857Y-106779285D01*
X125777857Y-106993571D01*
X125706428Y-107136428D01*
X125635000Y-107207857D01*
X125492142Y-107279285D01*
X124920714Y-107279285D01*
X126992142Y-107922142D02*
X126849285Y-107993571D01*
X126563571Y-107993571D01*
X126420714Y-107922142D01*
X126349285Y-107779285D01*
X126349285Y-107207857D01*
X126420714Y-107065000D01*
X126563571Y-106993571D01*
X126849285Y-106993571D01*
X126992142Y-107065000D01*
X127063571Y-107207857D01*
X127063571Y-107350714D01*
X126349285Y-107493571D01*
X127635000Y-107922142D02*
X127777857Y-107993571D01*
X128063571Y-107993571D01*
X128206428Y-107922142D01*
X128277857Y-107779285D01*
X128277857Y-107707857D01*
X128206428Y-107565000D01*
X128063571Y-107493571D01*
X127849285Y-107493571D01*
X127706428Y-107422142D01*
X127635000Y-107279285D01*
X127635000Y-107207857D01*
X127706428Y-107065000D01*
X127849285Y-106993571D01*
X128063571Y-106993571D01*
X128206428Y-107065000D01*
X129492142Y-107922142D02*
X129349285Y-107993571D01*
X129063571Y-107993571D01*
X128920714Y-107922142D01*
X128849285Y-107779285D01*
X128849285Y-107207857D01*
X128920714Y-107065000D01*
X129063571Y-106993571D01*
X129349285Y-106993571D01*
X129492142Y-107065000D01*
X129563571Y-107207857D01*
X129563571Y-107350714D01*
X128849285Y-107493571D01*
X129992142Y-106993571D02*
X130563571Y-106993571D01*
X130206428Y-106493571D02*
X130206428Y-107779285D01*
X130277857Y-107922142D01*
X130420714Y-107993571D01*
X130563571Y-107993571D01*
X165366428Y-123233571D02*
X164866428Y-122519285D01*
X164509285Y-123233571D02*
X164509285Y-121733571D01*
X165080714Y-121733571D01*
X165223571Y-121805000D01*
X165295000Y-121876428D01*
X165366428Y-122019285D01*
X165366428Y-122233571D01*
X165295000Y-122376428D01*
X165223571Y-122447857D01*
X165080714Y-122519285D01*
X164509285Y-122519285D01*
X166223571Y-123233571D02*
X166080714Y-123162142D01*
X166009285Y-123090714D01*
X165937857Y-122947857D01*
X165937857Y-122519285D01*
X166009285Y-122376428D01*
X166080714Y-122305000D01*
X166223571Y-122233571D01*
X166437857Y-122233571D01*
X166580714Y-122305000D01*
X166652142Y-122376428D01*
X166723571Y-122519285D01*
X166723571Y-122947857D01*
X166652142Y-123090714D01*
X166580714Y-123162142D01*
X166437857Y-123233571D01*
X166223571Y-123233571D01*
X167580714Y-123233571D02*
X167437857Y-123162142D01*
X167366428Y-123019285D01*
X167366428Y-121733571D01*
X168366428Y-123233571D02*
X168223571Y-123162142D01*
X168152142Y-123019285D01*
X168152142Y-121733571D01*
X168580714Y-123376428D02*
X169723571Y-123376428D01*
X170009285Y-123162142D02*
X170152142Y-123233571D01*
X170437857Y-123233571D01*
X170580714Y-123162142D01*
X170652142Y-123019285D01*
X170652142Y-122947857D01*
X170580714Y-122805000D01*
X170437857Y-122733571D01*
X170223571Y-122733571D01*
X170080714Y-122662142D01*
X170009285Y-122519285D01*
X170009285Y-122447857D01*
X170080714Y-122305000D01*
X170223571Y-122233571D01*
X170437857Y-122233571D01*
X170580714Y-122305000D01*
X171080714Y-122233571D02*
X171652142Y-122233571D01*
X171295000Y-121733571D02*
X171295000Y-123019285D01*
X171366428Y-123162142D01*
X171509285Y-123233571D01*
X171652142Y-123233571D01*
X172795000Y-123233571D02*
X172795000Y-122447857D01*
X172723571Y-122305000D01*
X172580714Y-122233571D01*
X172295000Y-122233571D01*
X172152142Y-122305000D01*
X172795000Y-123162142D02*
X172652142Y-123233571D01*
X172295000Y-123233571D01*
X172152142Y-123162142D01*
X172080714Y-123019285D01*
X172080714Y-122876428D01*
X172152142Y-122733571D01*
X172295000Y-122662142D01*
X172652142Y-122662142D01*
X172795000Y-122590714D01*
X173509285Y-123233571D02*
X173509285Y-122233571D01*
X173509285Y-122519285D02*
X173580714Y-122376428D01*
X173652142Y-122305000D01*
X173795000Y-122233571D01*
X173937857Y-122233571D01*
X174223571Y-122233571D02*
X174795000Y-122233571D01*
X174437857Y-121733571D02*
X174437857Y-123019285D01*
X174509285Y-123162142D01*
X174652142Y-123233571D01*
X174795000Y-123233571D01*
X179380000Y-140307142D02*
X179594285Y-140378571D01*
X179951428Y-140378571D01*
X180094285Y-140307142D01*
X180165714Y-140235714D01*
X180237142Y-140092857D01*
X180237142Y-139950000D01*
X180165714Y-139807142D01*
X180094285Y-139735714D01*
X179951428Y-139664285D01*
X179665714Y-139592857D01*
X179522857Y-139521428D01*
X179451428Y-139450000D01*
X179380000Y-139307142D01*
X179380000Y-139164285D01*
X179451428Y-139021428D01*
X179522857Y-138950000D01*
X179665714Y-138878571D01*
X180022857Y-138878571D01*
X180237142Y-138950000D01*
X180665714Y-139378571D02*
X181237142Y-139378571D01*
X180880000Y-138878571D02*
X180880000Y-140164285D01*
X180951428Y-140307142D01*
X181094285Y-140378571D01*
X181237142Y-140378571D01*
X181951428Y-140378571D02*
X181808571Y-140307142D01*
X181737142Y-140235714D01*
X181665714Y-140092857D01*
X181665714Y-139664285D01*
X181737142Y-139521428D01*
X181808571Y-139450000D01*
X181951428Y-139378571D01*
X182165714Y-139378571D01*
X182308571Y-139450000D01*
X182380000Y-139521428D01*
X182451428Y-139664285D01*
X182451428Y-140092857D01*
X182380000Y-140235714D01*
X182308571Y-140307142D01*
X182165714Y-140378571D01*
X181951428Y-140378571D01*
X183094285Y-139378571D02*
X183094285Y-140878571D01*
X183094285Y-139450000D02*
X183237142Y-139378571D01*
X183522857Y-139378571D01*
X183665714Y-139450000D01*
X183737142Y-139521428D01*
X183808571Y-139664285D01*
X183808571Y-140092857D01*
X183737142Y-140235714D01*
X183665714Y-140307142D01*
X183522857Y-140378571D01*
X183237142Y-140378571D01*
X183094285Y-140307142D01*
X184094285Y-140521428D02*
X185237142Y-140521428D01*
X186380000Y-140378571D02*
X185522857Y-140378571D01*
X185951428Y-140378571D02*
X185951428Y-138878571D01*
X185808571Y-139092857D01*
X185665714Y-139235714D01*
X185522857Y-139307142D01*
X165965714Y-140307142D02*
X166180000Y-140378571D01*
X166537142Y-140378571D01*
X166680000Y-140307142D01*
X166751428Y-140235714D01*
X166822857Y-140092857D01*
X166822857Y-139950000D01*
X166751428Y-139807142D01*
X166680000Y-139735714D01*
X166537142Y-139664285D01*
X166251428Y-139592857D01*
X166108571Y-139521428D01*
X166037142Y-139450000D01*
X165965714Y-139307142D01*
X165965714Y-139164285D01*
X166037142Y-139021428D01*
X166108571Y-138950000D01*
X166251428Y-138878571D01*
X166608571Y-138878571D01*
X166822857Y-138950000D01*
X167251428Y-139378571D02*
X167822857Y-139378571D01*
X167465714Y-138878571D02*
X167465714Y-140164285D01*
X167537142Y-140307142D01*
X167680000Y-140378571D01*
X167822857Y-140378571D01*
X168537142Y-140378571D02*
X168394285Y-140307142D01*
X168322857Y-140235714D01*
X168251428Y-140092857D01*
X168251428Y-139664285D01*
X168322857Y-139521428D01*
X168394285Y-139450000D01*
X168537142Y-139378571D01*
X168751428Y-139378571D01*
X168894285Y-139450000D01*
X168965714Y-139521428D01*
X169037142Y-139664285D01*
X169037142Y-140092857D01*
X168965714Y-140235714D01*
X168894285Y-140307142D01*
X168751428Y-140378571D01*
X168537142Y-140378571D01*
X169680000Y-139378571D02*
X169680000Y-140878571D01*
X169680000Y-139450000D02*
X169822857Y-139378571D01*
X170108571Y-139378571D01*
X170251428Y-139450000D01*
X170322857Y-139521428D01*
X170394285Y-139664285D01*
X170394285Y-140092857D01*
X170322857Y-140235714D01*
X170251428Y-140307142D01*
X170108571Y-140378571D01*
X169822857Y-140378571D01*
X169680000Y-140307142D01*
X170680000Y-140521428D02*
X171822857Y-140521428D01*
X172965714Y-140378571D02*
X172108571Y-140378571D01*
X172537142Y-140378571D02*
X172537142Y-138878571D01*
X172394285Y-139092857D01*
X172251428Y-139235714D01*
X172108571Y-139307142D01*
X173894285Y-138878571D02*
X174037142Y-138878571D01*
X174180000Y-138950000D01*
X174251428Y-139021428D01*
X174322857Y-139164285D01*
X174394285Y-139450000D01*
X174394285Y-139807142D01*
X174322857Y-140092857D01*
X174251428Y-140235714D01*
X174180000Y-140307142D01*
X174037142Y-140378571D01*
X173894285Y-140378571D01*
X173751428Y-140307142D01*
X173680000Y-140235714D01*
X173608571Y-140092857D01*
X173537142Y-139807142D01*
X173537142Y-139450000D01*
X173608571Y-139164285D01*
X173680000Y-139021428D01*
X173751428Y-138950000D01*
X173894285Y-138878571D01*
X151916428Y-140307142D02*
X152130714Y-140378571D01*
X152487857Y-140378571D01*
X152630714Y-140307142D01*
X152702142Y-140235714D01*
X152773571Y-140092857D01*
X152773571Y-139950000D01*
X152702142Y-139807142D01*
X152630714Y-139735714D01*
X152487857Y-139664285D01*
X152202142Y-139592857D01*
X152059285Y-139521428D01*
X151987857Y-139450000D01*
X151916428Y-139307142D01*
X151916428Y-139164285D01*
X151987857Y-139021428D01*
X152059285Y-138950000D01*
X152202142Y-138878571D01*
X152559285Y-138878571D01*
X152773571Y-138950000D01*
X153202142Y-139378571D02*
X153773571Y-139378571D01*
X153416428Y-138878571D02*
X153416428Y-140164285D01*
X153487857Y-140307142D01*
X153630714Y-140378571D01*
X153773571Y-140378571D01*
X154487857Y-140378571D02*
X154345000Y-140307142D01*
X154273571Y-140235714D01*
X154202142Y-140092857D01*
X154202142Y-139664285D01*
X154273571Y-139521428D01*
X154345000Y-139450000D01*
X154487857Y-139378571D01*
X154702142Y-139378571D01*
X154845000Y-139450000D01*
X154916428Y-139521428D01*
X154987857Y-139664285D01*
X154987857Y-140092857D01*
X154916428Y-140235714D01*
X154845000Y-140307142D01*
X154702142Y-140378571D01*
X154487857Y-140378571D01*
X155630714Y-139378571D02*
X155630714Y-140878571D01*
X155630714Y-139450000D02*
X155773571Y-139378571D01*
X156059285Y-139378571D01*
X156202142Y-139450000D01*
X156273571Y-139521428D01*
X156345000Y-139664285D01*
X156345000Y-140092857D01*
X156273571Y-140235714D01*
X156202142Y-140307142D01*
X156059285Y-140378571D01*
X155773571Y-140378571D01*
X155630714Y-140307142D01*
X156630714Y-140521428D02*
X157773571Y-140521428D01*
X158916428Y-140378571D02*
X158059285Y-140378571D01*
X158487857Y-140378571D02*
X158487857Y-138878571D01*
X158345000Y-139092857D01*
X158202142Y-139235714D01*
X158059285Y-139307142D01*
X159845000Y-138878571D02*
X159987857Y-138878571D01*
X160130714Y-138950000D01*
X160202142Y-139021428D01*
X160273571Y-139164285D01*
X160345000Y-139450000D01*
X160345000Y-139807142D01*
X160273571Y-140092857D01*
X160202142Y-140235714D01*
X160130714Y-140307142D01*
X159987857Y-140378571D01*
X159845000Y-140378571D01*
X159702142Y-140307142D01*
X159630714Y-140235714D01*
X159559285Y-140092857D01*
X159487857Y-139807142D01*
X159487857Y-139450000D01*
X159559285Y-139164285D01*
X159630714Y-139021428D01*
X159702142Y-138950000D01*
X159845000Y-138878571D01*
X161273571Y-138878571D02*
X161416428Y-138878571D01*
X161559285Y-138950000D01*
X161630714Y-139021428D01*
X161702142Y-139164285D01*
X161773571Y-139450000D01*
X161773571Y-139807142D01*
X161702142Y-140092857D01*
X161630714Y-140235714D01*
X161559285Y-140307142D01*
X161416428Y-140378571D01*
X161273571Y-140378571D01*
X161130714Y-140307142D01*
X161059285Y-140235714D01*
X160987857Y-140092857D01*
X160916428Y-139807142D01*
X160916428Y-139450000D01*
X160987857Y-139164285D01*
X161059285Y-139021428D01*
X161130714Y-138950000D01*
X161273571Y-138878571D01*
X184757857Y-107287142D02*
X184972142Y-107358571D01*
X185329285Y-107358571D01*
X185472142Y-107287142D01*
X185543571Y-107215714D01*
X185615000Y-107072857D01*
X185615000Y-106930000D01*
X185543571Y-106787142D01*
X185472142Y-106715714D01*
X185329285Y-106644285D01*
X185043571Y-106572857D01*
X184900714Y-106501428D01*
X184829285Y-106430000D01*
X184757857Y-106287142D01*
X184757857Y-106144285D01*
X184829285Y-106001428D01*
X184900714Y-105930000D01*
X185043571Y-105858571D01*
X185400714Y-105858571D01*
X185615000Y-105930000D01*
X186257857Y-107358571D02*
X186257857Y-105858571D01*
X186900714Y-107358571D02*
X186900714Y-106572857D01*
X186829285Y-106430000D01*
X186686428Y-106358571D01*
X186472142Y-106358571D01*
X186329285Y-106430000D01*
X186257857Y-106501428D01*
X188257857Y-106358571D02*
X188257857Y-107358571D01*
X187615000Y-106358571D02*
X187615000Y-107144285D01*
X187686428Y-107287142D01*
X187829285Y-107358571D01*
X188043571Y-107358571D01*
X188186428Y-107287142D01*
X188257857Y-107215714D01*
X188757857Y-106358571D02*
X189329285Y-106358571D01*
X188972142Y-105858571D02*
X188972142Y-107144285D01*
X189043571Y-107287142D01*
X189186428Y-107358571D01*
X189329285Y-107358571D01*
X189829285Y-107358571D02*
X189829285Y-105858571D01*
X190186428Y-105858571D01*
X190400714Y-105930000D01*
X190543571Y-106072857D01*
X190615000Y-106215714D01*
X190686428Y-106501428D01*
X190686428Y-106715714D01*
X190615000Y-107001428D01*
X190543571Y-107144285D01*
X190400714Y-107287142D01*
X190186428Y-107358571D01*
X189829285Y-107358571D01*
X191543571Y-107358571D02*
X191400714Y-107287142D01*
X191329285Y-107215714D01*
X191257857Y-107072857D01*
X191257857Y-106644285D01*
X191329285Y-106501428D01*
X191400714Y-106430000D01*
X191543571Y-106358571D01*
X191757857Y-106358571D01*
X191900714Y-106430000D01*
X191972142Y-106501428D01*
X192043571Y-106644285D01*
X192043571Y-107072857D01*
X191972142Y-107215714D01*
X191900714Y-107287142D01*
X191757857Y-107358571D01*
X191543571Y-107358571D01*
X192543571Y-106358571D02*
X192829285Y-107358571D01*
X193115000Y-106644285D01*
X193400714Y-107358571D01*
X193686428Y-106358571D01*
X194257857Y-106358571D02*
X194257857Y-107358571D01*
X194257857Y-106501428D02*
X194329285Y-106430000D01*
X194472142Y-106358571D01*
X194686428Y-106358571D01*
X194829285Y-106430000D01*
X194900714Y-106572857D01*
X194900714Y-107358571D01*
X155559285Y-106088571D02*
X155059285Y-105374285D01*
X154702142Y-106088571D02*
X154702142Y-104588571D01*
X155273571Y-104588571D01*
X155416428Y-104660000D01*
X155487857Y-104731428D01*
X155559285Y-104874285D01*
X155559285Y-105088571D01*
X155487857Y-105231428D01*
X155416428Y-105302857D01*
X155273571Y-105374285D01*
X154702142Y-105374285D01*
X156416428Y-106088571D02*
X156273571Y-106017142D01*
X156202142Y-105945714D01*
X156130714Y-105802857D01*
X156130714Y-105374285D01*
X156202142Y-105231428D01*
X156273571Y-105160000D01*
X156416428Y-105088571D01*
X156630714Y-105088571D01*
X156773571Y-105160000D01*
X156845000Y-105231428D01*
X156916428Y-105374285D01*
X156916428Y-105802857D01*
X156845000Y-105945714D01*
X156773571Y-106017142D01*
X156630714Y-106088571D01*
X156416428Y-106088571D01*
X157773571Y-106088571D02*
X157630714Y-106017142D01*
X157559285Y-105945714D01*
X157487857Y-105802857D01*
X157487857Y-105374285D01*
X157559285Y-105231428D01*
X157630714Y-105160000D01*
X157773571Y-105088571D01*
X157987857Y-105088571D01*
X158130714Y-105160000D01*
X158202142Y-105231428D01*
X158273571Y-105374285D01*
X158273571Y-105802857D01*
X158202142Y-105945714D01*
X158130714Y-106017142D01*
X157987857Y-106088571D01*
X157773571Y-106088571D01*
X159130714Y-106088571D02*
X158987857Y-106017142D01*
X158916428Y-105874285D01*
X158916428Y-104588571D01*
X140307857Y-106017142D02*
X140522142Y-106088571D01*
X140879285Y-106088571D01*
X141022142Y-106017142D01*
X141093571Y-105945714D01*
X141165000Y-105802857D01*
X141165000Y-105660000D01*
X141093571Y-105517142D01*
X141022142Y-105445714D01*
X140879285Y-105374285D01*
X140593571Y-105302857D01*
X140450714Y-105231428D01*
X140379285Y-105160000D01*
X140307857Y-105017142D01*
X140307857Y-104874285D01*
X140379285Y-104731428D01*
X140450714Y-104660000D01*
X140593571Y-104588571D01*
X140950714Y-104588571D01*
X141165000Y-104660000D01*
X141807857Y-106088571D02*
X141807857Y-104588571D01*
X142450714Y-106088571D02*
X142450714Y-105302857D01*
X142379285Y-105160000D01*
X142236428Y-105088571D01*
X142022142Y-105088571D01*
X141879285Y-105160000D01*
X141807857Y-105231428D01*
X143807857Y-105088571D02*
X143807857Y-106088571D01*
X143165000Y-105088571D02*
X143165000Y-105874285D01*
X143236428Y-106017142D01*
X143379285Y-106088571D01*
X143593571Y-106088571D01*
X143736428Y-106017142D01*
X143807857Y-105945714D01*
X144307857Y-105088571D02*
X144879285Y-105088571D01*
X144522142Y-104588571D02*
X144522142Y-105874285D01*
X144593571Y-106017142D01*
X144736428Y-106088571D01*
X144879285Y-106088571D01*
X145379285Y-106088571D02*
X145379285Y-104588571D01*
X145736428Y-104588571D01*
X145950714Y-104660000D01*
X146093571Y-104802857D01*
X146165000Y-104945714D01*
X146236428Y-105231428D01*
X146236428Y-105445714D01*
X146165000Y-105731428D01*
X146093571Y-105874285D01*
X145950714Y-106017142D01*
X145736428Y-106088571D01*
X145379285Y-106088571D01*
X147093571Y-106088571D02*
X146950714Y-106017142D01*
X146879285Y-105945714D01*
X146807857Y-105802857D01*
X146807857Y-105374285D01*
X146879285Y-105231428D01*
X146950714Y-105160000D01*
X147093571Y-105088571D01*
X147307857Y-105088571D01*
X147450714Y-105160000D01*
X147522142Y-105231428D01*
X147593571Y-105374285D01*
X147593571Y-105802857D01*
X147522142Y-105945714D01*
X147450714Y-106017142D01*
X147307857Y-106088571D01*
X147093571Y-106088571D01*
X148093571Y-105088571D02*
X148379285Y-106088571D01*
X148665000Y-105374285D01*
X148950714Y-106088571D01*
X149236428Y-105088571D01*
X149807857Y-105088571D02*
X149807857Y-106088571D01*
X149807857Y-105231428D02*
X149879285Y-105160000D01*
X150022142Y-105088571D01*
X150236428Y-105088571D01*
X150379285Y-105160000D01*
X150450714Y-105302857D01*
X150450714Y-106088571D01*
D12*
G04 #@! TO.C,U1*
X159980000Y-84360000D02*
X170220000Y-84360000D01*
X159980000Y-89001000D02*
X170220000Y-89001000D01*
X159980000Y-84360000D02*
X159980000Y-89001000D01*
X170220000Y-84360000D02*
X170220000Y-89001000D01*
X159980000Y-85870000D02*
X170220000Y-85870000D01*
X163250000Y-84360000D02*
X163250000Y-85870000D01*
X166951000Y-84360000D02*
X166951000Y-85870000D01*
G04 #@! TO.C,SW6*
X187055000Y-103290000D02*
X191555000Y-103290000D01*
X185805000Y-99290000D02*
X185805000Y-100790000D01*
X191555000Y-96790000D02*
X187055000Y-96790000D01*
X192805000Y-100790000D02*
X192805000Y-99290000D01*
G04 #@! TO.C,SW5*
X180070000Y-135040000D02*
X184570000Y-135040000D01*
X178820000Y-131040000D02*
X178820000Y-132540000D01*
X184570000Y-128540000D02*
X180070000Y-128540000D01*
X185820000Y-132540000D02*
X185820000Y-131040000D01*
G04 #@! TO.C,SW4*
X167370000Y-135040000D02*
X171870000Y-135040000D01*
X166120000Y-131040000D02*
X166120000Y-132540000D01*
X171870000Y-128540000D02*
X167370000Y-128540000D01*
X173120000Y-132540000D02*
X173120000Y-131040000D01*
G04 #@! TO.C,SW3*
X167370000Y-119800000D02*
X171870000Y-119800000D01*
X166120000Y-115800000D02*
X166120000Y-117300000D01*
X171870000Y-113300000D02*
X167370000Y-113300000D01*
X173120000Y-117300000D02*
X173120000Y-115800000D01*
G04 #@! TO.C,SW2*
X154670000Y-135040000D02*
X159170000Y-135040000D01*
X153420000Y-131040000D02*
X153420000Y-132540000D01*
X159170000Y-128540000D02*
X154670000Y-128540000D01*
X160420000Y-132540000D02*
X160420000Y-131040000D01*
G04 #@! TO.C,SW1*
X125460000Y-103290000D02*
X129960000Y-103290000D01*
X124210000Y-99290000D02*
X124210000Y-100790000D01*
X129960000Y-96790000D02*
X125460000Y-96790000D01*
X131210000Y-100790000D02*
X131210000Y-99290000D01*
G04 #@! TO.C,R6*
X145925000Y-95087221D02*
X145925000Y-95412779D01*
X144905000Y-95087221D02*
X144905000Y-95412779D01*
G04 #@! TO.C,R5*
X157355000Y-95087221D02*
X157355000Y-95412779D01*
X156335000Y-95087221D02*
X156335000Y-95412779D01*
G04 #@! TO.C,J6*
X137430000Y-78680000D02*
X135780000Y-78680000D01*
X135780000Y-78680000D02*
X135780000Y-88960000D01*
X135780000Y-88960000D02*
X141080000Y-88960000D01*
X141080000Y-88960000D02*
X141080000Y-78680000D01*
X141080000Y-78680000D02*
X139430000Y-78680000D01*
X139430000Y-78680000D02*
G75*
G02*
X137430000Y-78680000I-1000000J0D01*
G01*
G04 #@! TO.C,J5*
X111680000Y-77450000D02*
X105710000Y-77450000D01*
X105710000Y-77450000D02*
X105710000Y-85070000D01*
X105710000Y-85070000D02*
X111680000Y-85070000D01*
X111680000Y-85070000D02*
X111680000Y-77450000D01*
X111670000Y-80760000D02*
X110920000Y-80760000D01*
X110920000Y-80760000D02*
X110920000Y-81760000D01*
X110920000Y-81760000D02*
X111670000Y-81760000D01*
X111670000Y-81760000D02*
X111670000Y-80760000D01*
X111670000Y-77460000D02*
X110920000Y-77460000D01*
X110920000Y-77460000D02*
X110920000Y-79260000D01*
X110920000Y-79260000D02*
X111670000Y-79260000D01*
X111670000Y-79260000D02*
X111670000Y-77460000D01*
X111670000Y-83260000D02*
X110920000Y-83260000D01*
X110920000Y-83260000D02*
X110920000Y-85060000D01*
X110920000Y-85060000D02*
X111670000Y-85060000D01*
X111670000Y-85060000D02*
X111670000Y-83260000D01*
X109420000Y-77460000D02*
X109420000Y-78210000D01*
X109420000Y-78210000D02*
X106470000Y-78210000D01*
X106470000Y-78210000D02*
X106470000Y-81260000D01*
X109420000Y-85060000D02*
X109420000Y-84310000D01*
X109420000Y-84310000D02*
X106470000Y-84310000D01*
X106470000Y-84310000D02*
X106470000Y-81260000D01*
X111970000Y-78410000D02*
X111970000Y-77160000D01*
X111970000Y-77160000D02*
X110720000Y-77160000D01*
G04 #@! TO.C,J4*
X188130000Y-57630000D02*
X195150000Y-57630000D01*
X195150000Y-57630000D02*
X195150000Y-58830000D01*
X195150000Y-58830000D02*
X196850000Y-58830000D01*
X196850000Y-58830000D02*
X196850000Y-72430000D01*
X196850000Y-72430000D02*
X195150000Y-72430000D01*
X195150000Y-72430000D02*
X195150000Y-73630000D01*
X195150000Y-73630000D02*
X188130000Y-73630000D01*
X188130000Y-73630000D02*
X188130000Y-57630000D01*
X193040000Y-57430000D02*
X192740000Y-56830000D01*
X192740000Y-56830000D02*
X193340000Y-56830000D01*
X193340000Y-56830000D02*
X193040000Y-57430000D01*
G04 #@! TO.C,J3*
X109490000Y-106620000D02*
X104030000Y-106620000D01*
X104030000Y-106620000D02*
X104030000Y-142300000D01*
X104030000Y-142300000D02*
X116950000Y-142300000D01*
X116950000Y-142300000D02*
X116950000Y-106620000D01*
X116950000Y-106620000D02*
X111490000Y-106620000D01*
X111490000Y-106620000D02*
G75*
G02*
X109490000Y-106620000I-1000000J0D01*
G01*
G04 #@! TO.C,J2*
X195500000Y-77450000D02*
X189530000Y-77450000D01*
X189530000Y-77450000D02*
X189530000Y-85070000D01*
X189530000Y-85070000D02*
X195500000Y-85070000D01*
X195500000Y-85070000D02*
X195500000Y-77450000D01*
X195490000Y-80760000D02*
X194740000Y-80760000D01*
X194740000Y-80760000D02*
X194740000Y-81760000D01*
X194740000Y-81760000D02*
X195490000Y-81760000D01*
X195490000Y-81760000D02*
X195490000Y-80760000D01*
X195490000Y-77460000D02*
X194740000Y-77460000D01*
X194740000Y-77460000D02*
X194740000Y-79260000D01*
X194740000Y-79260000D02*
X195490000Y-79260000D01*
X195490000Y-79260000D02*
X195490000Y-77460000D01*
X195490000Y-83260000D02*
X194740000Y-83260000D01*
X194740000Y-83260000D02*
X194740000Y-85060000D01*
X194740000Y-85060000D02*
X195490000Y-85060000D01*
X195490000Y-85060000D02*
X195490000Y-83260000D01*
X193240000Y-77460000D02*
X193240000Y-78210000D01*
X193240000Y-78210000D02*
X190290000Y-78210000D01*
X190290000Y-78210000D02*
X190290000Y-81260000D01*
X193240000Y-85060000D02*
X193240000Y-84310000D01*
X193240000Y-84310000D02*
X190290000Y-84310000D01*
X190290000Y-84310000D02*
X190290000Y-81260000D01*
X195790000Y-78410000D02*
X195790000Y-77160000D01*
X195790000Y-77160000D02*
X194540000Y-77160000D01*
G04 #@! TO.C,J1*
X104310000Y-57630000D02*
X111330000Y-57630000D01*
X111330000Y-57630000D02*
X111330000Y-58830000D01*
X111330000Y-58830000D02*
X113030000Y-58830000D01*
X113030000Y-58830000D02*
X113030000Y-72430000D01*
X113030000Y-72430000D02*
X111330000Y-72430000D01*
X111330000Y-72430000D02*
X111330000Y-73630000D01*
X111330000Y-73630000D02*
X104310000Y-73630000D01*
X104310000Y-73630000D02*
X104310000Y-57630000D01*
X109220000Y-57430000D02*
X108920000Y-56830000D01*
X108920000Y-56830000D02*
X109520000Y-56830000D01*
X109520000Y-56830000D02*
X109220000Y-57430000D01*
G04 #@! TO.C,D2*
X144680000Y-100800000D02*
X144680000Y-103085000D01*
X144680000Y-103085000D02*
X146150000Y-103085000D01*
X146150000Y-103085000D02*
X146150000Y-100800000D01*
G04 #@! TO.C,D1*
X156110000Y-100800000D02*
X156110000Y-103085000D01*
X156110000Y-103085000D02*
X157580000Y-103085000D01*
X157580000Y-103085000D02*
X157580000Y-100800000D01*
G04 #@! TO.C,C2*
X173800000Y-80010000D02*
G75*
G03*
X173800000Y-80010000I-2620000J0D01*
G01*
X171180000Y-81050000D02*
X171180000Y-82590000D01*
X171180000Y-77430000D02*
X171180000Y-78970000D01*
X171220000Y-81050000D02*
X171220000Y-82590000D01*
X171220000Y-77430000D02*
X171220000Y-78970000D01*
X171260000Y-77431000D02*
X171260000Y-78970000D01*
X171260000Y-81050000D02*
X171260000Y-82589000D01*
X171300000Y-77432000D02*
X171300000Y-78970000D01*
X171300000Y-81050000D02*
X171300000Y-82588000D01*
X171340000Y-77434000D02*
X171340000Y-78970000D01*
X171340000Y-81050000D02*
X171340000Y-82586000D01*
X171380000Y-77437000D02*
X171380000Y-78970000D01*
X171380000Y-81050000D02*
X171380000Y-82583000D01*
X171420000Y-77441000D02*
X171420000Y-78970000D01*
X171420000Y-81050000D02*
X171420000Y-82579000D01*
X171460000Y-77445000D02*
X171460000Y-78970000D01*
X171460000Y-81050000D02*
X171460000Y-82575000D01*
X171500000Y-77449000D02*
X171500000Y-78970000D01*
X171500000Y-81050000D02*
X171500000Y-82571000D01*
X171540000Y-77454000D02*
X171540000Y-78970000D01*
X171540000Y-81050000D02*
X171540000Y-82566000D01*
X171580000Y-77460000D02*
X171580000Y-78970000D01*
X171580000Y-81050000D02*
X171580000Y-82560000D01*
X171620000Y-77467000D02*
X171620000Y-78970000D01*
X171620000Y-81050000D02*
X171620000Y-82553000D01*
X171660000Y-77474000D02*
X171660000Y-78970000D01*
X171660000Y-81050000D02*
X171660000Y-82546000D01*
X171700000Y-77482000D02*
X171700000Y-78970000D01*
X171700000Y-81050000D02*
X171700000Y-82538000D01*
X171740000Y-77490000D02*
X171740000Y-78970000D01*
X171740000Y-81050000D02*
X171740000Y-82530000D01*
X171780000Y-77499000D02*
X171780000Y-78970000D01*
X171780000Y-81050000D02*
X171780000Y-82521000D01*
X171820000Y-77509000D02*
X171820000Y-78970000D01*
X171820000Y-81050000D02*
X171820000Y-82511000D01*
X171860000Y-77519000D02*
X171860000Y-78970000D01*
X171860000Y-81050000D02*
X171860000Y-82501000D01*
X171901000Y-77530000D02*
X171901000Y-78970000D01*
X171901000Y-81050000D02*
X171901000Y-82490000D01*
X171941000Y-77542000D02*
X171941000Y-78970000D01*
X171941000Y-81050000D02*
X171941000Y-82478000D01*
X171981000Y-77555000D02*
X171981000Y-78970000D01*
X171981000Y-81050000D02*
X171981000Y-82465000D01*
X172021000Y-77568000D02*
X172021000Y-78970000D01*
X172021000Y-81050000D02*
X172021000Y-82452000D01*
X172061000Y-77582000D02*
X172061000Y-78970000D01*
X172061000Y-81050000D02*
X172061000Y-82438000D01*
X172101000Y-77596000D02*
X172101000Y-78970000D01*
X172101000Y-81050000D02*
X172101000Y-82424000D01*
X172141000Y-77612000D02*
X172141000Y-78970000D01*
X172141000Y-81050000D02*
X172141000Y-82408000D01*
X172181000Y-77628000D02*
X172181000Y-78970000D01*
X172181000Y-81050000D02*
X172181000Y-82392000D01*
X172221000Y-77645000D02*
X172221000Y-78970000D01*
X172221000Y-81050000D02*
X172221000Y-82375000D01*
X172261000Y-77662000D02*
X172261000Y-78970000D01*
X172261000Y-81050000D02*
X172261000Y-82358000D01*
X172301000Y-77681000D02*
X172301000Y-78970000D01*
X172301000Y-81050000D02*
X172301000Y-82339000D01*
X172341000Y-77700000D02*
X172341000Y-78970000D01*
X172341000Y-81050000D02*
X172341000Y-82320000D01*
X172381000Y-77720000D02*
X172381000Y-78970000D01*
X172381000Y-81050000D02*
X172381000Y-82300000D01*
X172421000Y-77742000D02*
X172421000Y-78970000D01*
X172421000Y-81050000D02*
X172421000Y-82278000D01*
X172461000Y-77763000D02*
X172461000Y-78970000D01*
X172461000Y-81050000D02*
X172461000Y-82257000D01*
X172501000Y-77786000D02*
X172501000Y-78970000D01*
X172501000Y-81050000D02*
X172501000Y-82234000D01*
X172541000Y-77810000D02*
X172541000Y-78970000D01*
X172541000Y-81050000D02*
X172541000Y-82210000D01*
X172581000Y-77835000D02*
X172581000Y-78970000D01*
X172581000Y-81050000D02*
X172581000Y-82185000D01*
X172621000Y-77861000D02*
X172621000Y-78970000D01*
X172621000Y-81050000D02*
X172621000Y-82159000D01*
X172661000Y-77888000D02*
X172661000Y-78970000D01*
X172661000Y-81050000D02*
X172661000Y-82132000D01*
X172701000Y-77915000D02*
X172701000Y-78970000D01*
X172701000Y-81050000D02*
X172701000Y-82105000D01*
X172741000Y-77945000D02*
X172741000Y-78970000D01*
X172741000Y-81050000D02*
X172741000Y-82075000D01*
X172781000Y-77975000D02*
X172781000Y-78970000D01*
X172781000Y-81050000D02*
X172781000Y-82045000D01*
X172821000Y-78006000D02*
X172821000Y-78970000D01*
X172821000Y-81050000D02*
X172821000Y-82014000D01*
X172861000Y-78039000D02*
X172861000Y-78970000D01*
X172861000Y-81050000D02*
X172861000Y-81981000D01*
X172901000Y-78073000D02*
X172901000Y-78970000D01*
X172901000Y-81050000D02*
X172901000Y-81947000D01*
X172941000Y-78109000D02*
X172941000Y-78970000D01*
X172941000Y-81050000D02*
X172941000Y-81911000D01*
X172981000Y-78146000D02*
X172981000Y-78970000D01*
X172981000Y-81050000D02*
X172981000Y-81874000D01*
X173021000Y-78184000D02*
X173021000Y-78970000D01*
X173021000Y-81050000D02*
X173021000Y-81836000D01*
X173061000Y-78225000D02*
X173061000Y-78970000D01*
X173061000Y-81050000D02*
X173061000Y-81795000D01*
X173101000Y-78267000D02*
X173101000Y-78970000D01*
X173101000Y-81050000D02*
X173101000Y-81753000D01*
X173141000Y-78311000D02*
X173141000Y-78970000D01*
X173141000Y-81050000D02*
X173141000Y-81709000D01*
X173181000Y-78357000D02*
X173181000Y-78970000D01*
X173181000Y-81050000D02*
X173181000Y-81663000D01*
X173221000Y-78405000D02*
X173221000Y-81615000D01*
X173261000Y-78456000D02*
X173261000Y-81564000D01*
X173301000Y-78510000D02*
X173301000Y-81510000D01*
X173341000Y-78567000D02*
X173341000Y-81453000D01*
X173381000Y-78627000D02*
X173381000Y-81393000D01*
X173421000Y-78691000D02*
X173421000Y-81329000D01*
X173461000Y-78759000D02*
X173461000Y-81261000D01*
X173501000Y-78832000D02*
X173501000Y-81188000D01*
X173541000Y-78912000D02*
X173541000Y-81108000D01*
X173581000Y-78999000D02*
X173581000Y-81021000D01*
X173621000Y-79095000D02*
X173621000Y-80925000D01*
X173661000Y-79205000D02*
X173661000Y-80815000D01*
X173701000Y-79333000D02*
X173701000Y-80687000D01*
X173741000Y-79492000D02*
X173741000Y-80528000D01*
X173781000Y-79726000D02*
X173781000Y-80294000D01*
X168375225Y-78535000D02*
X168875225Y-78535000D01*
X168625225Y-78285000D02*
X168625225Y-78785000D01*
G04 #@! TO.C,C1*
X161100000Y-80010000D02*
G75*
G03*
X161100000Y-80010000I-2620000J0D01*
G01*
X158480000Y-81050000D02*
X158480000Y-82590000D01*
X158480000Y-77430000D02*
X158480000Y-78970000D01*
X158520000Y-81050000D02*
X158520000Y-82590000D01*
X158520000Y-77430000D02*
X158520000Y-78970000D01*
X158560000Y-77431000D02*
X158560000Y-78970000D01*
X158560000Y-81050000D02*
X158560000Y-82589000D01*
X158600000Y-77432000D02*
X158600000Y-78970000D01*
X158600000Y-81050000D02*
X158600000Y-82588000D01*
X158640000Y-77434000D02*
X158640000Y-78970000D01*
X158640000Y-81050000D02*
X158640000Y-82586000D01*
X158680000Y-77437000D02*
X158680000Y-78970000D01*
X158680000Y-81050000D02*
X158680000Y-82583000D01*
X158720000Y-77441000D02*
X158720000Y-78970000D01*
X158720000Y-81050000D02*
X158720000Y-82579000D01*
X158760000Y-77445000D02*
X158760000Y-78970000D01*
X158760000Y-81050000D02*
X158760000Y-82575000D01*
X158800000Y-77449000D02*
X158800000Y-78970000D01*
X158800000Y-81050000D02*
X158800000Y-82571000D01*
X158840000Y-77454000D02*
X158840000Y-78970000D01*
X158840000Y-81050000D02*
X158840000Y-82566000D01*
X158880000Y-77460000D02*
X158880000Y-78970000D01*
X158880000Y-81050000D02*
X158880000Y-82560000D01*
X158920000Y-77467000D02*
X158920000Y-78970000D01*
X158920000Y-81050000D02*
X158920000Y-82553000D01*
X158960000Y-77474000D02*
X158960000Y-78970000D01*
X158960000Y-81050000D02*
X158960000Y-82546000D01*
X159000000Y-77482000D02*
X159000000Y-78970000D01*
X159000000Y-81050000D02*
X159000000Y-82538000D01*
X159040000Y-77490000D02*
X159040000Y-78970000D01*
X159040000Y-81050000D02*
X159040000Y-82530000D01*
X159080000Y-77499000D02*
X159080000Y-78970000D01*
X159080000Y-81050000D02*
X159080000Y-82521000D01*
X159120000Y-77509000D02*
X159120000Y-78970000D01*
X159120000Y-81050000D02*
X159120000Y-82511000D01*
X159160000Y-77519000D02*
X159160000Y-78970000D01*
X159160000Y-81050000D02*
X159160000Y-82501000D01*
X159201000Y-77530000D02*
X159201000Y-78970000D01*
X159201000Y-81050000D02*
X159201000Y-82490000D01*
X159241000Y-77542000D02*
X159241000Y-78970000D01*
X159241000Y-81050000D02*
X159241000Y-82478000D01*
X159281000Y-77555000D02*
X159281000Y-78970000D01*
X159281000Y-81050000D02*
X159281000Y-82465000D01*
X159321000Y-77568000D02*
X159321000Y-78970000D01*
X159321000Y-81050000D02*
X159321000Y-82452000D01*
X159361000Y-77582000D02*
X159361000Y-78970000D01*
X159361000Y-81050000D02*
X159361000Y-82438000D01*
X159401000Y-77596000D02*
X159401000Y-78970000D01*
X159401000Y-81050000D02*
X159401000Y-82424000D01*
X159441000Y-77612000D02*
X159441000Y-78970000D01*
X159441000Y-81050000D02*
X159441000Y-82408000D01*
X159481000Y-77628000D02*
X159481000Y-78970000D01*
X159481000Y-81050000D02*
X159481000Y-82392000D01*
X159521000Y-77645000D02*
X159521000Y-78970000D01*
X159521000Y-81050000D02*
X159521000Y-82375000D01*
X159561000Y-77662000D02*
X159561000Y-78970000D01*
X159561000Y-81050000D02*
X159561000Y-82358000D01*
X159601000Y-77681000D02*
X159601000Y-78970000D01*
X159601000Y-81050000D02*
X159601000Y-82339000D01*
X159641000Y-77700000D02*
X159641000Y-78970000D01*
X159641000Y-81050000D02*
X159641000Y-82320000D01*
X159681000Y-77720000D02*
X159681000Y-78970000D01*
X159681000Y-81050000D02*
X159681000Y-82300000D01*
X159721000Y-77742000D02*
X159721000Y-78970000D01*
X159721000Y-81050000D02*
X159721000Y-82278000D01*
X159761000Y-77763000D02*
X159761000Y-78970000D01*
X159761000Y-81050000D02*
X159761000Y-82257000D01*
X159801000Y-77786000D02*
X159801000Y-78970000D01*
X159801000Y-81050000D02*
X159801000Y-82234000D01*
X159841000Y-77810000D02*
X159841000Y-78970000D01*
X159841000Y-81050000D02*
X159841000Y-82210000D01*
X159881000Y-77835000D02*
X159881000Y-78970000D01*
X159881000Y-81050000D02*
X159881000Y-82185000D01*
X159921000Y-77861000D02*
X159921000Y-78970000D01*
X159921000Y-81050000D02*
X159921000Y-82159000D01*
X159961000Y-77888000D02*
X159961000Y-78970000D01*
X159961000Y-81050000D02*
X159961000Y-82132000D01*
X160001000Y-77915000D02*
X160001000Y-78970000D01*
X160001000Y-81050000D02*
X160001000Y-82105000D01*
X160041000Y-77945000D02*
X160041000Y-78970000D01*
X160041000Y-81050000D02*
X160041000Y-82075000D01*
X160081000Y-77975000D02*
X160081000Y-78970000D01*
X160081000Y-81050000D02*
X160081000Y-82045000D01*
X160121000Y-78006000D02*
X160121000Y-78970000D01*
X160121000Y-81050000D02*
X160121000Y-82014000D01*
X160161000Y-78039000D02*
X160161000Y-78970000D01*
X160161000Y-81050000D02*
X160161000Y-81981000D01*
X160201000Y-78073000D02*
X160201000Y-78970000D01*
X160201000Y-81050000D02*
X160201000Y-81947000D01*
X160241000Y-78109000D02*
X160241000Y-78970000D01*
X160241000Y-81050000D02*
X160241000Y-81911000D01*
X160281000Y-78146000D02*
X160281000Y-78970000D01*
X160281000Y-81050000D02*
X160281000Y-81874000D01*
X160321000Y-78184000D02*
X160321000Y-78970000D01*
X160321000Y-81050000D02*
X160321000Y-81836000D01*
X160361000Y-78225000D02*
X160361000Y-78970000D01*
X160361000Y-81050000D02*
X160361000Y-81795000D01*
X160401000Y-78267000D02*
X160401000Y-78970000D01*
X160401000Y-81050000D02*
X160401000Y-81753000D01*
X160441000Y-78311000D02*
X160441000Y-78970000D01*
X160441000Y-81050000D02*
X160441000Y-81709000D01*
X160481000Y-78357000D02*
X160481000Y-78970000D01*
X160481000Y-81050000D02*
X160481000Y-81663000D01*
X160521000Y-78405000D02*
X160521000Y-81615000D01*
X160561000Y-78456000D02*
X160561000Y-81564000D01*
X160601000Y-78510000D02*
X160601000Y-81510000D01*
X160641000Y-78567000D02*
X160641000Y-81453000D01*
X160681000Y-78627000D02*
X160681000Y-81393000D01*
X160721000Y-78691000D02*
X160721000Y-81329000D01*
X160761000Y-78759000D02*
X160761000Y-81261000D01*
X160801000Y-78832000D02*
X160801000Y-81188000D01*
X160841000Y-78912000D02*
X160841000Y-81108000D01*
X160881000Y-78999000D02*
X160881000Y-81021000D01*
X160921000Y-79095000D02*
X160921000Y-80925000D01*
X160961000Y-79205000D02*
X160961000Y-80815000D01*
X161001000Y-79333000D02*
X161001000Y-80687000D01*
X161041000Y-79492000D02*
X161041000Y-80528000D01*
X161081000Y-79726000D02*
X161081000Y-80294000D01*
X155675225Y-78535000D02*
X156175225Y-78535000D01*
X155925225Y-78285000D02*
X155925225Y-78785000D01*
G04 #@! TO.C,U1*
D10*
X164338095Y-82812380D02*
X164338095Y-83621904D01*
X164385714Y-83717142D01*
X164433333Y-83764761D01*
X164528571Y-83812380D01*
X164719047Y-83812380D01*
X164814285Y-83764761D01*
X164861904Y-83717142D01*
X164909523Y-83621904D01*
X164909523Y-82812380D01*
X165909523Y-83812380D02*
X165338095Y-83812380D01*
X165623809Y-83812380D02*
X165623809Y-82812380D01*
X165528571Y-82955238D01*
X165433333Y-83050476D01*
X165338095Y-83098095D01*
G04 #@! TO.C,SW6*
X187971666Y-96194761D02*
X188114523Y-96242380D01*
X188352619Y-96242380D01*
X188447857Y-96194761D01*
X188495476Y-96147142D01*
X188543095Y-96051904D01*
X188543095Y-95956666D01*
X188495476Y-95861428D01*
X188447857Y-95813809D01*
X188352619Y-95766190D01*
X188162142Y-95718571D01*
X188066904Y-95670952D01*
X188019285Y-95623333D01*
X187971666Y-95528095D01*
X187971666Y-95432857D01*
X188019285Y-95337619D01*
X188066904Y-95290000D01*
X188162142Y-95242380D01*
X188400238Y-95242380D01*
X188543095Y-95290000D01*
X188876428Y-95242380D02*
X189114523Y-96242380D01*
X189305000Y-95528095D01*
X189495476Y-96242380D01*
X189733571Y-95242380D01*
X190543095Y-95242380D02*
X190352619Y-95242380D01*
X190257380Y-95290000D01*
X190209761Y-95337619D01*
X190114523Y-95480476D01*
X190066904Y-95670952D01*
X190066904Y-96051904D01*
X190114523Y-96147142D01*
X190162142Y-96194761D01*
X190257380Y-96242380D01*
X190447857Y-96242380D01*
X190543095Y-96194761D01*
X190590714Y-96147142D01*
X190638333Y-96051904D01*
X190638333Y-95813809D01*
X190590714Y-95718571D01*
X190543095Y-95670952D01*
X190447857Y-95623333D01*
X190257380Y-95623333D01*
X190162142Y-95670952D01*
X190114523Y-95718571D01*
X190066904Y-95813809D01*
G04 #@! TO.C,SW5*
X180986666Y-127944761D02*
X181129523Y-127992380D01*
X181367619Y-127992380D01*
X181462857Y-127944761D01*
X181510476Y-127897142D01*
X181558095Y-127801904D01*
X181558095Y-127706666D01*
X181510476Y-127611428D01*
X181462857Y-127563809D01*
X181367619Y-127516190D01*
X181177142Y-127468571D01*
X181081904Y-127420952D01*
X181034285Y-127373333D01*
X180986666Y-127278095D01*
X180986666Y-127182857D01*
X181034285Y-127087619D01*
X181081904Y-127040000D01*
X181177142Y-126992380D01*
X181415238Y-126992380D01*
X181558095Y-127040000D01*
X181891428Y-126992380D02*
X182129523Y-127992380D01*
X182320000Y-127278095D01*
X182510476Y-127992380D01*
X182748571Y-126992380D01*
X183605714Y-126992380D02*
X183129523Y-126992380D01*
X183081904Y-127468571D01*
X183129523Y-127420952D01*
X183224761Y-127373333D01*
X183462857Y-127373333D01*
X183558095Y-127420952D01*
X183605714Y-127468571D01*
X183653333Y-127563809D01*
X183653333Y-127801904D01*
X183605714Y-127897142D01*
X183558095Y-127944761D01*
X183462857Y-127992380D01*
X183224761Y-127992380D01*
X183129523Y-127944761D01*
X183081904Y-127897142D01*
G04 #@! TO.C,SW4*
X168286666Y-127944761D02*
X168429523Y-127992380D01*
X168667619Y-127992380D01*
X168762857Y-127944761D01*
X168810476Y-127897142D01*
X168858095Y-127801904D01*
X168858095Y-127706666D01*
X168810476Y-127611428D01*
X168762857Y-127563809D01*
X168667619Y-127516190D01*
X168477142Y-127468571D01*
X168381904Y-127420952D01*
X168334285Y-127373333D01*
X168286666Y-127278095D01*
X168286666Y-127182857D01*
X168334285Y-127087619D01*
X168381904Y-127040000D01*
X168477142Y-126992380D01*
X168715238Y-126992380D01*
X168858095Y-127040000D01*
X169191428Y-126992380D02*
X169429523Y-127992380D01*
X169620000Y-127278095D01*
X169810476Y-127992380D01*
X170048571Y-126992380D01*
X170858095Y-127325714D02*
X170858095Y-127992380D01*
X170620000Y-126944761D02*
X170381904Y-127659047D01*
X171000952Y-127659047D01*
G04 #@! TO.C,SW3*
X168286666Y-112704761D02*
X168429523Y-112752380D01*
X168667619Y-112752380D01*
X168762857Y-112704761D01*
X168810476Y-112657142D01*
X168858095Y-112561904D01*
X168858095Y-112466666D01*
X168810476Y-112371428D01*
X168762857Y-112323809D01*
X168667619Y-112276190D01*
X168477142Y-112228571D01*
X168381904Y-112180952D01*
X168334285Y-112133333D01*
X168286666Y-112038095D01*
X168286666Y-111942857D01*
X168334285Y-111847619D01*
X168381904Y-111800000D01*
X168477142Y-111752380D01*
X168715238Y-111752380D01*
X168858095Y-111800000D01*
X169191428Y-111752380D02*
X169429523Y-112752380D01*
X169620000Y-112038095D01*
X169810476Y-112752380D01*
X170048571Y-111752380D01*
X170334285Y-111752380D02*
X170953333Y-111752380D01*
X170620000Y-112133333D01*
X170762857Y-112133333D01*
X170858095Y-112180952D01*
X170905714Y-112228571D01*
X170953333Y-112323809D01*
X170953333Y-112561904D01*
X170905714Y-112657142D01*
X170858095Y-112704761D01*
X170762857Y-112752380D01*
X170477142Y-112752380D01*
X170381904Y-112704761D01*
X170334285Y-112657142D01*
G04 #@! TO.C,SW2*
X155586666Y-127944761D02*
X155729523Y-127992380D01*
X155967619Y-127992380D01*
X156062857Y-127944761D01*
X156110476Y-127897142D01*
X156158095Y-127801904D01*
X156158095Y-127706666D01*
X156110476Y-127611428D01*
X156062857Y-127563809D01*
X155967619Y-127516190D01*
X155777142Y-127468571D01*
X155681904Y-127420952D01*
X155634285Y-127373333D01*
X155586666Y-127278095D01*
X155586666Y-127182857D01*
X155634285Y-127087619D01*
X155681904Y-127040000D01*
X155777142Y-126992380D01*
X156015238Y-126992380D01*
X156158095Y-127040000D01*
X156491428Y-126992380D02*
X156729523Y-127992380D01*
X156920000Y-127278095D01*
X157110476Y-127992380D01*
X157348571Y-126992380D01*
X157681904Y-127087619D02*
X157729523Y-127040000D01*
X157824761Y-126992380D01*
X158062857Y-126992380D01*
X158158095Y-127040000D01*
X158205714Y-127087619D01*
X158253333Y-127182857D01*
X158253333Y-127278095D01*
X158205714Y-127420952D01*
X157634285Y-127992380D01*
X158253333Y-127992380D01*
G04 #@! TO.C,SW1*
X126376666Y-96194761D02*
X126519523Y-96242380D01*
X126757619Y-96242380D01*
X126852857Y-96194761D01*
X126900476Y-96147142D01*
X126948095Y-96051904D01*
X126948095Y-95956666D01*
X126900476Y-95861428D01*
X126852857Y-95813809D01*
X126757619Y-95766190D01*
X126567142Y-95718571D01*
X126471904Y-95670952D01*
X126424285Y-95623333D01*
X126376666Y-95528095D01*
X126376666Y-95432857D01*
X126424285Y-95337619D01*
X126471904Y-95290000D01*
X126567142Y-95242380D01*
X126805238Y-95242380D01*
X126948095Y-95290000D01*
X127281428Y-95242380D02*
X127519523Y-96242380D01*
X127710000Y-95528095D01*
X127900476Y-96242380D01*
X128138571Y-95242380D01*
X129043333Y-96242380D02*
X128471904Y-96242380D01*
X128757619Y-96242380D02*
X128757619Y-95242380D01*
X128662380Y-95385238D01*
X128567142Y-95480476D01*
X128471904Y-95528095D01*
G04 #@! TO.C,R6*
X144597380Y-95416666D02*
X144121190Y-95750000D01*
X144597380Y-95988095D02*
X143597380Y-95988095D01*
X143597380Y-95607142D01*
X143645000Y-95511904D01*
X143692619Y-95464285D01*
X143787857Y-95416666D01*
X143930714Y-95416666D01*
X144025952Y-95464285D01*
X144073571Y-95511904D01*
X144121190Y-95607142D01*
X144121190Y-95988095D01*
X143597380Y-94559523D02*
X143597380Y-94750000D01*
X143645000Y-94845238D01*
X143692619Y-94892857D01*
X143835476Y-94988095D01*
X144025952Y-95035714D01*
X144406904Y-95035714D01*
X144502142Y-94988095D01*
X144549761Y-94940476D01*
X144597380Y-94845238D01*
X144597380Y-94654761D01*
X144549761Y-94559523D01*
X144502142Y-94511904D01*
X144406904Y-94464285D01*
X144168809Y-94464285D01*
X144073571Y-94511904D01*
X144025952Y-94559523D01*
X143978333Y-94654761D01*
X143978333Y-94845238D01*
X144025952Y-94940476D01*
X144073571Y-94988095D01*
X144168809Y-95035714D01*
G04 #@! TO.C,R5*
X156027380Y-95416666D02*
X155551190Y-95750000D01*
X156027380Y-95988095D02*
X155027380Y-95988095D01*
X155027380Y-95607142D01*
X155075000Y-95511904D01*
X155122619Y-95464285D01*
X155217857Y-95416666D01*
X155360714Y-95416666D01*
X155455952Y-95464285D01*
X155503571Y-95511904D01*
X155551190Y-95607142D01*
X155551190Y-95988095D01*
X155027380Y-94511904D02*
X155027380Y-94988095D01*
X155503571Y-95035714D01*
X155455952Y-94988095D01*
X155408333Y-94892857D01*
X155408333Y-94654761D01*
X155455952Y-94559523D01*
X155503571Y-94511904D01*
X155598809Y-94464285D01*
X155836904Y-94464285D01*
X155932142Y-94511904D01*
X155979761Y-94559523D01*
X156027380Y-94654761D01*
X156027380Y-94892857D01*
X155979761Y-94988095D01*
X155932142Y-95035714D01*
G04 #@! TO.C,J6*
X138096666Y-77132380D02*
X138096666Y-77846666D01*
X138049047Y-77989523D01*
X137953809Y-78084761D01*
X137810952Y-78132380D01*
X137715714Y-78132380D01*
X139001428Y-77132380D02*
X138810952Y-77132380D01*
X138715714Y-77180000D01*
X138668095Y-77227619D01*
X138572857Y-77370476D01*
X138525238Y-77560952D01*
X138525238Y-77941904D01*
X138572857Y-78037142D01*
X138620476Y-78084761D01*
X138715714Y-78132380D01*
X138906190Y-78132380D01*
X139001428Y-78084761D01*
X139049047Y-78037142D01*
X139096666Y-77941904D01*
X139096666Y-77703809D01*
X139049047Y-77608571D01*
X139001428Y-77560952D01*
X138906190Y-77513333D01*
X138715714Y-77513333D01*
X138620476Y-77560952D01*
X138572857Y-77608571D01*
X138525238Y-77703809D01*
G04 #@! TO.C,J5*
X112222380Y-81593333D02*
X112936666Y-81593333D01*
X113079523Y-81640952D01*
X113174761Y-81736190D01*
X113222380Y-81879047D01*
X113222380Y-81974285D01*
X112222380Y-80640952D02*
X112222380Y-81117142D01*
X112698571Y-81164761D01*
X112650952Y-81117142D01*
X112603333Y-81021904D01*
X112603333Y-80783809D01*
X112650952Y-80688571D01*
X112698571Y-80640952D01*
X112793809Y-80593333D01*
X113031904Y-80593333D01*
X113127142Y-80640952D01*
X113174761Y-80688571D01*
X113222380Y-80783809D01*
X113222380Y-81021904D01*
X113174761Y-81117142D01*
X113127142Y-81164761D01*
G04 #@! TO.C,J3*
X110156666Y-105072380D02*
X110156666Y-105786666D01*
X110109047Y-105929523D01*
X110013809Y-106024761D01*
X109870952Y-106072380D01*
X109775714Y-106072380D01*
X110537619Y-105072380D02*
X111156666Y-105072380D01*
X110823333Y-105453333D01*
X110966190Y-105453333D01*
X111061428Y-105500952D01*
X111109047Y-105548571D01*
X111156666Y-105643809D01*
X111156666Y-105881904D01*
X111109047Y-105977142D01*
X111061428Y-106024761D01*
X110966190Y-106072380D01*
X110680476Y-106072380D01*
X110585238Y-106024761D01*
X110537619Y-105977142D01*
G04 #@! TO.C,J2*
X196042380Y-81593333D02*
X196756666Y-81593333D01*
X196899523Y-81640952D01*
X196994761Y-81736190D01*
X197042380Y-81879047D01*
X197042380Y-81974285D01*
X196137619Y-81164761D02*
X196090000Y-81117142D01*
X196042380Y-81021904D01*
X196042380Y-80783809D01*
X196090000Y-80688571D01*
X196137619Y-80640952D01*
X196232857Y-80593333D01*
X196328095Y-80593333D01*
X196470952Y-80640952D01*
X197042380Y-81212380D01*
X197042380Y-80593333D01*
G04 #@! TO.C,D2*
X144437380Y-102338095D02*
X143437380Y-102338095D01*
X143437380Y-102100000D01*
X143485000Y-101957142D01*
X143580238Y-101861904D01*
X143675476Y-101814285D01*
X143865952Y-101766666D01*
X144008809Y-101766666D01*
X144199285Y-101814285D01*
X144294523Y-101861904D01*
X144389761Y-101957142D01*
X144437380Y-102100000D01*
X144437380Y-102338095D01*
X143532619Y-101385714D02*
X143485000Y-101338095D01*
X143437380Y-101242857D01*
X143437380Y-101004761D01*
X143485000Y-100909523D01*
X143532619Y-100861904D01*
X143627857Y-100814285D01*
X143723095Y-100814285D01*
X143865952Y-100861904D01*
X144437380Y-101433333D01*
X144437380Y-100814285D01*
G04 #@! TO.C,D1*
X155867380Y-102338095D02*
X154867380Y-102338095D01*
X154867380Y-102100000D01*
X154915000Y-101957142D01*
X155010238Y-101861904D01*
X155105476Y-101814285D01*
X155295952Y-101766666D01*
X155438809Y-101766666D01*
X155629285Y-101814285D01*
X155724523Y-101861904D01*
X155819761Y-101957142D01*
X155867380Y-102100000D01*
X155867380Y-102338095D01*
X155867380Y-100814285D02*
X155867380Y-101385714D01*
X155867380Y-101100000D02*
X154867380Y-101100000D01*
X155010238Y-101195238D01*
X155105476Y-101290476D01*
X155153095Y-101385714D01*
G04 #@! TO.C,C2*
X171013333Y-76617142D02*
X170965714Y-76664761D01*
X170822857Y-76712380D01*
X170727619Y-76712380D01*
X170584761Y-76664761D01*
X170489523Y-76569523D01*
X170441904Y-76474285D01*
X170394285Y-76283809D01*
X170394285Y-76140952D01*
X170441904Y-75950476D01*
X170489523Y-75855238D01*
X170584761Y-75760000D01*
X170727619Y-75712380D01*
X170822857Y-75712380D01*
X170965714Y-75760000D01*
X171013333Y-75807619D01*
X171394285Y-75807619D02*
X171441904Y-75760000D01*
X171537142Y-75712380D01*
X171775238Y-75712380D01*
X171870476Y-75760000D01*
X171918095Y-75807619D01*
X171965714Y-75902857D01*
X171965714Y-75998095D01*
X171918095Y-76140952D01*
X171346666Y-76712380D01*
X171965714Y-76712380D01*
G04 #@! TO.C,C1*
X158313333Y-76617142D02*
X158265714Y-76664761D01*
X158122857Y-76712380D01*
X158027619Y-76712380D01*
X157884761Y-76664761D01*
X157789523Y-76569523D01*
X157741904Y-76474285D01*
X157694285Y-76283809D01*
X157694285Y-76140952D01*
X157741904Y-75950476D01*
X157789523Y-75855238D01*
X157884761Y-75760000D01*
X158027619Y-75712380D01*
X158122857Y-75712380D01*
X158265714Y-75760000D01*
X158313333Y-75807619D01*
X159265714Y-76712380D02*
X158694285Y-76712380D01*
X158980000Y-76712380D02*
X158980000Y-75712380D01*
X158884761Y-75855238D01*
X158789523Y-75950476D01*
X158694285Y-75998095D01*
G04 #@! TD*
M02*
