G04 #@! TF.GenerationSoftware,KiCad,Pcbnew,(5.1.6)-1*
G04 #@! TF.CreationDate,2020-09-10T20:19:44+09:00*
G04 #@! TF.ProjectId,ControllerPCB,436f6e74-726f-46c6-9c65-725043422e6b,rev?*
G04 #@! TF.SameCoordinates,Original*
G04 #@! TF.FileFunction,Legend,Bot*
G04 #@! TF.FilePolarity,Positive*
%FSLAX46Y46*%
G04 Gerber Fmt 4.6, Leading zero omitted, Abs format (unit mm)*
G04 Created by KiCad (PCBNEW (5.1.6)-1) date 2020-09-10 20:19:44*
%MOMM*%
%LPD*%
G01*
G04 APERTURE LIST*
%ADD10C,0.120000*%
%ADD11C,0.150000*%
G04 APERTURE END LIST*
D10*
G04 #@! TO.C,R4*
X124297221Y-84330000D02*
X124622779Y-84330000D01*
X124297221Y-83310000D02*
X124622779Y-83310000D01*
G04 #@! TO.C,R3*
X124297221Y-79250000D02*
X124622779Y-79250000D01*
X124297221Y-78230000D02*
X124622779Y-78230000D01*
G04 #@! TO.C,R2*
X117002779Y-83310000D02*
X116677221Y-83310000D01*
X117002779Y-84330000D02*
X116677221Y-84330000D01*
G04 #@! TO.C,R1*
X117002779Y-78230000D02*
X116677221Y-78230000D01*
X117002779Y-79250000D02*
X116677221Y-79250000D01*
G04 #@! TO.C,R4*
D11*
X124626666Y-85702380D02*
X124960000Y-85226190D01*
X125198095Y-85702380D02*
X125198095Y-84702380D01*
X124817142Y-84702380D01*
X124721904Y-84750000D01*
X124674285Y-84797619D01*
X124626666Y-84892857D01*
X124626666Y-85035714D01*
X124674285Y-85130952D01*
X124721904Y-85178571D01*
X124817142Y-85226190D01*
X125198095Y-85226190D01*
X123769523Y-85035714D02*
X123769523Y-85702380D01*
X124007619Y-84654761D02*
X124245714Y-85369047D01*
X123626666Y-85369047D01*
G04 #@! TO.C,R3*
X124626666Y-80622380D02*
X124960000Y-80146190D01*
X125198095Y-80622380D02*
X125198095Y-79622380D01*
X124817142Y-79622380D01*
X124721904Y-79670000D01*
X124674285Y-79717619D01*
X124626666Y-79812857D01*
X124626666Y-79955714D01*
X124674285Y-80050952D01*
X124721904Y-80098571D01*
X124817142Y-80146190D01*
X125198095Y-80146190D01*
X124293333Y-79622380D02*
X123674285Y-79622380D01*
X124007619Y-80003333D01*
X123864761Y-80003333D01*
X123769523Y-80050952D01*
X123721904Y-80098571D01*
X123674285Y-80193809D01*
X123674285Y-80431904D01*
X123721904Y-80527142D01*
X123769523Y-80574761D01*
X123864761Y-80622380D01*
X124150476Y-80622380D01*
X124245714Y-80574761D01*
X124293333Y-80527142D01*
G04 #@! TO.C,R2*
X117006666Y-82842380D02*
X117340000Y-82366190D01*
X117578095Y-82842380D02*
X117578095Y-81842380D01*
X117197142Y-81842380D01*
X117101904Y-81890000D01*
X117054285Y-81937619D01*
X117006666Y-82032857D01*
X117006666Y-82175714D01*
X117054285Y-82270952D01*
X117101904Y-82318571D01*
X117197142Y-82366190D01*
X117578095Y-82366190D01*
X116625714Y-81937619D02*
X116578095Y-81890000D01*
X116482857Y-81842380D01*
X116244761Y-81842380D01*
X116149523Y-81890000D01*
X116101904Y-81937619D01*
X116054285Y-82032857D01*
X116054285Y-82128095D01*
X116101904Y-82270952D01*
X116673333Y-82842380D01*
X116054285Y-82842380D01*
G04 #@! TO.C,R1*
X117006666Y-77762380D02*
X117340000Y-77286190D01*
X117578095Y-77762380D02*
X117578095Y-76762380D01*
X117197142Y-76762380D01*
X117101904Y-76810000D01*
X117054285Y-76857619D01*
X117006666Y-76952857D01*
X117006666Y-77095714D01*
X117054285Y-77190952D01*
X117101904Y-77238571D01*
X117197142Y-77286190D01*
X117578095Y-77286190D01*
X116054285Y-77762380D02*
X116625714Y-77762380D01*
X116340000Y-77762380D02*
X116340000Y-76762380D01*
X116435238Y-76905238D01*
X116530476Y-77000476D01*
X116625714Y-77048095D01*
G04 #@! TD*
M02*
