G04 #@! TF.GenerationSoftware,KiCad,Pcbnew,(5.1.6)-1*
G04 #@! TF.CreationDate,2020-09-10T20:19:44+09:00*
G04 #@! TF.ProjectId,ControllerPCB,436f6e74-726f-46c6-9c65-725043422e6b,rev?*
G04 #@! TF.SameCoordinates,Original*
G04 #@! TF.FileFunction,Soldermask,Bot*
G04 #@! TF.FilePolarity,Negative*
%FSLAX46Y46*%
G04 Gerber Fmt 4.6, Leading zero omitted, Abs format (unit mm)*
G04 Created by KiCad (PCBNEW (5.1.6)-1) date 2020-09-10 20:19:44*
%MOMM*%
%LPD*%
G01*
G04 APERTURE LIST*
%ADD10C,6.500000*%
%ADD11O,2.005000X2.100000*%
%ADD12R,2.005000X2.100000*%
%ADD13C,2.100000*%
%ADD14O,1.700000X1.700000*%
%ADD15R,1.700000X1.700000*%
%ADD16O,2.100000X1.800000*%
%ADD17C,2.800000*%
%ADD18C,1.700000*%
G04 APERTURE END LIST*
D10*
G04 #@! TO.C,REF\u002A\u002A*
X110490000Y-99695000D03*
G04 #@! TD*
D11*
G04 #@! TO.C,U1*
X167640000Y-87630000D03*
X165100000Y-87630000D03*
D12*
X162560000Y-87630000D03*
G04 #@! TD*
D13*
G04 #@! TO.C,SW6*
X192555000Y-97790000D03*
X192555000Y-102290000D03*
X186055000Y-97790000D03*
X186055000Y-102290000D03*
G04 #@! TD*
G04 #@! TO.C,SW5*
X185570000Y-129540000D03*
X185570000Y-134040000D03*
X179070000Y-129540000D03*
X179070000Y-134040000D03*
G04 #@! TD*
G04 #@! TO.C,SW4*
X172870000Y-129540000D03*
X172870000Y-134040000D03*
X166370000Y-129540000D03*
X166370000Y-134040000D03*
G04 #@! TD*
G04 #@! TO.C,SW3*
X172870000Y-114300000D03*
X172870000Y-118800000D03*
X166370000Y-114300000D03*
X166370000Y-118800000D03*
G04 #@! TD*
G04 #@! TO.C,SW2*
X160170000Y-129540000D03*
X160170000Y-134040000D03*
X153670000Y-129540000D03*
X153670000Y-134040000D03*
G04 #@! TD*
G04 #@! TO.C,SW1*
X130960000Y-97790000D03*
X130960000Y-102290000D03*
X124460000Y-97790000D03*
X124460000Y-102290000D03*
G04 #@! TD*
G04 #@! TO.C,R4*
G36*
G01*
X124760000Y-84101250D02*
X124760000Y-83538750D01*
G75*
G02*
X125003750Y-83295000I243750J0D01*
G01*
X125491250Y-83295000D01*
G75*
G02*
X125735000Y-83538750I0J-243750D01*
G01*
X125735000Y-84101250D01*
G75*
G02*
X125491250Y-84345000I-243750J0D01*
G01*
X125003750Y-84345000D01*
G75*
G02*
X124760000Y-84101250I0J243750D01*
G01*
G37*
G36*
G01*
X123185000Y-84101250D02*
X123185000Y-83538750D01*
G75*
G02*
X123428750Y-83295000I243750J0D01*
G01*
X123916250Y-83295000D01*
G75*
G02*
X124160000Y-83538750I0J-243750D01*
G01*
X124160000Y-84101250D01*
G75*
G02*
X123916250Y-84345000I-243750J0D01*
G01*
X123428750Y-84345000D01*
G75*
G02*
X123185000Y-84101250I0J243750D01*
G01*
G37*
G04 #@! TD*
G04 #@! TO.C,R3*
G36*
G01*
X124760000Y-79021250D02*
X124760000Y-78458750D01*
G75*
G02*
X125003750Y-78215000I243750J0D01*
G01*
X125491250Y-78215000D01*
G75*
G02*
X125735000Y-78458750I0J-243750D01*
G01*
X125735000Y-79021250D01*
G75*
G02*
X125491250Y-79265000I-243750J0D01*
G01*
X125003750Y-79265000D01*
G75*
G02*
X124760000Y-79021250I0J243750D01*
G01*
G37*
G36*
G01*
X123185000Y-79021250D02*
X123185000Y-78458750D01*
G75*
G02*
X123428750Y-78215000I243750J0D01*
G01*
X123916250Y-78215000D01*
G75*
G02*
X124160000Y-78458750I0J-243750D01*
G01*
X124160000Y-79021250D01*
G75*
G02*
X123916250Y-79265000I-243750J0D01*
G01*
X123428750Y-79265000D01*
G75*
G02*
X123185000Y-79021250I0J243750D01*
G01*
G37*
G04 #@! TD*
G04 #@! TO.C,R2*
G36*
G01*
X116540000Y-83538750D02*
X116540000Y-84101250D01*
G75*
G02*
X116296250Y-84345000I-243750J0D01*
G01*
X115808750Y-84345000D01*
G75*
G02*
X115565000Y-84101250I0J243750D01*
G01*
X115565000Y-83538750D01*
G75*
G02*
X115808750Y-83295000I243750J0D01*
G01*
X116296250Y-83295000D01*
G75*
G02*
X116540000Y-83538750I0J-243750D01*
G01*
G37*
G36*
G01*
X118115000Y-83538750D02*
X118115000Y-84101250D01*
G75*
G02*
X117871250Y-84345000I-243750J0D01*
G01*
X117383750Y-84345000D01*
G75*
G02*
X117140000Y-84101250I0J243750D01*
G01*
X117140000Y-83538750D01*
G75*
G02*
X117383750Y-83295000I243750J0D01*
G01*
X117871250Y-83295000D01*
G75*
G02*
X118115000Y-83538750I0J-243750D01*
G01*
G37*
G04 #@! TD*
G04 #@! TO.C,R1*
G36*
G01*
X116540000Y-78458750D02*
X116540000Y-79021250D01*
G75*
G02*
X116296250Y-79265000I-243750J0D01*
G01*
X115808750Y-79265000D01*
G75*
G02*
X115565000Y-79021250I0J243750D01*
G01*
X115565000Y-78458750D01*
G75*
G02*
X115808750Y-78215000I243750J0D01*
G01*
X116296250Y-78215000D01*
G75*
G02*
X116540000Y-78458750I0J-243750D01*
G01*
G37*
G36*
G01*
X118115000Y-78458750D02*
X118115000Y-79021250D01*
G75*
G02*
X117871250Y-79265000I-243750J0D01*
G01*
X117383750Y-79265000D01*
G75*
G02*
X117140000Y-79021250I0J243750D01*
G01*
X117140000Y-78458750D01*
G75*
G02*
X117383750Y-78215000I243750J0D01*
G01*
X117871250Y-78215000D01*
G75*
G02*
X118115000Y-78458750I0J-243750D01*
G01*
G37*
G04 #@! TD*
D14*
G04 #@! TO.C,J6*
X142240000Y-80010000D03*
X134620000Y-87630000D03*
X142240000Y-82550000D03*
X134620000Y-85090000D03*
X142240000Y-85090000D03*
X134620000Y-82550000D03*
X142240000Y-87630000D03*
D15*
X134620000Y-80010000D03*
G04 #@! TD*
D16*
G04 #@! TO.C,J5*
X109220000Y-82510000D03*
G36*
G01*
X108434706Y-79110000D02*
X110005294Y-79110000D01*
G75*
G02*
X110270000Y-79374706I0J-264706D01*
G01*
X110270000Y-80645294D01*
G75*
G02*
X110005294Y-80910000I-264706J0D01*
G01*
X108434706Y-80910000D01*
G75*
G02*
X108170000Y-80645294I0J264706D01*
G01*
X108170000Y-79374706D01*
G75*
G02*
X108434706Y-79110000I264706J0D01*
G01*
G37*
G04 #@! TD*
D17*
G04 #@! TO.C,J4*
X193040000Y-71570000D03*
X193040000Y-67610000D03*
X193040000Y-63650000D03*
G36*
G01*
X191899260Y-58290000D02*
X194180740Y-58290000D01*
G75*
G02*
X194440000Y-58549260I0J-259260D01*
G01*
X194440000Y-60830740D01*
G75*
G02*
X194180740Y-61090000I-259260J0D01*
G01*
X191899260Y-61090000D01*
G75*
G02*
X191640000Y-60830740I0J259260D01*
G01*
X191640000Y-58549260D01*
G75*
G02*
X191899260Y-58290000I259260J0D01*
G01*
G37*
G04 #@! TD*
D14*
G04 #@! TO.C,J3*
X118110000Y-107950000D03*
X102870000Y-140970000D03*
X118110000Y-110490000D03*
X102870000Y-138430000D03*
X118110000Y-113030000D03*
X102870000Y-135890000D03*
X118110000Y-115570000D03*
X102870000Y-133350000D03*
X118110000Y-118110000D03*
X102870000Y-130810000D03*
X118110000Y-120650000D03*
X102870000Y-128270000D03*
X118110000Y-123190000D03*
X102870000Y-125730000D03*
X118110000Y-125730000D03*
X102870000Y-123190000D03*
X118110000Y-128270000D03*
X102870000Y-120650000D03*
X118110000Y-130810000D03*
X102870000Y-118110000D03*
X118110000Y-133350000D03*
X102870000Y-115570000D03*
X118110000Y-135890000D03*
X102870000Y-113030000D03*
X118110000Y-138430000D03*
X102870000Y-110490000D03*
X118110000Y-140970000D03*
D15*
X102870000Y-107950000D03*
G04 #@! TD*
D16*
G04 #@! TO.C,J2*
X193040000Y-82510000D03*
G36*
G01*
X192254706Y-79110000D02*
X193825294Y-79110000D01*
G75*
G02*
X194090000Y-79374706I0J-264706D01*
G01*
X194090000Y-80645294D01*
G75*
G02*
X193825294Y-80910000I-264706J0D01*
G01*
X192254706Y-80910000D01*
G75*
G02*
X191990000Y-80645294I0J264706D01*
G01*
X191990000Y-79374706D01*
G75*
G02*
X192254706Y-79110000I264706J0D01*
G01*
G37*
G04 #@! TD*
D17*
G04 #@! TO.C,J1*
X109220000Y-71570000D03*
X109220000Y-67610000D03*
X109220000Y-63650000D03*
G36*
G01*
X108079260Y-58290000D02*
X110360740Y-58290000D01*
G75*
G02*
X110620000Y-58549260I0J-259260D01*
G01*
X110620000Y-60830740D01*
G75*
G02*
X110360740Y-61090000I-259260J0D01*
G01*
X108079260Y-61090000D01*
G75*
G02*
X107820000Y-60830740I0J259260D01*
G01*
X107820000Y-58549260D01*
G75*
G02*
X108079260Y-58290000I259260J0D01*
G01*
G37*
G04 #@! TD*
D18*
G04 #@! TO.C,C2*
X172180000Y-80010000D03*
D15*
X170180000Y-80010000D03*
G04 #@! TD*
D18*
G04 #@! TO.C,C1*
X159480000Y-80010000D03*
D15*
X157480000Y-80010000D03*
G04 #@! TD*
M02*
