%TF.GenerationSoftware,KiCad,Pcbnew,(5.1.6)-1*%
%TF.CreationDate,2020-09-10T20:04:36+09:00*%
%TF.ProjectId,ScoreBoradPCB,53636f72-6542-46f7-9261-645043422e6b,rev?*%
%TF.SameCoordinates,Original*%
%TF.FileFunction,Legend,Bot*%
%TF.FilePolarity,Positive*%
%FSLAX46Y46*%
G04 Gerber Fmt 4.6, Leading zero omitted, Abs format (unit mm)*
G04 Created by KiCad (PCBNEW (5.1.6)-1) date 2020-09-10 20:04:36*
%MOMM*%
%LPD*%
G01*
G04 APERTURE LIST*
%ADD10C,0.120000*%
%ADD11C,0.150000*%
G04 APERTURE END LIST*
D10*
%TO.C,U7*%
X134620000Y-111105000D02*
X136570000Y-111105000D01*
X134620000Y-111105000D02*
X132670000Y-111105000D01*
X134620000Y-116225000D02*
X136570000Y-116225000D01*
X134620000Y-116225000D02*
X131170000Y-116225000D01*
%TO.C,U6*%
X122555000Y-116700000D02*
X124940000Y-116700000D01*
X124940000Y-116700000D02*
X124940000Y-116940000D01*
X122555000Y-116700000D02*
X120170000Y-116700000D01*
X120170000Y-116700000D02*
X120170000Y-116940000D01*
X122555000Y-119520000D02*
X124940000Y-119520000D01*
X124940000Y-119520000D02*
X124940000Y-119280000D01*
X122555000Y-119520000D02*
X120170000Y-119520000D01*
X120170000Y-119520000D02*
X120170000Y-119280000D01*
X120170000Y-119280000D02*
X118505000Y-119280000D01*
%TO.C,U5*%
X134620000Y-97770000D02*
X136570000Y-97770000D01*
X134620000Y-97770000D02*
X132670000Y-97770000D01*
X134620000Y-102890000D02*
X136570000Y-102890000D01*
X134620000Y-102890000D02*
X131170000Y-102890000D01*
%TO.C,U4*%
X122555000Y-103365000D02*
X124940000Y-103365000D01*
X124940000Y-103365000D02*
X124940000Y-103605000D01*
X122555000Y-103365000D02*
X120170000Y-103365000D01*
X120170000Y-103365000D02*
X120170000Y-103605000D01*
X122555000Y-106185000D02*
X124940000Y-106185000D01*
X124940000Y-106185000D02*
X124940000Y-105945000D01*
X122555000Y-106185000D02*
X120170000Y-106185000D01*
X120170000Y-106185000D02*
X120170000Y-105945000D01*
X120170000Y-105945000D02*
X118505000Y-105945000D01*
%TO.C,U3*%
X134620000Y-84435000D02*
X136570000Y-84435000D01*
X134620000Y-84435000D02*
X132670000Y-84435000D01*
X134620000Y-89555000D02*
X136570000Y-89555000D01*
X134620000Y-89555000D02*
X131170000Y-89555000D01*
%TO.C,U2*%
X122555000Y-90030000D02*
X124940000Y-90030000D01*
X124940000Y-90030000D02*
X124940000Y-90270000D01*
X122555000Y-90030000D02*
X120170000Y-90030000D01*
X120170000Y-90030000D02*
X120170000Y-90270000D01*
X122555000Y-92850000D02*
X124940000Y-92850000D01*
X124940000Y-92850000D02*
X124940000Y-92610000D01*
X122555000Y-92850000D02*
X120170000Y-92850000D01*
X120170000Y-92850000D02*
X120170000Y-92610000D01*
X120170000Y-92610000D02*
X118505000Y-92610000D01*
%TO.C,R61*%
X103342221Y-77345000D02*
X103667779Y-77345000D01*
X103342221Y-76325000D02*
X103667779Y-76325000D01*
%TO.C,R60*%
X103342221Y-74805000D02*
X103667779Y-74805000D01*
X103342221Y-73785000D02*
X103667779Y-73785000D01*
%TO.C,R59*%
X101090000Y-126837221D02*
X101090000Y-127162779D01*
X102110000Y-126837221D02*
X102110000Y-127162779D01*
%TO.C,R58*%
X101090000Y-115407221D02*
X101090000Y-115732779D01*
X102110000Y-115407221D02*
X102110000Y-115732779D01*
%TO.C,R57*%
X172210000Y-72227221D02*
X172210000Y-72552779D01*
X173230000Y-72227221D02*
X173230000Y-72552779D01*
%TO.C,R56*%
X184910000Y-72227221D02*
X184910000Y-72552779D01*
X185930000Y-72227221D02*
X185930000Y-72552779D01*
%TO.C,R55*%
X174750000Y-72227221D02*
X174750000Y-72552779D01*
X175770000Y-72227221D02*
X175770000Y-72552779D01*
%TO.C,R54*%
X187450000Y-72227221D02*
X187450000Y-72552779D01*
X188470000Y-72227221D02*
X188470000Y-72552779D01*
%TO.C,R53*%
X177290000Y-72227221D02*
X177290000Y-72552779D01*
X178310000Y-72227221D02*
X178310000Y-72552779D01*
%TO.C,R52*%
X179830000Y-72227221D02*
X179830000Y-72552779D01*
X180850000Y-72227221D02*
X180850000Y-72552779D01*
%TO.C,R51*%
X182370000Y-72227221D02*
X182370000Y-72552779D01*
X183390000Y-72227221D02*
X183390000Y-72552779D01*
%TO.C,R63*%
X126240000Y-80172779D02*
X126240000Y-79847221D01*
X125220000Y-80172779D02*
X125220000Y-79847221D01*
%TO.C,R62*%
X119255000Y-80172779D02*
X119255000Y-79847221D01*
X118235000Y-80172779D02*
X118235000Y-79847221D01*
%TO.C,R42*%
X148752779Y-111250000D02*
X148427221Y-111250000D01*
X148752779Y-112270000D02*
X148427221Y-112270000D01*
%TO.C,R41*%
X143672779Y-114425000D02*
X143347221Y-114425000D01*
X143672779Y-115445000D02*
X143347221Y-115445000D01*
%TO.C,R40*%
X143672779Y-111250000D02*
X143347221Y-111250000D01*
X143672779Y-112270000D02*
X143347221Y-112270000D01*
%TO.C,R39*%
X143672779Y-117600000D02*
X143347221Y-117600000D01*
X143672779Y-118620000D02*
X143347221Y-118620000D01*
%TO.C,R38*%
X129415000Y-113192779D02*
X129415000Y-112867221D01*
X128395000Y-113192779D02*
X128395000Y-112867221D01*
%TO.C,R37*%
X126240000Y-113192779D02*
X126240000Y-112867221D01*
X125220000Y-113192779D02*
X125220000Y-112867221D01*
%TO.C,R36*%
X118870000Y-112867221D02*
X118870000Y-113192779D01*
X119890000Y-112867221D02*
X119890000Y-113192779D01*
%TO.C,R35*%
X148752779Y-97915000D02*
X148427221Y-97915000D01*
X148752779Y-98935000D02*
X148427221Y-98935000D01*
%TO.C,R34*%
X143672779Y-101090000D02*
X143347221Y-101090000D01*
X143672779Y-102110000D02*
X143347221Y-102110000D01*
%TO.C,R33*%
X143672779Y-97915000D02*
X143347221Y-97915000D01*
X143672779Y-98935000D02*
X143347221Y-98935000D01*
%TO.C,R32*%
X143672779Y-104265000D02*
X143347221Y-104265000D01*
X143672779Y-105285000D02*
X143347221Y-105285000D01*
%TO.C,R31*%
X129415000Y-99857779D02*
X129415000Y-99532221D01*
X128395000Y-99857779D02*
X128395000Y-99532221D01*
%TO.C,R30*%
X126240000Y-99857779D02*
X126240000Y-99532221D01*
X125220000Y-99857779D02*
X125220000Y-99532221D01*
%TO.C,R29*%
X118870000Y-99532221D02*
X118870000Y-99857779D01*
X119890000Y-99532221D02*
X119890000Y-99857779D01*
%TO.C,R28*%
X148752779Y-84580000D02*
X148427221Y-84580000D01*
X148752779Y-85600000D02*
X148427221Y-85600000D01*
%TO.C,R27*%
X143672779Y-87755000D02*
X143347221Y-87755000D01*
X143672779Y-88775000D02*
X143347221Y-88775000D01*
%TO.C,R26*%
X143672779Y-84580000D02*
X143347221Y-84580000D01*
X143672779Y-85600000D02*
X143347221Y-85600000D01*
%TO.C,R25*%
X143672779Y-92835000D02*
X143347221Y-92835000D01*
X143672779Y-93855000D02*
X143347221Y-93855000D01*
%TO.C,R24*%
X129415000Y-86522779D02*
X129415000Y-86197221D01*
X128395000Y-86522779D02*
X128395000Y-86197221D01*
%TO.C,R23*%
X126240000Y-86522779D02*
X126240000Y-86197221D01*
X125220000Y-86522779D02*
X125220000Y-86197221D01*
%TO.C,R22*%
X118870000Y-86349721D02*
X118870000Y-86675279D01*
X119890000Y-86349721D02*
X119890000Y-86675279D01*
%TO.C,R21*%
X197012779Y-145540000D02*
X196687221Y-145540000D01*
X197012779Y-146560000D02*
X196687221Y-146560000D01*
%TO.C,R20*%
X197012779Y-137920000D02*
X196687221Y-137920000D01*
X197012779Y-138940000D02*
X196687221Y-138940000D01*
%TO.C,R19*%
X197012779Y-134745000D02*
X196687221Y-134745000D01*
X197012779Y-135765000D02*
X196687221Y-135765000D01*
%TO.C,R18*%
X183042779Y-145540000D02*
X182717221Y-145540000D01*
X183042779Y-146560000D02*
X182717221Y-146560000D01*
%TO.C,R17*%
X183042779Y-137920000D02*
X182717221Y-137920000D01*
X183042779Y-138940000D02*
X182717221Y-138940000D01*
%TO.C,R16*%
X183042779Y-134745000D02*
X182717221Y-134745000D01*
X183042779Y-135765000D02*
X182717221Y-135765000D01*
%TO.C,R15*%
X169072779Y-145540000D02*
X168747221Y-145540000D01*
X169072779Y-146560000D02*
X168747221Y-146560000D01*
%TO.C,R14*%
X169072779Y-137920000D02*
X168747221Y-137920000D01*
X169072779Y-138940000D02*
X168747221Y-138940000D01*
%TO.C,R13*%
X169072779Y-134745000D02*
X168747221Y-134745000D01*
X169072779Y-135765000D02*
X168747221Y-135765000D01*
%TO.C,R12*%
X155102779Y-145540000D02*
X154777221Y-145540000D01*
X155102779Y-146560000D02*
X154777221Y-146560000D01*
%TO.C,R11*%
X155102779Y-137920000D02*
X154777221Y-137920000D01*
X155102779Y-138940000D02*
X154777221Y-138940000D01*
%TO.C,R10*%
X155102779Y-134745000D02*
X154777221Y-134745000D01*
X155102779Y-135765000D02*
X154777221Y-135765000D01*
%TO.C,R9*%
X141132779Y-145540000D02*
X140807221Y-145540000D01*
X141132779Y-146560000D02*
X140807221Y-146560000D01*
%TO.C,R8*%
X141132779Y-137920000D02*
X140807221Y-137920000D01*
X141132779Y-138940000D02*
X140807221Y-138940000D01*
%TO.C,R7*%
X141132779Y-134745000D02*
X140807221Y-134745000D01*
X141132779Y-135765000D02*
X140807221Y-135765000D01*
%TO.C,R6*%
X127162779Y-145540000D02*
X126837221Y-145540000D01*
X127162779Y-146560000D02*
X126837221Y-146560000D01*
%TO.C,R5*%
X127162779Y-137920000D02*
X126837221Y-137920000D01*
X127162779Y-138940000D02*
X126837221Y-138940000D01*
%TO.C,R4*%
X127162779Y-134745000D02*
X126837221Y-134745000D01*
X127162779Y-135765000D02*
X126837221Y-135765000D01*
%TO.C,R3*%
X113192779Y-145540000D02*
X112867221Y-145540000D01*
X113192779Y-146560000D02*
X112867221Y-146560000D01*
%TO.C,R2*%
X113192779Y-137920000D02*
X112867221Y-137920000D01*
X113192779Y-138940000D02*
X112867221Y-138940000D01*
%TO.C,R1*%
X113192779Y-134745000D02*
X112867221Y-134745000D01*
X113192779Y-135765000D02*
X112867221Y-135765000D01*
%TO.C,Q24*%
X123315000Y-78430000D02*
X123315000Y-79360000D01*
X123315000Y-81590000D02*
X123315000Y-80660000D01*
X123315000Y-81590000D02*
X121155000Y-81590000D01*
X123315000Y-78430000D02*
X121855000Y-78430000D01*
%TO.C,Q23*%
X150170000Y-115695000D02*
X149240000Y-115695000D01*
X147010000Y-115695000D02*
X147940000Y-115695000D01*
X147010000Y-115695000D02*
X147010000Y-113535000D01*
X150170000Y-115695000D02*
X150170000Y-114235000D01*
%TO.C,Q22*%
X157840000Y-113085000D02*
X157840000Y-111585000D01*
X157840000Y-111585000D02*
X158110000Y-111585000D01*
X158110000Y-111585000D02*
X158110000Y-108755000D01*
X164740000Y-113085000D02*
X164740000Y-111585000D01*
X164740000Y-111585000D02*
X164470000Y-111585000D01*
X164470000Y-111585000D02*
X164470000Y-110485000D01*
%TO.C,Q21*%
X123315000Y-111450000D02*
X123315000Y-112380000D01*
X123315000Y-114610000D02*
X123315000Y-113680000D01*
X123315000Y-114610000D02*
X121155000Y-114610000D01*
X123315000Y-111450000D02*
X121855000Y-111450000D01*
%TO.C,Q20*%
X150170000Y-102360000D02*
X149240000Y-102360000D01*
X147010000Y-102360000D02*
X147940000Y-102360000D01*
X147010000Y-102360000D02*
X147010000Y-100200000D01*
X150170000Y-102360000D02*
X150170000Y-100900000D01*
%TO.C,Q19*%
X157840000Y-99115000D02*
X157840000Y-97615000D01*
X157840000Y-97615000D02*
X158110000Y-97615000D01*
X158110000Y-97615000D02*
X158110000Y-94785000D01*
X164740000Y-99115000D02*
X164740000Y-97615000D01*
X164740000Y-97615000D02*
X164470000Y-97615000D01*
X164470000Y-97615000D02*
X164470000Y-96515000D01*
%TO.C,Q18*%
X123315000Y-98115000D02*
X123315000Y-99045000D01*
X123315000Y-101275000D02*
X123315000Y-100345000D01*
X123315000Y-101275000D02*
X121155000Y-101275000D01*
X123315000Y-98115000D02*
X121855000Y-98115000D01*
%TO.C,Q17*%
X150170000Y-89025000D02*
X149240000Y-89025000D01*
X147010000Y-89025000D02*
X147940000Y-89025000D01*
X147010000Y-89025000D02*
X147010000Y-86865000D01*
X150170000Y-89025000D02*
X150170000Y-87565000D01*
%TO.C,Q16*%
X158475000Y-85145000D02*
X158475000Y-83645000D01*
X158475000Y-83645000D02*
X158745000Y-83645000D01*
X158745000Y-83645000D02*
X158745000Y-80815000D01*
X165375000Y-85145000D02*
X165375000Y-83645000D01*
X165375000Y-83645000D02*
X165105000Y-83645000D01*
X165105000Y-83645000D02*
X165105000Y-82545000D01*
%TO.C,Q15*%
X123315000Y-84780000D02*
X123315000Y-85710000D01*
X123315000Y-87940000D02*
X123315000Y-87010000D01*
X123315000Y-87940000D02*
X121155000Y-87940000D01*
X123315000Y-84780000D02*
X121855000Y-84780000D01*
%TO.C,Q14*%
X193315000Y-142185000D02*
X193315000Y-143685000D01*
X193315000Y-143685000D02*
X193045000Y-143685000D01*
X193045000Y-143685000D02*
X193045000Y-146515000D01*
X186415000Y-142185000D02*
X186415000Y-143685000D01*
X186415000Y-143685000D02*
X186685000Y-143685000D01*
X186685000Y-143685000D02*
X186685000Y-144785000D01*
%TO.C,Q13*%
X198430000Y-143000000D02*
X197500000Y-143000000D01*
X195270000Y-143000000D02*
X196200000Y-143000000D01*
X195270000Y-143000000D02*
X195270000Y-140840000D01*
X198430000Y-143000000D02*
X198430000Y-141540000D01*
%TO.C,Q12*%
X179345000Y-142185000D02*
X179345000Y-143685000D01*
X179345000Y-143685000D02*
X179075000Y-143685000D01*
X179075000Y-143685000D02*
X179075000Y-146515000D01*
X172445000Y-142185000D02*
X172445000Y-143685000D01*
X172445000Y-143685000D02*
X172715000Y-143685000D01*
X172715000Y-143685000D02*
X172715000Y-144785000D01*
%TO.C,Q11*%
X184460000Y-143000000D02*
X183530000Y-143000000D01*
X181300000Y-143000000D02*
X182230000Y-143000000D01*
X181300000Y-143000000D02*
X181300000Y-140840000D01*
X184460000Y-143000000D02*
X184460000Y-141540000D01*
%TO.C,Q10*%
X165375000Y-142185000D02*
X165375000Y-143685000D01*
X165375000Y-143685000D02*
X165105000Y-143685000D01*
X165105000Y-143685000D02*
X165105000Y-146515000D01*
X158475000Y-142185000D02*
X158475000Y-143685000D01*
X158475000Y-143685000D02*
X158745000Y-143685000D01*
X158745000Y-143685000D02*
X158745000Y-144785000D01*
%TO.C,Q9*%
X170490000Y-144270000D02*
X169560000Y-144270000D01*
X167330000Y-144270000D02*
X168260000Y-144270000D01*
X167330000Y-144270000D02*
X167330000Y-142110000D01*
X170490000Y-144270000D02*
X170490000Y-142810000D01*
%TO.C,Q8*%
X151405000Y-142185000D02*
X151405000Y-143685000D01*
X151405000Y-143685000D02*
X151135000Y-143685000D01*
X151135000Y-143685000D02*
X151135000Y-146515000D01*
X144505000Y-142185000D02*
X144505000Y-143685000D01*
X144505000Y-143685000D02*
X144775000Y-143685000D01*
X144775000Y-143685000D02*
X144775000Y-144785000D01*
%TO.C,Q7*%
X156520000Y-143000000D02*
X155590000Y-143000000D01*
X153360000Y-143000000D02*
X154290000Y-143000000D01*
X153360000Y-143000000D02*
X153360000Y-140840000D01*
X156520000Y-143000000D02*
X156520000Y-141540000D01*
%TO.C,Q6*%
X137435000Y-142185000D02*
X137435000Y-143685000D01*
X137435000Y-143685000D02*
X137165000Y-143685000D01*
X137165000Y-143685000D02*
X137165000Y-146515000D01*
X130535000Y-142185000D02*
X130535000Y-143685000D01*
X130535000Y-143685000D02*
X130805000Y-143685000D01*
X130805000Y-143685000D02*
X130805000Y-144785000D01*
%TO.C,Q5*%
X142550000Y-144270000D02*
X141620000Y-144270000D01*
X139390000Y-144270000D02*
X140320000Y-144270000D01*
X139390000Y-144270000D02*
X139390000Y-142110000D01*
X142550000Y-144270000D02*
X142550000Y-142810000D01*
%TO.C,Q4*%
X123465000Y-142185000D02*
X123465000Y-143685000D01*
X123465000Y-143685000D02*
X123195000Y-143685000D01*
X123195000Y-143685000D02*
X123195000Y-146515000D01*
X116565000Y-142185000D02*
X116565000Y-143685000D01*
X116565000Y-143685000D02*
X116835000Y-143685000D01*
X116835000Y-143685000D02*
X116835000Y-144785000D01*
%TO.C,Q3*%
X128580000Y-143000000D02*
X127650000Y-143000000D01*
X125420000Y-143000000D02*
X126350000Y-143000000D01*
X125420000Y-143000000D02*
X125420000Y-140840000D01*
X128580000Y-143000000D02*
X128580000Y-141540000D01*
%TO.C,Q2*%
X109495000Y-142185000D02*
X109495000Y-143685000D01*
X109495000Y-143685000D02*
X109225000Y-143685000D01*
X109225000Y-143685000D02*
X109225000Y-146515000D01*
X102595000Y-142185000D02*
X102595000Y-143685000D01*
X102595000Y-143685000D02*
X102865000Y-143685000D01*
X102865000Y-143685000D02*
X102865000Y-144785000D01*
%TO.C,Q1*%
X114610000Y-143000000D02*
X113680000Y-143000000D01*
X111450000Y-143000000D02*
X112380000Y-143000000D01*
X111450000Y-143000000D02*
X111450000Y-140840000D01*
X114610000Y-143000000D02*
X114610000Y-141540000D01*
%TO.C,D6*%
X136820000Y-118380000D02*
X136820000Y-120380000D01*
X136820000Y-120380000D02*
X132970000Y-120380000D01*
X136820000Y-118380000D02*
X132970000Y-118380000D01*
%TO.C,D5*%
X160925000Y-70190000D02*
X162925000Y-70190000D01*
X162925000Y-70190000D02*
X162925000Y-74040000D01*
X160925000Y-70190000D02*
X160925000Y-74040000D01*
%TO.C,D4*%
X136820000Y-105045000D02*
X136820000Y-107045000D01*
X136820000Y-107045000D02*
X132970000Y-107045000D01*
X136820000Y-105045000D02*
X132970000Y-105045000D01*
%TO.C,D3*%
X164735000Y-70190000D02*
X166735000Y-70190000D01*
X166735000Y-70190000D02*
X166735000Y-74040000D01*
X164735000Y-70190000D02*
X164735000Y-74040000D01*
%TO.C,D2*%
X136820000Y-91710000D02*
X136820000Y-93710000D01*
X136820000Y-93710000D02*
X132970000Y-93710000D01*
X136820000Y-91710000D02*
X132970000Y-91710000D01*
%TO.C,D1*%
X168545000Y-70190000D02*
X170545000Y-70190000D01*
X170545000Y-70190000D02*
X170545000Y-74040000D01*
X168545000Y-70190000D02*
X168545000Y-74040000D01*
%TO.C,C7*%
X140210000Y-114462779D02*
X140210000Y-114137221D01*
X139190000Y-114462779D02*
X139190000Y-114137221D01*
%TO.C,C6*%
X129415000Y-118272779D02*
X129415000Y-117947221D01*
X128395000Y-118272779D02*
X128395000Y-117947221D01*
%TO.C,C5*%
X140210000Y-101127779D02*
X140210000Y-100802221D01*
X139190000Y-101127779D02*
X139190000Y-100802221D01*
%TO.C,C4*%
X129415000Y-104937779D02*
X129415000Y-104612221D01*
X128395000Y-104937779D02*
X128395000Y-104612221D01*
%TO.C,C3*%
X140210000Y-87792779D02*
X140210000Y-87467221D01*
X139190000Y-87792779D02*
X139190000Y-87467221D01*
%TO.C,C2*%
X129415000Y-91602779D02*
X129415000Y-91277221D01*
X128395000Y-91602779D02*
X128395000Y-91277221D01*
%TO.C,C1*%
X108710000Y-112867221D02*
X108710000Y-113192779D01*
X109730000Y-112867221D02*
X109730000Y-113192779D01*
%TO.C,U7*%
D11*
X135381904Y-116517380D02*
X135381904Y-117326904D01*
X135334285Y-117422142D01*
X135286666Y-117469761D01*
X135191428Y-117517380D01*
X135000952Y-117517380D01*
X134905714Y-117469761D01*
X134858095Y-117422142D01*
X134810476Y-117326904D01*
X134810476Y-116517380D01*
X134429523Y-116517380D02*
X133762857Y-116517380D01*
X134191428Y-117517380D01*
%TO.C,U6*%
X123316904Y-119812380D02*
X123316904Y-120621904D01*
X123269285Y-120717142D01*
X123221666Y-120764761D01*
X123126428Y-120812380D01*
X122935952Y-120812380D01*
X122840714Y-120764761D01*
X122793095Y-120717142D01*
X122745476Y-120621904D01*
X122745476Y-119812380D01*
X121840714Y-119812380D02*
X122031190Y-119812380D01*
X122126428Y-119860000D01*
X122174047Y-119907619D01*
X122269285Y-120050476D01*
X122316904Y-120240952D01*
X122316904Y-120621904D01*
X122269285Y-120717142D01*
X122221666Y-120764761D01*
X122126428Y-120812380D01*
X121935952Y-120812380D01*
X121840714Y-120764761D01*
X121793095Y-120717142D01*
X121745476Y-120621904D01*
X121745476Y-120383809D01*
X121793095Y-120288571D01*
X121840714Y-120240952D01*
X121935952Y-120193333D01*
X122126428Y-120193333D01*
X122221666Y-120240952D01*
X122269285Y-120288571D01*
X122316904Y-120383809D01*
%TO.C,U5*%
X135381904Y-103182380D02*
X135381904Y-103991904D01*
X135334285Y-104087142D01*
X135286666Y-104134761D01*
X135191428Y-104182380D01*
X135000952Y-104182380D01*
X134905714Y-104134761D01*
X134858095Y-104087142D01*
X134810476Y-103991904D01*
X134810476Y-103182380D01*
X133858095Y-103182380D02*
X134334285Y-103182380D01*
X134381904Y-103658571D01*
X134334285Y-103610952D01*
X134239047Y-103563333D01*
X134000952Y-103563333D01*
X133905714Y-103610952D01*
X133858095Y-103658571D01*
X133810476Y-103753809D01*
X133810476Y-103991904D01*
X133858095Y-104087142D01*
X133905714Y-104134761D01*
X134000952Y-104182380D01*
X134239047Y-104182380D01*
X134334285Y-104134761D01*
X134381904Y-104087142D01*
%TO.C,U4*%
X123316904Y-106477380D02*
X123316904Y-107286904D01*
X123269285Y-107382142D01*
X123221666Y-107429761D01*
X123126428Y-107477380D01*
X122935952Y-107477380D01*
X122840714Y-107429761D01*
X122793095Y-107382142D01*
X122745476Y-107286904D01*
X122745476Y-106477380D01*
X121840714Y-106810714D02*
X121840714Y-107477380D01*
X122078809Y-106429761D02*
X122316904Y-107144047D01*
X121697857Y-107144047D01*
%TO.C,U3*%
X135381904Y-89847380D02*
X135381904Y-90656904D01*
X135334285Y-90752142D01*
X135286666Y-90799761D01*
X135191428Y-90847380D01*
X135000952Y-90847380D01*
X134905714Y-90799761D01*
X134858095Y-90752142D01*
X134810476Y-90656904D01*
X134810476Y-89847380D01*
X134429523Y-89847380D02*
X133810476Y-89847380D01*
X134143809Y-90228333D01*
X134000952Y-90228333D01*
X133905714Y-90275952D01*
X133858095Y-90323571D01*
X133810476Y-90418809D01*
X133810476Y-90656904D01*
X133858095Y-90752142D01*
X133905714Y-90799761D01*
X134000952Y-90847380D01*
X134286666Y-90847380D01*
X134381904Y-90799761D01*
X134429523Y-90752142D01*
%TO.C,U2*%
X123316904Y-93142380D02*
X123316904Y-93951904D01*
X123269285Y-94047142D01*
X123221666Y-94094761D01*
X123126428Y-94142380D01*
X122935952Y-94142380D01*
X122840714Y-94094761D01*
X122793095Y-94047142D01*
X122745476Y-93951904D01*
X122745476Y-93142380D01*
X122316904Y-93237619D02*
X122269285Y-93190000D01*
X122174047Y-93142380D01*
X121935952Y-93142380D01*
X121840714Y-93190000D01*
X121793095Y-93237619D01*
X121745476Y-93332857D01*
X121745476Y-93428095D01*
X121793095Y-93570952D01*
X122364523Y-94142380D01*
X121745476Y-94142380D01*
%TO.C,R61*%
X104147857Y-78717380D02*
X104481190Y-78241190D01*
X104719285Y-78717380D02*
X104719285Y-77717380D01*
X104338333Y-77717380D01*
X104243095Y-77765000D01*
X104195476Y-77812619D01*
X104147857Y-77907857D01*
X104147857Y-78050714D01*
X104195476Y-78145952D01*
X104243095Y-78193571D01*
X104338333Y-78241190D01*
X104719285Y-78241190D01*
X103290714Y-77717380D02*
X103481190Y-77717380D01*
X103576428Y-77765000D01*
X103624047Y-77812619D01*
X103719285Y-77955476D01*
X103766904Y-78145952D01*
X103766904Y-78526904D01*
X103719285Y-78622142D01*
X103671666Y-78669761D01*
X103576428Y-78717380D01*
X103385952Y-78717380D01*
X103290714Y-78669761D01*
X103243095Y-78622142D01*
X103195476Y-78526904D01*
X103195476Y-78288809D01*
X103243095Y-78193571D01*
X103290714Y-78145952D01*
X103385952Y-78098333D01*
X103576428Y-78098333D01*
X103671666Y-78145952D01*
X103719285Y-78193571D01*
X103766904Y-78288809D01*
X102243095Y-78717380D02*
X102814523Y-78717380D01*
X102528809Y-78717380D02*
X102528809Y-77717380D01*
X102624047Y-77860238D01*
X102719285Y-77955476D01*
X102814523Y-78003095D01*
%TO.C,R60*%
X104147857Y-76177380D02*
X104481190Y-75701190D01*
X104719285Y-76177380D02*
X104719285Y-75177380D01*
X104338333Y-75177380D01*
X104243095Y-75225000D01*
X104195476Y-75272619D01*
X104147857Y-75367857D01*
X104147857Y-75510714D01*
X104195476Y-75605952D01*
X104243095Y-75653571D01*
X104338333Y-75701190D01*
X104719285Y-75701190D01*
X103290714Y-75177380D02*
X103481190Y-75177380D01*
X103576428Y-75225000D01*
X103624047Y-75272619D01*
X103719285Y-75415476D01*
X103766904Y-75605952D01*
X103766904Y-75986904D01*
X103719285Y-76082142D01*
X103671666Y-76129761D01*
X103576428Y-76177380D01*
X103385952Y-76177380D01*
X103290714Y-76129761D01*
X103243095Y-76082142D01*
X103195476Y-75986904D01*
X103195476Y-75748809D01*
X103243095Y-75653571D01*
X103290714Y-75605952D01*
X103385952Y-75558333D01*
X103576428Y-75558333D01*
X103671666Y-75605952D01*
X103719285Y-75653571D01*
X103766904Y-75748809D01*
X102576428Y-75177380D02*
X102481190Y-75177380D01*
X102385952Y-75225000D01*
X102338333Y-75272619D01*
X102290714Y-75367857D01*
X102243095Y-75558333D01*
X102243095Y-75796428D01*
X102290714Y-75986904D01*
X102338333Y-76082142D01*
X102385952Y-76129761D01*
X102481190Y-76177380D01*
X102576428Y-76177380D01*
X102671666Y-76129761D01*
X102719285Y-76082142D01*
X102766904Y-75986904D01*
X102814523Y-75796428D01*
X102814523Y-75558333D01*
X102766904Y-75367857D01*
X102719285Y-75272619D01*
X102671666Y-75225000D01*
X102576428Y-75177380D01*
%TO.C,R59*%
X103322380Y-126357142D02*
X102846190Y-126023809D01*
X103322380Y-125785714D02*
X102322380Y-125785714D01*
X102322380Y-126166666D01*
X102370000Y-126261904D01*
X102417619Y-126309523D01*
X102512857Y-126357142D01*
X102655714Y-126357142D01*
X102750952Y-126309523D01*
X102798571Y-126261904D01*
X102846190Y-126166666D01*
X102846190Y-125785714D01*
X102322380Y-127261904D02*
X102322380Y-126785714D01*
X102798571Y-126738095D01*
X102750952Y-126785714D01*
X102703333Y-126880952D01*
X102703333Y-127119047D01*
X102750952Y-127214285D01*
X102798571Y-127261904D01*
X102893809Y-127309523D01*
X103131904Y-127309523D01*
X103227142Y-127261904D01*
X103274761Y-127214285D01*
X103322380Y-127119047D01*
X103322380Y-126880952D01*
X103274761Y-126785714D01*
X103227142Y-126738095D01*
X103322380Y-127785714D02*
X103322380Y-127976190D01*
X103274761Y-128071428D01*
X103227142Y-128119047D01*
X103084285Y-128214285D01*
X102893809Y-128261904D01*
X102512857Y-128261904D01*
X102417619Y-128214285D01*
X102370000Y-128166666D01*
X102322380Y-128071428D01*
X102322380Y-127880952D01*
X102370000Y-127785714D01*
X102417619Y-127738095D01*
X102512857Y-127690476D01*
X102750952Y-127690476D01*
X102846190Y-127738095D01*
X102893809Y-127785714D01*
X102941428Y-127880952D01*
X102941428Y-128071428D01*
X102893809Y-128166666D01*
X102846190Y-128214285D01*
X102750952Y-128261904D01*
%TO.C,R58*%
X103322380Y-114927142D02*
X102846190Y-114593809D01*
X103322380Y-114355714D02*
X102322380Y-114355714D01*
X102322380Y-114736666D01*
X102370000Y-114831904D01*
X102417619Y-114879523D01*
X102512857Y-114927142D01*
X102655714Y-114927142D01*
X102750952Y-114879523D01*
X102798571Y-114831904D01*
X102846190Y-114736666D01*
X102846190Y-114355714D01*
X102322380Y-115831904D02*
X102322380Y-115355714D01*
X102798571Y-115308095D01*
X102750952Y-115355714D01*
X102703333Y-115450952D01*
X102703333Y-115689047D01*
X102750952Y-115784285D01*
X102798571Y-115831904D01*
X102893809Y-115879523D01*
X103131904Y-115879523D01*
X103227142Y-115831904D01*
X103274761Y-115784285D01*
X103322380Y-115689047D01*
X103322380Y-115450952D01*
X103274761Y-115355714D01*
X103227142Y-115308095D01*
X102750952Y-116450952D02*
X102703333Y-116355714D01*
X102655714Y-116308095D01*
X102560476Y-116260476D01*
X102512857Y-116260476D01*
X102417619Y-116308095D01*
X102370000Y-116355714D01*
X102322380Y-116450952D01*
X102322380Y-116641428D01*
X102370000Y-116736666D01*
X102417619Y-116784285D01*
X102512857Y-116831904D01*
X102560476Y-116831904D01*
X102655714Y-116784285D01*
X102703333Y-116736666D01*
X102750952Y-116641428D01*
X102750952Y-116450952D01*
X102798571Y-116355714D01*
X102846190Y-116308095D01*
X102941428Y-116260476D01*
X103131904Y-116260476D01*
X103227142Y-116308095D01*
X103274761Y-116355714D01*
X103322380Y-116450952D01*
X103322380Y-116641428D01*
X103274761Y-116736666D01*
X103227142Y-116784285D01*
X103131904Y-116831904D01*
X102941428Y-116831904D01*
X102846190Y-116784285D01*
X102798571Y-116736666D01*
X102750952Y-116641428D01*
%TO.C,R57*%
X171742380Y-71747142D02*
X171266190Y-71413809D01*
X171742380Y-71175714D02*
X170742380Y-71175714D01*
X170742380Y-71556666D01*
X170790000Y-71651904D01*
X170837619Y-71699523D01*
X170932857Y-71747142D01*
X171075714Y-71747142D01*
X171170952Y-71699523D01*
X171218571Y-71651904D01*
X171266190Y-71556666D01*
X171266190Y-71175714D01*
X170742380Y-72651904D02*
X170742380Y-72175714D01*
X171218571Y-72128095D01*
X171170952Y-72175714D01*
X171123333Y-72270952D01*
X171123333Y-72509047D01*
X171170952Y-72604285D01*
X171218571Y-72651904D01*
X171313809Y-72699523D01*
X171551904Y-72699523D01*
X171647142Y-72651904D01*
X171694761Y-72604285D01*
X171742380Y-72509047D01*
X171742380Y-72270952D01*
X171694761Y-72175714D01*
X171647142Y-72128095D01*
X170742380Y-73032857D02*
X170742380Y-73699523D01*
X171742380Y-73270952D01*
%TO.C,R56*%
X184442380Y-71747142D02*
X183966190Y-71413809D01*
X184442380Y-71175714D02*
X183442380Y-71175714D01*
X183442380Y-71556666D01*
X183490000Y-71651904D01*
X183537619Y-71699523D01*
X183632857Y-71747142D01*
X183775714Y-71747142D01*
X183870952Y-71699523D01*
X183918571Y-71651904D01*
X183966190Y-71556666D01*
X183966190Y-71175714D01*
X183442380Y-72651904D02*
X183442380Y-72175714D01*
X183918571Y-72128095D01*
X183870952Y-72175714D01*
X183823333Y-72270952D01*
X183823333Y-72509047D01*
X183870952Y-72604285D01*
X183918571Y-72651904D01*
X184013809Y-72699523D01*
X184251904Y-72699523D01*
X184347142Y-72651904D01*
X184394761Y-72604285D01*
X184442380Y-72509047D01*
X184442380Y-72270952D01*
X184394761Y-72175714D01*
X184347142Y-72128095D01*
X183442380Y-73556666D02*
X183442380Y-73366190D01*
X183490000Y-73270952D01*
X183537619Y-73223333D01*
X183680476Y-73128095D01*
X183870952Y-73080476D01*
X184251904Y-73080476D01*
X184347142Y-73128095D01*
X184394761Y-73175714D01*
X184442380Y-73270952D01*
X184442380Y-73461428D01*
X184394761Y-73556666D01*
X184347142Y-73604285D01*
X184251904Y-73651904D01*
X184013809Y-73651904D01*
X183918571Y-73604285D01*
X183870952Y-73556666D01*
X183823333Y-73461428D01*
X183823333Y-73270952D01*
X183870952Y-73175714D01*
X183918571Y-73128095D01*
X184013809Y-73080476D01*
%TO.C,R55*%
X174282380Y-71747142D02*
X173806190Y-71413809D01*
X174282380Y-71175714D02*
X173282380Y-71175714D01*
X173282380Y-71556666D01*
X173330000Y-71651904D01*
X173377619Y-71699523D01*
X173472857Y-71747142D01*
X173615714Y-71747142D01*
X173710952Y-71699523D01*
X173758571Y-71651904D01*
X173806190Y-71556666D01*
X173806190Y-71175714D01*
X173282380Y-72651904D02*
X173282380Y-72175714D01*
X173758571Y-72128095D01*
X173710952Y-72175714D01*
X173663333Y-72270952D01*
X173663333Y-72509047D01*
X173710952Y-72604285D01*
X173758571Y-72651904D01*
X173853809Y-72699523D01*
X174091904Y-72699523D01*
X174187142Y-72651904D01*
X174234761Y-72604285D01*
X174282380Y-72509047D01*
X174282380Y-72270952D01*
X174234761Y-72175714D01*
X174187142Y-72128095D01*
X173282380Y-73604285D02*
X173282380Y-73128095D01*
X173758571Y-73080476D01*
X173710952Y-73128095D01*
X173663333Y-73223333D01*
X173663333Y-73461428D01*
X173710952Y-73556666D01*
X173758571Y-73604285D01*
X173853809Y-73651904D01*
X174091904Y-73651904D01*
X174187142Y-73604285D01*
X174234761Y-73556666D01*
X174282380Y-73461428D01*
X174282380Y-73223333D01*
X174234761Y-73128095D01*
X174187142Y-73080476D01*
%TO.C,R54*%
X186982380Y-71747142D02*
X186506190Y-71413809D01*
X186982380Y-71175714D02*
X185982380Y-71175714D01*
X185982380Y-71556666D01*
X186030000Y-71651904D01*
X186077619Y-71699523D01*
X186172857Y-71747142D01*
X186315714Y-71747142D01*
X186410952Y-71699523D01*
X186458571Y-71651904D01*
X186506190Y-71556666D01*
X186506190Y-71175714D01*
X185982380Y-72651904D02*
X185982380Y-72175714D01*
X186458571Y-72128095D01*
X186410952Y-72175714D01*
X186363333Y-72270952D01*
X186363333Y-72509047D01*
X186410952Y-72604285D01*
X186458571Y-72651904D01*
X186553809Y-72699523D01*
X186791904Y-72699523D01*
X186887142Y-72651904D01*
X186934761Y-72604285D01*
X186982380Y-72509047D01*
X186982380Y-72270952D01*
X186934761Y-72175714D01*
X186887142Y-72128095D01*
X186315714Y-73556666D02*
X186982380Y-73556666D01*
X185934761Y-73318571D02*
X186649047Y-73080476D01*
X186649047Y-73699523D01*
%TO.C,R53*%
X176822380Y-71747142D02*
X176346190Y-71413809D01*
X176822380Y-71175714D02*
X175822380Y-71175714D01*
X175822380Y-71556666D01*
X175870000Y-71651904D01*
X175917619Y-71699523D01*
X176012857Y-71747142D01*
X176155714Y-71747142D01*
X176250952Y-71699523D01*
X176298571Y-71651904D01*
X176346190Y-71556666D01*
X176346190Y-71175714D01*
X175822380Y-72651904D02*
X175822380Y-72175714D01*
X176298571Y-72128095D01*
X176250952Y-72175714D01*
X176203333Y-72270952D01*
X176203333Y-72509047D01*
X176250952Y-72604285D01*
X176298571Y-72651904D01*
X176393809Y-72699523D01*
X176631904Y-72699523D01*
X176727142Y-72651904D01*
X176774761Y-72604285D01*
X176822380Y-72509047D01*
X176822380Y-72270952D01*
X176774761Y-72175714D01*
X176727142Y-72128095D01*
X175822380Y-73032857D02*
X175822380Y-73651904D01*
X176203333Y-73318571D01*
X176203333Y-73461428D01*
X176250952Y-73556666D01*
X176298571Y-73604285D01*
X176393809Y-73651904D01*
X176631904Y-73651904D01*
X176727142Y-73604285D01*
X176774761Y-73556666D01*
X176822380Y-73461428D01*
X176822380Y-73175714D01*
X176774761Y-73080476D01*
X176727142Y-73032857D01*
%TO.C,R52*%
X179362380Y-71747142D02*
X178886190Y-71413809D01*
X179362380Y-71175714D02*
X178362380Y-71175714D01*
X178362380Y-71556666D01*
X178410000Y-71651904D01*
X178457619Y-71699523D01*
X178552857Y-71747142D01*
X178695714Y-71747142D01*
X178790952Y-71699523D01*
X178838571Y-71651904D01*
X178886190Y-71556666D01*
X178886190Y-71175714D01*
X178362380Y-72651904D02*
X178362380Y-72175714D01*
X178838571Y-72128095D01*
X178790952Y-72175714D01*
X178743333Y-72270952D01*
X178743333Y-72509047D01*
X178790952Y-72604285D01*
X178838571Y-72651904D01*
X178933809Y-72699523D01*
X179171904Y-72699523D01*
X179267142Y-72651904D01*
X179314761Y-72604285D01*
X179362380Y-72509047D01*
X179362380Y-72270952D01*
X179314761Y-72175714D01*
X179267142Y-72128095D01*
X178457619Y-73080476D02*
X178410000Y-73128095D01*
X178362380Y-73223333D01*
X178362380Y-73461428D01*
X178410000Y-73556666D01*
X178457619Y-73604285D01*
X178552857Y-73651904D01*
X178648095Y-73651904D01*
X178790952Y-73604285D01*
X179362380Y-73032857D01*
X179362380Y-73651904D01*
%TO.C,R51*%
X181902380Y-71747142D02*
X181426190Y-71413809D01*
X181902380Y-71175714D02*
X180902380Y-71175714D01*
X180902380Y-71556666D01*
X180950000Y-71651904D01*
X180997619Y-71699523D01*
X181092857Y-71747142D01*
X181235714Y-71747142D01*
X181330952Y-71699523D01*
X181378571Y-71651904D01*
X181426190Y-71556666D01*
X181426190Y-71175714D01*
X180902380Y-72651904D02*
X180902380Y-72175714D01*
X181378571Y-72128095D01*
X181330952Y-72175714D01*
X181283333Y-72270952D01*
X181283333Y-72509047D01*
X181330952Y-72604285D01*
X181378571Y-72651904D01*
X181473809Y-72699523D01*
X181711904Y-72699523D01*
X181807142Y-72651904D01*
X181854761Y-72604285D01*
X181902380Y-72509047D01*
X181902380Y-72270952D01*
X181854761Y-72175714D01*
X181807142Y-72128095D01*
X181902380Y-73651904D02*
X181902380Y-73080476D01*
X181902380Y-73366190D02*
X180902380Y-73366190D01*
X181045238Y-73270952D01*
X181140476Y-73175714D01*
X181188095Y-73080476D01*
%TO.C,R63*%
X127612380Y-79367142D02*
X127136190Y-79033809D01*
X127612380Y-78795714D02*
X126612380Y-78795714D01*
X126612380Y-79176666D01*
X126660000Y-79271904D01*
X126707619Y-79319523D01*
X126802857Y-79367142D01*
X126945714Y-79367142D01*
X127040952Y-79319523D01*
X127088571Y-79271904D01*
X127136190Y-79176666D01*
X127136190Y-78795714D01*
X126612380Y-80224285D02*
X126612380Y-80033809D01*
X126660000Y-79938571D01*
X126707619Y-79890952D01*
X126850476Y-79795714D01*
X127040952Y-79748095D01*
X127421904Y-79748095D01*
X127517142Y-79795714D01*
X127564761Y-79843333D01*
X127612380Y-79938571D01*
X127612380Y-80129047D01*
X127564761Y-80224285D01*
X127517142Y-80271904D01*
X127421904Y-80319523D01*
X127183809Y-80319523D01*
X127088571Y-80271904D01*
X127040952Y-80224285D01*
X126993333Y-80129047D01*
X126993333Y-79938571D01*
X127040952Y-79843333D01*
X127088571Y-79795714D01*
X127183809Y-79748095D01*
X126612380Y-80652857D02*
X126612380Y-81271904D01*
X126993333Y-80938571D01*
X126993333Y-81081428D01*
X127040952Y-81176666D01*
X127088571Y-81224285D01*
X127183809Y-81271904D01*
X127421904Y-81271904D01*
X127517142Y-81224285D01*
X127564761Y-81176666D01*
X127612380Y-81081428D01*
X127612380Y-80795714D01*
X127564761Y-80700476D01*
X127517142Y-80652857D01*
%TO.C,R62*%
X120627380Y-79367142D02*
X120151190Y-79033809D01*
X120627380Y-78795714D02*
X119627380Y-78795714D01*
X119627380Y-79176666D01*
X119675000Y-79271904D01*
X119722619Y-79319523D01*
X119817857Y-79367142D01*
X119960714Y-79367142D01*
X120055952Y-79319523D01*
X120103571Y-79271904D01*
X120151190Y-79176666D01*
X120151190Y-78795714D01*
X119627380Y-80224285D02*
X119627380Y-80033809D01*
X119675000Y-79938571D01*
X119722619Y-79890952D01*
X119865476Y-79795714D01*
X120055952Y-79748095D01*
X120436904Y-79748095D01*
X120532142Y-79795714D01*
X120579761Y-79843333D01*
X120627380Y-79938571D01*
X120627380Y-80129047D01*
X120579761Y-80224285D01*
X120532142Y-80271904D01*
X120436904Y-80319523D01*
X120198809Y-80319523D01*
X120103571Y-80271904D01*
X120055952Y-80224285D01*
X120008333Y-80129047D01*
X120008333Y-79938571D01*
X120055952Y-79843333D01*
X120103571Y-79795714D01*
X120198809Y-79748095D01*
X119722619Y-80700476D02*
X119675000Y-80748095D01*
X119627380Y-80843333D01*
X119627380Y-81081428D01*
X119675000Y-81176666D01*
X119722619Y-81224285D01*
X119817857Y-81271904D01*
X119913095Y-81271904D01*
X120055952Y-81224285D01*
X120627380Y-80652857D01*
X120627380Y-81271904D01*
%TO.C,R42*%
X149232857Y-110782380D02*
X149566190Y-110306190D01*
X149804285Y-110782380D02*
X149804285Y-109782380D01*
X149423333Y-109782380D01*
X149328095Y-109830000D01*
X149280476Y-109877619D01*
X149232857Y-109972857D01*
X149232857Y-110115714D01*
X149280476Y-110210952D01*
X149328095Y-110258571D01*
X149423333Y-110306190D01*
X149804285Y-110306190D01*
X148375714Y-110115714D02*
X148375714Y-110782380D01*
X148613809Y-109734761D02*
X148851904Y-110449047D01*
X148232857Y-110449047D01*
X147899523Y-109877619D02*
X147851904Y-109830000D01*
X147756666Y-109782380D01*
X147518571Y-109782380D01*
X147423333Y-109830000D01*
X147375714Y-109877619D01*
X147328095Y-109972857D01*
X147328095Y-110068095D01*
X147375714Y-110210952D01*
X147947142Y-110782380D01*
X147328095Y-110782380D01*
%TO.C,R41*%
X144152857Y-113957380D02*
X144486190Y-113481190D01*
X144724285Y-113957380D02*
X144724285Y-112957380D01*
X144343333Y-112957380D01*
X144248095Y-113005000D01*
X144200476Y-113052619D01*
X144152857Y-113147857D01*
X144152857Y-113290714D01*
X144200476Y-113385952D01*
X144248095Y-113433571D01*
X144343333Y-113481190D01*
X144724285Y-113481190D01*
X143295714Y-113290714D02*
X143295714Y-113957380D01*
X143533809Y-112909761D02*
X143771904Y-113624047D01*
X143152857Y-113624047D01*
X142248095Y-113957380D02*
X142819523Y-113957380D01*
X142533809Y-113957380D02*
X142533809Y-112957380D01*
X142629047Y-113100238D01*
X142724285Y-113195476D01*
X142819523Y-113243095D01*
%TO.C,R40*%
X144152857Y-110782380D02*
X144486190Y-110306190D01*
X144724285Y-110782380D02*
X144724285Y-109782380D01*
X144343333Y-109782380D01*
X144248095Y-109830000D01*
X144200476Y-109877619D01*
X144152857Y-109972857D01*
X144152857Y-110115714D01*
X144200476Y-110210952D01*
X144248095Y-110258571D01*
X144343333Y-110306190D01*
X144724285Y-110306190D01*
X143295714Y-110115714D02*
X143295714Y-110782380D01*
X143533809Y-109734761D02*
X143771904Y-110449047D01*
X143152857Y-110449047D01*
X142581428Y-109782380D02*
X142486190Y-109782380D01*
X142390952Y-109830000D01*
X142343333Y-109877619D01*
X142295714Y-109972857D01*
X142248095Y-110163333D01*
X142248095Y-110401428D01*
X142295714Y-110591904D01*
X142343333Y-110687142D01*
X142390952Y-110734761D01*
X142486190Y-110782380D01*
X142581428Y-110782380D01*
X142676666Y-110734761D01*
X142724285Y-110687142D01*
X142771904Y-110591904D01*
X142819523Y-110401428D01*
X142819523Y-110163333D01*
X142771904Y-109972857D01*
X142724285Y-109877619D01*
X142676666Y-109830000D01*
X142581428Y-109782380D01*
%TO.C,R39*%
X144152857Y-117132380D02*
X144486190Y-116656190D01*
X144724285Y-117132380D02*
X144724285Y-116132380D01*
X144343333Y-116132380D01*
X144248095Y-116180000D01*
X144200476Y-116227619D01*
X144152857Y-116322857D01*
X144152857Y-116465714D01*
X144200476Y-116560952D01*
X144248095Y-116608571D01*
X144343333Y-116656190D01*
X144724285Y-116656190D01*
X143819523Y-116132380D02*
X143200476Y-116132380D01*
X143533809Y-116513333D01*
X143390952Y-116513333D01*
X143295714Y-116560952D01*
X143248095Y-116608571D01*
X143200476Y-116703809D01*
X143200476Y-116941904D01*
X143248095Y-117037142D01*
X143295714Y-117084761D01*
X143390952Y-117132380D01*
X143676666Y-117132380D01*
X143771904Y-117084761D01*
X143819523Y-117037142D01*
X142724285Y-117132380D02*
X142533809Y-117132380D01*
X142438571Y-117084761D01*
X142390952Y-117037142D01*
X142295714Y-116894285D01*
X142248095Y-116703809D01*
X142248095Y-116322857D01*
X142295714Y-116227619D01*
X142343333Y-116180000D01*
X142438571Y-116132380D01*
X142629047Y-116132380D01*
X142724285Y-116180000D01*
X142771904Y-116227619D01*
X142819523Y-116322857D01*
X142819523Y-116560952D01*
X142771904Y-116656190D01*
X142724285Y-116703809D01*
X142629047Y-116751428D01*
X142438571Y-116751428D01*
X142343333Y-116703809D01*
X142295714Y-116656190D01*
X142248095Y-116560952D01*
%TO.C,R38*%
X130787380Y-112387142D02*
X130311190Y-112053809D01*
X130787380Y-111815714D02*
X129787380Y-111815714D01*
X129787380Y-112196666D01*
X129835000Y-112291904D01*
X129882619Y-112339523D01*
X129977857Y-112387142D01*
X130120714Y-112387142D01*
X130215952Y-112339523D01*
X130263571Y-112291904D01*
X130311190Y-112196666D01*
X130311190Y-111815714D01*
X129787380Y-112720476D02*
X129787380Y-113339523D01*
X130168333Y-113006190D01*
X130168333Y-113149047D01*
X130215952Y-113244285D01*
X130263571Y-113291904D01*
X130358809Y-113339523D01*
X130596904Y-113339523D01*
X130692142Y-113291904D01*
X130739761Y-113244285D01*
X130787380Y-113149047D01*
X130787380Y-112863333D01*
X130739761Y-112768095D01*
X130692142Y-112720476D01*
X130215952Y-113910952D02*
X130168333Y-113815714D01*
X130120714Y-113768095D01*
X130025476Y-113720476D01*
X129977857Y-113720476D01*
X129882619Y-113768095D01*
X129835000Y-113815714D01*
X129787380Y-113910952D01*
X129787380Y-114101428D01*
X129835000Y-114196666D01*
X129882619Y-114244285D01*
X129977857Y-114291904D01*
X130025476Y-114291904D01*
X130120714Y-114244285D01*
X130168333Y-114196666D01*
X130215952Y-114101428D01*
X130215952Y-113910952D01*
X130263571Y-113815714D01*
X130311190Y-113768095D01*
X130406428Y-113720476D01*
X130596904Y-113720476D01*
X130692142Y-113768095D01*
X130739761Y-113815714D01*
X130787380Y-113910952D01*
X130787380Y-114101428D01*
X130739761Y-114196666D01*
X130692142Y-114244285D01*
X130596904Y-114291904D01*
X130406428Y-114291904D01*
X130311190Y-114244285D01*
X130263571Y-114196666D01*
X130215952Y-114101428D01*
%TO.C,R37*%
X127612380Y-112387142D02*
X127136190Y-112053809D01*
X127612380Y-111815714D02*
X126612380Y-111815714D01*
X126612380Y-112196666D01*
X126660000Y-112291904D01*
X126707619Y-112339523D01*
X126802857Y-112387142D01*
X126945714Y-112387142D01*
X127040952Y-112339523D01*
X127088571Y-112291904D01*
X127136190Y-112196666D01*
X127136190Y-111815714D01*
X126612380Y-112720476D02*
X126612380Y-113339523D01*
X126993333Y-113006190D01*
X126993333Y-113149047D01*
X127040952Y-113244285D01*
X127088571Y-113291904D01*
X127183809Y-113339523D01*
X127421904Y-113339523D01*
X127517142Y-113291904D01*
X127564761Y-113244285D01*
X127612380Y-113149047D01*
X127612380Y-112863333D01*
X127564761Y-112768095D01*
X127517142Y-112720476D01*
X126612380Y-113672857D02*
X126612380Y-114339523D01*
X127612380Y-113910952D01*
%TO.C,R36*%
X118402380Y-112387142D02*
X117926190Y-112053809D01*
X118402380Y-111815714D02*
X117402380Y-111815714D01*
X117402380Y-112196666D01*
X117450000Y-112291904D01*
X117497619Y-112339523D01*
X117592857Y-112387142D01*
X117735714Y-112387142D01*
X117830952Y-112339523D01*
X117878571Y-112291904D01*
X117926190Y-112196666D01*
X117926190Y-111815714D01*
X117402380Y-112720476D02*
X117402380Y-113339523D01*
X117783333Y-113006190D01*
X117783333Y-113149047D01*
X117830952Y-113244285D01*
X117878571Y-113291904D01*
X117973809Y-113339523D01*
X118211904Y-113339523D01*
X118307142Y-113291904D01*
X118354761Y-113244285D01*
X118402380Y-113149047D01*
X118402380Y-112863333D01*
X118354761Y-112768095D01*
X118307142Y-112720476D01*
X117402380Y-114196666D02*
X117402380Y-114006190D01*
X117450000Y-113910952D01*
X117497619Y-113863333D01*
X117640476Y-113768095D01*
X117830952Y-113720476D01*
X118211904Y-113720476D01*
X118307142Y-113768095D01*
X118354761Y-113815714D01*
X118402380Y-113910952D01*
X118402380Y-114101428D01*
X118354761Y-114196666D01*
X118307142Y-114244285D01*
X118211904Y-114291904D01*
X117973809Y-114291904D01*
X117878571Y-114244285D01*
X117830952Y-114196666D01*
X117783333Y-114101428D01*
X117783333Y-113910952D01*
X117830952Y-113815714D01*
X117878571Y-113768095D01*
X117973809Y-113720476D01*
%TO.C,R35*%
X149232857Y-97447380D02*
X149566190Y-96971190D01*
X149804285Y-97447380D02*
X149804285Y-96447380D01*
X149423333Y-96447380D01*
X149328095Y-96495000D01*
X149280476Y-96542619D01*
X149232857Y-96637857D01*
X149232857Y-96780714D01*
X149280476Y-96875952D01*
X149328095Y-96923571D01*
X149423333Y-96971190D01*
X149804285Y-96971190D01*
X148899523Y-96447380D02*
X148280476Y-96447380D01*
X148613809Y-96828333D01*
X148470952Y-96828333D01*
X148375714Y-96875952D01*
X148328095Y-96923571D01*
X148280476Y-97018809D01*
X148280476Y-97256904D01*
X148328095Y-97352142D01*
X148375714Y-97399761D01*
X148470952Y-97447380D01*
X148756666Y-97447380D01*
X148851904Y-97399761D01*
X148899523Y-97352142D01*
X147375714Y-96447380D02*
X147851904Y-96447380D01*
X147899523Y-96923571D01*
X147851904Y-96875952D01*
X147756666Y-96828333D01*
X147518571Y-96828333D01*
X147423333Y-96875952D01*
X147375714Y-96923571D01*
X147328095Y-97018809D01*
X147328095Y-97256904D01*
X147375714Y-97352142D01*
X147423333Y-97399761D01*
X147518571Y-97447380D01*
X147756666Y-97447380D01*
X147851904Y-97399761D01*
X147899523Y-97352142D01*
%TO.C,R34*%
X144152857Y-100622380D02*
X144486190Y-100146190D01*
X144724285Y-100622380D02*
X144724285Y-99622380D01*
X144343333Y-99622380D01*
X144248095Y-99670000D01*
X144200476Y-99717619D01*
X144152857Y-99812857D01*
X144152857Y-99955714D01*
X144200476Y-100050952D01*
X144248095Y-100098571D01*
X144343333Y-100146190D01*
X144724285Y-100146190D01*
X143819523Y-99622380D02*
X143200476Y-99622380D01*
X143533809Y-100003333D01*
X143390952Y-100003333D01*
X143295714Y-100050952D01*
X143248095Y-100098571D01*
X143200476Y-100193809D01*
X143200476Y-100431904D01*
X143248095Y-100527142D01*
X143295714Y-100574761D01*
X143390952Y-100622380D01*
X143676666Y-100622380D01*
X143771904Y-100574761D01*
X143819523Y-100527142D01*
X142343333Y-99955714D02*
X142343333Y-100622380D01*
X142581428Y-99574761D02*
X142819523Y-100289047D01*
X142200476Y-100289047D01*
%TO.C,R33*%
X144152857Y-97447380D02*
X144486190Y-96971190D01*
X144724285Y-97447380D02*
X144724285Y-96447380D01*
X144343333Y-96447380D01*
X144248095Y-96495000D01*
X144200476Y-96542619D01*
X144152857Y-96637857D01*
X144152857Y-96780714D01*
X144200476Y-96875952D01*
X144248095Y-96923571D01*
X144343333Y-96971190D01*
X144724285Y-96971190D01*
X143819523Y-96447380D02*
X143200476Y-96447380D01*
X143533809Y-96828333D01*
X143390952Y-96828333D01*
X143295714Y-96875952D01*
X143248095Y-96923571D01*
X143200476Y-97018809D01*
X143200476Y-97256904D01*
X143248095Y-97352142D01*
X143295714Y-97399761D01*
X143390952Y-97447380D01*
X143676666Y-97447380D01*
X143771904Y-97399761D01*
X143819523Y-97352142D01*
X142867142Y-96447380D02*
X142248095Y-96447380D01*
X142581428Y-96828333D01*
X142438571Y-96828333D01*
X142343333Y-96875952D01*
X142295714Y-96923571D01*
X142248095Y-97018809D01*
X142248095Y-97256904D01*
X142295714Y-97352142D01*
X142343333Y-97399761D01*
X142438571Y-97447380D01*
X142724285Y-97447380D01*
X142819523Y-97399761D01*
X142867142Y-97352142D01*
%TO.C,R32*%
X144152857Y-103797380D02*
X144486190Y-103321190D01*
X144724285Y-103797380D02*
X144724285Y-102797380D01*
X144343333Y-102797380D01*
X144248095Y-102845000D01*
X144200476Y-102892619D01*
X144152857Y-102987857D01*
X144152857Y-103130714D01*
X144200476Y-103225952D01*
X144248095Y-103273571D01*
X144343333Y-103321190D01*
X144724285Y-103321190D01*
X143819523Y-102797380D02*
X143200476Y-102797380D01*
X143533809Y-103178333D01*
X143390952Y-103178333D01*
X143295714Y-103225952D01*
X143248095Y-103273571D01*
X143200476Y-103368809D01*
X143200476Y-103606904D01*
X143248095Y-103702142D01*
X143295714Y-103749761D01*
X143390952Y-103797380D01*
X143676666Y-103797380D01*
X143771904Y-103749761D01*
X143819523Y-103702142D01*
X142819523Y-102892619D02*
X142771904Y-102845000D01*
X142676666Y-102797380D01*
X142438571Y-102797380D01*
X142343333Y-102845000D01*
X142295714Y-102892619D01*
X142248095Y-102987857D01*
X142248095Y-103083095D01*
X142295714Y-103225952D01*
X142867142Y-103797380D01*
X142248095Y-103797380D01*
%TO.C,R31*%
X130787380Y-99052142D02*
X130311190Y-98718809D01*
X130787380Y-98480714D02*
X129787380Y-98480714D01*
X129787380Y-98861666D01*
X129835000Y-98956904D01*
X129882619Y-99004523D01*
X129977857Y-99052142D01*
X130120714Y-99052142D01*
X130215952Y-99004523D01*
X130263571Y-98956904D01*
X130311190Y-98861666D01*
X130311190Y-98480714D01*
X129787380Y-99385476D02*
X129787380Y-100004523D01*
X130168333Y-99671190D01*
X130168333Y-99814047D01*
X130215952Y-99909285D01*
X130263571Y-99956904D01*
X130358809Y-100004523D01*
X130596904Y-100004523D01*
X130692142Y-99956904D01*
X130739761Y-99909285D01*
X130787380Y-99814047D01*
X130787380Y-99528333D01*
X130739761Y-99433095D01*
X130692142Y-99385476D01*
X130787380Y-100956904D02*
X130787380Y-100385476D01*
X130787380Y-100671190D02*
X129787380Y-100671190D01*
X129930238Y-100575952D01*
X130025476Y-100480714D01*
X130073095Y-100385476D01*
%TO.C,R30*%
X127612380Y-99052142D02*
X127136190Y-98718809D01*
X127612380Y-98480714D02*
X126612380Y-98480714D01*
X126612380Y-98861666D01*
X126660000Y-98956904D01*
X126707619Y-99004523D01*
X126802857Y-99052142D01*
X126945714Y-99052142D01*
X127040952Y-99004523D01*
X127088571Y-98956904D01*
X127136190Y-98861666D01*
X127136190Y-98480714D01*
X126612380Y-99385476D02*
X126612380Y-100004523D01*
X126993333Y-99671190D01*
X126993333Y-99814047D01*
X127040952Y-99909285D01*
X127088571Y-99956904D01*
X127183809Y-100004523D01*
X127421904Y-100004523D01*
X127517142Y-99956904D01*
X127564761Y-99909285D01*
X127612380Y-99814047D01*
X127612380Y-99528333D01*
X127564761Y-99433095D01*
X127517142Y-99385476D01*
X126612380Y-100623571D02*
X126612380Y-100718809D01*
X126660000Y-100814047D01*
X126707619Y-100861666D01*
X126802857Y-100909285D01*
X126993333Y-100956904D01*
X127231428Y-100956904D01*
X127421904Y-100909285D01*
X127517142Y-100861666D01*
X127564761Y-100814047D01*
X127612380Y-100718809D01*
X127612380Y-100623571D01*
X127564761Y-100528333D01*
X127517142Y-100480714D01*
X127421904Y-100433095D01*
X127231428Y-100385476D01*
X126993333Y-100385476D01*
X126802857Y-100433095D01*
X126707619Y-100480714D01*
X126660000Y-100528333D01*
X126612380Y-100623571D01*
%TO.C,R29*%
X118402380Y-99052142D02*
X117926190Y-98718809D01*
X118402380Y-98480714D02*
X117402380Y-98480714D01*
X117402380Y-98861666D01*
X117450000Y-98956904D01*
X117497619Y-99004523D01*
X117592857Y-99052142D01*
X117735714Y-99052142D01*
X117830952Y-99004523D01*
X117878571Y-98956904D01*
X117926190Y-98861666D01*
X117926190Y-98480714D01*
X117497619Y-99433095D02*
X117450000Y-99480714D01*
X117402380Y-99575952D01*
X117402380Y-99814047D01*
X117450000Y-99909285D01*
X117497619Y-99956904D01*
X117592857Y-100004523D01*
X117688095Y-100004523D01*
X117830952Y-99956904D01*
X118402380Y-99385476D01*
X118402380Y-100004523D01*
X118402380Y-100480714D02*
X118402380Y-100671190D01*
X118354761Y-100766428D01*
X118307142Y-100814047D01*
X118164285Y-100909285D01*
X117973809Y-100956904D01*
X117592857Y-100956904D01*
X117497619Y-100909285D01*
X117450000Y-100861666D01*
X117402380Y-100766428D01*
X117402380Y-100575952D01*
X117450000Y-100480714D01*
X117497619Y-100433095D01*
X117592857Y-100385476D01*
X117830952Y-100385476D01*
X117926190Y-100433095D01*
X117973809Y-100480714D01*
X118021428Y-100575952D01*
X118021428Y-100766428D01*
X117973809Y-100861666D01*
X117926190Y-100909285D01*
X117830952Y-100956904D01*
%TO.C,R28*%
X149232857Y-84112380D02*
X149566190Y-83636190D01*
X149804285Y-84112380D02*
X149804285Y-83112380D01*
X149423333Y-83112380D01*
X149328095Y-83160000D01*
X149280476Y-83207619D01*
X149232857Y-83302857D01*
X149232857Y-83445714D01*
X149280476Y-83540952D01*
X149328095Y-83588571D01*
X149423333Y-83636190D01*
X149804285Y-83636190D01*
X148851904Y-83207619D02*
X148804285Y-83160000D01*
X148709047Y-83112380D01*
X148470952Y-83112380D01*
X148375714Y-83160000D01*
X148328095Y-83207619D01*
X148280476Y-83302857D01*
X148280476Y-83398095D01*
X148328095Y-83540952D01*
X148899523Y-84112380D01*
X148280476Y-84112380D01*
X147709047Y-83540952D02*
X147804285Y-83493333D01*
X147851904Y-83445714D01*
X147899523Y-83350476D01*
X147899523Y-83302857D01*
X147851904Y-83207619D01*
X147804285Y-83160000D01*
X147709047Y-83112380D01*
X147518571Y-83112380D01*
X147423333Y-83160000D01*
X147375714Y-83207619D01*
X147328095Y-83302857D01*
X147328095Y-83350476D01*
X147375714Y-83445714D01*
X147423333Y-83493333D01*
X147518571Y-83540952D01*
X147709047Y-83540952D01*
X147804285Y-83588571D01*
X147851904Y-83636190D01*
X147899523Y-83731428D01*
X147899523Y-83921904D01*
X147851904Y-84017142D01*
X147804285Y-84064761D01*
X147709047Y-84112380D01*
X147518571Y-84112380D01*
X147423333Y-84064761D01*
X147375714Y-84017142D01*
X147328095Y-83921904D01*
X147328095Y-83731428D01*
X147375714Y-83636190D01*
X147423333Y-83588571D01*
X147518571Y-83540952D01*
%TO.C,R27*%
X144152857Y-87287380D02*
X144486190Y-86811190D01*
X144724285Y-87287380D02*
X144724285Y-86287380D01*
X144343333Y-86287380D01*
X144248095Y-86335000D01*
X144200476Y-86382619D01*
X144152857Y-86477857D01*
X144152857Y-86620714D01*
X144200476Y-86715952D01*
X144248095Y-86763571D01*
X144343333Y-86811190D01*
X144724285Y-86811190D01*
X143771904Y-86382619D02*
X143724285Y-86335000D01*
X143629047Y-86287380D01*
X143390952Y-86287380D01*
X143295714Y-86335000D01*
X143248095Y-86382619D01*
X143200476Y-86477857D01*
X143200476Y-86573095D01*
X143248095Y-86715952D01*
X143819523Y-87287380D01*
X143200476Y-87287380D01*
X142867142Y-86287380D02*
X142200476Y-86287380D01*
X142629047Y-87287380D01*
%TO.C,R26*%
X144152857Y-84112380D02*
X144486190Y-83636190D01*
X144724285Y-84112380D02*
X144724285Y-83112380D01*
X144343333Y-83112380D01*
X144248095Y-83160000D01*
X144200476Y-83207619D01*
X144152857Y-83302857D01*
X144152857Y-83445714D01*
X144200476Y-83540952D01*
X144248095Y-83588571D01*
X144343333Y-83636190D01*
X144724285Y-83636190D01*
X143771904Y-83207619D02*
X143724285Y-83160000D01*
X143629047Y-83112380D01*
X143390952Y-83112380D01*
X143295714Y-83160000D01*
X143248095Y-83207619D01*
X143200476Y-83302857D01*
X143200476Y-83398095D01*
X143248095Y-83540952D01*
X143819523Y-84112380D01*
X143200476Y-84112380D01*
X142343333Y-83112380D02*
X142533809Y-83112380D01*
X142629047Y-83160000D01*
X142676666Y-83207619D01*
X142771904Y-83350476D01*
X142819523Y-83540952D01*
X142819523Y-83921904D01*
X142771904Y-84017142D01*
X142724285Y-84064761D01*
X142629047Y-84112380D01*
X142438571Y-84112380D01*
X142343333Y-84064761D01*
X142295714Y-84017142D01*
X142248095Y-83921904D01*
X142248095Y-83683809D01*
X142295714Y-83588571D01*
X142343333Y-83540952D01*
X142438571Y-83493333D01*
X142629047Y-83493333D01*
X142724285Y-83540952D01*
X142771904Y-83588571D01*
X142819523Y-83683809D01*
%TO.C,R25*%
X144152857Y-92367380D02*
X144486190Y-91891190D01*
X144724285Y-92367380D02*
X144724285Y-91367380D01*
X144343333Y-91367380D01*
X144248095Y-91415000D01*
X144200476Y-91462619D01*
X144152857Y-91557857D01*
X144152857Y-91700714D01*
X144200476Y-91795952D01*
X144248095Y-91843571D01*
X144343333Y-91891190D01*
X144724285Y-91891190D01*
X143771904Y-91462619D02*
X143724285Y-91415000D01*
X143629047Y-91367380D01*
X143390952Y-91367380D01*
X143295714Y-91415000D01*
X143248095Y-91462619D01*
X143200476Y-91557857D01*
X143200476Y-91653095D01*
X143248095Y-91795952D01*
X143819523Y-92367380D01*
X143200476Y-92367380D01*
X142295714Y-91367380D02*
X142771904Y-91367380D01*
X142819523Y-91843571D01*
X142771904Y-91795952D01*
X142676666Y-91748333D01*
X142438571Y-91748333D01*
X142343333Y-91795952D01*
X142295714Y-91843571D01*
X142248095Y-91938809D01*
X142248095Y-92176904D01*
X142295714Y-92272142D01*
X142343333Y-92319761D01*
X142438571Y-92367380D01*
X142676666Y-92367380D01*
X142771904Y-92319761D01*
X142819523Y-92272142D01*
%TO.C,R24*%
X130787380Y-85717142D02*
X130311190Y-85383809D01*
X130787380Y-85145714D02*
X129787380Y-85145714D01*
X129787380Y-85526666D01*
X129835000Y-85621904D01*
X129882619Y-85669523D01*
X129977857Y-85717142D01*
X130120714Y-85717142D01*
X130215952Y-85669523D01*
X130263571Y-85621904D01*
X130311190Y-85526666D01*
X130311190Y-85145714D01*
X129882619Y-86098095D02*
X129835000Y-86145714D01*
X129787380Y-86240952D01*
X129787380Y-86479047D01*
X129835000Y-86574285D01*
X129882619Y-86621904D01*
X129977857Y-86669523D01*
X130073095Y-86669523D01*
X130215952Y-86621904D01*
X130787380Y-86050476D01*
X130787380Y-86669523D01*
X130120714Y-87526666D02*
X130787380Y-87526666D01*
X129739761Y-87288571D02*
X130454047Y-87050476D01*
X130454047Y-87669523D01*
%TO.C,R23*%
X127612380Y-85717142D02*
X127136190Y-85383809D01*
X127612380Y-85145714D02*
X126612380Y-85145714D01*
X126612380Y-85526666D01*
X126660000Y-85621904D01*
X126707619Y-85669523D01*
X126802857Y-85717142D01*
X126945714Y-85717142D01*
X127040952Y-85669523D01*
X127088571Y-85621904D01*
X127136190Y-85526666D01*
X127136190Y-85145714D01*
X126707619Y-86098095D02*
X126660000Y-86145714D01*
X126612380Y-86240952D01*
X126612380Y-86479047D01*
X126660000Y-86574285D01*
X126707619Y-86621904D01*
X126802857Y-86669523D01*
X126898095Y-86669523D01*
X127040952Y-86621904D01*
X127612380Y-86050476D01*
X127612380Y-86669523D01*
X126612380Y-87002857D02*
X126612380Y-87621904D01*
X126993333Y-87288571D01*
X126993333Y-87431428D01*
X127040952Y-87526666D01*
X127088571Y-87574285D01*
X127183809Y-87621904D01*
X127421904Y-87621904D01*
X127517142Y-87574285D01*
X127564761Y-87526666D01*
X127612380Y-87431428D01*
X127612380Y-87145714D01*
X127564761Y-87050476D01*
X127517142Y-87002857D01*
%TO.C,R22*%
X118402380Y-85869642D02*
X117926190Y-85536309D01*
X118402380Y-85298214D02*
X117402380Y-85298214D01*
X117402380Y-85679166D01*
X117450000Y-85774404D01*
X117497619Y-85822023D01*
X117592857Y-85869642D01*
X117735714Y-85869642D01*
X117830952Y-85822023D01*
X117878571Y-85774404D01*
X117926190Y-85679166D01*
X117926190Y-85298214D01*
X117497619Y-86250595D02*
X117450000Y-86298214D01*
X117402380Y-86393452D01*
X117402380Y-86631547D01*
X117450000Y-86726785D01*
X117497619Y-86774404D01*
X117592857Y-86822023D01*
X117688095Y-86822023D01*
X117830952Y-86774404D01*
X118402380Y-86202976D01*
X118402380Y-86822023D01*
X117497619Y-87202976D02*
X117450000Y-87250595D01*
X117402380Y-87345833D01*
X117402380Y-87583928D01*
X117450000Y-87679166D01*
X117497619Y-87726785D01*
X117592857Y-87774404D01*
X117688095Y-87774404D01*
X117830952Y-87726785D01*
X118402380Y-87155357D01*
X118402380Y-87774404D01*
%TO.C,R21*%
X197492857Y-145072380D02*
X197826190Y-144596190D01*
X198064285Y-145072380D02*
X198064285Y-144072380D01*
X197683333Y-144072380D01*
X197588095Y-144120000D01*
X197540476Y-144167619D01*
X197492857Y-144262857D01*
X197492857Y-144405714D01*
X197540476Y-144500952D01*
X197588095Y-144548571D01*
X197683333Y-144596190D01*
X198064285Y-144596190D01*
X197111904Y-144167619D02*
X197064285Y-144120000D01*
X196969047Y-144072380D01*
X196730952Y-144072380D01*
X196635714Y-144120000D01*
X196588095Y-144167619D01*
X196540476Y-144262857D01*
X196540476Y-144358095D01*
X196588095Y-144500952D01*
X197159523Y-145072380D01*
X196540476Y-145072380D01*
X195588095Y-145072380D02*
X196159523Y-145072380D01*
X195873809Y-145072380D02*
X195873809Y-144072380D01*
X195969047Y-144215238D01*
X196064285Y-144310476D01*
X196159523Y-144358095D01*
%TO.C,R20*%
X197492857Y-137452380D02*
X197826190Y-136976190D01*
X198064285Y-137452380D02*
X198064285Y-136452380D01*
X197683333Y-136452380D01*
X197588095Y-136500000D01*
X197540476Y-136547619D01*
X197492857Y-136642857D01*
X197492857Y-136785714D01*
X197540476Y-136880952D01*
X197588095Y-136928571D01*
X197683333Y-136976190D01*
X198064285Y-136976190D01*
X197111904Y-136547619D02*
X197064285Y-136500000D01*
X196969047Y-136452380D01*
X196730952Y-136452380D01*
X196635714Y-136500000D01*
X196588095Y-136547619D01*
X196540476Y-136642857D01*
X196540476Y-136738095D01*
X196588095Y-136880952D01*
X197159523Y-137452380D01*
X196540476Y-137452380D01*
X195921428Y-136452380D02*
X195826190Y-136452380D01*
X195730952Y-136500000D01*
X195683333Y-136547619D01*
X195635714Y-136642857D01*
X195588095Y-136833333D01*
X195588095Y-137071428D01*
X195635714Y-137261904D01*
X195683333Y-137357142D01*
X195730952Y-137404761D01*
X195826190Y-137452380D01*
X195921428Y-137452380D01*
X196016666Y-137404761D01*
X196064285Y-137357142D01*
X196111904Y-137261904D01*
X196159523Y-137071428D01*
X196159523Y-136833333D01*
X196111904Y-136642857D01*
X196064285Y-136547619D01*
X196016666Y-136500000D01*
X195921428Y-136452380D01*
%TO.C,R19*%
X197492857Y-134277380D02*
X197826190Y-133801190D01*
X198064285Y-134277380D02*
X198064285Y-133277380D01*
X197683333Y-133277380D01*
X197588095Y-133325000D01*
X197540476Y-133372619D01*
X197492857Y-133467857D01*
X197492857Y-133610714D01*
X197540476Y-133705952D01*
X197588095Y-133753571D01*
X197683333Y-133801190D01*
X198064285Y-133801190D01*
X196540476Y-134277380D02*
X197111904Y-134277380D01*
X196826190Y-134277380D02*
X196826190Y-133277380D01*
X196921428Y-133420238D01*
X197016666Y-133515476D01*
X197111904Y-133563095D01*
X196064285Y-134277380D02*
X195873809Y-134277380D01*
X195778571Y-134229761D01*
X195730952Y-134182142D01*
X195635714Y-134039285D01*
X195588095Y-133848809D01*
X195588095Y-133467857D01*
X195635714Y-133372619D01*
X195683333Y-133325000D01*
X195778571Y-133277380D01*
X195969047Y-133277380D01*
X196064285Y-133325000D01*
X196111904Y-133372619D01*
X196159523Y-133467857D01*
X196159523Y-133705952D01*
X196111904Y-133801190D01*
X196064285Y-133848809D01*
X195969047Y-133896428D01*
X195778571Y-133896428D01*
X195683333Y-133848809D01*
X195635714Y-133801190D01*
X195588095Y-133705952D01*
%TO.C,R18*%
X183522857Y-145072380D02*
X183856190Y-144596190D01*
X184094285Y-145072380D02*
X184094285Y-144072380D01*
X183713333Y-144072380D01*
X183618095Y-144120000D01*
X183570476Y-144167619D01*
X183522857Y-144262857D01*
X183522857Y-144405714D01*
X183570476Y-144500952D01*
X183618095Y-144548571D01*
X183713333Y-144596190D01*
X184094285Y-144596190D01*
X182570476Y-145072380D02*
X183141904Y-145072380D01*
X182856190Y-145072380D02*
X182856190Y-144072380D01*
X182951428Y-144215238D01*
X183046666Y-144310476D01*
X183141904Y-144358095D01*
X181999047Y-144500952D02*
X182094285Y-144453333D01*
X182141904Y-144405714D01*
X182189523Y-144310476D01*
X182189523Y-144262857D01*
X182141904Y-144167619D01*
X182094285Y-144120000D01*
X181999047Y-144072380D01*
X181808571Y-144072380D01*
X181713333Y-144120000D01*
X181665714Y-144167619D01*
X181618095Y-144262857D01*
X181618095Y-144310476D01*
X181665714Y-144405714D01*
X181713333Y-144453333D01*
X181808571Y-144500952D01*
X181999047Y-144500952D01*
X182094285Y-144548571D01*
X182141904Y-144596190D01*
X182189523Y-144691428D01*
X182189523Y-144881904D01*
X182141904Y-144977142D01*
X182094285Y-145024761D01*
X181999047Y-145072380D01*
X181808571Y-145072380D01*
X181713333Y-145024761D01*
X181665714Y-144977142D01*
X181618095Y-144881904D01*
X181618095Y-144691428D01*
X181665714Y-144596190D01*
X181713333Y-144548571D01*
X181808571Y-144500952D01*
%TO.C,R17*%
X183522857Y-137452380D02*
X183856190Y-136976190D01*
X184094285Y-137452380D02*
X184094285Y-136452380D01*
X183713333Y-136452380D01*
X183618095Y-136500000D01*
X183570476Y-136547619D01*
X183522857Y-136642857D01*
X183522857Y-136785714D01*
X183570476Y-136880952D01*
X183618095Y-136928571D01*
X183713333Y-136976190D01*
X184094285Y-136976190D01*
X182570476Y-137452380D02*
X183141904Y-137452380D01*
X182856190Y-137452380D02*
X182856190Y-136452380D01*
X182951428Y-136595238D01*
X183046666Y-136690476D01*
X183141904Y-136738095D01*
X182237142Y-136452380D02*
X181570476Y-136452380D01*
X181999047Y-137452380D01*
%TO.C,R16*%
X183522857Y-134277380D02*
X183856190Y-133801190D01*
X184094285Y-134277380D02*
X184094285Y-133277380D01*
X183713333Y-133277380D01*
X183618095Y-133325000D01*
X183570476Y-133372619D01*
X183522857Y-133467857D01*
X183522857Y-133610714D01*
X183570476Y-133705952D01*
X183618095Y-133753571D01*
X183713333Y-133801190D01*
X184094285Y-133801190D01*
X182570476Y-134277380D02*
X183141904Y-134277380D01*
X182856190Y-134277380D02*
X182856190Y-133277380D01*
X182951428Y-133420238D01*
X183046666Y-133515476D01*
X183141904Y-133563095D01*
X181713333Y-133277380D02*
X181903809Y-133277380D01*
X181999047Y-133325000D01*
X182046666Y-133372619D01*
X182141904Y-133515476D01*
X182189523Y-133705952D01*
X182189523Y-134086904D01*
X182141904Y-134182142D01*
X182094285Y-134229761D01*
X181999047Y-134277380D01*
X181808571Y-134277380D01*
X181713333Y-134229761D01*
X181665714Y-134182142D01*
X181618095Y-134086904D01*
X181618095Y-133848809D01*
X181665714Y-133753571D01*
X181713333Y-133705952D01*
X181808571Y-133658333D01*
X181999047Y-133658333D01*
X182094285Y-133705952D01*
X182141904Y-133753571D01*
X182189523Y-133848809D01*
%TO.C,R15*%
X169552857Y-145072380D02*
X169886190Y-144596190D01*
X170124285Y-145072380D02*
X170124285Y-144072380D01*
X169743333Y-144072380D01*
X169648095Y-144120000D01*
X169600476Y-144167619D01*
X169552857Y-144262857D01*
X169552857Y-144405714D01*
X169600476Y-144500952D01*
X169648095Y-144548571D01*
X169743333Y-144596190D01*
X170124285Y-144596190D01*
X168600476Y-145072380D02*
X169171904Y-145072380D01*
X168886190Y-145072380D02*
X168886190Y-144072380D01*
X168981428Y-144215238D01*
X169076666Y-144310476D01*
X169171904Y-144358095D01*
X167695714Y-144072380D02*
X168171904Y-144072380D01*
X168219523Y-144548571D01*
X168171904Y-144500952D01*
X168076666Y-144453333D01*
X167838571Y-144453333D01*
X167743333Y-144500952D01*
X167695714Y-144548571D01*
X167648095Y-144643809D01*
X167648095Y-144881904D01*
X167695714Y-144977142D01*
X167743333Y-145024761D01*
X167838571Y-145072380D01*
X168076666Y-145072380D01*
X168171904Y-145024761D01*
X168219523Y-144977142D01*
%TO.C,R14*%
X169552857Y-137452380D02*
X169886190Y-136976190D01*
X170124285Y-137452380D02*
X170124285Y-136452380D01*
X169743333Y-136452380D01*
X169648095Y-136500000D01*
X169600476Y-136547619D01*
X169552857Y-136642857D01*
X169552857Y-136785714D01*
X169600476Y-136880952D01*
X169648095Y-136928571D01*
X169743333Y-136976190D01*
X170124285Y-136976190D01*
X168600476Y-137452380D02*
X169171904Y-137452380D01*
X168886190Y-137452380D02*
X168886190Y-136452380D01*
X168981428Y-136595238D01*
X169076666Y-136690476D01*
X169171904Y-136738095D01*
X167743333Y-136785714D02*
X167743333Y-137452380D01*
X167981428Y-136404761D02*
X168219523Y-137119047D01*
X167600476Y-137119047D01*
%TO.C,R13*%
X169552857Y-134277380D02*
X169886190Y-133801190D01*
X170124285Y-134277380D02*
X170124285Y-133277380D01*
X169743333Y-133277380D01*
X169648095Y-133325000D01*
X169600476Y-133372619D01*
X169552857Y-133467857D01*
X169552857Y-133610714D01*
X169600476Y-133705952D01*
X169648095Y-133753571D01*
X169743333Y-133801190D01*
X170124285Y-133801190D01*
X168600476Y-134277380D02*
X169171904Y-134277380D01*
X168886190Y-134277380D02*
X168886190Y-133277380D01*
X168981428Y-133420238D01*
X169076666Y-133515476D01*
X169171904Y-133563095D01*
X168267142Y-133277380D02*
X167648095Y-133277380D01*
X167981428Y-133658333D01*
X167838571Y-133658333D01*
X167743333Y-133705952D01*
X167695714Y-133753571D01*
X167648095Y-133848809D01*
X167648095Y-134086904D01*
X167695714Y-134182142D01*
X167743333Y-134229761D01*
X167838571Y-134277380D01*
X168124285Y-134277380D01*
X168219523Y-134229761D01*
X168267142Y-134182142D01*
%TO.C,R12*%
X155582857Y-145072380D02*
X155916190Y-144596190D01*
X156154285Y-145072380D02*
X156154285Y-144072380D01*
X155773333Y-144072380D01*
X155678095Y-144120000D01*
X155630476Y-144167619D01*
X155582857Y-144262857D01*
X155582857Y-144405714D01*
X155630476Y-144500952D01*
X155678095Y-144548571D01*
X155773333Y-144596190D01*
X156154285Y-144596190D01*
X154630476Y-145072380D02*
X155201904Y-145072380D01*
X154916190Y-145072380D02*
X154916190Y-144072380D01*
X155011428Y-144215238D01*
X155106666Y-144310476D01*
X155201904Y-144358095D01*
X154249523Y-144167619D02*
X154201904Y-144120000D01*
X154106666Y-144072380D01*
X153868571Y-144072380D01*
X153773333Y-144120000D01*
X153725714Y-144167619D01*
X153678095Y-144262857D01*
X153678095Y-144358095D01*
X153725714Y-144500952D01*
X154297142Y-145072380D01*
X153678095Y-145072380D01*
%TO.C,R11*%
X155582857Y-137452380D02*
X155916190Y-136976190D01*
X156154285Y-137452380D02*
X156154285Y-136452380D01*
X155773333Y-136452380D01*
X155678095Y-136500000D01*
X155630476Y-136547619D01*
X155582857Y-136642857D01*
X155582857Y-136785714D01*
X155630476Y-136880952D01*
X155678095Y-136928571D01*
X155773333Y-136976190D01*
X156154285Y-136976190D01*
X154630476Y-137452380D02*
X155201904Y-137452380D01*
X154916190Y-137452380D02*
X154916190Y-136452380D01*
X155011428Y-136595238D01*
X155106666Y-136690476D01*
X155201904Y-136738095D01*
X153678095Y-137452380D02*
X154249523Y-137452380D01*
X153963809Y-137452380D02*
X153963809Y-136452380D01*
X154059047Y-136595238D01*
X154154285Y-136690476D01*
X154249523Y-136738095D01*
%TO.C,R10*%
X155582857Y-134277380D02*
X155916190Y-133801190D01*
X156154285Y-134277380D02*
X156154285Y-133277380D01*
X155773333Y-133277380D01*
X155678095Y-133325000D01*
X155630476Y-133372619D01*
X155582857Y-133467857D01*
X155582857Y-133610714D01*
X155630476Y-133705952D01*
X155678095Y-133753571D01*
X155773333Y-133801190D01*
X156154285Y-133801190D01*
X154630476Y-134277380D02*
X155201904Y-134277380D01*
X154916190Y-134277380D02*
X154916190Y-133277380D01*
X155011428Y-133420238D01*
X155106666Y-133515476D01*
X155201904Y-133563095D01*
X154011428Y-133277380D02*
X153916190Y-133277380D01*
X153820952Y-133325000D01*
X153773333Y-133372619D01*
X153725714Y-133467857D01*
X153678095Y-133658333D01*
X153678095Y-133896428D01*
X153725714Y-134086904D01*
X153773333Y-134182142D01*
X153820952Y-134229761D01*
X153916190Y-134277380D01*
X154011428Y-134277380D01*
X154106666Y-134229761D01*
X154154285Y-134182142D01*
X154201904Y-134086904D01*
X154249523Y-133896428D01*
X154249523Y-133658333D01*
X154201904Y-133467857D01*
X154154285Y-133372619D01*
X154106666Y-133325000D01*
X154011428Y-133277380D01*
%TO.C,R9*%
X141136666Y-145072380D02*
X141470000Y-144596190D01*
X141708095Y-145072380D02*
X141708095Y-144072380D01*
X141327142Y-144072380D01*
X141231904Y-144120000D01*
X141184285Y-144167619D01*
X141136666Y-144262857D01*
X141136666Y-144405714D01*
X141184285Y-144500952D01*
X141231904Y-144548571D01*
X141327142Y-144596190D01*
X141708095Y-144596190D01*
X140660476Y-145072380D02*
X140470000Y-145072380D01*
X140374761Y-145024761D01*
X140327142Y-144977142D01*
X140231904Y-144834285D01*
X140184285Y-144643809D01*
X140184285Y-144262857D01*
X140231904Y-144167619D01*
X140279523Y-144120000D01*
X140374761Y-144072380D01*
X140565238Y-144072380D01*
X140660476Y-144120000D01*
X140708095Y-144167619D01*
X140755714Y-144262857D01*
X140755714Y-144500952D01*
X140708095Y-144596190D01*
X140660476Y-144643809D01*
X140565238Y-144691428D01*
X140374761Y-144691428D01*
X140279523Y-144643809D01*
X140231904Y-144596190D01*
X140184285Y-144500952D01*
%TO.C,R8*%
X141136666Y-137452380D02*
X141470000Y-136976190D01*
X141708095Y-137452380D02*
X141708095Y-136452380D01*
X141327142Y-136452380D01*
X141231904Y-136500000D01*
X141184285Y-136547619D01*
X141136666Y-136642857D01*
X141136666Y-136785714D01*
X141184285Y-136880952D01*
X141231904Y-136928571D01*
X141327142Y-136976190D01*
X141708095Y-136976190D01*
X140565238Y-136880952D02*
X140660476Y-136833333D01*
X140708095Y-136785714D01*
X140755714Y-136690476D01*
X140755714Y-136642857D01*
X140708095Y-136547619D01*
X140660476Y-136500000D01*
X140565238Y-136452380D01*
X140374761Y-136452380D01*
X140279523Y-136500000D01*
X140231904Y-136547619D01*
X140184285Y-136642857D01*
X140184285Y-136690476D01*
X140231904Y-136785714D01*
X140279523Y-136833333D01*
X140374761Y-136880952D01*
X140565238Y-136880952D01*
X140660476Y-136928571D01*
X140708095Y-136976190D01*
X140755714Y-137071428D01*
X140755714Y-137261904D01*
X140708095Y-137357142D01*
X140660476Y-137404761D01*
X140565238Y-137452380D01*
X140374761Y-137452380D01*
X140279523Y-137404761D01*
X140231904Y-137357142D01*
X140184285Y-137261904D01*
X140184285Y-137071428D01*
X140231904Y-136976190D01*
X140279523Y-136928571D01*
X140374761Y-136880952D01*
%TO.C,R7*%
X141136666Y-134277380D02*
X141470000Y-133801190D01*
X141708095Y-134277380D02*
X141708095Y-133277380D01*
X141327142Y-133277380D01*
X141231904Y-133325000D01*
X141184285Y-133372619D01*
X141136666Y-133467857D01*
X141136666Y-133610714D01*
X141184285Y-133705952D01*
X141231904Y-133753571D01*
X141327142Y-133801190D01*
X141708095Y-133801190D01*
X140803333Y-133277380D02*
X140136666Y-133277380D01*
X140565238Y-134277380D01*
%TO.C,R6*%
X127166666Y-145072380D02*
X127500000Y-144596190D01*
X127738095Y-145072380D02*
X127738095Y-144072380D01*
X127357142Y-144072380D01*
X127261904Y-144120000D01*
X127214285Y-144167619D01*
X127166666Y-144262857D01*
X127166666Y-144405714D01*
X127214285Y-144500952D01*
X127261904Y-144548571D01*
X127357142Y-144596190D01*
X127738095Y-144596190D01*
X126309523Y-144072380D02*
X126500000Y-144072380D01*
X126595238Y-144120000D01*
X126642857Y-144167619D01*
X126738095Y-144310476D01*
X126785714Y-144500952D01*
X126785714Y-144881904D01*
X126738095Y-144977142D01*
X126690476Y-145024761D01*
X126595238Y-145072380D01*
X126404761Y-145072380D01*
X126309523Y-145024761D01*
X126261904Y-144977142D01*
X126214285Y-144881904D01*
X126214285Y-144643809D01*
X126261904Y-144548571D01*
X126309523Y-144500952D01*
X126404761Y-144453333D01*
X126595238Y-144453333D01*
X126690476Y-144500952D01*
X126738095Y-144548571D01*
X126785714Y-144643809D01*
%TO.C,R5*%
X127166666Y-137452380D02*
X127500000Y-136976190D01*
X127738095Y-137452380D02*
X127738095Y-136452380D01*
X127357142Y-136452380D01*
X127261904Y-136500000D01*
X127214285Y-136547619D01*
X127166666Y-136642857D01*
X127166666Y-136785714D01*
X127214285Y-136880952D01*
X127261904Y-136928571D01*
X127357142Y-136976190D01*
X127738095Y-136976190D01*
X126261904Y-136452380D02*
X126738095Y-136452380D01*
X126785714Y-136928571D01*
X126738095Y-136880952D01*
X126642857Y-136833333D01*
X126404761Y-136833333D01*
X126309523Y-136880952D01*
X126261904Y-136928571D01*
X126214285Y-137023809D01*
X126214285Y-137261904D01*
X126261904Y-137357142D01*
X126309523Y-137404761D01*
X126404761Y-137452380D01*
X126642857Y-137452380D01*
X126738095Y-137404761D01*
X126785714Y-137357142D01*
%TO.C,R4*%
X127166666Y-134277380D02*
X127500000Y-133801190D01*
X127738095Y-134277380D02*
X127738095Y-133277380D01*
X127357142Y-133277380D01*
X127261904Y-133325000D01*
X127214285Y-133372619D01*
X127166666Y-133467857D01*
X127166666Y-133610714D01*
X127214285Y-133705952D01*
X127261904Y-133753571D01*
X127357142Y-133801190D01*
X127738095Y-133801190D01*
X126309523Y-133610714D02*
X126309523Y-134277380D01*
X126547619Y-133229761D02*
X126785714Y-133944047D01*
X126166666Y-133944047D01*
%TO.C,R3*%
X113196666Y-145072380D02*
X113530000Y-144596190D01*
X113768095Y-145072380D02*
X113768095Y-144072380D01*
X113387142Y-144072380D01*
X113291904Y-144120000D01*
X113244285Y-144167619D01*
X113196666Y-144262857D01*
X113196666Y-144405714D01*
X113244285Y-144500952D01*
X113291904Y-144548571D01*
X113387142Y-144596190D01*
X113768095Y-144596190D01*
X112863333Y-144072380D02*
X112244285Y-144072380D01*
X112577619Y-144453333D01*
X112434761Y-144453333D01*
X112339523Y-144500952D01*
X112291904Y-144548571D01*
X112244285Y-144643809D01*
X112244285Y-144881904D01*
X112291904Y-144977142D01*
X112339523Y-145024761D01*
X112434761Y-145072380D01*
X112720476Y-145072380D01*
X112815714Y-145024761D01*
X112863333Y-144977142D01*
%TO.C,R2*%
X113196666Y-137452380D02*
X113530000Y-136976190D01*
X113768095Y-137452380D02*
X113768095Y-136452380D01*
X113387142Y-136452380D01*
X113291904Y-136500000D01*
X113244285Y-136547619D01*
X113196666Y-136642857D01*
X113196666Y-136785714D01*
X113244285Y-136880952D01*
X113291904Y-136928571D01*
X113387142Y-136976190D01*
X113768095Y-136976190D01*
X112815714Y-136547619D02*
X112768095Y-136500000D01*
X112672857Y-136452380D01*
X112434761Y-136452380D01*
X112339523Y-136500000D01*
X112291904Y-136547619D01*
X112244285Y-136642857D01*
X112244285Y-136738095D01*
X112291904Y-136880952D01*
X112863333Y-137452380D01*
X112244285Y-137452380D01*
%TO.C,R1*%
X113196666Y-134277380D02*
X113530000Y-133801190D01*
X113768095Y-134277380D02*
X113768095Y-133277380D01*
X113387142Y-133277380D01*
X113291904Y-133325000D01*
X113244285Y-133372619D01*
X113196666Y-133467857D01*
X113196666Y-133610714D01*
X113244285Y-133705952D01*
X113291904Y-133753571D01*
X113387142Y-133801190D01*
X113768095Y-133801190D01*
X112244285Y-134277380D02*
X112815714Y-134277380D01*
X112530000Y-134277380D02*
X112530000Y-133277380D01*
X112625238Y-133420238D01*
X112720476Y-133515476D01*
X112815714Y-133563095D01*
%TO.C,Q24*%
X123126428Y-83057619D02*
X123221666Y-83010000D01*
X123316904Y-82914761D01*
X123459761Y-82771904D01*
X123555000Y-82724285D01*
X123650238Y-82724285D01*
X123602619Y-82962380D02*
X123697857Y-82914761D01*
X123793095Y-82819523D01*
X123840714Y-82629047D01*
X123840714Y-82295714D01*
X123793095Y-82105238D01*
X123697857Y-82010000D01*
X123602619Y-81962380D01*
X123412142Y-81962380D01*
X123316904Y-82010000D01*
X123221666Y-82105238D01*
X123174047Y-82295714D01*
X123174047Y-82629047D01*
X123221666Y-82819523D01*
X123316904Y-82914761D01*
X123412142Y-82962380D01*
X123602619Y-82962380D01*
X122793095Y-82057619D02*
X122745476Y-82010000D01*
X122650238Y-81962380D01*
X122412142Y-81962380D01*
X122316904Y-82010000D01*
X122269285Y-82057619D01*
X122221666Y-82152857D01*
X122221666Y-82248095D01*
X122269285Y-82390952D01*
X122840714Y-82962380D01*
X122221666Y-82962380D01*
X121364523Y-82295714D02*
X121364523Y-82962380D01*
X121602619Y-81914761D02*
X121840714Y-82629047D01*
X121221666Y-82629047D01*
%TO.C,Q23*%
X146637619Y-114363571D02*
X146590000Y-114268333D01*
X146494761Y-114173095D01*
X146351904Y-114030238D01*
X146304285Y-113935000D01*
X146304285Y-113839761D01*
X146542380Y-113887380D02*
X146494761Y-113792142D01*
X146399523Y-113696904D01*
X146209047Y-113649285D01*
X145875714Y-113649285D01*
X145685238Y-113696904D01*
X145590000Y-113792142D01*
X145542380Y-113887380D01*
X145542380Y-114077857D01*
X145590000Y-114173095D01*
X145685238Y-114268333D01*
X145875714Y-114315952D01*
X146209047Y-114315952D01*
X146399523Y-114268333D01*
X146494761Y-114173095D01*
X146542380Y-114077857D01*
X146542380Y-113887380D01*
X145637619Y-114696904D02*
X145590000Y-114744523D01*
X145542380Y-114839761D01*
X145542380Y-115077857D01*
X145590000Y-115173095D01*
X145637619Y-115220714D01*
X145732857Y-115268333D01*
X145828095Y-115268333D01*
X145970952Y-115220714D01*
X146542380Y-114649285D01*
X146542380Y-115268333D01*
X145542380Y-115601666D02*
X145542380Y-116220714D01*
X145923333Y-115887380D01*
X145923333Y-116030238D01*
X145970952Y-116125476D01*
X146018571Y-116173095D01*
X146113809Y-116220714D01*
X146351904Y-116220714D01*
X146447142Y-116173095D01*
X146494761Y-116125476D01*
X146542380Y-116030238D01*
X146542380Y-115744523D01*
X146494761Y-115649285D01*
X146447142Y-115601666D01*
%TO.C,Q22*%
X157337619Y-113483571D02*
X157290000Y-113388333D01*
X157194761Y-113293095D01*
X157051904Y-113150238D01*
X157004285Y-113055000D01*
X157004285Y-112959761D01*
X157242380Y-113007380D02*
X157194761Y-112912142D01*
X157099523Y-112816904D01*
X156909047Y-112769285D01*
X156575714Y-112769285D01*
X156385238Y-112816904D01*
X156290000Y-112912142D01*
X156242380Y-113007380D01*
X156242380Y-113197857D01*
X156290000Y-113293095D01*
X156385238Y-113388333D01*
X156575714Y-113435952D01*
X156909047Y-113435952D01*
X157099523Y-113388333D01*
X157194761Y-113293095D01*
X157242380Y-113197857D01*
X157242380Y-113007380D01*
X156337619Y-113816904D02*
X156290000Y-113864523D01*
X156242380Y-113959761D01*
X156242380Y-114197857D01*
X156290000Y-114293095D01*
X156337619Y-114340714D01*
X156432857Y-114388333D01*
X156528095Y-114388333D01*
X156670952Y-114340714D01*
X157242380Y-113769285D01*
X157242380Y-114388333D01*
X156337619Y-114769285D02*
X156290000Y-114816904D01*
X156242380Y-114912142D01*
X156242380Y-115150238D01*
X156290000Y-115245476D01*
X156337619Y-115293095D01*
X156432857Y-115340714D01*
X156528095Y-115340714D01*
X156670952Y-115293095D01*
X157242380Y-114721666D01*
X157242380Y-115340714D01*
%TO.C,Q21*%
X123126428Y-116077619D02*
X123221666Y-116030000D01*
X123316904Y-115934761D01*
X123459761Y-115791904D01*
X123555000Y-115744285D01*
X123650238Y-115744285D01*
X123602619Y-115982380D02*
X123697857Y-115934761D01*
X123793095Y-115839523D01*
X123840714Y-115649047D01*
X123840714Y-115315714D01*
X123793095Y-115125238D01*
X123697857Y-115030000D01*
X123602619Y-114982380D01*
X123412142Y-114982380D01*
X123316904Y-115030000D01*
X123221666Y-115125238D01*
X123174047Y-115315714D01*
X123174047Y-115649047D01*
X123221666Y-115839523D01*
X123316904Y-115934761D01*
X123412142Y-115982380D01*
X123602619Y-115982380D01*
X122793095Y-115077619D02*
X122745476Y-115030000D01*
X122650238Y-114982380D01*
X122412142Y-114982380D01*
X122316904Y-115030000D01*
X122269285Y-115077619D01*
X122221666Y-115172857D01*
X122221666Y-115268095D01*
X122269285Y-115410952D01*
X122840714Y-115982380D01*
X122221666Y-115982380D01*
X121269285Y-115982380D02*
X121840714Y-115982380D01*
X121555000Y-115982380D02*
X121555000Y-114982380D01*
X121650238Y-115125238D01*
X121745476Y-115220476D01*
X121840714Y-115268095D01*
%TO.C,Q20*%
X146637619Y-101028571D02*
X146590000Y-100933333D01*
X146494761Y-100838095D01*
X146351904Y-100695238D01*
X146304285Y-100600000D01*
X146304285Y-100504761D01*
X146542380Y-100552380D02*
X146494761Y-100457142D01*
X146399523Y-100361904D01*
X146209047Y-100314285D01*
X145875714Y-100314285D01*
X145685238Y-100361904D01*
X145590000Y-100457142D01*
X145542380Y-100552380D01*
X145542380Y-100742857D01*
X145590000Y-100838095D01*
X145685238Y-100933333D01*
X145875714Y-100980952D01*
X146209047Y-100980952D01*
X146399523Y-100933333D01*
X146494761Y-100838095D01*
X146542380Y-100742857D01*
X146542380Y-100552380D01*
X145637619Y-101361904D02*
X145590000Y-101409523D01*
X145542380Y-101504761D01*
X145542380Y-101742857D01*
X145590000Y-101838095D01*
X145637619Y-101885714D01*
X145732857Y-101933333D01*
X145828095Y-101933333D01*
X145970952Y-101885714D01*
X146542380Y-101314285D01*
X146542380Y-101933333D01*
X145542380Y-102552380D02*
X145542380Y-102647619D01*
X145590000Y-102742857D01*
X145637619Y-102790476D01*
X145732857Y-102838095D01*
X145923333Y-102885714D01*
X146161428Y-102885714D01*
X146351904Y-102838095D01*
X146447142Y-102790476D01*
X146494761Y-102742857D01*
X146542380Y-102647619D01*
X146542380Y-102552380D01*
X146494761Y-102457142D01*
X146447142Y-102409523D01*
X146351904Y-102361904D01*
X146161428Y-102314285D01*
X145923333Y-102314285D01*
X145732857Y-102361904D01*
X145637619Y-102409523D01*
X145590000Y-102457142D01*
X145542380Y-102552380D01*
%TO.C,Q19*%
X157337619Y-99513571D02*
X157290000Y-99418333D01*
X157194761Y-99323095D01*
X157051904Y-99180238D01*
X157004285Y-99085000D01*
X157004285Y-98989761D01*
X157242380Y-99037380D02*
X157194761Y-98942142D01*
X157099523Y-98846904D01*
X156909047Y-98799285D01*
X156575714Y-98799285D01*
X156385238Y-98846904D01*
X156290000Y-98942142D01*
X156242380Y-99037380D01*
X156242380Y-99227857D01*
X156290000Y-99323095D01*
X156385238Y-99418333D01*
X156575714Y-99465952D01*
X156909047Y-99465952D01*
X157099523Y-99418333D01*
X157194761Y-99323095D01*
X157242380Y-99227857D01*
X157242380Y-99037380D01*
X157242380Y-100418333D02*
X157242380Y-99846904D01*
X157242380Y-100132619D02*
X156242380Y-100132619D01*
X156385238Y-100037380D01*
X156480476Y-99942142D01*
X156528095Y-99846904D01*
X157242380Y-100894523D02*
X157242380Y-101085000D01*
X157194761Y-101180238D01*
X157147142Y-101227857D01*
X157004285Y-101323095D01*
X156813809Y-101370714D01*
X156432857Y-101370714D01*
X156337619Y-101323095D01*
X156290000Y-101275476D01*
X156242380Y-101180238D01*
X156242380Y-100989761D01*
X156290000Y-100894523D01*
X156337619Y-100846904D01*
X156432857Y-100799285D01*
X156670952Y-100799285D01*
X156766190Y-100846904D01*
X156813809Y-100894523D01*
X156861428Y-100989761D01*
X156861428Y-101180238D01*
X156813809Y-101275476D01*
X156766190Y-101323095D01*
X156670952Y-101370714D01*
%TO.C,Q18*%
X123126428Y-102742619D02*
X123221666Y-102695000D01*
X123316904Y-102599761D01*
X123459761Y-102456904D01*
X123555000Y-102409285D01*
X123650238Y-102409285D01*
X123602619Y-102647380D02*
X123697857Y-102599761D01*
X123793095Y-102504523D01*
X123840714Y-102314047D01*
X123840714Y-101980714D01*
X123793095Y-101790238D01*
X123697857Y-101695000D01*
X123602619Y-101647380D01*
X123412142Y-101647380D01*
X123316904Y-101695000D01*
X123221666Y-101790238D01*
X123174047Y-101980714D01*
X123174047Y-102314047D01*
X123221666Y-102504523D01*
X123316904Y-102599761D01*
X123412142Y-102647380D01*
X123602619Y-102647380D01*
X122221666Y-102647380D02*
X122793095Y-102647380D01*
X122507380Y-102647380D02*
X122507380Y-101647380D01*
X122602619Y-101790238D01*
X122697857Y-101885476D01*
X122793095Y-101933095D01*
X121650238Y-102075952D02*
X121745476Y-102028333D01*
X121793095Y-101980714D01*
X121840714Y-101885476D01*
X121840714Y-101837857D01*
X121793095Y-101742619D01*
X121745476Y-101695000D01*
X121650238Y-101647380D01*
X121459761Y-101647380D01*
X121364523Y-101695000D01*
X121316904Y-101742619D01*
X121269285Y-101837857D01*
X121269285Y-101885476D01*
X121316904Y-101980714D01*
X121364523Y-102028333D01*
X121459761Y-102075952D01*
X121650238Y-102075952D01*
X121745476Y-102123571D01*
X121793095Y-102171190D01*
X121840714Y-102266428D01*
X121840714Y-102456904D01*
X121793095Y-102552142D01*
X121745476Y-102599761D01*
X121650238Y-102647380D01*
X121459761Y-102647380D01*
X121364523Y-102599761D01*
X121316904Y-102552142D01*
X121269285Y-102456904D01*
X121269285Y-102266428D01*
X121316904Y-102171190D01*
X121364523Y-102123571D01*
X121459761Y-102075952D01*
%TO.C,Q17*%
X146637619Y-87693571D02*
X146590000Y-87598333D01*
X146494761Y-87503095D01*
X146351904Y-87360238D01*
X146304285Y-87265000D01*
X146304285Y-87169761D01*
X146542380Y-87217380D02*
X146494761Y-87122142D01*
X146399523Y-87026904D01*
X146209047Y-86979285D01*
X145875714Y-86979285D01*
X145685238Y-87026904D01*
X145590000Y-87122142D01*
X145542380Y-87217380D01*
X145542380Y-87407857D01*
X145590000Y-87503095D01*
X145685238Y-87598333D01*
X145875714Y-87645952D01*
X146209047Y-87645952D01*
X146399523Y-87598333D01*
X146494761Y-87503095D01*
X146542380Y-87407857D01*
X146542380Y-87217380D01*
X146542380Y-88598333D02*
X146542380Y-88026904D01*
X146542380Y-88312619D02*
X145542380Y-88312619D01*
X145685238Y-88217380D01*
X145780476Y-88122142D01*
X145828095Y-88026904D01*
X145542380Y-88931666D02*
X145542380Y-89598333D01*
X146542380Y-89169761D01*
%TO.C,Q16*%
X157972619Y-85543571D02*
X157925000Y-85448333D01*
X157829761Y-85353095D01*
X157686904Y-85210238D01*
X157639285Y-85115000D01*
X157639285Y-85019761D01*
X157877380Y-85067380D02*
X157829761Y-84972142D01*
X157734523Y-84876904D01*
X157544047Y-84829285D01*
X157210714Y-84829285D01*
X157020238Y-84876904D01*
X156925000Y-84972142D01*
X156877380Y-85067380D01*
X156877380Y-85257857D01*
X156925000Y-85353095D01*
X157020238Y-85448333D01*
X157210714Y-85495952D01*
X157544047Y-85495952D01*
X157734523Y-85448333D01*
X157829761Y-85353095D01*
X157877380Y-85257857D01*
X157877380Y-85067380D01*
X157877380Y-86448333D02*
X157877380Y-85876904D01*
X157877380Y-86162619D02*
X156877380Y-86162619D01*
X157020238Y-86067380D01*
X157115476Y-85972142D01*
X157163095Y-85876904D01*
X156877380Y-87305476D02*
X156877380Y-87115000D01*
X156925000Y-87019761D01*
X156972619Y-86972142D01*
X157115476Y-86876904D01*
X157305952Y-86829285D01*
X157686904Y-86829285D01*
X157782142Y-86876904D01*
X157829761Y-86924523D01*
X157877380Y-87019761D01*
X157877380Y-87210238D01*
X157829761Y-87305476D01*
X157782142Y-87353095D01*
X157686904Y-87400714D01*
X157448809Y-87400714D01*
X157353571Y-87353095D01*
X157305952Y-87305476D01*
X157258333Y-87210238D01*
X157258333Y-87019761D01*
X157305952Y-86924523D01*
X157353571Y-86876904D01*
X157448809Y-86829285D01*
%TO.C,Q15*%
X123126428Y-89407619D02*
X123221666Y-89360000D01*
X123316904Y-89264761D01*
X123459761Y-89121904D01*
X123555000Y-89074285D01*
X123650238Y-89074285D01*
X123602619Y-89312380D02*
X123697857Y-89264761D01*
X123793095Y-89169523D01*
X123840714Y-88979047D01*
X123840714Y-88645714D01*
X123793095Y-88455238D01*
X123697857Y-88360000D01*
X123602619Y-88312380D01*
X123412142Y-88312380D01*
X123316904Y-88360000D01*
X123221666Y-88455238D01*
X123174047Y-88645714D01*
X123174047Y-88979047D01*
X123221666Y-89169523D01*
X123316904Y-89264761D01*
X123412142Y-89312380D01*
X123602619Y-89312380D01*
X122221666Y-89312380D02*
X122793095Y-89312380D01*
X122507380Y-89312380D02*
X122507380Y-88312380D01*
X122602619Y-88455238D01*
X122697857Y-88550476D01*
X122793095Y-88598095D01*
X121316904Y-88312380D02*
X121793095Y-88312380D01*
X121840714Y-88788571D01*
X121793095Y-88740952D01*
X121697857Y-88693333D01*
X121459761Y-88693333D01*
X121364523Y-88740952D01*
X121316904Y-88788571D01*
X121269285Y-88883809D01*
X121269285Y-89121904D01*
X121316904Y-89217142D01*
X121364523Y-89264761D01*
X121459761Y-89312380D01*
X121697857Y-89312380D01*
X121793095Y-89264761D01*
X121840714Y-89217142D01*
%TO.C,Q14*%
X190436428Y-134532619D02*
X190531666Y-134485000D01*
X190626904Y-134389761D01*
X190769761Y-134246904D01*
X190865000Y-134199285D01*
X190960238Y-134199285D01*
X190912619Y-134437380D02*
X191007857Y-134389761D01*
X191103095Y-134294523D01*
X191150714Y-134104047D01*
X191150714Y-133770714D01*
X191103095Y-133580238D01*
X191007857Y-133485000D01*
X190912619Y-133437380D01*
X190722142Y-133437380D01*
X190626904Y-133485000D01*
X190531666Y-133580238D01*
X190484047Y-133770714D01*
X190484047Y-134104047D01*
X190531666Y-134294523D01*
X190626904Y-134389761D01*
X190722142Y-134437380D01*
X190912619Y-134437380D01*
X189531666Y-134437380D02*
X190103095Y-134437380D01*
X189817380Y-134437380D02*
X189817380Y-133437380D01*
X189912619Y-133580238D01*
X190007857Y-133675476D01*
X190103095Y-133723095D01*
X188674523Y-133770714D02*
X188674523Y-134437380D01*
X188912619Y-133389761D02*
X189150714Y-134104047D01*
X188531666Y-134104047D01*
%TO.C,Q13*%
X194897619Y-141668571D02*
X194850000Y-141573333D01*
X194754761Y-141478095D01*
X194611904Y-141335238D01*
X194564285Y-141240000D01*
X194564285Y-141144761D01*
X194802380Y-141192380D02*
X194754761Y-141097142D01*
X194659523Y-141001904D01*
X194469047Y-140954285D01*
X194135714Y-140954285D01*
X193945238Y-141001904D01*
X193850000Y-141097142D01*
X193802380Y-141192380D01*
X193802380Y-141382857D01*
X193850000Y-141478095D01*
X193945238Y-141573333D01*
X194135714Y-141620952D01*
X194469047Y-141620952D01*
X194659523Y-141573333D01*
X194754761Y-141478095D01*
X194802380Y-141382857D01*
X194802380Y-141192380D01*
X194802380Y-142573333D02*
X194802380Y-142001904D01*
X194802380Y-142287619D02*
X193802380Y-142287619D01*
X193945238Y-142192380D01*
X194040476Y-142097142D01*
X194088095Y-142001904D01*
X193802380Y-142906666D02*
X193802380Y-143525714D01*
X194183333Y-143192380D01*
X194183333Y-143335238D01*
X194230952Y-143430476D01*
X194278571Y-143478095D01*
X194373809Y-143525714D01*
X194611904Y-143525714D01*
X194707142Y-143478095D01*
X194754761Y-143430476D01*
X194802380Y-143335238D01*
X194802380Y-143049523D01*
X194754761Y-142954285D01*
X194707142Y-142906666D01*
%TO.C,Q12*%
X176466428Y-134532619D02*
X176561666Y-134485000D01*
X176656904Y-134389761D01*
X176799761Y-134246904D01*
X176895000Y-134199285D01*
X176990238Y-134199285D01*
X176942619Y-134437380D02*
X177037857Y-134389761D01*
X177133095Y-134294523D01*
X177180714Y-134104047D01*
X177180714Y-133770714D01*
X177133095Y-133580238D01*
X177037857Y-133485000D01*
X176942619Y-133437380D01*
X176752142Y-133437380D01*
X176656904Y-133485000D01*
X176561666Y-133580238D01*
X176514047Y-133770714D01*
X176514047Y-134104047D01*
X176561666Y-134294523D01*
X176656904Y-134389761D01*
X176752142Y-134437380D01*
X176942619Y-134437380D01*
X175561666Y-134437380D02*
X176133095Y-134437380D01*
X175847380Y-134437380D02*
X175847380Y-133437380D01*
X175942619Y-133580238D01*
X176037857Y-133675476D01*
X176133095Y-133723095D01*
X175180714Y-133532619D02*
X175133095Y-133485000D01*
X175037857Y-133437380D01*
X174799761Y-133437380D01*
X174704523Y-133485000D01*
X174656904Y-133532619D01*
X174609285Y-133627857D01*
X174609285Y-133723095D01*
X174656904Y-133865952D01*
X175228333Y-134437380D01*
X174609285Y-134437380D01*
%TO.C,Q11*%
X180927619Y-141668571D02*
X180880000Y-141573333D01*
X180784761Y-141478095D01*
X180641904Y-141335238D01*
X180594285Y-141240000D01*
X180594285Y-141144761D01*
X180832380Y-141192380D02*
X180784761Y-141097142D01*
X180689523Y-141001904D01*
X180499047Y-140954285D01*
X180165714Y-140954285D01*
X179975238Y-141001904D01*
X179880000Y-141097142D01*
X179832380Y-141192380D01*
X179832380Y-141382857D01*
X179880000Y-141478095D01*
X179975238Y-141573333D01*
X180165714Y-141620952D01*
X180499047Y-141620952D01*
X180689523Y-141573333D01*
X180784761Y-141478095D01*
X180832380Y-141382857D01*
X180832380Y-141192380D01*
X180832380Y-142573333D02*
X180832380Y-142001904D01*
X180832380Y-142287619D02*
X179832380Y-142287619D01*
X179975238Y-142192380D01*
X180070476Y-142097142D01*
X180118095Y-142001904D01*
X180832380Y-143525714D02*
X180832380Y-142954285D01*
X180832380Y-143240000D02*
X179832380Y-143240000D01*
X179975238Y-143144761D01*
X180070476Y-143049523D01*
X180118095Y-142954285D01*
%TO.C,Q10*%
X162496428Y-134532619D02*
X162591666Y-134485000D01*
X162686904Y-134389761D01*
X162829761Y-134246904D01*
X162925000Y-134199285D01*
X163020238Y-134199285D01*
X162972619Y-134437380D02*
X163067857Y-134389761D01*
X163163095Y-134294523D01*
X163210714Y-134104047D01*
X163210714Y-133770714D01*
X163163095Y-133580238D01*
X163067857Y-133485000D01*
X162972619Y-133437380D01*
X162782142Y-133437380D01*
X162686904Y-133485000D01*
X162591666Y-133580238D01*
X162544047Y-133770714D01*
X162544047Y-134104047D01*
X162591666Y-134294523D01*
X162686904Y-134389761D01*
X162782142Y-134437380D01*
X162972619Y-134437380D01*
X161591666Y-134437380D02*
X162163095Y-134437380D01*
X161877380Y-134437380D02*
X161877380Y-133437380D01*
X161972619Y-133580238D01*
X162067857Y-133675476D01*
X162163095Y-133723095D01*
X160972619Y-133437380D02*
X160877380Y-133437380D01*
X160782142Y-133485000D01*
X160734523Y-133532619D01*
X160686904Y-133627857D01*
X160639285Y-133818333D01*
X160639285Y-134056428D01*
X160686904Y-134246904D01*
X160734523Y-134342142D01*
X160782142Y-134389761D01*
X160877380Y-134437380D01*
X160972619Y-134437380D01*
X161067857Y-134389761D01*
X161115476Y-134342142D01*
X161163095Y-134246904D01*
X161210714Y-134056428D01*
X161210714Y-133818333D01*
X161163095Y-133627857D01*
X161115476Y-133532619D01*
X161067857Y-133485000D01*
X160972619Y-133437380D01*
%TO.C,Q9*%
X166957619Y-143414761D02*
X166910000Y-143319523D01*
X166814761Y-143224285D01*
X166671904Y-143081428D01*
X166624285Y-142986190D01*
X166624285Y-142890952D01*
X166862380Y-142938571D02*
X166814761Y-142843333D01*
X166719523Y-142748095D01*
X166529047Y-142700476D01*
X166195714Y-142700476D01*
X166005238Y-142748095D01*
X165910000Y-142843333D01*
X165862380Y-142938571D01*
X165862380Y-143129047D01*
X165910000Y-143224285D01*
X166005238Y-143319523D01*
X166195714Y-143367142D01*
X166529047Y-143367142D01*
X166719523Y-143319523D01*
X166814761Y-143224285D01*
X166862380Y-143129047D01*
X166862380Y-142938571D01*
X166862380Y-143843333D02*
X166862380Y-144033809D01*
X166814761Y-144129047D01*
X166767142Y-144176666D01*
X166624285Y-144271904D01*
X166433809Y-144319523D01*
X166052857Y-144319523D01*
X165957619Y-144271904D01*
X165910000Y-144224285D01*
X165862380Y-144129047D01*
X165862380Y-143938571D01*
X165910000Y-143843333D01*
X165957619Y-143795714D01*
X166052857Y-143748095D01*
X166290952Y-143748095D01*
X166386190Y-143795714D01*
X166433809Y-143843333D01*
X166481428Y-143938571D01*
X166481428Y-144129047D01*
X166433809Y-144224285D01*
X166386190Y-144271904D01*
X166290952Y-144319523D01*
%TO.C,Q8*%
X148050238Y-134532619D02*
X148145476Y-134485000D01*
X148240714Y-134389761D01*
X148383571Y-134246904D01*
X148478809Y-134199285D01*
X148574047Y-134199285D01*
X148526428Y-134437380D02*
X148621666Y-134389761D01*
X148716904Y-134294523D01*
X148764523Y-134104047D01*
X148764523Y-133770714D01*
X148716904Y-133580238D01*
X148621666Y-133485000D01*
X148526428Y-133437380D01*
X148335952Y-133437380D01*
X148240714Y-133485000D01*
X148145476Y-133580238D01*
X148097857Y-133770714D01*
X148097857Y-134104047D01*
X148145476Y-134294523D01*
X148240714Y-134389761D01*
X148335952Y-134437380D01*
X148526428Y-134437380D01*
X147526428Y-133865952D02*
X147621666Y-133818333D01*
X147669285Y-133770714D01*
X147716904Y-133675476D01*
X147716904Y-133627857D01*
X147669285Y-133532619D01*
X147621666Y-133485000D01*
X147526428Y-133437380D01*
X147335952Y-133437380D01*
X147240714Y-133485000D01*
X147193095Y-133532619D01*
X147145476Y-133627857D01*
X147145476Y-133675476D01*
X147193095Y-133770714D01*
X147240714Y-133818333D01*
X147335952Y-133865952D01*
X147526428Y-133865952D01*
X147621666Y-133913571D01*
X147669285Y-133961190D01*
X147716904Y-134056428D01*
X147716904Y-134246904D01*
X147669285Y-134342142D01*
X147621666Y-134389761D01*
X147526428Y-134437380D01*
X147335952Y-134437380D01*
X147240714Y-134389761D01*
X147193095Y-134342142D01*
X147145476Y-134246904D01*
X147145476Y-134056428D01*
X147193095Y-133961190D01*
X147240714Y-133913571D01*
X147335952Y-133865952D01*
%TO.C,Q7*%
X152987619Y-142144761D02*
X152940000Y-142049523D01*
X152844761Y-141954285D01*
X152701904Y-141811428D01*
X152654285Y-141716190D01*
X152654285Y-141620952D01*
X152892380Y-141668571D02*
X152844761Y-141573333D01*
X152749523Y-141478095D01*
X152559047Y-141430476D01*
X152225714Y-141430476D01*
X152035238Y-141478095D01*
X151940000Y-141573333D01*
X151892380Y-141668571D01*
X151892380Y-141859047D01*
X151940000Y-141954285D01*
X152035238Y-142049523D01*
X152225714Y-142097142D01*
X152559047Y-142097142D01*
X152749523Y-142049523D01*
X152844761Y-141954285D01*
X152892380Y-141859047D01*
X152892380Y-141668571D01*
X151892380Y-142430476D02*
X151892380Y-143097142D01*
X152892380Y-142668571D01*
%TO.C,Q6*%
X134080238Y-134532619D02*
X134175476Y-134485000D01*
X134270714Y-134389761D01*
X134413571Y-134246904D01*
X134508809Y-134199285D01*
X134604047Y-134199285D01*
X134556428Y-134437380D02*
X134651666Y-134389761D01*
X134746904Y-134294523D01*
X134794523Y-134104047D01*
X134794523Y-133770714D01*
X134746904Y-133580238D01*
X134651666Y-133485000D01*
X134556428Y-133437380D01*
X134365952Y-133437380D01*
X134270714Y-133485000D01*
X134175476Y-133580238D01*
X134127857Y-133770714D01*
X134127857Y-134104047D01*
X134175476Y-134294523D01*
X134270714Y-134389761D01*
X134365952Y-134437380D01*
X134556428Y-134437380D01*
X133270714Y-133437380D02*
X133461190Y-133437380D01*
X133556428Y-133485000D01*
X133604047Y-133532619D01*
X133699285Y-133675476D01*
X133746904Y-133865952D01*
X133746904Y-134246904D01*
X133699285Y-134342142D01*
X133651666Y-134389761D01*
X133556428Y-134437380D01*
X133365952Y-134437380D01*
X133270714Y-134389761D01*
X133223095Y-134342142D01*
X133175476Y-134246904D01*
X133175476Y-134008809D01*
X133223095Y-133913571D01*
X133270714Y-133865952D01*
X133365952Y-133818333D01*
X133556428Y-133818333D01*
X133651666Y-133865952D01*
X133699285Y-133913571D01*
X133746904Y-134008809D01*
%TO.C,Q5*%
X139017619Y-143414761D02*
X138970000Y-143319523D01*
X138874761Y-143224285D01*
X138731904Y-143081428D01*
X138684285Y-142986190D01*
X138684285Y-142890952D01*
X138922380Y-142938571D02*
X138874761Y-142843333D01*
X138779523Y-142748095D01*
X138589047Y-142700476D01*
X138255714Y-142700476D01*
X138065238Y-142748095D01*
X137970000Y-142843333D01*
X137922380Y-142938571D01*
X137922380Y-143129047D01*
X137970000Y-143224285D01*
X138065238Y-143319523D01*
X138255714Y-143367142D01*
X138589047Y-143367142D01*
X138779523Y-143319523D01*
X138874761Y-143224285D01*
X138922380Y-143129047D01*
X138922380Y-142938571D01*
X137922380Y-144271904D02*
X137922380Y-143795714D01*
X138398571Y-143748095D01*
X138350952Y-143795714D01*
X138303333Y-143890952D01*
X138303333Y-144129047D01*
X138350952Y-144224285D01*
X138398571Y-144271904D01*
X138493809Y-144319523D01*
X138731904Y-144319523D01*
X138827142Y-144271904D01*
X138874761Y-144224285D01*
X138922380Y-144129047D01*
X138922380Y-143890952D01*
X138874761Y-143795714D01*
X138827142Y-143748095D01*
%TO.C,Q4*%
X120110238Y-134532619D02*
X120205476Y-134485000D01*
X120300714Y-134389761D01*
X120443571Y-134246904D01*
X120538809Y-134199285D01*
X120634047Y-134199285D01*
X120586428Y-134437380D02*
X120681666Y-134389761D01*
X120776904Y-134294523D01*
X120824523Y-134104047D01*
X120824523Y-133770714D01*
X120776904Y-133580238D01*
X120681666Y-133485000D01*
X120586428Y-133437380D01*
X120395952Y-133437380D01*
X120300714Y-133485000D01*
X120205476Y-133580238D01*
X120157857Y-133770714D01*
X120157857Y-134104047D01*
X120205476Y-134294523D01*
X120300714Y-134389761D01*
X120395952Y-134437380D01*
X120586428Y-134437380D01*
X119300714Y-133770714D02*
X119300714Y-134437380D01*
X119538809Y-133389761D02*
X119776904Y-134104047D01*
X119157857Y-134104047D01*
%TO.C,Q3*%
X125047619Y-142144761D02*
X125000000Y-142049523D01*
X124904761Y-141954285D01*
X124761904Y-141811428D01*
X124714285Y-141716190D01*
X124714285Y-141620952D01*
X124952380Y-141668571D02*
X124904761Y-141573333D01*
X124809523Y-141478095D01*
X124619047Y-141430476D01*
X124285714Y-141430476D01*
X124095238Y-141478095D01*
X124000000Y-141573333D01*
X123952380Y-141668571D01*
X123952380Y-141859047D01*
X124000000Y-141954285D01*
X124095238Y-142049523D01*
X124285714Y-142097142D01*
X124619047Y-142097142D01*
X124809523Y-142049523D01*
X124904761Y-141954285D01*
X124952380Y-141859047D01*
X124952380Y-141668571D01*
X123952380Y-142430476D02*
X123952380Y-143049523D01*
X124333333Y-142716190D01*
X124333333Y-142859047D01*
X124380952Y-142954285D01*
X124428571Y-143001904D01*
X124523809Y-143049523D01*
X124761904Y-143049523D01*
X124857142Y-143001904D01*
X124904761Y-142954285D01*
X124952380Y-142859047D01*
X124952380Y-142573333D01*
X124904761Y-142478095D01*
X124857142Y-142430476D01*
%TO.C,Q2*%
X106140238Y-134532619D02*
X106235476Y-134485000D01*
X106330714Y-134389761D01*
X106473571Y-134246904D01*
X106568809Y-134199285D01*
X106664047Y-134199285D01*
X106616428Y-134437380D02*
X106711666Y-134389761D01*
X106806904Y-134294523D01*
X106854523Y-134104047D01*
X106854523Y-133770714D01*
X106806904Y-133580238D01*
X106711666Y-133485000D01*
X106616428Y-133437380D01*
X106425952Y-133437380D01*
X106330714Y-133485000D01*
X106235476Y-133580238D01*
X106187857Y-133770714D01*
X106187857Y-134104047D01*
X106235476Y-134294523D01*
X106330714Y-134389761D01*
X106425952Y-134437380D01*
X106616428Y-134437380D01*
X105806904Y-133532619D02*
X105759285Y-133485000D01*
X105664047Y-133437380D01*
X105425952Y-133437380D01*
X105330714Y-133485000D01*
X105283095Y-133532619D01*
X105235476Y-133627857D01*
X105235476Y-133723095D01*
X105283095Y-133865952D01*
X105854523Y-134437380D01*
X105235476Y-134437380D01*
%TO.C,Q1*%
X111077619Y-142144761D02*
X111030000Y-142049523D01*
X110934761Y-141954285D01*
X110791904Y-141811428D01*
X110744285Y-141716190D01*
X110744285Y-141620952D01*
X110982380Y-141668571D02*
X110934761Y-141573333D01*
X110839523Y-141478095D01*
X110649047Y-141430476D01*
X110315714Y-141430476D01*
X110125238Y-141478095D01*
X110030000Y-141573333D01*
X109982380Y-141668571D01*
X109982380Y-141859047D01*
X110030000Y-141954285D01*
X110125238Y-142049523D01*
X110315714Y-142097142D01*
X110649047Y-142097142D01*
X110839523Y-142049523D01*
X110934761Y-141954285D01*
X110982380Y-141859047D01*
X110982380Y-141668571D01*
X110982380Y-143049523D02*
X110982380Y-142478095D01*
X110982380Y-142763809D02*
X109982380Y-142763809D01*
X110125238Y-142668571D01*
X110220476Y-142573333D01*
X110268095Y-142478095D01*
%TO.C,D6*%
X135358095Y-121737380D02*
X135358095Y-120737380D01*
X135120000Y-120737380D01*
X134977142Y-120785000D01*
X134881904Y-120880238D01*
X134834285Y-120975476D01*
X134786666Y-121165952D01*
X134786666Y-121308809D01*
X134834285Y-121499285D01*
X134881904Y-121594523D01*
X134977142Y-121689761D01*
X135120000Y-121737380D01*
X135358095Y-121737380D01*
X133929523Y-120737380D02*
X134120000Y-120737380D01*
X134215238Y-120785000D01*
X134262857Y-120832619D01*
X134358095Y-120975476D01*
X134405714Y-121165952D01*
X134405714Y-121546904D01*
X134358095Y-121642142D01*
X134310476Y-121689761D01*
X134215238Y-121737380D01*
X134024761Y-121737380D01*
X133929523Y-121689761D01*
X133881904Y-121642142D01*
X133834285Y-121546904D01*
X133834285Y-121308809D01*
X133881904Y-121213571D01*
X133929523Y-121165952D01*
X134024761Y-121118333D01*
X134215238Y-121118333D01*
X134310476Y-121165952D01*
X134358095Y-121213571D01*
X134405714Y-121308809D01*
%TO.C,D5*%
X160472380Y-71524904D02*
X159472380Y-71524904D01*
X159472380Y-71763000D01*
X159520000Y-71905857D01*
X159615238Y-72001095D01*
X159710476Y-72048714D01*
X159900952Y-72096333D01*
X160043809Y-72096333D01*
X160234285Y-72048714D01*
X160329523Y-72001095D01*
X160424761Y-71905857D01*
X160472380Y-71763000D01*
X160472380Y-71524904D01*
X159472380Y-73001095D02*
X159472380Y-72524904D01*
X159948571Y-72477285D01*
X159900952Y-72524904D01*
X159853333Y-72620142D01*
X159853333Y-72858238D01*
X159900952Y-72953476D01*
X159948571Y-73001095D01*
X160043809Y-73048714D01*
X160281904Y-73048714D01*
X160377142Y-73001095D01*
X160424761Y-72953476D01*
X160472380Y-72858238D01*
X160472380Y-72620142D01*
X160424761Y-72524904D01*
X160377142Y-72477285D01*
%TO.C,D4*%
X135358095Y-108402380D02*
X135358095Y-107402380D01*
X135120000Y-107402380D01*
X134977142Y-107450000D01*
X134881904Y-107545238D01*
X134834285Y-107640476D01*
X134786666Y-107830952D01*
X134786666Y-107973809D01*
X134834285Y-108164285D01*
X134881904Y-108259523D01*
X134977142Y-108354761D01*
X135120000Y-108402380D01*
X135358095Y-108402380D01*
X133929523Y-107735714D02*
X133929523Y-108402380D01*
X134167619Y-107354761D02*
X134405714Y-108069047D01*
X133786666Y-108069047D01*
%TO.C,D3*%
X164282380Y-71524904D02*
X163282380Y-71524904D01*
X163282380Y-71763000D01*
X163330000Y-71905857D01*
X163425238Y-72001095D01*
X163520476Y-72048714D01*
X163710952Y-72096333D01*
X163853809Y-72096333D01*
X164044285Y-72048714D01*
X164139523Y-72001095D01*
X164234761Y-71905857D01*
X164282380Y-71763000D01*
X164282380Y-71524904D01*
X163282380Y-72429666D02*
X163282380Y-73048714D01*
X163663333Y-72715380D01*
X163663333Y-72858238D01*
X163710952Y-72953476D01*
X163758571Y-73001095D01*
X163853809Y-73048714D01*
X164091904Y-73048714D01*
X164187142Y-73001095D01*
X164234761Y-72953476D01*
X164282380Y-72858238D01*
X164282380Y-72572523D01*
X164234761Y-72477285D01*
X164187142Y-72429666D01*
%TO.C,D2*%
X135358095Y-95067380D02*
X135358095Y-94067380D01*
X135120000Y-94067380D01*
X134977142Y-94115000D01*
X134881904Y-94210238D01*
X134834285Y-94305476D01*
X134786666Y-94495952D01*
X134786666Y-94638809D01*
X134834285Y-94829285D01*
X134881904Y-94924523D01*
X134977142Y-95019761D01*
X135120000Y-95067380D01*
X135358095Y-95067380D01*
X134405714Y-94162619D02*
X134358095Y-94115000D01*
X134262857Y-94067380D01*
X134024761Y-94067380D01*
X133929523Y-94115000D01*
X133881904Y-94162619D01*
X133834285Y-94257857D01*
X133834285Y-94353095D01*
X133881904Y-94495952D01*
X134453333Y-95067380D01*
X133834285Y-95067380D01*
%TO.C,D1*%
X168092380Y-71524904D02*
X167092380Y-71524904D01*
X167092380Y-71763000D01*
X167140000Y-71905857D01*
X167235238Y-72001095D01*
X167330476Y-72048714D01*
X167520952Y-72096333D01*
X167663809Y-72096333D01*
X167854285Y-72048714D01*
X167949523Y-72001095D01*
X168044761Y-71905857D01*
X168092380Y-71763000D01*
X168092380Y-71524904D01*
X168092380Y-73048714D02*
X168092380Y-72477285D01*
X168092380Y-72763000D02*
X167092380Y-72763000D01*
X167235238Y-72667761D01*
X167330476Y-72572523D01*
X167378095Y-72477285D01*
%TO.C,C7*%
X141487142Y-114133333D02*
X141534761Y-114085714D01*
X141582380Y-113942857D01*
X141582380Y-113847619D01*
X141534761Y-113704761D01*
X141439523Y-113609523D01*
X141344285Y-113561904D01*
X141153809Y-113514285D01*
X141010952Y-113514285D01*
X140820476Y-113561904D01*
X140725238Y-113609523D01*
X140630000Y-113704761D01*
X140582380Y-113847619D01*
X140582380Y-113942857D01*
X140630000Y-114085714D01*
X140677619Y-114133333D01*
X140582380Y-114466666D02*
X140582380Y-115133333D01*
X141582380Y-114704761D01*
%TO.C,C6*%
X130692142Y-117943333D02*
X130739761Y-117895714D01*
X130787380Y-117752857D01*
X130787380Y-117657619D01*
X130739761Y-117514761D01*
X130644523Y-117419523D01*
X130549285Y-117371904D01*
X130358809Y-117324285D01*
X130215952Y-117324285D01*
X130025476Y-117371904D01*
X129930238Y-117419523D01*
X129835000Y-117514761D01*
X129787380Y-117657619D01*
X129787380Y-117752857D01*
X129835000Y-117895714D01*
X129882619Y-117943333D01*
X129787380Y-118800476D02*
X129787380Y-118610000D01*
X129835000Y-118514761D01*
X129882619Y-118467142D01*
X130025476Y-118371904D01*
X130215952Y-118324285D01*
X130596904Y-118324285D01*
X130692142Y-118371904D01*
X130739761Y-118419523D01*
X130787380Y-118514761D01*
X130787380Y-118705238D01*
X130739761Y-118800476D01*
X130692142Y-118848095D01*
X130596904Y-118895714D01*
X130358809Y-118895714D01*
X130263571Y-118848095D01*
X130215952Y-118800476D01*
X130168333Y-118705238D01*
X130168333Y-118514761D01*
X130215952Y-118419523D01*
X130263571Y-118371904D01*
X130358809Y-118324285D01*
%TO.C,C5*%
X141487142Y-100798333D02*
X141534761Y-100750714D01*
X141582380Y-100607857D01*
X141582380Y-100512619D01*
X141534761Y-100369761D01*
X141439523Y-100274523D01*
X141344285Y-100226904D01*
X141153809Y-100179285D01*
X141010952Y-100179285D01*
X140820476Y-100226904D01*
X140725238Y-100274523D01*
X140630000Y-100369761D01*
X140582380Y-100512619D01*
X140582380Y-100607857D01*
X140630000Y-100750714D01*
X140677619Y-100798333D01*
X140582380Y-101703095D02*
X140582380Y-101226904D01*
X141058571Y-101179285D01*
X141010952Y-101226904D01*
X140963333Y-101322142D01*
X140963333Y-101560238D01*
X141010952Y-101655476D01*
X141058571Y-101703095D01*
X141153809Y-101750714D01*
X141391904Y-101750714D01*
X141487142Y-101703095D01*
X141534761Y-101655476D01*
X141582380Y-101560238D01*
X141582380Y-101322142D01*
X141534761Y-101226904D01*
X141487142Y-101179285D01*
%TO.C,C4*%
X130692142Y-104608333D02*
X130739761Y-104560714D01*
X130787380Y-104417857D01*
X130787380Y-104322619D01*
X130739761Y-104179761D01*
X130644523Y-104084523D01*
X130549285Y-104036904D01*
X130358809Y-103989285D01*
X130215952Y-103989285D01*
X130025476Y-104036904D01*
X129930238Y-104084523D01*
X129835000Y-104179761D01*
X129787380Y-104322619D01*
X129787380Y-104417857D01*
X129835000Y-104560714D01*
X129882619Y-104608333D01*
X130120714Y-105465476D02*
X130787380Y-105465476D01*
X129739761Y-105227380D02*
X130454047Y-104989285D01*
X130454047Y-105608333D01*
%TO.C,C3*%
X141487142Y-87463333D02*
X141534761Y-87415714D01*
X141582380Y-87272857D01*
X141582380Y-87177619D01*
X141534761Y-87034761D01*
X141439523Y-86939523D01*
X141344285Y-86891904D01*
X141153809Y-86844285D01*
X141010952Y-86844285D01*
X140820476Y-86891904D01*
X140725238Y-86939523D01*
X140630000Y-87034761D01*
X140582380Y-87177619D01*
X140582380Y-87272857D01*
X140630000Y-87415714D01*
X140677619Y-87463333D01*
X140582380Y-87796666D02*
X140582380Y-88415714D01*
X140963333Y-88082380D01*
X140963333Y-88225238D01*
X141010952Y-88320476D01*
X141058571Y-88368095D01*
X141153809Y-88415714D01*
X141391904Y-88415714D01*
X141487142Y-88368095D01*
X141534761Y-88320476D01*
X141582380Y-88225238D01*
X141582380Y-87939523D01*
X141534761Y-87844285D01*
X141487142Y-87796666D01*
%TO.C,C2*%
X130692142Y-91273333D02*
X130739761Y-91225714D01*
X130787380Y-91082857D01*
X130787380Y-90987619D01*
X130739761Y-90844761D01*
X130644523Y-90749523D01*
X130549285Y-90701904D01*
X130358809Y-90654285D01*
X130215952Y-90654285D01*
X130025476Y-90701904D01*
X129930238Y-90749523D01*
X129835000Y-90844761D01*
X129787380Y-90987619D01*
X129787380Y-91082857D01*
X129835000Y-91225714D01*
X129882619Y-91273333D01*
X129882619Y-91654285D02*
X129835000Y-91701904D01*
X129787380Y-91797142D01*
X129787380Y-92035238D01*
X129835000Y-92130476D01*
X129882619Y-92178095D01*
X129977857Y-92225714D01*
X130073095Y-92225714D01*
X130215952Y-92178095D01*
X130787380Y-91606666D01*
X130787380Y-92225714D01*
%TO.C,C1*%
X108147142Y-112863333D02*
X108194761Y-112815714D01*
X108242380Y-112672857D01*
X108242380Y-112577619D01*
X108194761Y-112434761D01*
X108099523Y-112339523D01*
X108004285Y-112291904D01*
X107813809Y-112244285D01*
X107670952Y-112244285D01*
X107480476Y-112291904D01*
X107385238Y-112339523D01*
X107290000Y-112434761D01*
X107242380Y-112577619D01*
X107242380Y-112672857D01*
X107290000Y-112815714D01*
X107337619Y-112863333D01*
X108242380Y-113815714D02*
X108242380Y-113244285D01*
X108242380Y-113530000D02*
X107242380Y-113530000D01*
X107385238Y-113434761D01*
X107480476Y-113339523D01*
X107528095Y-113244285D01*
%TD*%
M02*
