M48
; DRILL file {KiCad (5.1.6)-1} date 09/10/20 20:04:34
; FORMAT={-:-/ absolute / metric / decimal}
; #@! TF.CreationDate,2020-09-10T20:04:34+09:00
; #@! TF.GenerationSoftware,Kicad,Pcbnew,(5.1.6)-1
FMAT,2
METRIC
T1C0.400
T2C0.650
T3C0.800
T4C1.000
T5C1.100
T6C1.700
%
G90
G05
T1
X109.742Y-109.254
X110.809Y-112.924
X113.665Y-65.405
X116.094Y-104.708
X121.222Y-77.264
X126.82Y-98.848
X127.354Y-83.948
X127.661Y-62.743
X129.686Y-129.348
X129.761Y-107.998
X135.824Y-126.726
X135.89Y-77.47
X137.555Y-83.7
X140.038Y-131.572
X142.722Y-87.174
X144.297Y-116.847
X144.536Y-66.567
X145.441Y-101.835
X147.579Y-102.452
X148.796Y-90.354
X151.857Y-135.052
X153.67Y-71.754
X156.689Y-80.098
X157.508Y-109.291
X158.377Y-81.26
X158.74Y-93.834
X158.75Y-62.23
X160.358Y-83.745
X162.628Y-79.756
X165.121Y-135.3
X172.72Y-70.451
X176.32Y-69.275
X176.715Y-71.591
X179.814Y-135.686
X189.23Y-67.31
X194.195Y-136.531
X194.945Y-127.0
T2
X162.56Y-58.42
X162.56Y-66.04
X165.1Y-58.42
X165.1Y-66.04
X167.64Y-58.42
X167.64Y-66.04
X170.18Y-58.42
X170.18Y-66.04
X172.72Y-58.42
X172.72Y-66.04
X175.26Y-58.42
X175.26Y-66.04
T3
X105.41Y-91.44
X105.41Y-93.98
X105.41Y-96.52
X105.41Y-99.06
X105.41Y-101.6
X105.41Y-104.14
X105.41Y-106.68
X105.41Y-109.22
X105.41Y-111.76
X105.41Y-114.3
X105.41Y-116.84
X105.41Y-119.38
X105.41Y-121.92
X105.41Y-124.46
X113.03Y-91.44
X113.03Y-93.98
X113.03Y-96.52
X113.03Y-99.06
X113.03Y-101.6
X113.03Y-104.14
X113.03Y-106.68
X113.03Y-109.22
X113.03Y-111.76
X113.03Y-114.3
X113.03Y-116.84
X113.03Y-119.38
X113.03Y-121.92
X113.03Y-124.46
T4
X106.68Y-74.295
X106.68Y-76.795
X101.6Y-109.22
X101.6Y-111.76
X194.945Y-74.295
X194.945Y-76.795
X101.6Y-91.44
X101.6Y-93.98
X101.6Y-96.52
X101.6Y-99.06
X101.6Y-101.6
X101.6Y-104.14
X101.6Y-120.65
X101.6Y-123.19
T5
X129.54Y-58.42
X129.54Y-62.92
X136.04Y-58.42
X136.04Y-62.92
X118.11Y-67.945
X118.11Y-72.445
X124.61Y-67.945
X124.61Y-72.445
X118.11Y-58.42
X118.11Y-62.92
X124.61Y-58.42
X124.61Y-62.92
X106.045Y-82.55
X106.045Y-87.05
X112.545Y-82.55
X112.545Y-87.05
X129.54Y-67.945
X129.54Y-72.445
X136.04Y-67.945
X136.04Y-72.445
X140.97Y-58.42
X140.97Y-62.92
X147.47Y-58.42
X147.47Y-62.92
X140.97Y-67.945
X140.97Y-72.445
X147.47Y-67.945
X147.47Y-72.445
T6
X168.91Y-100.33
X172.87Y-100.33
X176.83Y-100.33
X180.79Y-100.33
X184.75Y-100.33
X188.71Y-100.33
X192.67Y-100.33
X196.63Y-100.33
X194.945Y-55.245
X194.945Y-59.205
X194.945Y-63.165
X194.945Y-67.125
X106.68Y-55.245
X106.68Y-59.205
X106.68Y-63.165
X106.68Y-67.125
X168.91Y-114.3
X172.87Y-114.3
X176.83Y-114.3
X180.79Y-114.3
X184.75Y-114.3
X188.71Y-114.3
X192.67Y-114.3
X196.63Y-114.3
X168.91Y-86.36
X172.87Y-86.36
X176.83Y-86.36
X180.79Y-86.36
X184.75Y-86.36
X188.71Y-86.36
X192.67Y-86.36
X196.63Y-86.36
T0
M30
