%TF.GenerationSoftware,KiCad,Pcbnew,(5.1.6)-1*%
%TF.CreationDate,2020-09-10T20:04:36+09:00*%
%TF.ProjectId,ScoreBoradPCB,53636f72-6542-46f7-9261-645043422e6b,rev?*%
%TF.SameCoordinates,Original*%
%TF.FileFunction,Paste,Bot*%
%TF.FilePolarity,Positive*%
%FSLAX46Y46*%
G04 Gerber Fmt 4.6, Leading zero omitted, Abs format (unit mm)*
G04 Created by KiCad (PCBNEW (5.1.6)-1) date 2020-09-10 20:04:36*
%MOMM*%
%LPD*%
G01*
G04 APERTURE LIST*
%ADD10R,0.900000X0.800000*%
%ADD11R,0.800000X0.900000*%
%ADD12R,2.750000X3.050000*%
%ADD13R,1.200000X2.200000*%
%ADD14R,1.100000X1.100000*%
G04 APERTURE END LIST*
%TO.C,U7*%
G36*
G01*
X136120000Y-115720000D02*
X136120000Y-115420000D01*
G75*
G02*
X136270000Y-115270000I150000J0D01*
G01*
X137920000Y-115270000D01*
G75*
G02*
X138070000Y-115420000I0J-150000D01*
G01*
X138070000Y-115720000D01*
G75*
G02*
X137920000Y-115870000I-150000J0D01*
G01*
X136270000Y-115870000D01*
G75*
G02*
X136120000Y-115720000I0J150000D01*
G01*
G37*
G36*
G01*
X136120000Y-114450000D02*
X136120000Y-114150000D01*
G75*
G02*
X136270000Y-114000000I150000J0D01*
G01*
X137920000Y-114000000D01*
G75*
G02*
X138070000Y-114150000I0J-150000D01*
G01*
X138070000Y-114450000D01*
G75*
G02*
X137920000Y-114600000I-150000J0D01*
G01*
X136270000Y-114600000D01*
G75*
G02*
X136120000Y-114450000I0J150000D01*
G01*
G37*
G36*
G01*
X136120000Y-113180000D02*
X136120000Y-112880000D01*
G75*
G02*
X136270000Y-112730000I150000J0D01*
G01*
X137920000Y-112730000D01*
G75*
G02*
X138070000Y-112880000I0J-150000D01*
G01*
X138070000Y-113180000D01*
G75*
G02*
X137920000Y-113330000I-150000J0D01*
G01*
X136270000Y-113330000D01*
G75*
G02*
X136120000Y-113180000I0J150000D01*
G01*
G37*
G36*
G01*
X136120000Y-111910000D02*
X136120000Y-111610000D01*
G75*
G02*
X136270000Y-111460000I150000J0D01*
G01*
X137920000Y-111460000D01*
G75*
G02*
X138070000Y-111610000I0J-150000D01*
G01*
X138070000Y-111910000D01*
G75*
G02*
X137920000Y-112060000I-150000J0D01*
G01*
X136270000Y-112060000D01*
G75*
G02*
X136120000Y-111910000I0J150000D01*
G01*
G37*
G36*
G01*
X131170000Y-111910000D02*
X131170000Y-111610000D01*
G75*
G02*
X131320000Y-111460000I150000J0D01*
G01*
X132970000Y-111460000D01*
G75*
G02*
X133120000Y-111610000I0J-150000D01*
G01*
X133120000Y-111910000D01*
G75*
G02*
X132970000Y-112060000I-150000J0D01*
G01*
X131320000Y-112060000D01*
G75*
G02*
X131170000Y-111910000I0J150000D01*
G01*
G37*
G36*
G01*
X131170000Y-113180000D02*
X131170000Y-112880000D01*
G75*
G02*
X131320000Y-112730000I150000J0D01*
G01*
X132970000Y-112730000D01*
G75*
G02*
X133120000Y-112880000I0J-150000D01*
G01*
X133120000Y-113180000D01*
G75*
G02*
X132970000Y-113330000I-150000J0D01*
G01*
X131320000Y-113330000D01*
G75*
G02*
X131170000Y-113180000I0J150000D01*
G01*
G37*
G36*
G01*
X131170000Y-114450000D02*
X131170000Y-114150000D01*
G75*
G02*
X131320000Y-114000000I150000J0D01*
G01*
X132970000Y-114000000D01*
G75*
G02*
X133120000Y-114150000I0J-150000D01*
G01*
X133120000Y-114450000D01*
G75*
G02*
X132970000Y-114600000I-150000J0D01*
G01*
X131320000Y-114600000D01*
G75*
G02*
X131170000Y-114450000I0J150000D01*
G01*
G37*
G36*
G01*
X131170000Y-115720000D02*
X131170000Y-115420000D01*
G75*
G02*
X131320000Y-115270000I150000J0D01*
G01*
X132970000Y-115270000D01*
G75*
G02*
X133120000Y-115420000I0J-150000D01*
G01*
X133120000Y-115720000D01*
G75*
G02*
X132970000Y-115870000I-150000J0D01*
G01*
X131320000Y-115870000D01*
G75*
G02*
X131170000Y-115720000I0J150000D01*
G01*
G37*
%TD*%
%TO.C,U6*%
G36*
G01*
X125005000Y-118882500D02*
X125005000Y-118607500D01*
G75*
G02*
X125142500Y-118470000I137500J0D01*
G01*
X126467500Y-118470000D01*
G75*
G02*
X126605000Y-118607500I0J-137500D01*
G01*
X126605000Y-118882500D01*
G75*
G02*
X126467500Y-119020000I-137500J0D01*
G01*
X125142500Y-119020000D01*
G75*
G02*
X125005000Y-118882500I0J137500D01*
G01*
G37*
G36*
G01*
X125005000Y-117612500D02*
X125005000Y-117337500D01*
G75*
G02*
X125142500Y-117200000I137500J0D01*
G01*
X126467500Y-117200000D01*
G75*
G02*
X126605000Y-117337500I0J-137500D01*
G01*
X126605000Y-117612500D01*
G75*
G02*
X126467500Y-117750000I-137500J0D01*
G01*
X125142500Y-117750000D01*
G75*
G02*
X125005000Y-117612500I0J137500D01*
G01*
G37*
G36*
G01*
X118505000Y-117612500D02*
X118505000Y-117337500D01*
G75*
G02*
X118642500Y-117200000I137500J0D01*
G01*
X119967500Y-117200000D01*
G75*
G02*
X120105000Y-117337500I0J-137500D01*
G01*
X120105000Y-117612500D01*
G75*
G02*
X119967500Y-117750000I-137500J0D01*
G01*
X118642500Y-117750000D01*
G75*
G02*
X118505000Y-117612500I0J137500D01*
G01*
G37*
G36*
G01*
X118505000Y-118882500D02*
X118505000Y-118607500D01*
G75*
G02*
X118642500Y-118470000I137500J0D01*
G01*
X119967500Y-118470000D01*
G75*
G02*
X120105000Y-118607500I0J-137500D01*
G01*
X120105000Y-118882500D01*
G75*
G02*
X119967500Y-119020000I-137500J0D01*
G01*
X118642500Y-119020000D01*
G75*
G02*
X118505000Y-118882500I0J137500D01*
G01*
G37*
%TD*%
%TO.C,U5*%
G36*
G01*
X136120000Y-102385000D02*
X136120000Y-102085000D01*
G75*
G02*
X136270000Y-101935000I150000J0D01*
G01*
X137920000Y-101935000D01*
G75*
G02*
X138070000Y-102085000I0J-150000D01*
G01*
X138070000Y-102385000D01*
G75*
G02*
X137920000Y-102535000I-150000J0D01*
G01*
X136270000Y-102535000D01*
G75*
G02*
X136120000Y-102385000I0J150000D01*
G01*
G37*
G36*
G01*
X136120000Y-101115000D02*
X136120000Y-100815000D01*
G75*
G02*
X136270000Y-100665000I150000J0D01*
G01*
X137920000Y-100665000D01*
G75*
G02*
X138070000Y-100815000I0J-150000D01*
G01*
X138070000Y-101115000D01*
G75*
G02*
X137920000Y-101265000I-150000J0D01*
G01*
X136270000Y-101265000D01*
G75*
G02*
X136120000Y-101115000I0J150000D01*
G01*
G37*
G36*
G01*
X136120000Y-99845000D02*
X136120000Y-99545000D01*
G75*
G02*
X136270000Y-99395000I150000J0D01*
G01*
X137920000Y-99395000D01*
G75*
G02*
X138070000Y-99545000I0J-150000D01*
G01*
X138070000Y-99845000D01*
G75*
G02*
X137920000Y-99995000I-150000J0D01*
G01*
X136270000Y-99995000D01*
G75*
G02*
X136120000Y-99845000I0J150000D01*
G01*
G37*
G36*
G01*
X136120000Y-98575000D02*
X136120000Y-98275000D01*
G75*
G02*
X136270000Y-98125000I150000J0D01*
G01*
X137920000Y-98125000D01*
G75*
G02*
X138070000Y-98275000I0J-150000D01*
G01*
X138070000Y-98575000D01*
G75*
G02*
X137920000Y-98725000I-150000J0D01*
G01*
X136270000Y-98725000D01*
G75*
G02*
X136120000Y-98575000I0J150000D01*
G01*
G37*
G36*
G01*
X131170000Y-98575000D02*
X131170000Y-98275000D01*
G75*
G02*
X131320000Y-98125000I150000J0D01*
G01*
X132970000Y-98125000D01*
G75*
G02*
X133120000Y-98275000I0J-150000D01*
G01*
X133120000Y-98575000D01*
G75*
G02*
X132970000Y-98725000I-150000J0D01*
G01*
X131320000Y-98725000D01*
G75*
G02*
X131170000Y-98575000I0J150000D01*
G01*
G37*
G36*
G01*
X131170000Y-99845000D02*
X131170000Y-99545000D01*
G75*
G02*
X131320000Y-99395000I150000J0D01*
G01*
X132970000Y-99395000D01*
G75*
G02*
X133120000Y-99545000I0J-150000D01*
G01*
X133120000Y-99845000D01*
G75*
G02*
X132970000Y-99995000I-150000J0D01*
G01*
X131320000Y-99995000D01*
G75*
G02*
X131170000Y-99845000I0J150000D01*
G01*
G37*
G36*
G01*
X131170000Y-101115000D02*
X131170000Y-100815000D01*
G75*
G02*
X131320000Y-100665000I150000J0D01*
G01*
X132970000Y-100665000D01*
G75*
G02*
X133120000Y-100815000I0J-150000D01*
G01*
X133120000Y-101115000D01*
G75*
G02*
X132970000Y-101265000I-150000J0D01*
G01*
X131320000Y-101265000D01*
G75*
G02*
X131170000Y-101115000I0J150000D01*
G01*
G37*
G36*
G01*
X131170000Y-102385000D02*
X131170000Y-102085000D01*
G75*
G02*
X131320000Y-101935000I150000J0D01*
G01*
X132970000Y-101935000D01*
G75*
G02*
X133120000Y-102085000I0J-150000D01*
G01*
X133120000Y-102385000D01*
G75*
G02*
X132970000Y-102535000I-150000J0D01*
G01*
X131320000Y-102535000D01*
G75*
G02*
X131170000Y-102385000I0J150000D01*
G01*
G37*
%TD*%
%TO.C,U4*%
G36*
G01*
X125005000Y-105547500D02*
X125005000Y-105272500D01*
G75*
G02*
X125142500Y-105135000I137500J0D01*
G01*
X126467500Y-105135000D01*
G75*
G02*
X126605000Y-105272500I0J-137500D01*
G01*
X126605000Y-105547500D01*
G75*
G02*
X126467500Y-105685000I-137500J0D01*
G01*
X125142500Y-105685000D01*
G75*
G02*
X125005000Y-105547500I0J137500D01*
G01*
G37*
G36*
G01*
X125005000Y-104277500D02*
X125005000Y-104002500D01*
G75*
G02*
X125142500Y-103865000I137500J0D01*
G01*
X126467500Y-103865000D01*
G75*
G02*
X126605000Y-104002500I0J-137500D01*
G01*
X126605000Y-104277500D01*
G75*
G02*
X126467500Y-104415000I-137500J0D01*
G01*
X125142500Y-104415000D01*
G75*
G02*
X125005000Y-104277500I0J137500D01*
G01*
G37*
G36*
G01*
X118505000Y-104277500D02*
X118505000Y-104002500D01*
G75*
G02*
X118642500Y-103865000I137500J0D01*
G01*
X119967500Y-103865000D01*
G75*
G02*
X120105000Y-104002500I0J-137500D01*
G01*
X120105000Y-104277500D01*
G75*
G02*
X119967500Y-104415000I-137500J0D01*
G01*
X118642500Y-104415000D01*
G75*
G02*
X118505000Y-104277500I0J137500D01*
G01*
G37*
G36*
G01*
X118505000Y-105547500D02*
X118505000Y-105272500D01*
G75*
G02*
X118642500Y-105135000I137500J0D01*
G01*
X119967500Y-105135000D01*
G75*
G02*
X120105000Y-105272500I0J-137500D01*
G01*
X120105000Y-105547500D01*
G75*
G02*
X119967500Y-105685000I-137500J0D01*
G01*
X118642500Y-105685000D01*
G75*
G02*
X118505000Y-105547500I0J137500D01*
G01*
G37*
%TD*%
%TO.C,U3*%
G36*
G01*
X136120000Y-89050000D02*
X136120000Y-88750000D01*
G75*
G02*
X136270000Y-88600000I150000J0D01*
G01*
X137920000Y-88600000D01*
G75*
G02*
X138070000Y-88750000I0J-150000D01*
G01*
X138070000Y-89050000D01*
G75*
G02*
X137920000Y-89200000I-150000J0D01*
G01*
X136270000Y-89200000D01*
G75*
G02*
X136120000Y-89050000I0J150000D01*
G01*
G37*
G36*
G01*
X136120000Y-87780000D02*
X136120000Y-87480000D01*
G75*
G02*
X136270000Y-87330000I150000J0D01*
G01*
X137920000Y-87330000D01*
G75*
G02*
X138070000Y-87480000I0J-150000D01*
G01*
X138070000Y-87780000D01*
G75*
G02*
X137920000Y-87930000I-150000J0D01*
G01*
X136270000Y-87930000D01*
G75*
G02*
X136120000Y-87780000I0J150000D01*
G01*
G37*
G36*
G01*
X136120000Y-86510000D02*
X136120000Y-86210000D01*
G75*
G02*
X136270000Y-86060000I150000J0D01*
G01*
X137920000Y-86060000D01*
G75*
G02*
X138070000Y-86210000I0J-150000D01*
G01*
X138070000Y-86510000D01*
G75*
G02*
X137920000Y-86660000I-150000J0D01*
G01*
X136270000Y-86660000D01*
G75*
G02*
X136120000Y-86510000I0J150000D01*
G01*
G37*
G36*
G01*
X136120000Y-85240000D02*
X136120000Y-84940000D01*
G75*
G02*
X136270000Y-84790000I150000J0D01*
G01*
X137920000Y-84790000D01*
G75*
G02*
X138070000Y-84940000I0J-150000D01*
G01*
X138070000Y-85240000D01*
G75*
G02*
X137920000Y-85390000I-150000J0D01*
G01*
X136270000Y-85390000D01*
G75*
G02*
X136120000Y-85240000I0J150000D01*
G01*
G37*
G36*
G01*
X131170000Y-85240000D02*
X131170000Y-84940000D01*
G75*
G02*
X131320000Y-84790000I150000J0D01*
G01*
X132970000Y-84790000D01*
G75*
G02*
X133120000Y-84940000I0J-150000D01*
G01*
X133120000Y-85240000D01*
G75*
G02*
X132970000Y-85390000I-150000J0D01*
G01*
X131320000Y-85390000D01*
G75*
G02*
X131170000Y-85240000I0J150000D01*
G01*
G37*
G36*
G01*
X131170000Y-86510000D02*
X131170000Y-86210000D01*
G75*
G02*
X131320000Y-86060000I150000J0D01*
G01*
X132970000Y-86060000D01*
G75*
G02*
X133120000Y-86210000I0J-150000D01*
G01*
X133120000Y-86510000D01*
G75*
G02*
X132970000Y-86660000I-150000J0D01*
G01*
X131320000Y-86660000D01*
G75*
G02*
X131170000Y-86510000I0J150000D01*
G01*
G37*
G36*
G01*
X131170000Y-87780000D02*
X131170000Y-87480000D01*
G75*
G02*
X131320000Y-87330000I150000J0D01*
G01*
X132970000Y-87330000D01*
G75*
G02*
X133120000Y-87480000I0J-150000D01*
G01*
X133120000Y-87780000D01*
G75*
G02*
X132970000Y-87930000I-150000J0D01*
G01*
X131320000Y-87930000D01*
G75*
G02*
X131170000Y-87780000I0J150000D01*
G01*
G37*
G36*
G01*
X131170000Y-89050000D02*
X131170000Y-88750000D01*
G75*
G02*
X131320000Y-88600000I150000J0D01*
G01*
X132970000Y-88600000D01*
G75*
G02*
X133120000Y-88750000I0J-150000D01*
G01*
X133120000Y-89050000D01*
G75*
G02*
X132970000Y-89200000I-150000J0D01*
G01*
X131320000Y-89200000D01*
G75*
G02*
X131170000Y-89050000I0J150000D01*
G01*
G37*
%TD*%
%TO.C,U2*%
G36*
G01*
X125005000Y-92212500D02*
X125005000Y-91937500D01*
G75*
G02*
X125142500Y-91800000I137500J0D01*
G01*
X126467500Y-91800000D01*
G75*
G02*
X126605000Y-91937500I0J-137500D01*
G01*
X126605000Y-92212500D01*
G75*
G02*
X126467500Y-92350000I-137500J0D01*
G01*
X125142500Y-92350000D01*
G75*
G02*
X125005000Y-92212500I0J137500D01*
G01*
G37*
G36*
G01*
X125005000Y-90942500D02*
X125005000Y-90667500D01*
G75*
G02*
X125142500Y-90530000I137500J0D01*
G01*
X126467500Y-90530000D01*
G75*
G02*
X126605000Y-90667500I0J-137500D01*
G01*
X126605000Y-90942500D01*
G75*
G02*
X126467500Y-91080000I-137500J0D01*
G01*
X125142500Y-91080000D01*
G75*
G02*
X125005000Y-90942500I0J137500D01*
G01*
G37*
G36*
G01*
X118505000Y-90942500D02*
X118505000Y-90667500D01*
G75*
G02*
X118642500Y-90530000I137500J0D01*
G01*
X119967500Y-90530000D01*
G75*
G02*
X120105000Y-90667500I0J-137500D01*
G01*
X120105000Y-90942500D01*
G75*
G02*
X119967500Y-91080000I-137500J0D01*
G01*
X118642500Y-91080000D01*
G75*
G02*
X118505000Y-90942500I0J137500D01*
G01*
G37*
G36*
G01*
X118505000Y-92212500D02*
X118505000Y-91937500D01*
G75*
G02*
X118642500Y-91800000I137500J0D01*
G01*
X119967500Y-91800000D01*
G75*
G02*
X120105000Y-91937500I0J-137500D01*
G01*
X120105000Y-92212500D01*
G75*
G02*
X119967500Y-92350000I-137500J0D01*
G01*
X118642500Y-92350000D01*
G75*
G02*
X118505000Y-92212500I0J137500D01*
G01*
G37*
%TD*%
%TO.C,R61*%
G36*
G01*
X103855000Y-77091250D02*
X103855000Y-76578750D01*
G75*
G02*
X104073750Y-76360000I218750J0D01*
G01*
X104511250Y-76360000D01*
G75*
G02*
X104730000Y-76578750I0J-218750D01*
G01*
X104730000Y-77091250D01*
G75*
G02*
X104511250Y-77310000I-218750J0D01*
G01*
X104073750Y-77310000D01*
G75*
G02*
X103855000Y-77091250I0J218750D01*
G01*
G37*
G36*
G01*
X102280000Y-77091250D02*
X102280000Y-76578750D01*
G75*
G02*
X102498750Y-76360000I218750J0D01*
G01*
X102936250Y-76360000D01*
G75*
G02*
X103155000Y-76578750I0J-218750D01*
G01*
X103155000Y-77091250D01*
G75*
G02*
X102936250Y-77310000I-218750J0D01*
G01*
X102498750Y-77310000D01*
G75*
G02*
X102280000Y-77091250I0J218750D01*
G01*
G37*
%TD*%
%TO.C,R60*%
G36*
G01*
X103855000Y-74551250D02*
X103855000Y-74038750D01*
G75*
G02*
X104073750Y-73820000I218750J0D01*
G01*
X104511250Y-73820000D01*
G75*
G02*
X104730000Y-74038750I0J-218750D01*
G01*
X104730000Y-74551250D01*
G75*
G02*
X104511250Y-74770000I-218750J0D01*
G01*
X104073750Y-74770000D01*
G75*
G02*
X103855000Y-74551250I0J218750D01*
G01*
G37*
G36*
G01*
X102280000Y-74551250D02*
X102280000Y-74038750D01*
G75*
G02*
X102498750Y-73820000I218750J0D01*
G01*
X102936250Y-73820000D01*
G75*
G02*
X103155000Y-74038750I0J-218750D01*
G01*
X103155000Y-74551250D01*
G75*
G02*
X102936250Y-74770000I-218750J0D01*
G01*
X102498750Y-74770000D01*
G75*
G02*
X102280000Y-74551250I0J218750D01*
G01*
G37*
%TD*%
%TO.C,R59*%
G36*
G01*
X101343750Y-127350000D02*
X101856250Y-127350000D01*
G75*
G02*
X102075000Y-127568750I0J-218750D01*
G01*
X102075000Y-128006250D01*
G75*
G02*
X101856250Y-128225000I-218750J0D01*
G01*
X101343750Y-128225000D01*
G75*
G02*
X101125000Y-128006250I0J218750D01*
G01*
X101125000Y-127568750D01*
G75*
G02*
X101343750Y-127350000I218750J0D01*
G01*
G37*
G36*
G01*
X101343750Y-125775000D02*
X101856250Y-125775000D01*
G75*
G02*
X102075000Y-125993750I0J-218750D01*
G01*
X102075000Y-126431250D01*
G75*
G02*
X101856250Y-126650000I-218750J0D01*
G01*
X101343750Y-126650000D01*
G75*
G02*
X101125000Y-126431250I0J218750D01*
G01*
X101125000Y-125993750D01*
G75*
G02*
X101343750Y-125775000I218750J0D01*
G01*
G37*
%TD*%
%TO.C,R58*%
G36*
G01*
X101343750Y-115920000D02*
X101856250Y-115920000D01*
G75*
G02*
X102075000Y-116138750I0J-218750D01*
G01*
X102075000Y-116576250D01*
G75*
G02*
X101856250Y-116795000I-218750J0D01*
G01*
X101343750Y-116795000D01*
G75*
G02*
X101125000Y-116576250I0J218750D01*
G01*
X101125000Y-116138750D01*
G75*
G02*
X101343750Y-115920000I218750J0D01*
G01*
G37*
G36*
G01*
X101343750Y-114345000D02*
X101856250Y-114345000D01*
G75*
G02*
X102075000Y-114563750I0J-218750D01*
G01*
X102075000Y-115001250D01*
G75*
G02*
X101856250Y-115220000I-218750J0D01*
G01*
X101343750Y-115220000D01*
G75*
G02*
X101125000Y-115001250I0J218750D01*
G01*
X101125000Y-114563750D01*
G75*
G02*
X101343750Y-114345000I218750J0D01*
G01*
G37*
%TD*%
%TO.C,R57*%
G36*
G01*
X172463750Y-72740000D02*
X172976250Y-72740000D01*
G75*
G02*
X173195000Y-72958750I0J-218750D01*
G01*
X173195000Y-73396250D01*
G75*
G02*
X172976250Y-73615000I-218750J0D01*
G01*
X172463750Y-73615000D01*
G75*
G02*
X172245000Y-73396250I0J218750D01*
G01*
X172245000Y-72958750D01*
G75*
G02*
X172463750Y-72740000I218750J0D01*
G01*
G37*
G36*
G01*
X172463750Y-71165000D02*
X172976250Y-71165000D01*
G75*
G02*
X173195000Y-71383750I0J-218750D01*
G01*
X173195000Y-71821250D01*
G75*
G02*
X172976250Y-72040000I-218750J0D01*
G01*
X172463750Y-72040000D01*
G75*
G02*
X172245000Y-71821250I0J218750D01*
G01*
X172245000Y-71383750D01*
G75*
G02*
X172463750Y-71165000I218750J0D01*
G01*
G37*
%TD*%
%TO.C,R56*%
G36*
G01*
X185163750Y-72740000D02*
X185676250Y-72740000D01*
G75*
G02*
X185895000Y-72958750I0J-218750D01*
G01*
X185895000Y-73396250D01*
G75*
G02*
X185676250Y-73615000I-218750J0D01*
G01*
X185163750Y-73615000D01*
G75*
G02*
X184945000Y-73396250I0J218750D01*
G01*
X184945000Y-72958750D01*
G75*
G02*
X185163750Y-72740000I218750J0D01*
G01*
G37*
G36*
G01*
X185163750Y-71165000D02*
X185676250Y-71165000D01*
G75*
G02*
X185895000Y-71383750I0J-218750D01*
G01*
X185895000Y-71821250D01*
G75*
G02*
X185676250Y-72040000I-218750J0D01*
G01*
X185163750Y-72040000D01*
G75*
G02*
X184945000Y-71821250I0J218750D01*
G01*
X184945000Y-71383750D01*
G75*
G02*
X185163750Y-71165000I218750J0D01*
G01*
G37*
%TD*%
%TO.C,R55*%
G36*
G01*
X175003750Y-72740000D02*
X175516250Y-72740000D01*
G75*
G02*
X175735000Y-72958750I0J-218750D01*
G01*
X175735000Y-73396250D01*
G75*
G02*
X175516250Y-73615000I-218750J0D01*
G01*
X175003750Y-73615000D01*
G75*
G02*
X174785000Y-73396250I0J218750D01*
G01*
X174785000Y-72958750D01*
G75*
G02*
X175003750Y-72740000I218750J0D01*
G01*
G37*
G36*
G01*
X175003750Y-71165000D02*
X175516250Y-71165000D01*
G75*
G02*
X175735000Y-71383750I0J-218750D01*
G01*
X175735000Y-71821250D01*
G75*
G02*
X175516250Y-72040000I-218750J0D01*
G01*
X175003750Y-72040000D01*
G75*
G02*
X174785000Y-71821250I0J218750D01*
G01*
X174785000Y-71383750D01*
G75*
G02*
X175003750Y-71165000I218750J0D01*
G01*
G37*
%TD*%
%TO.C,R54*%
G36*
G01*
X187703750Y-72740000D02*
X188216250Y-72740000D01*
G75*
G02*
X188435000Y-72958750I0J-218750D01*
G01*
X188435000Y-73396250D01*
G75*
G02*
X188216250Y-73615000I-218750J0D01*
G01*
X187703750Y-73615000D01*
G75*
G02*
X187485000Y-73396250I0J218750D01*
G01*
X187485000Y-72958750D01*
G75*
G02*
X187703750Y-72740000I218750J0D01*
G01*
G37*
G36*
G01*
X187703750Y-71165000D02*
X188216250Y-71165000D01*
G75*
G02*
X188435000Y-71383750I0J-218750D01*
G01*
X188435000Y-71821250D01*
G75*
G02*
X188216250Y-72040000I-218750J0D01*
G01*
X187703750Y-72040000D01*
G75*
G02*
X187485000Y-71821250I0J218750D01*
G01*
X187485000Y-71383750D01*
G75*
G02*
X187703750Y-71165000I218750J0D01*
G01*
G37*
%TD*%
%TO.C,R53*%
G36*
G01*
X177543750Y-72740000D02*
X178056250Y-72740000D01*
G75*
G02*
X178275000Y-72958750I0J-218750D01*
G01*
X178275000Y-73396250D01*
G75*
G02*
X178056250Y-73615000I-218750J0D01*
G01*
X177543750Y-73615000D01*
G75*
G02*
X177325000Y-73396250I0J218750D01*
G01*
X177325000Y-72958750D01*
G75*
G02*
X177543750Y-72740000I218750J0D01*
G01*
G37*
G36*
G01*
X177543750Y-71165000D02*
X178056250Y-71165000D01*
G75*
G02*
X178275000Y-71383750I0J-218750D01*
G01*
X178275000Y-71821250D01*
G75*
G02*
X178056250Y-72040000I-218750J0D01*
G01*
X177543750Y-72040000D01*
G75*
G02*
X177325000Y-71821250I0J218750D01*
G01*
X177325000Y-71383750D01*
G75*
G02*
X177543750Y-71165000I218750J0D01*
G01*
G37*
%TD*%
%TO.C,R52*%
G36*
G01*
X180083750Y-72740000D02*
X180596250Y-72740000D01*
G75*
G02*
X180815000Y-72958750I0J-218750D01*
G01*
X180815000Y-73396250D01*
G75*
G02*
X180596250Y-73615000I-218750J0D01*
G01*
X180083750Y-73615000D01*
G75*
G02*
X179865000Y-73396250I0J218750D01*
G01*
X179865000Y-72958750D01*
G75*
G02*
X180083750Y-72740000I218750J0D01*
G01*
G37*
G36*
G01*
X180083750Y-71165000D02*
X180596250Y-71165000D01*
G75*
G02*
X180815000Y-71383750I0J-218750D01*
G01*
X180815000Y-71821250D01*
G75*
G02*
X180596250Y-72040000I-218750J0D01*
G01*
X180083750Y-72040000D01*
G75*
G02*
X179865000Y-71821250I0J218750D01*
G01*
X179865000Y-71383750D01*
G75*
G02*
X180083750Y-71165000I218750J0D01*
G01*
G37*
%TD*%
%TO.C,R51*%
G36*
G01*
X182623750Y-72740000D02*
X183136250Y-72740000D01*
G75*
G02*
X183355000Y-72958750I0J-218750D01*
G01*
X183355000Y-73396250D01*
G75*
G02*
X183136250Y-73615000I-218750J0D01*
G01*
X182623750Y-73615000D01*
G75*
G02*
X182405000Y-73396250I0J218750D01*
G01*
X182405000Y-72958750D01*
G75*
G02*
X182623750Y-72740000I218750J0D01*
G01*
G37*
G36*
G01*
X182623750Y-71165000D02*
X183136250Y-71165000D01*
G75*
G02*
X183355000Y-71383750I0J-218750D01*
G01*
X183355000Y-71821250D01*
G75*
G02*
X183136250Y-72040000I-218750J0D01*
G01*
X182623750Y-72040000D01*
G75*
G02*
X182405000Y-71821250I0J218750D01*
G01*
X182405000Y-71383750D01*
G75*
G02*
X182623750Y-71165000I218750J0D01*
G01*
G37*
%TD*%
%TO.C,R63*%
G36*
G01*
X125986250Y-79660000D02*
X125473750Y-79660000D01*
G75*
G02*
X125255000Y-79441250I0J218750D01*
G01*
X125255000Y-79003750D01*
G75*
G02*
X125473750Y-78785000I218750J0D01*
G01*
X125986250Y-78785000D01*
G75*
G02*
X126205000Y-79003750I0J-218750D01*
G01*
X126205000Y-79441250D01*
G75*
G02*
X125986250Y-79660000I-218750J0D01*
G01*
G37*
G36*
G01*
X125986250Y-81235000D02*
X125473750Y-81235000D01*
G75*
G02*
X125255000Y-81016250I0J218750D01*
G01*
X125255000Y-80578750D01*
G75*
G02*
X125473750Y-80360000I218750J0D01*
G01*
X125986250Y-80360000D01*
G75*
G02*
X126205000Y-80578750I0J-218750D01*
G01*
X126205000Y-81016250D01*
G75*
G02*
X125986250Y-81235000I-218750J0D01*
G01*
G37*
%TD*%
%TO.C,R62*%
G36*
G01*
X119001250Y-79660000D02*
X118488750Y-79660000D01*
G75*
G02*
X118270000Y-79441250I0J218750D01*
G01*
X118270000Y-79003750D01*
G75*
G02*
X118488750Y-78785000I218750J0D01*
G01*
X119001250Y-78785000D01*
G75*
G02*
X119220000Y-79003750I0J-218750D01*
G01*
X119220000Y-79441250D01*
G75*
G02*
X119001250Y-79660000I-218750J0D01*
G01*
G37*
G36*
G01*
X119001250Y-81235000D02*
X118488750Y-81235000D01*
G75*
G02*
X118270000Y-81016250I0J218750D01*
G01*
X118270000Y-80578750D01*
G75*
G02*
X118488750Y-80360000I218750J0D01*
G01*
X119001250Y-80360000D01*
G75*
G02*
X119220000Y-80578750I0J-218750D01*
G01*
X119220000Y-81016250D01*
G75*
G02*
X119001250Y-81235000I-218750J0D01*
G01*
G37*
%TD*%
%TO.C,R42*%
G36*
G01*
X148240000Y-111503750D02*
X148240000Y-112016250D01*
G75*
G02*
X148021250Y-112235000I-218750J0D01*
G01*
X147583750Y-112235000D01*
G75*
G02*
X147365000Y-112016250I0J218750D01*
G01*
X147365000Y-111503750D01*
G75*
G02*
X147583750Y-111285000I218750J0D01*
G01*
X148021250Y-111285000D01*
G75*
G02*
X148240000Y-111503750I0J-218750D01*
G01*
G37*
G36*
G01*
X149815000Y-111503750D02*
X149815000Y-112016250D01*
G75*
G02*
X149596250Y-112235000I-218750J0D01*
G01*
X149158750Y-112235000D01*
G75*
G02*
X148940000Y-112016250I0J218750D01*
G01*
X148940000Y-111503750D01*
G75*
G02*
X149158750Y-111285000I218750J0D01*
G01*
X149596250Y-111285000D01*
G75*
G02*
X149815000Y-111503750I0J-218750D01*
G01*
G37*
%TD*%
%TO.C,R41*%
G36*
G01*
X143160000Y-114678750D02*
X143160000Y-115191250D01*
G75*
G02*
X142941250Y-115410000I-218750J0D01*
G01*
X142503750Y-115410000D01*
G75*
G02*
X142285000Y-115191250I0J218750D01*
G01*
X142285000Y-114678750D01*
G75*
G02*
X142503750Y-114460000I218750J0D01*
G01*
X142941250Y-114460000D01*
G75*
G02*
X143160000Y-114678750I0J-218750D01*
G01*
G37*
G36*
G01*
X144735000Y-114678750D02*
X144735000Y-115191250D01*
G75*
G02*
X144516250Y-115410000I-218750J0D01*
G01*
X144078750Y-115410000D01*
G75*
G02*
X143860000Y-115191250I0J218750D01*
G01*
X143860000Y-114678750D01*
G75*
G02*
X144078750Y-114460000I218750J0D01*
G01*
X144516250Y-114460000D01*
G75*
G02*
X144735000Y-114678750I0J-218750D01*
G01*
G37*
%TD*%
%TO.C,R40*%
G36*
G01*
X143160000Y-111503750D02*
X143160000Y-112016250D01*
G75*
G02*
X142941250Y-112235000I-218750J0D01*
G01*
X142503750Y-112235000D01*
G75*
G02*
X142285000Y-112016250I0J218750D01*
G01*
X142285000Y-111503750D01*
G75*
G02*
X142503750Y-111285000I218750J0D01*
G01*
X142941250Y-111285000D01*
G75*
G02*
X143160000Y-111503750I0J-218750D01*
G01*
G37*
G36*
G01*
X144735000Y-111503750D02*
X144735000Y-112016250D01*
G75*
G02*
X144516250Y-112235000I-218750J0D01*
G01*
X144078750Y-112235000D01*
G75*
G02*
X143860000Y-112016250I0J218750D01*
G01*
X143860000Y-111503750D01*
G75*
G02*
X144078750Y-111285000I218750J0D01*
G01*
X144516250Y-111285000D01*
G75*
G02*
X144735000Y-111503750I0J-218750D01*
G01*
G37*
%TD*%
%TO.C,R39*%
G36*
G01*
X143160000Y-117853750D02*
X143160000Y-118366250D01*
G75*
G02*
X142941250Y-118585000I-218750J0D01*
G01*
X142503750Y-118585000D01*
G75*
G02*
X142285000Y-118366250I0J218750D01*
G01*
X142285000Y-117853750D01*
G75*
G02*
X142503750Y-117635000I218750J0D01*
G01*
X142941250Y-117635000D01*
G75*
G02*
X143160000Y-117853750I0J-218750D01*
G01*
G37*
G36*
G01*
X144735000Y-117853750D02*
X144735000Y-118366250D01*
G75*
G02*
X144516250Y-118585000I-218750J0D01*
G01*
X144078750Y-118585000D01*
G75*
G02*
X143860000Y-118366250I0J218750D01*
G01*
X143860000Y-117853750D01*
G75*
G02*
X144078750Y-117635000I218750J0D01*
G01*
X144516250Y-117635000D01*
G75*
G02*
X144735000Y-117853750I0J-218750D01*
G01*
G37*
%TD*%
%TO.C,R38*%
G36*
G01*
X129161250Y-112680000D02*
X128648750Y-112680000D01*
G75*
G02*
X128430000Y-112461250I0J218750D01*
G01*
X128430000Y-112023750D01*
G75*
G02*
X128648750Y-111805000I218750J0D01*
G01*
X129161250Y-111805000D01*
G75*
G02*
X129380000Y-112023750I0J-218750D01*
G01*
X129380000Y-112461250D01*
G75*
G02*
X129161250Y-112680000I-218750J0D01*
G01*
G37*
G36*
G01*
X129161250Y-114255000D02*
X128648750Y-114255000D01*
G75*
G02*
X128430000Y-114036250I0J218750D01*
G01*
X128430000Y-113598750D01*
G75*
G02*
X128648750Y-113380000I218750J0D01*
G01*
X129161250Y-113380000D01*
G75*
G02*
X129380000Y-113598750I0J-218750D01*
G01*
X129380000Y-114036250D01*
G75*
G02*
X129161250Y-114255000I-218750J0D01*
G01*
G37*
%TD*%
%TO.C,R37*%
G36*
G01*
X125986250Y-112680000D02*
X125473750Y-112680000D01*
G75*
G02*
X125255000Y-112461250I0J218750D01*
G01*
X125255000Y-112023750D01*
G75*
G02*
X125473750Y-111805000I218750J0D01*
G01*
X125986250Y-111805000D01*
G75*
G02*
X126205000Y-112023750I0J-218750D01*
G01*
X126205000Y-112461250D01*
G75*
G02*
X125986250Y-112680000I-218750J0D01*
G01*
G37*
G36*
G01*
X125986250Y-114255000D02*
X125473750Y-114255000D01*
G75*
G02*
X125255000Y-114036250I0J218750D01*
G01*
X125255000Y-113598750D01*
G75*
G02*
X125473750Y-113380000I218750J0D01*
G01*
X125986250Y-113380000D01*
G75*
G02*
X126205000Y-113598750I0J-218750D01*
G01*
X126205000Y-114036250D01*
G75*
G02*
X125986250Y-114255000I-218750J0D01*
G01*
G37*
%TD*%
%TO.C,R36*%
G36*
G01*
X119123750Y-113380000D02*
X119636250Y-113380000D01*
G75*
G02*
X119855000Y-113598750I0J-218750D01*
G01*
X119855000Y-114036250D01*
G75*
G02*
X119636250Y-114255000I-218750J0D01*
G01*
X119123750Y-114255000D01*
G75*
G02*
X118905000Y-114036250I0J218750D01*
G01*
X118905000Y-113598750D01*
G75*
G02*
X119123750Y-113380000I218750J0D01*
G01*
G37*
G36*
G01*
X119123750Y-111805000D02*
X119636250Y-111805000D01*
G75*
G02*
X119855000Y-112023750I0J-218750D01*
G01*
X119855000Y-112461250D01*
G75*
G02*
X119636250Y-112680000I-218750J0D01*
G01*
X119123750Y-112680000D01*
G75*
G02*
X118905000Y-112461250I0J218750D01*
G01*
X118905000Y-112023750D01*
G75*
G02*
X119123750Y-111805000I218750J0D01*
G01*
G37*
%TD*%
%TO.C,R35*%
G36*
G01*
X148240000Y-98168750D02*
X148240000Y-98681250D01*
G75*
G02*
X148021250Y-98900000I-218750J0D01*
G01*
X147583750Y-98900000D01*
G75*
G02*
X147365000Y-98681250I0J218750D01*
G01*
X147365000Y-98168750D01*
G75*
G02*
X147583750Y-97950000I218750J0D01*
G01*
X148021250Y-97950000D01*
G75*
G02*
X148240000Y-98168750I0J-218750D01*
G01*
G37*
G36*
G01*
X149815000Y-98168750D02*
X149815000Y-98681250D01*
G75*
G02*
X149596250Y-98900000I-218750J0D01*
G01*
X149158750Y-98900000D01*
G75*
G02*
X148940000Y-98681250I0J218750D01*
G01*
X148940000Y-98168750D01*
G75*
G02*
X149158750Y-97950000I218750J0D01*
G01*
X149596250Y-97950000D01*
G75*
G02*
X149815000Y-98168750I0J-218750D01*
G01*
G37*
%TD*%
%TO.C,R34*%
G36*
G01*
X143160000Y-101343750D02*
X143160000Y-101856250D01*
G75*
G02*
X142941250Y-102075000I-218750J0D01*
G01*
X142503750Y-102075000D01*
G75*
G02*
X142285000Y-101856250I0J218750D01*
G01*
X142285000Y-101343750D01*
G75*
G02*
X142503750Y-101125000I218750J0D01*
G01*
X142941250Y-101125000D01*
G75*
G02*
X143160000Y-101343750I0J-218750D01*
G01*
G37*
G36*
G01*
X144735000Y-101343750D02*
X144735000Y-101856250D01*
G75*
G02*
X144516250Y-102075000I-218750J0D01*
G01*
X144078750Y-102075000D01*
G75*
G02*
X143860000Y-101856250I0J218750D01*
G01*
X143860000Y-101343750D01*
G75*
G02*
X144078750Y-101125000I218750J0D01*
G01*
X144516250Y-101125000D01*
G75*
G02*
X144735000Y-101343750I0J-218750D01*
G01*
G37*
%TD*%
%TO.C,R33*%
G36*
G01*
X143160000Y-98168750D02*
X143160000Y-98681250D01*
G75*
G02*
X142941250Y-98900000I-218750J0D01*
G01*
X142503750Y-98900000D01*
G75*
G02*
X142285000Y-98681250I0J218750D01*
G01*
X142285000Y-98168750D01*
G75*
G02*
X142503750Y-97950000I218750J0D01*
G01*
X142941250Y-97950000D01*
G75*
G02*
X143160000Y-98168750I0J-218750D01*
G01*
G37*
G36*
G01*
X144735000Y-98168750D02*
X144735000Y-98681250D01*
G75*
G02*
X144516250Y-98900000I-218750J0D01*
G01*
X144078750Y-98900000D01*
G75*
G02*
X143860000Y-98681250I0J218750D01*
G01*
X143860000Y-98168750D01*
G75*
G02*
X144078750Y-97950000I218750J0D01*
G01*
X144516250Y-97950000D01*
G75*
G02*
X144735000Y-98168750I0J-218750D01*
G01*
G37*
%TD*%
%TO.C,R32*%
G36*
G01*
X143160000Y-104518750D02*
X143160000Y-105031250D01*
G75*
G02*
X142941250Y-105250000I-218750J0D01*
G01*
X142503750Y-105250000D01*
G75*
G02*
X142285000Y-105031250I0J218750D01*
G01*
X142285000Y-104518750D01*
G75*
G02*
X142503750Y-104300000I218750J0D01*
G01*
X142941250Y-104300000D01*
G75*
G02*
X143160000Y-104518750I0J-218750D01*
G01*
G37*
G36*
G01*
X144735000Y-104518750D02*
X144735000Y-105031250D01*
G75*
G02*
X144516250Y-105250000I-218750J0D01*
G01*
X144078750Y-105250000D01*
G75*
G02*
X143860000Y-105031250I0J218750D01*
G01*
X143860000Y-104518750D01*
G75*
G02*
X144078750Y-104300000I218750J0D01*
G01*
X144516250Y-104300000D01*
G75*
G02*
X144735000Y-104518750I0J-218750D01*
G01*
G37*
%TD*%
%TO.C,R31*%
G36*
G01*
X129161250Y-99345000D02*
X128648750Y-99345000D01*
G75*
G02*
X128430000Y-99126250I0J218750D01*
G01*
X128430000Y-98688750D01*
G75*
G02*
X128648750Y-98470000I218750J0D01*
G01*
X129161250Y-98470000D01*
G75*
G02*
X129380000Y-98688750I0J-218750D01*
G01*
X129380000Y-99126250D01*
G75*
G02*
X129161250Y-99345000I-218750J0D01*
G01*
G37*
G36*
G01*
X129161250Y-100920000D02*
X128648750Y-100920000D01*
G75*
G02*
X128430000Y-100701250I0J218750D01*
G01*
X128430000Y-100263750D01*
G75*
G02*
X128648750Y-100045000I218750J0D01*
G01*
X129161250Y-100045000D01*
G75*
G02*
X129380000Y-100263750I0J-218750D01*
G01*
X129380000Y-100701250D01*
G75*
G02*
X129161250Y-100920000I-218750J0D01*
G01*
G37*
%TD*%
%TO.C,R30*%
G36*
G01*
X125986250Y-99345000D02*
X125473750Y-99345000D01*
G75*
G02*
X125255000Y-99126250I0J218750D01*
G01*
X125255000Y-98688750D01*
G75*
G02*
X125473750Y-98470000I218750J0D01*
G01*
X125986250Y-98470000D01*
G75*
G02*
X126205000Y-98688750I0J-218750D01*
G01*
X126205000Y-99126250D01*
G75*
G02*
X125986250Y-99345000I-218750J0D01*
G01*
G37*
G36*
G01*
X125986250Y-100920000D02*
X125473750Y-100920000D01*
G75*
G02*
X125255000Y-100701250I0J218750D01*
G01*
X125255000Y-100263750D01*
G75*
G02*
X125473750Y-100045000I218750J0D01*
G01*
X125986250Y-100045000D01*
G75*
G02*
X126205000Y-100263750I0J-218750D01*
G01*
X126205000Y-100701250D01*
G75*
G02*
X125986250Y-100920000I-218750J0D01*
G01*
G37*
%TD*%
%TO.C,R29*%
G36*
G01*
X119123750Y-100045000D02*
X119636250Y-100045000D01*
G75*
G02*
X119855000Y-100263750I0J-218750D01*
G01*
X119855000Y-100701250D01*
G75*
G02*
X119636250Y-100920000I-218750J0D01*
G01*
X119123750Y-100920000D01*
G75*
G02*
X118905000Y-100701250I0J218750D01*
G01*
X118905000Y-100263750D01*
G75*
G02*
X119123750Y-100045000I218750J0D01*
G01*
G37*
G36*
G01*
X119123750Y-98470000D02*
X119636250Y-98470000D01*
G75*
G02*
X119855000Y-98688750I0J-218750D01*
G01*
X119855000Y-99126250D01*
G75*
G02*
X119636250Y-99345000I-218750J0D01*
G01*
X119123750Y-99345000D01*
G75*
G02*
X118905000Y-99126250I0J218750D01*
G01*
X118905000Y-98688750D01*
G75*
G02*
X119123750Y-98470000I218750J0D01*
G01*
G37*
%TD*%
%TO.C,R28*%
G36*
G01*
X148240000Y-84833750D02*
X148240000Y-85346250D01*
G75*
G02*
X148021250Y-85565000I-218750J0D01*
G01*
X147583750Y-85565000D01*
G75*
G02*
X147365000Y-85346250I0J218750D01*
G01*
X147365000Y-84833750D01*
G75*
G02*
X147583750Y-84615000I218750J0D01*
G01*
X148021250Y-84615000D01*
G75*
G02*
X148240000Y-84833750I0J-218750D01*
G01*
G37*
G36*
G01*
X149815000Y-84833750D02*
X149815000Y-85346250D01*
G75*
G02*
X149596250Y-85565000I-218750J0D01*
G01*
X149158750Y-85565000D01*
G75*
G02*
X148940000Y-85346250I0J218750D01*
G01*
X148940000Y-84833750D01*
G75*
G02*
X149158750Y-84615000I218750J0D01*
G01*
X149596250Y-84615000D01*
G75*
G02*
X149815000Y-84833750I0J-218750D01*
G01*
G37*
%TD*%
%TO.C,R27*%
G36*
G01*
X143160000Y-88008750D02*
X143160000Y-88521250D01*
G75*
G02*
X142941250Y-88740000I-218750J0D01*
G01*
X142503750Y-88740000D01*
G75*
G02*
X142285000Y-88521250I0J218750D01*
G01*
X142285000Y-88008750D01*
G75*
G02*
X142503750Y-87790000I218750J0D01*
G01*
X142941250Y-87790000D01*
G75*
G02*
X143160000Y-88008750I0J-218750D01*
G01*
G37*
G36*
G01*
X144735000Y-88008750D02*
X144735000Y-88521250D01*
G75*
G02*
X144516250Y-88740000I-218750J0D01*
G01*
X144078750Y-88740000D01*
G75*
G02*
X143860000Y-88521250I0J218750D01*
G01*
X143860000Y-88008750D01*
G75*
G02*
X144078750Y-87790000I218750J0D01*
G01*
X144516250Y-87790000D01*
G75*
G02*
X144735000Y-88008750I0J-218750D01*
G01*
G37*
%TD*%
%TO.C,R26*%
G36*
G01*
X143160000Y-84833750D02*
X143160000Y-85346250D01*
G75*
G02*
X142941250Y-85565000I-218750J0D01*
G01*
X142503750Y-85565000D01*
G75*
G02*
X142285000Y-85346250I0J218750D01*
G01*
X142285000Y-84833750D01*
G75*
G02*
X142503750Y-84615000I218750J0D01*
G01*
X142941250Y-84615000D01*
G75*
G02*
X143160000Y-84833750I0J-218750D01*
G01*
G37*
G36*
G01*
X144735000Y-84833750D02*
X144735000Y-85346250D01*
G75*
G02*
X144516250Y-85565000I-218750J0D01*
G01*
X144078750Y-85565000D01*
G75*
G02*
X143860000Y-85346250I0J218750D01*
G01*
X143860000Y-84833750D01*
G75*
G02*
X144078750Y-84615000I218750J0D01*
G01*
X144516250Y-84615000D01*
G75*
G02*
X144735000Y-84833750I0J-218750D01*
G01*
G37*
%TD*%
%TO.C,R25*%
G36*
G01*
X143160000Y-93088750D02*
X143160000Y-93601250D01*
G75*
G02*
X142941250Y-93820000I-218750J0D01*
G01*
X142503750Y-93820000D01*
G75*
G02*
X142285000Y-93601250I0J218750D01*
G01*
X142285000Y-93088750D01*
G75*
G02*
X142503750Y-92870000I218750J0D01*
G01*
X142941250Y-92870000D01*
G75*
G02*
X143160000Y-93088750I0J-218750D01*
G01*
G37*
G36*
G01*
X144735000Y-93088750D02*
X144735000Y-93601250D01*
G75*
G02*
X144516250Y-93820000I-218750J0D01*
G01*
X144078750Y-93820000D01*
G75*
G02*
X143860000Y-93601250I0J218750D01*
G01*
X143860000Y-93088750D01*
G75*
G02*
X144078750Y-92870000I218750J0D01*
G01*
X144516250Y-92870000D01*
G75*
G02*
X144735000Y-93088750I0J-218750D01*
G01*
G37*
%TD*%
%TO.C,R24*%
G36*
G01*
X129161250Y-86010000D02*
X128648750Y-86010000D01*
G75*
G02*
X128430000Y-85791250I0J218750D01*
G01*
X128430000Y-85353750D01*
G75*
G02*
X128648750Y-85135000I218750J0D01*
G01*
X129161250Y-85135000D01*
G75*
G02*
X129380000Y-85353750I0J-218750D01*
G01*
X129380000Y-85791250D01*
G75*
G02*
X129161250Y-86010000I-218750J0D01*
G01*
G37*
G36*
G01*
X129161250Y-87585000D02*
X128648750Y-87585000D01*
G75*
G02*
X128430000Y-87366250I0J218750D01*
G01*
X128430000Y-86928750D01*
G75*
G02*
X128648750Y-86710000I218750J0D01*
G01*
X129161250Y-86710000D01*
G75*
G02*
X129380000Y-86928750I0J-218750D01*
G01*
X129380000Y-87366250D01*
G75*
G02*
X129161250Y-87585000I-218750J0D01*
G01*
G37*
%TD*%
%TO.C,R23*%
G36*
G01*
X125986250Y-86010000D02*
X125473750Y-86010000D01*
G75*
G02*
X125255000Y-85791250I0J218750D01*
G01*
X125255000Y-85353750D01*
G75*
G02*
X125473750Y-85135000I218750J0D01*
G01*
X125986250Y-85135000D01*
G75*
G02*
X126205000Y-85353750I0J-218750D01*
G01*
X126205000Y-85791250D01*
G75*
G02*
X125986250Y-86010000I-218750J0D01*
G01*
G37*
G36*
G01*
X125986250Y-87585000D02*
X125473750Y-87585000D01*
G75*
G02*
X125255000Y-87366250I0J218750D01*
G01*
X125255000Y-86928750D01*
G75*
G02*
X125473750Y-86710000I218750J0D01*
G01*
X125986250Y-86710000D01*
G75*
G02*
X126205000Y-86928750I0J-218750D01*
G01*
X126205000Y-87366250D01*
G75*
G02*
X125986250Y-87585000I-218750J0D01*
G01*
G37*
%TD*%
%TO.C,R22*%
G36*
G01*
X119123750Y-86862500D02*
X119636250Y-86862500D01*
G75*
G02*
X119855000Y-87081250I0J-218750D01*
G01*
X119855000Y-87518750D01*
G75*
G02*
X119636250Y-87737500I-218750J0D01*
G01*
X119123750Y-87737500D01*
G75*
G02*
X118905000Y-87518750I0J218750D01*
G01*
X118905000Y-87081250D01*
G75*
G02*
X119123750Y-86862500I218750J0D01*
G01*
G37*
G36*
G01*
X119123750Y-85287500D02*
X119636250Y-85287500D01*
G75*
G02*
X119855000Y-85506250I0J-218750D01*
G01*
X119855000Y-85943750D01*
G75*
G02*
X119636250Y-86162500I-218750J0D01*
G01*
X119123750Y-86162500D01*
G75*
G02*
X118905000Y-85943750I0J218750D01*
G01*
X118905000Y-85506250D01*
G75*
G02*
X119123750Y-85287500I218750J0D01*
G01*
G37*
%TD*%
%TO.C,R21*%
G36*
G01*
X196500000Y-145793750D02*
X196500000Y-146306250D01*
G75*
G02*
X196281250Y-146525000I-218750J0D01*
G01*
X195843750Y-146525000D01*
G75*
G02*
X195625000Y-146306250I0J218750D01*
G01*
X195625000Y-145793750D01*
G75*
G02*
X195843750Y-145575000I218750J0D01*
G01*
X196281250Y-145575000D01*
G75*
G02*
X196500000Y-145793750I0J-218750D01*
G01*
G37*
G36*
G01*
X198075000Y-145793750D02*
X198075000Y-146306250D01*
G75*
G02*
X197856250Y-146525000I-218750J0D01*
G01*
X197418750Y-146525000D01*
G75*
G02*
X197200000Y-146306250I0J218750D01*
G01*
X197200000Y-145793750D01*
G75*
G02*
X197418750Y-145575000I218750J0D01*
G01*
X197856250Y-145575000D01*
G75*
G02*
X198075000Y-145793750I0J-218750D01*
G01*
G37*
%TD*%
%TO.C,R20*%
G36*
G01*
X196500000Y-138173750D02*
X196500000Y-138686250D01*
G75*
G02*
X196281250Y-138905000I-218750J0D01*
G01*
X195843750Y-138905000D01*
G75*
G02*
X195625000Y-138686250I0J218750D01*
G01*
X195625000Y-138173750D01*
G75*
G02*
X195843750Y-137955000I218750J0D01*
G01*
X196281250Y-137955000D01*
G75*
G02*
X196500000Y-138173750I0J-218750D01*
G01*
G37*
G36*
G01*
X198075000Y-138173750D02*
X198075000Y-138686250D01*
G75*
G02*
X197856250Y-138905000I-218750J0D01*
G01*
X197418750Y-138905000D01*
G75*
G02*
X197200000Y-138686250I0J218750D01*
G01*
X197200000Y-138173750D01*
G75*
G02*
X197418750Y-137955000I218750J0D01*
G01*
X197856250Y-137955000D01*
G75*
G02*
X198075000Y-138173750I0J-218750D01*
G01*
G37*
%TD*%
%TO.C,R19*%
G36*
G01*
X196500000Y-134998750D02*
X196500000Y-135511250D01*
G75*
G02*
X196281250Y-135730000I-218750J0D01*
G01*
X195843750Y-135730000D01*
G75*
G02*
X195625000Y-135511250I0J218750D01*
G01*
X195625000Y-134998750D01*
G75*
G02*
X195843750Y-134780000I218750J0D01*
G01*
X196281250Y-134780000D01*
G75*
G02*
X196500000Y-134998750I0J-218750D01*
G01*
G37*
G36*
G01*
X198075000Y-134998750D02*
X198075000Y-135511250D01*
G75*
G02*
X197856250Y-135730000I-218750J0D01*
G01*
X197418750Y-135730000D01*
G75*
G02*
X197200000Y-135511250I0J218750D01*
G01*
X197200000Y-134998750D01*
G75*
G02*
X197418750Y-134780000I218750J0D01*
G01*
X197856250Y-134780000D01*
G75*
G02*
X198075000Y-134998750I0J-218750D01*
G01*
G37*
%TD*%
%TO.C,R18*%
G36*
G01*
X182530000Y-145793750D02*
X182530000Y-146306250D01*
G75*
G02*
X182311250Y-146525000I-218750J0D01*
G01*
X181873750Y-146525000D01*
G75*
G02*
X181655000Y-146306250I0J218750D01*
G01*
X181655000Y-145793750D01*
G75*
G02*
X181873750Y-145575000I218750J0D01*
G01*
X182311250Y-145575000D01*
G75*
G02*
X182530000Y-145793750I0J-218750D01*
G01*
G37*
G36*
G01*
X184105000Y-145793750D02*
X184105000Y-146306250D01*
G75*
G02*
X183886250Y-146525000I-218750J0D01*
G01*
X183448750Y-146525000D01*
G75*
G02*
X183230000Y-146306250I0J218750D01*
G01*
X183230000Y-145793750D01*
G75*
G02*
X183448750Y-145575000I218750J0D01*
G01*
X183886250Y-145575000D01*
G75*
G02*
X184105000Y-145793750I0J-218750D01*
G01*
G37*
%TD*%
%TO.C,R17*%
G36*
G01*
X182530000Y-138173750D02*
X182530000Y-138686250D01*
G75*
G02*
X182311250Y-138905000I-218750J0D01*
G01*
X181873750Y-138905000D01*
G75*
G02*
X181655000Y-138686250I0J218750D01*
G01*
X181655000Y-138173750D01*
G75*
G02*
X181873750Y-137955000I218750J0D01*
G01*
X182311250Y-137955000D01*
G75*
G02*
X182530000Y-138173750I0J-218750D01*
G01*
G37*
G36*
G01*
X184105000Y-138173750D02*
X184105000Y-138686250D01*
G75*
G02*
X183886250Y-138905000I-218750J0D01*
G01*
X183448750Y-138905000D01*
G75*
G02*
X183230000Y-138686250I0J218750D01*
G01*
X183230000Y-138173750D01*
G75*
G02*
X183448750Y-137955000I218750J0D01*
G01*
X183886250Y-137955000D01*
G75*
G02*
X184105000Y-138173750I0J-218750D01*
G01*
G37*
%TD*%
%TO.C,R16*%
G36*
G01*
X182530000Y-134998750D02*
X182530000Y-135511250D01*
G75*
G02*
X182311250Y-135730000I-218750J0D01*
G01*
X181873750Y-135730000D01*
G75*
G02*
X181655000Y-135511250I0J218750D01*
G01*
X181655000Y-134998750D01*
G75*
G02*
X181873750Y-134780000I218750J0D01*
G01*
X182311250Y-134780000D01*
G75*
G02*
X182530000Y-134998750I0J-218750D01*
G01*
G37*
G36*
G01*
X184105000Y-134998750D02*
X184105000Y-135511250D01*
G75*
G02*
X183886250Y-135730000I-218750J0D01*
G01*
X183448750Y-135730000D01*
G75*
G02*
X183230000Y-135511250I0J218750D01*
G01*
X183230000Y-134998750D01*
G75*
G02*
X183448750Y-134780000I218750J0D01*
G01*
X183886250Y-134780000D01*
G75*
G02*
X184105000Y-134998750I0J-218750D01*
G01*
G37*
%TD*%
%TO.C,R15*%
G36*
G01*
X168560000Y-145793750D02*
X168560000Y-146306250D01*
G75*
G02*
X168341250Y-146525000I-218750J0D01*
G01*
X167903750Y-146525000D01*
G75*
G02*
X167685000Y-146306250I0J218750D01*
G01*
X167685000Y-145793750D01*
G75*
G02*
X167903750Y-145575000I218750J0D01*
G01*
X168341250Y-145575000D01*
G75*
G02*
X168560000Y-145793750I0J-218750D01*
G01*
G37*
G36*
G01*
X170135000Y-145793750D02*
X170135000Y-146306250D01*
G75*
G02*
X169916250Y-146525000I-218750J0D01*
G01*
X169478750Y-146525000D01*
G75*
G02*
X169260000Y-146306250I0J218750D01*
G01*
X169260000Y-145793750D01*
G75*
G02*
X169478750Y-145575000I218750J0D01*
G01*
X169916250Y-145575000D01*
G75*
G02*
X170135000Y-145793750I0J-218750D01*
G01*
G37*
%TD*%
%TO.C,R14*%
G36*
G01*
X168560000Y-138173750D02*
X168560000Y-138686250D01*
G75*
G02*
X168341250Y-138905000I-218750J0D01*
G01*
X167903750Y-138905000D01*
G75*
G02*
X167685000Y-138686250I0J218750D01*
G01*
X167685000Y-138173750D01*
G75*
G02*
X167903750Y-137955000I218750J0D01*
G01*
X168341250Y-137955000D01*
G75*
G02*
X168560000Y-138173750I0J-218750D01*
G01*
G37*
G36*
G01*
X170135000Y-138173750D02*
X170135000Y-138686250D01*
G75*
G02*
X169916250Y-138905000I-218750J0D01*
G01*
X169478750Y-138905000D01*
G75*
G02*
X169260000Y-138686250I0J218750D01*
G01*
X169260000Y-138173750D01*
G75*
G02*
X169478750Y-137955000I218750J0D01*
G01*
X169916250Y-137955000D01*
G75*
G02*
X170135000Y-138173750I0J-218750D01*
G01*
G37*
%TD*%
%TO.C,R13*%
G36*
G01*
X168560000Y-134998750D02*
X168560000Y-135511250D01*
G75*
G02*
X168341250Y-135730000I-218750J0D01*
G01*
X167903750Y-135730000D01*
G75*
G02*
X167685000Y-135511250I0J218750D01*
G01*
X167685000Y-134998750D01*
G75*
G02*
X167903750Y-134780000I218750J0D01*
G01*
X168341250Y-134780000D01*
G75*
G02*
X168560000Y-134998750I0J-218750D01*
G01*
G37*
G36*
G01*
X170135000Y-134998750D02*
X170135000Y-135511250D01*
G75*
G02*
X169916250Y-135730000I-218750J0D01*
G01*
X169478750Y-135730000D01*
G75*
G02*
X169260000Y-135511250I0J218750D01*
G01*
X169260000Y-134998750D01*
G75*
G02*
X169478750Y-134780000I218750J0D01*
G01*
X169916250Y-134780000D01*
G75*
G02*
X170135000Y-134998750I0J-218750D01*
G01*
G37*
%TD*%
%TO.C,R12*%
G36*
G01*
X154590000Y-145793750D02*
X154590000Y-146306250D01*
G75*
G02*
X154371250Y-146525000I-218750J0D01*
G01*
X153933750Y-146525000D01*
G75*
G02*
X153715000Y-146306250I0J218750D01*
G01*
X153715000Y-145793750D01*
G75*
G02*
X153933750Y-145575000I218750J0D01*
G01*
X154371250Y-145575000D01*
G75*
G02*
X154590000Y-145793750I0J-218750D01*
G01*
G37*
G36*
G01*
X156165000Y-145793750D02*
X156165000Y-146306250D01*
G75*
G02*
X155946250Y-146525000I-218750J0D01*
G01*
X155508750Y-146525000D01*
G75*
G02*
X155290000Y-146306250I0J218750D01*
G01*
X155290000Y-145793750D01*
G75*
G02*
X155508750Y-145575000I218750J0D01*
G01*
X155946250Y-145575000D01*
G75*
G02*
X156165000Y-145793750I0J-218750D01*
G01*
G37*
%TD*%
%TO.C,R11*%
G36*
G01*
X154590000Y-138173750D02*
X154590000Y-138686250D01*
G75*
G02*
X154371250Y-138905000I-218750J0D01*
G01*
X153933750Y-138905000D01*
G75*
G02*
X153715000Y-138686250I0J218750D01*
G01*
X153715000Y-138173750D01*
G75*
G02*
X153933750Y-137955000I218750J0D01*
G01*
X154371250Y-137955000D01*
G75*
G02*
X154590000Y-138173750I0J-218750D01*
G01*
G37*
G36*
G01*
X156165000Y-138173750D02*
X156165000Y-138686250D01*
G75*
G02*
X155946250Y-138905000I-218750J0D01*
G01*
X155508750Y-138905000D01*
G75*
G02*
X155290000Y-138686250I0J218750D01*
G01*
X155290000Y-138173750D01*
G75*
G02*
X155508750Y-137955000I218750J0D01*
G01*
X155946250Y-137955000D01*
G75*
G02*
X156165000Y-138173750I0J-218750D01*
G01*
G37*
%TD*%
%TO.C,R10*%
G36*
G01*
X154590000Y-134998750D02*
X154590000Y-135511250D01*
G75*
G02*
X154371250Y-135730000I-218750J0D01*
G01*
X153933750Y-135730000D01*
G75*
G02*
X153715000Y-135511250I0J218750D01*
G01*
X153715000Y-134998750D01*
G75*
G02*
X153933750Y-134780000I218750J0D01*
G01*
X154371250Y-134780000D01*
G75*
G02*
X154590000Y-134998750I0J-218750D01*
G01*
G37*
G36*
G01*
X156165000Y-134998750D02*
X156165000Y-135511250D01*
G75*
G02*
X155946250Y-135730000I-218750J0D01*
G01*
X155508750Y-135730000D01*
G75*
G02*
X155290000Y-135511250I0J218750D01*
G01*
X155290000Y-134998750D01*
G75*
G02*
X155508750Y-134780000I218750J0D01*
G01*
X155946250Y-134780000D01*
G75*
G02*
X156165000Y-134998750I0J-218750D01*
G01*
G37*
%TD*%
%TO.C,R9*%
G36*
G01*
X140620000Y-145793750D02*
X140620000Y-146306250D01*
G75*
G02*
X140401250Y-146525000I-218750J0D01*
G01*
X139963750Y-146525000D01*
G75*
G02*
X139745000Y-146306250I0J218750D01*
G01*
X139745000Y-145793750D01*
G75*
G02*
X139963750Y-145575000I218750J0D01*
G01*
X140401250Y-145575000D01*
G75*
G02*
X140620000Y-145793750I0J-218750D01*
G01*
G37*
G36*
G01*
X142195000Y-145793750D02*
X142195000Y-146306250D01*
G75*
G02*
X141976250Y-146525000I-218750J0D01*
G01*
X141538750Y-146525000D01*
G75*
G02*
X141320000Y-146306250I0J218750D01*
G01*
X141320000Y-145793750D01*
G75*
G02*
X141538750Y-145575000I218750J0D01*
G01*
X141976250Y-145575000D01*
G75*
G02*
X142195000Y-145793750I0J-218750D01*
G01*
G37*
%TD*%
%TO.C,R8*%
G36*
G01*
X140620000Y-138173750D02*
X140620000Y-138686250D01*
G75*
G02*
X140401250Y-138905000I-218750J0D01*
G01*
X139963750Y-138905000D01*
G75*
G02*
X139745000Y-138686250I0J218750D01*
G01*
X139745000Y-138173750D01*
G75*
G02*
X139963750Y-137955000I218750J0D01*
G01*
X140401250Y-137955000D01*
G75*
G02*
X140620000Y-138173750I0J-218750D01*
G01*
G37*
G36*
G01*
X142195000Y-138173750D02*
X142195000Y-138686250D01*
G75*
G02*
X141976250Y-138905000I-218750J0D01*
G01*
X141538750Y-138905000D01*
G75*
G02*
X141320000Y-138686250I0J218750D01*
G01*
X141320000Y-138173750D01*
G75*
G02*
X141538750Y-137955000I218750J0D01*
G01*
X141976250Y-137955000D01*
G75*
G02*
X142195000Y-138173750I0J-218750D01*
G01*
G37*
%TD*%
%TO.C,R7*%
G36*
G01*
X140620000Y-134998750D02*
X140620000Y-135511250D01*
G75*
G02*
X140401250Y-135730000I-218750J0D01*
G01*
X139963750Y-135730000D01*
G75*
G02*
X139745000Y-135511250I0J218750D01*
G01*
X139745000Y-134998750D01*
G75*
G02*
X139963750Y-134780000I218750J0D01*
G01*
X140401250Y-134780000D01*
G75*
G02*
X140620000Y-134998750I0J-218750D01*
G01*
G37*
G36*
G01*
X142195000Y-134998750D02*
X142195000Y-135511250D01*
G75*
G02*
X141976250Y-135730000I-218750J0D01*
G01*
X141538750Y-135730000D01*
G75*
G02*
X141320000Y-135511250I0J218750D01*
G01*
X141320000Y-134998750D01*
G75*
G02*
X141538750Y-134780000I218750J0D01*
G01*
X141976250Y-134780000D01*
G75*
G02*
X142195000Y-134998750I0J-218750D01*
G01*
G37*
%TD*%
%TO.C,R6*%
G36*
G01*
X126650000Y-145793750D02*
X126650000Y-146306250D01*
G75*
G02*
X126431250Y-146525000I-218750J0D01*
G01*
X125993750Y-146525000D01*
G75*
G02*
X125775000Y-146306250I0J218750D01*
G01*
X125775000Y-145793750D01*
G75*
G02*
X125993750Y-145575000I218750J0D01*
G01*
X126431250Y-145575000D01*
G75*
G02*
X126650000Y-145793750I0J-218750D01*
G01*
G37*
G36*
G01*
X128225000Y-145793750D02*
X128225000Y-146306250D01*
G75*
G02*
X128006250Y-146525000I-218750J0D01*
G01*
X127568750Y-146525000D01*
G75*
G02*
X127350000Y-146306250I0J218750D01*
G01*
X127350000Y-145793750D01*
G75*
G02*
X127568750Y-145575000I218750J0D01*
G01*
X128006250Y-145575000D01*
G75*
G02*
X128225000Y-145793750I0J-218750D01*
G01*
G37*
%TD*%
%TO.C,R5*%
G36*
G01*
X126650000Y-138173750D02*
X126650000Y-138686250D01*
G75*
G02*
X126431250Y-138905000I-218750J0D01*
G01*
X125993750Y-138905000D01*
G75*
G02*
X125775000Y-138686250I0J218750D01*
G01*
X125775000Y-138173750D01*
G75*
G02*
X125993750Y-137955000I218750J0D01*
G01*
X126431250Y-137955000D01*
G75*
G02*
X126650000Y-138173750I0J-218750D01*
G01*
G37*
G36*
G01*
X128225000Y-138173750D02*
X128225000Y-138686250D01*
G75*
G02*
X128006250Y-138905000I-218750J0D01*
G01*
X127568750Y-138905000D01*
G75*
G02*
X127350000Y-138686250I0J218750D01*
G01*
X127350000Y-138173750D01*
G75*
G02*
X127568750Y-137955000I218750J0D01*
G01*
X128006250Y-137955000D01*
G75*
G02*
X128225000Y-138173750I0J-218750D01*
G01*
G37*
%TD*%
%TO.C,R4*%
G36*
G01*
X126650000Y-134998750D02*
X126650000Y-135511250D01*
G75*
G02*
X126431250Y-135730000I-218750J0D01*
G01*
X125993750Y-135730000D01*
G75*
G02*
X125775000Y-135511250I0J218750D01*
G01*
X125775000Y-134998750D01*
G75*
G02*
X125993750Y-134780000I218750J0D01*
G01*
X126431250Y-134780000D01*
G75*
G02*
X126650000Y-134998750I0J-218750D01*
G01*
G37*
G36*
G01*
X128225000Y-134998750D02*
X128225000Y-135511250D01*
G75*
G02*
X128006250Y-135730000I-218750J0D01*
G01*
X127568750Y-135730000D01*
G75*
G02*
X127350000Y-135511250I0J218750D01*
G01*
X127350000Y-134998750D01*
G75*
G02*
X127568750Y-134780000I218750J0D01*
G01*
X128006250Y-134780000D01*
G75*
G02*
X128225000Y-134998750I0J-218750D01*
G01*
G37*
%TD*%
%TO.C,R3*%
G36*
G01*
X112680000Y-145793750D02*
X112680000Y-146306250D01*
G75*
G02*
X112461250Y-146525000I-218750J0D01*
G01*
X112023750Y-146525000D01*
G75*
G02*
X111805000Y-146306250I0J218750D01*
G01*
X111805000Y-145793750D01*
G75*
G02*
X112023750Y-145575000I218750J0D01*
G01*
X112461250Y-145575000D01*
G75*
G02*
X112680000Y-145793750I0J-218750D01*
G01*
G37*
G36*
G01*
X114255000Y-145793750D02*
X114255000Y-146306250D01*
G75*
G02*
X114036250Y-146525000I-218750J0D01*
G01*
X113598750Y-146525000D01*
G75*
G02*
X113380000Y-146306250I0J218750D01*
G01*
X113380000Y-145793750D01*
G75*
G02*
X113598750Y-145575000I218750J0D01*
G01*
X114036250Y-145575000D01*
G75*
G02*
X114255000Y-145793750I0J-218750D01*
G01*
G37*
%TD*%
%TO.C,R2*%
G36*
G01*
X112680000Y-138173750D02*
X112680000Y-138686250D01*
G75*
G02*
X112461250Y-138905000I-218750J0D01*
G01*
X112023750Y-138905000D01*
G75*
G02*
X111805000Y-138686250I0J218750D01*
G01*
X111805000Y-138173750D01*
G75*
G02*
X112023750Y-137955000I218750J0D01*
G01*
X112461250Y-137955000D01*
G75*
G02*
X112680000Y-138173750I0J-218750D01*
G01*
G37*
G36*
G01*
X114255000Y-138173750D02*
X114255000Y-138686250D01*
G75*
G02*
X114036250Y-138905000I-218750J0D01*
G01*
X113598750Y-138905000D01*
G75*
G02*
X113380000Y-138686250I0J218750D01*
G01*
X113380000Y-138173750D01*
G75*
G02*
X113598750Y-137955000I218750J0D01*
G01*
X114036250Y-137955000D01*
G75*
G02*
X114255000Y-138173750I0J-218750D01*
G01*
G37*
%TD*%
%TO.C,R1*%
G36*
G01*
X112680000Y-134998750D02*
X112680000Y-135511250D01*
G75*
G02*
X112461250Y-135730000I-218750J0D01*
G01*
X112023750Y-135730000D01*
G75*
G02*
X111805000Y-135511250I0J218750D01*
G01*
X111805000Y-134998750D01*
G75*
G02*
X112023750Y-134780000I218750J0D01*
G01*
X112461250Y-134780000D01*
G75*
G02*
X112680000Y-134998750I0J-218750D01*
G01*
G37*
G36*
G01*
X114255000Y-134998750D02*
X114255000Y-135511250D01*
G75*
G02*
X114036250Y-135730000I-218750J0D01*
G01*
X113598750Y-135730000D01*
G75*
G02*
X113380000Y-135511250I0J218750D01*
G01*
X113380000Y-134998750D01*
G75*
G02*
X113598750Y-134780000I218750J0D01*
G01*
X114036250Y-134780000D01*
G75*
G02*
X114255000Y-134998750I0J-218750D01*
G01*
G37*
%TD*%
D10*
%TO.C,Q24*%
X123555000Y-80010000D03*
X121555000Y-79060000D03*
X121555000Y-80960000D03*
%TD*%
D11*
%TO.C,Q23*%
X148590000Y-115935000D03*
X149540000Y-113935000D03*
X147640000Y-113935000D03*
%TD*%
D12*
%TO.C,Q22*%
X162815000Y-114480000D03*
X159765000Y-117830000D03*
X159765000Y-114480000D03*
X162815000Y-117830000D03*
D13*
X163570000Y-109855000D03*
X161290000Y-109855000D03*
X159010000Y-109855000D03*
%TD*%
D10*
%TO.C,Q21*%
X123555000Y-113030000D03*
X121555000Y-112080000D03*
X121555000Y-113980000D03*
%TD*%
D11*
%TO.C,Q20*%
X148590000Y-102600000D03*
X149540000Y-100600000D03*
X147640000Y-100600000D03*
%TD*%
D12*
%TO.C,Q19*%
X162815000Y-100510000D03*
X159765000Y-103860000D03*
X159765000Y-100510000D03*
X162815000Y-103860000D03*
D13*
X163570000Y-95885000D03*
X161290000Y-95885000D03*
X159010000Y-95885000D03*
%TD*%
D10*
%TO.C,Q18*%
X123555000Y-99695000D03*
X121555000Y-98745000D03*
X121555000Y-100645000D03*
%TD*%
D11*
%TO.C,Q17*%
X148590000Y-89265000D03*
X149540000Y-87265000D03*
X147640000Y-87265000D03*
%TD*%
D12*
%TO.C,Q16*%
X163450000Y-86540000D03*
X160400000Y-89890000D03*
X160400000Y-86540000D03*
X163450000Y-89890000D03*
D13*
X164205000Y-81915000D03*
X161925000Y-81915000D03*
X159645000Y-81915000D03*
%TD*%
D10*
%TO.C,Q15*%
X123555000Y-86360000D03*
X121555000Y-85410000D03*
X121555000Y-87310000D03*
%TD*%
D12*
%TO.C,Q14*%
X188340000Y-140790000D03*
X191390000Y-137440000D03*
X191390000Y-140790000D03*
X188340000Y-137440000D03*
D13*
X187585000Y-145415000D03*
X189865000Y-145415000D03*
X192145000Y-145415000D03*
%TD*%
D11*
%TO.C,Q13*%
X196850000Y-143240000D03*
X197800000Y-141240000D03*
X195900000Y-141240000D03*
%TD*%
D12*
%TO.C,Q12*%
X174370000Y-140790000D03*
X177420000Y-137440000D03*
X177420000Y-140790000D03*
X174370000Y-137440000D03*
D13*
X173615000Y-145415000D03*
X175895000Y-145415000D03*
X178175000Y-145415000D03*
%TD*%
D11*
%TO.C,Q11*%
X182880000Y-143240000D03*
X183830000Y-141240000D03*
X181930000Y-141240000D03*
%TD*%
D12*
%TO.C,Q10*%
X160400000Y-140790000D03*
X163450000Y-137440000D03*
X163450000Y-140790000D03*
X160400000Y-137440000D03*
D13*
X159645000Y-145415000D03*
X161925000Y-145415000D03*
X164205000Y-145415000D03*
%TD*%
D11*
%TO.C,Q9*%
X168910000Y-144510000D03*
X169860000Y-142510000D03*
X167960000Y-142510000D03*
%TD*%
D12*
%TO.C,Q8*%
X146430000Y-140790000D03*
X149480000Y-137440000D03*
X149480000Y-140790000D03*
X146430000Y-137440000D03*
D13*
X145675000Y-145415000D03*
X147955000Y-145415000D03*
X150235000Y-145415000D03*
%TD*%
D11*
%TO.C,Q7*%
X154940000Y-143240000D03*
X155890000Y-141240000D03*
X153990000Y-141240000D03*
%TD*%
D12*
%TO.C,Q6*%
X132460000Y-140790000D03*
X135510000Y-137440000D03*
X135510000Y-140790000D03*
X132460000Y-137440000D03*
D13*
X131705000Y-145415000D03*
X133985000Y-145415000D03*
X136265000Y-145415000D03*
%TD*%
D11*
%TO.C,Q5*%
X140970000Y-144510000D03*
X141920000Y-142510000D03*
X140020000Y-142510000D03*
%TD*%
D12*
%TO.C,Q4*%
X118490000Y-140790000D03*
X121540000Y-137440000D03*
X121540000Y-140790000D03*
X118490000Y-137440000D03*
D13*
X117735000Y-145415000D03*
X120015000Y-145415000D03*
X122295000Y-145415000D03*
%TD*%
D11*
%TO.C,Q3*%
X127000000Y-143240000D03*
X127950000Y-141240000D03*
X126050000Y-141240000D03*
%TD*%
D12*
%TO.C,Q2*%
X104520000Y-140790000D03*
X107570000Y-137440000D03*
X107570000Y-140790000D03*
X104520000Y-137440000D03*
D13*
X103765000Y-145415000D03*
X106045000Y-145415000D03*
X108325000Y-145415000D03*
%TD*%
D11*
%TO.C,Q1*%
X113030000Y-143240000D03*
X113980000Y-141240000D03*
X112080000Y-141240000D03*
%TD*%
D14*
%TO.C,D6*%
X133220000Y-119380000D03*
X136020000Y-119380000D03*
%TD*%
%TO.C,D5*%
X161925000Y-73790000D03*
X161925000Y-70990000D03*
%TD*%
%TO.C,D4*%
X133220000Y-106045000D03*
X136020000Y-106045000D03*
%TD*%
%TO.C,D3*%
X165735000Y-73790000D03*
X165735000Y-70990000D03*
%TD*%
%TO.C,D2*%
X133220000Y-92710000D03*
X136020000Y-92710000D03*
%TD*%
%TO.C,D1*%
X169545000Y-73790000D03*
X169545000Y-70990000D03*
%TD*%
%TO.C,C7*%
G36*
G01*
X139956250Y-113950000D02*
X139443750Y-113950000D01*
G75*
G02*
X139225000Y-113731250I0J218750D01*
G01*
X139225000Y-113293750D01*
G75*
G02*
X139443750Y-113075000I218750J0D01*
G01*
X139956250Y-113075000D01*
G75*
G02*
X140175000Y-113293750I0J-218750D01*
G01*
X140175000Y-113731250D01*
G75*
G02*
X139956250Y-113950000I-218750J0D01*
G01*
G37*
G36*
G01*
X139956250Y-115525000D02*
X139443750Y-115525000D01*
G75*
G02*
X139225000Y-115306250I0J218750D01*
G01*
X139225000Y-114868750D01*
G75*
G02*
X139443750Y-114650000I218750J0D01*
G01*
X139956250Y-114650000D01*
G75*
G02*
X140175000Y-114868750I0J-218750D01*
G01*
X140175000Y-115306250D01*
G75*
G02*
X139956250Y-115525000I-218750J0D01*
G01*
G37*
%TD*%
%TO.C,C6*%
G36*
G01*
X129161250Y-117760000D02*
X128648750Y-117760000D01*
G75*
G02*
X128430000Y-117541250I0J218750D01*
G01*
X128430000Y-117103750D01*
G75*
G02*
X128648750Y-116885000I218750J0D01*
G01*
X129161250Y-116885000D01*
G75*
G02*
X129380000Y-117103750I0J-218750D01*
G01*
X129380000Y-117541250D01*
G75*
G02*
X129161250Y-117760000I-218750J0D01*
G01*
G37*
G36*
G01*
X129161250Y-119335000D02*
X128648750Y-119335000D01*
G75*
G02*
X128430000Y-119116250I0J218750D01*
G01*
X128430000Y-118678750D01*
G75*
G02*
X128648750Y-118460000I218750J0D01*
G01*
X129161250Y-118460000D01*
G75*
G02*
X129380000Y-118678750I0J-218750D01*
G01*
X129380000Y-119116250D01*
G75*
G02*
X129161250Y-119335000I-218750J0D01*
G01*
G37*
%TD*%
%TO.C,C5*%
G36*
G01*
X139956250Y-100615000D02*
X139443750Y-100615000D01*
G75*
G02*
X139225000Y-100396250I0J218750D01*
G01*
X139225000Y-99958750D01*
G75*
G02*
X139443750Y-99740000I218750J0D01*
G01*
X139956250Y-99740000D01*
G75*
G02*
X140175000Y-99958750I0J-218750D01*
G01*
X140175000Y-100396250D01*
G75*
G02*
X139956250Y-100615000I-218750J0D01*
G01*
G37*
G36*
G01*
X139956250Y-102190000D02*
X139443750Y-102190000D01*
G75*
G02*
X139225000Y-101971250I0J218750D01*
G01*
X139225000Y-101533750D01*
G75*
G02*
X139443750Y-101315000I218750J0D01*
G01*
X139956250Y-101315000D01*
G75*
G02*
X140175000Y-101533750I0J-218750D01*
G01*
X140175000Y-101971250D01*
G75*
G02*
X139956250Y-102190000I-218750J0D01*
G01*
G37*
%TD*%
%TO.C,C4*%
G36*
G01*
X129161250Y-104425000D02*
X128648750Y-104425000D01*
G75*
G02*
X128430000Y-104206250I0J218750D01*
G01*
X128430000Y-103768750D01*
G75*
G02*
X128648750Y-103550000I218750J0D01*
G01*
X129161250Y-103550000D01*
G75*
G02*
X129380000Y-103768750I0J-218750D01*
G01*
X129380000Y-104206250D01*
G75*
G02*
X129161250Y-104425000I-218750J0D01*
G01*
G37*
G36*
G01*
X129161250Y-106000000D02*
X128648750Y-106000000D01*
G75*
G02*
X128430000Y-105781250I0J218750D01*
G01*
X128430000Y-105343750D01*
G75*
G02*
X128648750Y-105125000I218750J0D01*
G01*
X129161250Y-105125000D01*
G75*
G02*
X129380000Y-105343750I0J-218750D01*
G01*
X129380000Y-105781250D01*
G75*
G02*
X129161250Y-106000000I-218750J0D01*
G01*
G37*
%TD*%
%TO.C,C3*%
G36*
G01*
X139956250Y-87280000D02*
X139443750Y-87280000D01*
G75*
G02*
X139225000Y-87061250I0J218750D01*
G01*
X139225000Y-86623750D01*
G75*
G02*
X139443750Y-86405000I218750J0D01*
G01*
X139956250Y-86405000D01*
G75*
G02*
X140175000Y-86623750I0J-218750D01*
G01*
X140175000Y-87061250D01*
G75*
G02*
X139956250Y-87280000I-218750J0D01*
G01*
G37*
G36*
G01*
X139956250Y-88855000D02*
X139443750Y-88855000D01*
G75*
G02*
X139225000Y-88636250I0J218750D01*
G01*
X139225000Y-88198750D01*
G75*
G02*
X139443750Y-87980000I218750J0D01*
G01*
X139956250Y-87980000D01*
G75*
G02*
X140175000Y-88198750I0J-218750D01*
G01*
X140175000Y-88636250D01*
G75*
G02*
X139956250Y-88855000I-218750J0D01*
G01*
G37*
%TD*%
%TO.C,C2*%
G36*
G01*
X129161250Y-91090000D02*
X128648750Y-91090000D01*
G75*
G02*
X128430000Y-90871250I0J218750D01*
G01*
X128430000Y-90433750D01*
G75*
G02*
X128648750Y-90215000I218750J0D01*
G01*
X129161250Y-90215000D01*
G75*
G02*
X129380000Y-90433750I0J-218750D01*
G01*
X129380000Y-90871250D01*
G75*
G02*
X129161250Y-91090000I-218750J0D01*
G01*
G37*
G36*
G01*
X129161250Y-92665000D02*
X128648750Y-92665000D01*
G75*
G02*
X128430000Y-92446250I0J218750D01*
G01*
X128430000Y-92008750D01*
G75*
G02*
X128648750Y-91790000I218750J0D01*
G01*
X129161250Y-91790000D01*
G75*
G02*
X129380000Y-92008750I0J-218750D01*
G01*
X129380000Y-92446250D01*
G75*
G02*
X129161250Y-92665000I-218750J0D01*
G01*
G37*
%TD*%
%TO.C,C1*%
G36*
G01*
X108963750Y-113380000D02*
X109476250Y-113380000D01*
G75*
G02*
X109695000Y-113598750I0J-218750D01*
G01*
X109695000Y-114036250D01*
G75*
G02*
X109476250Y-114255000I-218750J0D01*
G01*
X108963750Y-114255000D01*
G75*
G02*
X108745000Y-114036250I0J218750D01*
G01*
X108745000Y-113598750D01*
G75*
G02*
X108963750Y-113380000I218750J0D01*
G01*
G37*
G36*
G01*
X108963750Y-111805000D02*
X109476250Y-111805000D01*
G75*
G02*
X109695000Y-112023750I0J-218750D01*
G01*
X109695000Y-112461250D01*
G75*
G02*
X109476250Y-112680000I-218750J0D01*
G01*
X108963750Y-112680000D01*
G75*
G02*
X108745000Y-112461250I0J218750D01*
G01*
X108745000Y-112023750D01*
G75*
G02*
X108963750Y-111805000I218750J0D01*
G01*
G37*
%TD*%
M02*
