%TF.GenerationSoftware,KiCad,Pcbnew,(5.1.6)-1*%
%TF.CreationDate,2020-09-10T20:04:37+09:00*%
%TF.ProjectId,ScoreBoradPCB,53636f72-6542-46f7-9261-645043422e6b,rev?*%
%TF.SameCoordinates,Original*%
%TF.FileFunction,Soldermask,Bot*%
%TF.FilePolarity,Negative*%
%FSLAX46Y46*%
G04 Gerber Fmt 4.6, Leading zero omitted, Abs format (unit mm)*
G04 Created by KiCad (PCBNEW (5.1.6)-1) date 2020-09-10 20:04:37*
%MOMM*%
%LPD*%
G01*
G04 APERTURE LIST*
%ADD10O,1.800000X1.800000*%
%ADD11R,1.800000X1.800000*%
%ADD12O,1.700000X1.700000*%
%ADD13R,1.700000X1.700000*%
%ADD14C,2.100000*%
%ADD15R,1.000000X0.900000*%
%ADD16R,0.900000X1.000000*%
%ADD17R,5.900000X6.500000*%
%ADD18R,1.300000X2.300000*%
%ADD19O,2.100000X1.800000*%
%ADD20C,2.800000*%
%ADD21C,1.150000*%
%ADD22R,1.150000X1.150000*%
%ADD23R,1.200000X1.200000*%
G04 APERTURE END LIST*
D10*
%TO.C,J8*%
X101600000Y-91440000D03*
X101600000Y-93980000D03*
X101600000Y-96520000D03*
X101600000Y-99060000D03*
X101600000Y-101600000D03*
D11*
X101600000Y-104140000D03*
%TD*%
%TO.C,U7*%
G36*
G01*
X136070000Y-115745000D02*
X136070000Y-115395000D01*
G75*
G02*
X136245000Y-115220000I175000J0D01*
G01*
X137945000Y-115220000D01*
G75*
G02*
X138120000Y-115395000I0J-175000D01*
G01*
X138120000Y-115745000D01*
G75*
G02*
X137945000Y-115920000I-175000J0D01*
G01*
X136245000Y-115920000D01*
G75*
G02*
X136070000Y-115745000I0J175000D01*
G01*
G37*
G36*
G01*
X136070000Y-114475000D02*
X136070000Y-114125000D01*
G75*
G02*
X136245000Y-113950000I175000J0D01*
G01*
X137945000Y-113950000D01*
G75*
G02*
X138120000Y-114125000I0J-175000D01*
G01*
X138120000Y-114475000D01*
G75*
G02*
X137945000Y-114650000I-175000J0D01*
G01*
X136245000Y-114650000D01*
G75*
G02*
X136070000Y-114475000I0J175000D01*
G01*
G37*
G36*
G01*
X136070000Y-113205000D02*
X136070000Y-112855000D01*
G75*
G02*
X136245000Y-112680000I175000J0D01*
G01*
X137945000Y-112680000D01*
G75*
G02*
X138120000Y-112855000I0J-175000D01*
G01*
X138120000Y-113205000D01*
G75*
G02*
X137945000Y-113380000I-175000J0D01*
G01*
X136245000Y-113380000D01*
G75*
G02*
X136070000Y-113205000I0J175000D01*
G01*
G37*
G36*
G01*
X136070000Y-111935000D02*
X136070000Y-111585000D01*
G75*
G02*
X136245000Y-111410000I175000J0D01*
G01*
X137945000Y-111410000D01*
G75*
G02*
X138120000Y-111585000I0J-175000D01*
G01*
X138120000Y-111935000D01*
G75*
G02*
X137945000Y-112110000I-175000J0D01*
G01*
X136245000Y-112110000D01*
G75*
G02*
X136070000Y-111935000I0J175000D01*
G01*
G37*
G36*
G01*
X131120000Y-111935000D02*
X131120000Y-111585000D01*
G75*
G02*
X131295000Y-111410000I175000J0D01*
G01*
X132995000Y-111410000D01*
G75*
G02*
X133170000Y-111585000I0J-175000D01*
G01*
X133170000Y-111935000D01*
G75*
G02*
X132995000Y-112110000I-175000J0D01*
G01*
X131295000Y-112110000D01*
G75*
G02*
X131120000Y-111935000I0J175000D01*
G01*
G37*
G36*
G01*
X131120000Y-113205000D02*
X131120000Y-112855000D01*
G75*
G02*
X131295000Y-112680000I175000J0D01*
G01*
X132995000Y-112680000D01*
G75*
G02*
X133170000Y-112855000I0J-175000D01*
G01*
X133170000Y-113205000D01*
G75*
G02*
X132995000Y-113380000I-175000J0D01*
G01*
X131295000Y-113380000D01*
G75*
G02*
X131120000Y-113205000I0J175000D01*
G01*
G37*
G36*
G01*
X131120000Y-114475000D02*
X131120000Y-114125000D01*
G75*
G02*
X131295000Y-113950000I175000J0D01*
G01*
X132995000Y-113950000D01*
G75*
G02*
X133170000Y-114125000I0J-175000D01*
G01*
X133170000Y-114475000D01*
G75*
G02*
X132995000Y-114650000I-175000J0D01*
G01*
X131295000Y-114650000D01*
G75*
G02*
X131120000Y-114475000I0J175000D01*
G01*
G37*
G36*
G01*
X131120000Y-115745000D02*
X131120000Y-115395000D01*
G75*
G02*
X131295000Y-115220000I175000J0D01*
G01*
X132995000Y-115220000D01*
G75*
G02*
X133170000Y-115395000I0J-175000D01*
G01*
X133170000Y-115745000D01*
G75*
G02*
X132995000Y-115920000I-175000J0D01*
G01*
X131295000Y-115920000D01*
G75*
G02*
X131120000Y-115745000I0J175000D01*
G01*
G37*
%TD*%
%TO.C,U6*%
G36*
G01*
X124955000Y-118907500D02*
X124955000Y-118582500D01*
G75*
G02*
X125117500Y-118420000I162500J0D01*
G01*
X126492500Y-118420000D01*
G75*
G02*
X126655000Y-118582500I0J-162500D01*
G01*
X126655000Y-118907500D01*
G75*
G02*
X126492500Y-119070000I-162500J0D01*
G01*
X125117500Y-119070000D01*
G75*
G02*
X124955000Y-118907500I0J162500D01*
G01*
G37*
G36*
G01*
X124955000Y-117637500D02*
X124955000Y-117312500D01*
G75*
G02*
X125117500Y-117150000I162500J0D01*
G01*
X126492500Y-117150000D01*
G75*
G02*
X126655000Y-117312500I0J-162500D01*
G01*
X126655000Y-117637500D01*
G75*
G02*
X126492500Y-117800000I-162500J0D01*
G01*
X125117500Y-117800000D01*
G75*
G02*
X124955000Y-117637500I0J162500D01*
G01*
G37*
G36*
G01*
X118455000Y-117637500D02*
X118455000Y-117312500D01*
G75*
G02*
X118617500Y-117150000I162500J0D01*
G01*
X119992500Y-117150000D01*
G75*
G02*
X120155000Y-117312500I0J-162500D01*
G01*
X120155000Y-117637500D01*
G75*
G02*
X119992500Y-117800000I-162500J0D01*
G01*
X118617500Y-117800000D01*
G75*
G02*
X118455000Y-117637500I0J162500D01*
G01*
G37*
G36*
G01*
X118455000Y-118907500D02*
X118455000Y-118582500D01*
G75*
G02*
X118617500Y-118420000I162500J0D01*
G01*
X119992500Y-118420000D01*
G75*
G02*
X120155000Y-118582500I0J-162500D01*
G01*
X120155000Y-118907500D01*
G75*
G02*
X119992500Y-119070000I-162500J0D01*
G01*
X118617500Y-119070000D01*
G75*
G02*
X118455000Y-118907500I0J162500D01*
G01*
G37*
%TD*%
%TO.C,U5*%
G36*
G01*
X136070000Y-102410000D02*
X136070000Y-102060000D01*
G75*
G02*
X136245000Y-101885000I175000J0D01*
G01*
X137945000Y-101885000D01*
G75*
G02*
X138120000Y-102060000I0J-175000D01*
G01*
X138120000Y-102410000D01*
G75*
G02*
X137945000Y-102585000I-175000J0D01*
G01*
X136245000Y-102585000D01*
G75*
G02*
X136070000Y-102410000I0J175000D01*
G01*
G37*
G36*
G01*
X136070000Y-101140000D02*
X136070000Y-100790000D01*
G75*
G02*
X136245000Y-100615000I175000J0D01*
G01*
X137945000Y-100615000D01*
G75*
G02*
X138120000Y-100790000I0J-175000D01*
G01*
X138120000Y-101140000D01*
G75*
G02*
X137945000Y-101315000I-175000J0D01*
G01*
X136245000Y-101315000D01*
G75*
G02*
X136070000Y-101140000I0J175000D01*
G01*
G37*
G36*
G01*
X136070000Y-99870000D02*
X136070000Y-99520000D01*
G75*
G02*
X136245000Y-99345000I175000J0D01*
G01*
X137945000Y-99345000D01*
G75*
G02*
X138120000Y-99520000I0J-175000D01*
G01*
X138120000Y-99870000D01*
G75*
G02*
X137945000Y-100045000I-175000J0D01*
G01*
X136245000Y-100045000D01*
G75*
G02*
X136070000Y-99870000I0J175000D01*
G01*
G37*
G36*
G01*
X136070000Y-98600000D02*
X136070000Y-98250000D01*
G75*
G02*
X136245000Y-98075000I175000J0D01*
G01*
X137945000Y-98075000D01*
G75*
G02*
X138120000Y-98250000I0J-175000D01*
G01*
X138120000Y-98600000D01*
G75*
G02*
X137945000Y-98775000I-175000J0D01*
G01*
X136245000Y-98775000D01*
G75*
G02*
X136070000Y-98600000I0J175000D01*
G01*
G37*
G36*
G01*
X131120000Y-98600000D02*
X131120000Y-98250000D01*
G75*
G02*
X131295000Y-98075000I175000J0D01*
G01*
X132995000Y-98075000D01*
G75*
G02*
X133170000Y-98250000I0J-175000D01*
G01*
X133170000Y-98600000D01*
G75*
G02*
X132995000Y-98775000I-175000J0D01*
G01*
X131295000Y-98775000D01*
G75*
G02*
X131120000Y-98600000I0J175000D01*
G01*
G37*
G36*
G01*
X131120000Y-99870000D02*
X131120000Y-99520000D01*
G75*
G02*
X131295000Y-99345000I175000J0D01*
G01*
X132995000Y-99345000D01*
G75*
G02*
X133170000Y-99520000I0J-175000D01*
G01*
X133170000Y-99870000D01*
G75*
G02*
X132995000Y-100045000I-175000J0D01*
G01*
X131295000Y-100045000D01*
G75*
G02*
X131120000Y-99870000I0J175000D01*
G01*
G37*
G36*
G01*
X131120000Y-101140000D02*
X131120000Y-100790000D01*
G75*
G02*
X131295000Y-100615000I175000J0D01*
G01*
X132995000Y-100615000D01*
G75*
G02*
X133170000Y-100790000I0J-175000D01*
G01*
X133170000Y-101140000D01*
G75*
G02*
X132995000Y-101315000I-175000J0D01*
G01*
X131295000Y-101315000D01*
G75*
G02*
X131120000Y-101140000I0J175000D01*
G01*
G37*
G36*
G01*
X131120000Y-102410000D02*
X131120000Y-102060000D01*
G75*
G02*
X131295000Y-101885000I175000J0D01*
G01*
X132995000Y-101885000D01*
G75*
G02*
X133170000Y-102060000I0J-175000D01*
G01*
X133170000Y-102410000D01*
G75*
G02*
X132995000Y-102585000I-175000J0D01*
G01*
X131295000Y-102585000D01*
G75*
G02*
X131120000Y-102410000I0J175000D01*
G01*
G37*
%TD*%
%TO.C,U4*%
G36*
G01*
X124955000Y-105572500D02*
X124955000Y-105247500D01*
G75*
G02*
X125117500Y-105085000I162500J0D01*
G01*
X126492500Y-105085000D01*
G75*
G02*
X126655000Y-105247500I0J-162500D01*
G01*
X126655000Y-105572500D01*
G75*
G02*
X126492500Y-105735000I-162500J0D01*
G01*
X125117500Y-105735000D01*
G75*
G02*
X124955000Y-105572500I0J162500D01*
G01*
G37*
G36*
G01*
X124955000Y-104302500D02*
X124955000Y-103977500D01*
G75*
G02*
X125117500Y-103815000I162500J0D01*
G01*
X126492500Y-103815000D01*
G75*
G02*
X126655000Y-103977500I0J-162500D01*
G01*
X126655000Y-104302500D01*
G75*
G02*
X126492500Y-104465000I-162500J0D01*
G01*
X125117500Y-104465000D01*
G75*
G02*
X124955000Y-104302500I0J162500D01*
G01*
G37*
G36*
G01*
X118455000Y-104302500D02*
X118455000Y-103977500D01*
G75*
G02*
X118617500Y-103815000I162500J0D01*
G01*
X119992500Y-103815000D01*
G75*
G02*
X120155000Y-103977500I0J-162500D01*
G01*
X120155000Y-104302500D01*
G75*
G02*
X119992500Y-104465000I-162500J0D01*
G01*
X118617500Y-104465000D01*
G75*
G02*
X118455000Y-104302500I0J162500D01*
G01*
G37*
G36*
G01*
X118455000Y-105572500D02*
X118455000Y-105247500D01*
G75*
G02*
X118617500Y-105085000I162500J0D01*
G01*
X119992500Y-105085000D01*
G75*
G02*
X120155000Y-105247500I0J-162500D01*
G01*
X120155000Y-105572500D01*
G75*
G02*
X119992500Y-105735000I-162500J0D01*
G01*
X118617500Y-105735000D01*
G75*
G02*
X118455000Y-105572500I0J162500D01*
G01*
G37*
%TD*%
%TO.C,U3*%
G36*
G01*
X136070000Y-89075000D02*
X136070000Y-88725000D01*
G75*
G02*
X136245000Y-88550000I175000J0D01*
G01*
X137945000Y-88550000D01*
G75*
G02*
X138120000Y-88725000I0J-175000D01*
G01*
X138120000Y-89075000D01*
G75*
G02*
X137945000Y-89250000I-175000J0D01*
G01*
X136245000Y-89250000D01*
G75*
G02*
X136070000Y-89075000I0J175000D01*
G01*
G37*
G36*
G01*
X136070000Y-87805000D02*
X136070000Y-87455000D01*
G75*
G02*
X136245000Y-87280000I175000J0D01*
G01*
X137945000Y-87280000D01*
G75*
G02*
X138120000Y-87455000I0J-175000D01*
G01*
X138120000Y-87805000D01*
G75*
G02*
X137945000Y-87980000I-175000J0D01*
G01*
X136245000Y-87980000D01*
G75*
G02*
X136070000Y-87805000I0J175000D01*
G01*
G37*
G36*
G01*
X136070000Y-86535000D02*
X136070000Y-86185000D01*
G75*
G02*
X136245000Y-86010000I175000J0D01*
G01*
X137945000Y-86010000D01*
G75*
G02*
X138120000Y-86185000I0J-175000D01*
G01*
X138120000Y-86535000D01*
G75*
G02*
X137945000Y-86710000I-175000J0D01*
G01*
X136245000Y-86710000D01*
G75*
G02*
X136070000Y-86535000I0J175000D01*
G01*
G37*
G36*
G01*
X136070000Y-85265000D02*
X136070000Y-84915000D01*
G75*
G02*
X136245000Y-84740000I175000J0D01*
G01*
X137945000Y-84740000D01*
G75*
G02*
X138120000Y-84915000I0J-175000D01*
G01*
X138120000Y-85265000D01*
G75*
G02*
X137945000Y-85440000I-175000J0D01*
G01*
X136245000Y-85440000D01*
G75*
G02*
X136070000Y-85265000I0J175000D01*
G01*
G37*
G36*
G01*
X131120000Y-85265000D02*
X131120000Y-84915000D01*
G75*
G02*
X131295000Y-84740000I175000J0D01*
G01*
X132995000Y-84740000D01*
G75*
G02*
X133170000Y-84915000I0J-175000D01*
G01*
X133170000Y-85265000D01*
G75*
G02*
X132995000Y-85440000I-175000J0D01*
G01*
X131295000Y-85440000D01*
G75*
G02*
X131120000Y-85265000I0J175000D01*
G01*
G37*
G36*
G01*
X131120000Y-86535000D02*
X131120000Y-86185000D01*
G75*
G02*
X131295000Y-86010000I175000J0D01*
G01*
X132995000Y-86010000D01*
G75*
G02*
X133170000Y-86185000I0J-175000D01*
G01*
X133170000Y-86535000D01*
G75*
G02*
X132995000Y-86710000I-175000J0D01*
G01*
X131295000Y-86710000D01*
G75*
G02*
X131120000Y-86535000I0J175000D01*
G01*
G37*
G36*
G01*
X131120000Y-87805000D02*
X131120000Y-87455000D01*
G75*
G02*
X131295000Y-87280000I175000J0D01*
G01*
X132995000Y-87280000D01*
G75*
G02*
X133170000Y-87455000I0J-175000D01*
G01*
X133170000Y-87805000D01*
G75*
G02*
X132995000Y-87980000I-175000J0D01*
G01*
X131295000Y-87980000D01*
G75*
G02*
X131120000Y-87805000I0J175000D01*
G01*
G37*
G36*
G01*
X131120000Y-89075000D02*
X131120000Y-88725000D01*
G75*
G02*
X131295000Y-88550000I175000J0D01*
G01*
X132995000Y-88550000D01*
G75*
G02*
X133170000Y-88725000I0J-175000D01*
G01*
X133170000Y-89075000D01*
G75*
G02*
X132995000Y-89250000I-175000J0D01*
G01*
X131295000Y-89250000D01*
G75*
G02*
X131120000Y-89075000I0J175000D01*
G01*
G37*
%TD*%
%TO.C,U2*%
G36*
G01*
X124955000Y-92237500D02*
X124955000Y-91912500D01*
G75*
G02*
X125117500Y-91750000I162500J0D01*
G01*
X126492500Y-91750000D01*
G75*
G02*
X126655000Y-91912500I0J-162500D01*
G01*
X126655000Y-92237500D01*
G75*
G02*
X126492500Y-92400000I-162500J0D01*
G01*
X125117500Y-92400000D01*
G75*
G02*
X124955000Y-92237500I0J162500D01*
G01*
G37*
G36*
G01*
X124955000Y-90967500D02*
X124955000Y-90642500D01*
G75*
G02*
X125117500Y-90480000I162500J0D01*
G01*
X126492500Y-90480000D01*
G75*
G02*
X126655000Y-90642500I0J-162500D01*
G01*
X126655000Y-90967500D01*
G75*
G02*
X126492500Y-91130000I-162500J0D01*
G01*
X125117500Y-91130000D01*
G75*
G02*
X124955000Y-90967500I0J162500D01*
G01*
G37*
G36*
G01*
X118455000Y-90967500D02*
X118455000Y-90642500D01*
G75*
G02*
X118617500Y-90480000I162500J0D01*
G01*
X119992500Y-90480000D01*
G75*
G02*
X120155000Y-90642500I0J-162500D01*
G01*
X120155000Y-90967500D01*
G75*
G02*
X119992500Y-91130000I-162500J0D01*
G01*
X118617500Y-91130000D01*
G75*
G02*
X118455000Y-90967500I0J162500D01*
G01*
G37*
G36*
G01*
X118455000Y-92237500D02*
X118455000Y-91912500D01*
G75*
G02*
X118617500Y-91750000I162500J0D01*
G01*
X119992500Y-91750000D01*
G75*
G02*
X120155000Y-91912500I0J-162500D01*
G01*
X120155000Y-92237500D01*
G75*
G02*
X119992500Y-92400000I-162500J0D01*
G01*
X118617500Y-92400000D01*
G75*
G02*
X118455000Y-92237500I0J162500D01*
G01*
G37*
%TD*%
D12*
%TO.C,U1*%
X113030000Y-91440000D03*
X105410000Y-124460000D03*
X113030000Y-93980000D03*
X105410000Y-121920000D03*
X113030000Y-96520000D03*
X105410000Y-119380000D03*
X113030000Y-99060000D03*
X105410000Y-116840000D03*
X113030000Y-101600000D03*
X105410000Y-114300000D03*
X113030000Y-104140000D03*
X105410000Y-111760000D03*
X113030000Y-106680000D03*
X105410000Y-109220000D03*
X113030000Y-109220000D03*
X105410000Y-106680000D03*
X113030000Y-111760000D03*
X105410000Y-104140000D03*
X113030000Y-114300000D03*
X105410000Y-101600000D03*
X113030000Y-116840000D03*
X105410000Y-99060000D03*
X113030000Y-119380000D03*
X105410000Y-96520000D03*
X113030000Y-121920000D03*
X105410000Y-93980000D03*
X113030000Y-124460000D03*
D13*
X105410000Y-91440000D03*
%TD*%
D14*
%TO.C,SW7*%
X112545000Y-82550000D03*
X112545000Y-87050000D03*
X106045000Y-82550000D03*
X106045000Y-87050000D03*
%TD*%
%TO.C,SW6*%
X147470000Y-58420000D03*
X147470000Y-62920000D03*
X140970000Y-58420000D03*
X140970000Y-62920000D03*
%TD*%
%TO.C,SW5*%
X147470000Y-67945000D03*
X147470000Y-72445000D03*
X140970000Y-67945000D03*
X140970000Y-72445000D03*
%TD*%
%TO.C,SW4*%
X136040000Y-58420000D03*
X136040000Y-62920000D03*
X129540000Y-58420000D03*
X129540000Y-62920000D03*
%TD*%
%TO.C,SW3*%
X136040000Y-67945000D03*
X136040000Y-72445000D03*
X129540000Y-67945000D03*
X129540000Y-72445000D03*
%TD*%
%TO.C,SW2*%
X124610000Y-58420000D03*
X124610000Y-62920000D03*
X118110000Y-58420000D03*
X118110000Y-62920000D03*
%TD*%
%TO.C,SW1*%
X124610000Y-67945000D03*
X124610000Y-72445000D03*
X118110000Y-67945000D03*
X118110000Y-72445000D03*
%TD*%
%TO.C,R61*%
G36*
G01*
X103805000Y-77116250D02*
X103805000Y-76553750D01*
G75*
G02*
X104048750Y-76310000I243750J0D01*
G01*
X104536250Y-76310000D01*
G75*
G02*
X104780000Y-76553750I0J-243750D01*
G01*
X104780000Y-77116250D01*
G75*
G02*
X104536250Y-77360000I-243750J0D01*
G01*
X104048750Y-77360000D01*
G75*
G02*
X103805000Y-77116250I0J243750D01*
G01*
G37*
G36*
G01*
X102230000Y-77116250D02*
X102230000Y-76553750D01*
G75*
G02*
X102473750Y-76310000I243750J0D01*
G01*
X102961250Y-76310000D01*
G75*
G02*
X103205000Y-76553750I0J-243750D01*
G01*
X103205000Y-77116250D01*
G75*
G02*
X102961250Y-77360000I-243750J0D01*
G01*
X102473750Y-77360000D01*
G75*
G02*
X102230000Y-77116250I0J243750D01*
G01*
G37*
%TD*%
%TO.C,R60*%
G36*
G01*
X103805000Y-74576250D02*
X103805000Y-74013750D01*
G75*
G02*
X104048750Y-73770000I243750J0D01*
G01*
X104536250Y-73770000D01*
G75*
G02*
X104780000Y-74013750I0J-243750D01*
G01*
X104780000Y-74576250D01*
G75*
G02*
X104536250Y-74820000I-243750J0D01*
G01*
X104048750Y-74820000D01*
G75*
G02*
X103805000Y-74576250I0J243750D01*
G01*
G37*
G36*
G01*
X102230000Y-74576250D02*
X102230000Y-74013750D01*
G75*
G02*
X102473750Y-73770000I243750J0D01*
G01*
X102961250Y-73770000D01*
G75*
G02*
X103205000Y-74013750I0J-243750D01*
G01*
X103205000Y-74576250D01*
G75*
G02*
X102961250Y-74820000I-243750J0D01*
G01*
X102473750Y-74820000D01*
G75*
G02*
X102230000Y-74576250I0J243750D01*
G01*
G37*
%TD*%
%TO.C,R59*%
G36*
G01*
X101318750Y-127300000D02*
X101881250Y-127300000D01*
G75*
G02*
X102125000Y-127543750I0J-243750D01*
G01*
X102125000Y-128031250D01*
G75*
G02*
X101881250Y-128275000I-243750J0D01*
G01*
X101318750Y-128275000D01*
G75*
G02*
X101075000Y-128031250I0J243750D01*
G01*
X101075000Y-127543750D01*
G75*
G02*
X101318750Y-127300000I243750J0D01*
G01*
G37*
G36*
G01*
X101318750Y-125725000D02*
X101881250Y-125725000D01*
G75*
G02*
X102125000Y-125968750I0J-243750D01*
G01*
X102125000Y-126456250D01*
G75*
G02*
X101881250Y-126700000I-243750J0D01*
G01*
X101318750Y-126700000D01*
G75*
G02*
X101075000Y-126456250I0J243750D01*
G01*
X101075000Y-125968750D01*
G75*
G02*
X101318750Y-125725000I243750J0D01*
G01*
G37*
%TD*%
%TO.C,R58*%
G36*
G01*
X101318750Y-115870000D02*
X101881250Y-115870000D01*
G75*
G02*
X102125000Y-116113750I0J-243750D01*
G01*
X102125000Y-116601250D01*
G75*
G02*
X101881250Y-116845000I-243750J0D01*
G01*
X101318750Y-116845000D01*
G75*
G02*
X101075000Y-116601250I0J243750D01*
G01*
X101075000Y-116113750D01*
G75*
G02*
X101318750Y-115870000I243750J0D01*
G01*
G37*
G36*
G01*
X101318750Y-114295000D02*
X101881250Y-114295000D01*
G75*
G02*
X102125000Y-114538750I0J-243750D01*
G01*
X102125000Y-115026250D01*
G75*
G02*
X101881250Y-115270000I-243750J0D01*
G01*
X101318750Y-115270000D01*
G75*
G02*
X101075000Y-115026250I0J243750D01*
G01*
X101075000Y-114538750D01*
G75*
G02*
X101318750Y-114295000I243750J0D01*
G01*
G37*
%TD*%
%TO.C,R57*%
G36*
G01*
X172438750Y-72690000D02*
X173001250Y-72690000D01*
G75*
G02*
X173245000Y-72933750I0J-243750D01*
G01*
X173245000Y-73421250D01*
G75*
G02*
X173001250Y-73665000I-243750J0D01*
G01*
X172438750Y-73665000D01*
G75*
G02*
X172195000Y-73421250I0J243750D01*
G01*
X172195000Y-72933750D01*
G75*
G02*
X172438750Y-72690000I243750J0D01*
G01*
G37*
G36*
G01*
X172438750Y-71115000D02*
X173001250Y-71115000D01*
G75*
G02*
X173245000Y-71358750I0J-243750D01*
G01*
X173245000Y-71846250D01*
G75*
G02*
X173001250Y-72090000I-243750J0D01*
G01*
X172438750Y-72090000D01*
G75*
G02*
X172195000Y-71846250I0J243750D01*
G01*
X172195000Y-71358750D01*
G75*
G02*
X172438750Y-71115000I243750J0D01*
G01*
G37*
%TD*%
%TO.C,R56*%
G36*
G01*
X185138750Y-72690000D02*
X185701250Y-72690000D01*
G75*
G02*
X185945000Y-72933750I0J-243750D01*
G01*
X185945000Y-73421250D01*
G75*
G02*
X185701250Y-73665000I-243750J0D01*
G01*
X185138750Y-73665000D01*
G75*
G02*
X184895000Y-73421250I0J243750D01*
G01*
X184895000Y-72933750D01*
G75*
G02*
X185138750Y-72690000I243750J0D01*
G01*
G37*
G36*
G01*
X185138750Y-71115000D02*
X185701250Y-71115000D01*
G75*
G02*
X185945000Y-71358750I0J-243750D01*
G01*
X185945000Y-71846250D01*
G75*
G02*
X185701250Y-72090000I-243750J0D01*
G01*
X185138750Y-72090000D01*
G75*
G02*
X184895000Y-71846250I0J243750D01*
G01*
X184895000Y-71358750D01*
G75*
G02*
X185138750Y-71115000I243750J0D01*
G01*
G37*
%TD*%
%TO.C,R55*%
G36*
G01*
X174978750Y-72690000D02*
X175541250Y-72690000D01*
G75*
G02*
X175785000Y-72933750I0J-243750D01*
G01*
X175785000Y-73421250D01*
G75*
G02*
X175541250Y-73665000I-243750J0D01*
G01*
X174978750Y-73665000D01*
G75*
G02*
X174735000Y-73421250I0J243750D01*
G01*
X174735000Y-72933750D01*
G75*
G02*
X174978750Y-72690000I243750J0D01*
G01*
G37*
G36*
G01*
X174978750Y-71115000D02*
X175541250Y-71115000D01*
G75*
G02*
X175785000Y-71358750I0J-243750D01*
G01*
X175785000Y-71846250D01*
G75*
G02*
X175541250Y-72090000I-243750J0D01*
G01*
X174978750Y-72090000D01*
G75*
G02*
X174735000Y-71846250I0J243750D01*
G01*
X174735000Y-71358750D01*
G75*
G02*
X174978750Y-71115000I243750J0D01*
G01*
G37*
%TD*%
%TO.C,R54*%
G36*
G01*
X187678750Y-72690000D02*
X188241250Y-72690000D01*
G75*
G02*
X188485000Y-72933750I0J-243750D01*
G01*
X188485000Y-73421250D01*
G75*
G02*
X188241250Y-73665000I-243750J0D01*
G01*
X187678750Y-73665000D01*
G75*
G02*
X187435000Y-73421250I0J243750D01*
G01*
X187435000Y-72933750D01*
G75*
G02*
X187678750Y-72690000I243750J0D01*
G01*
G37*
G36*
G01*
X187678750Y-71115000D02*
X188241250Y-71115000D01*
G75*
G02*
X188485000Y-71358750I0J-243750D01*
G01*
X188485000Y-71846250D01*
G75*
G02*
X188241250Y-72090000I-243750J0D01*
G01*
X187678750Y-72090000D01*
G75*
G02*
X187435000Y-71846250I0J243750D01*
G01*
X187435000Y-71358750D01*
G75*
G02*
X187678750Y-71115000I243750J0D01*
G01*
G37*
%TD*%
%TO.C,R53*%
G36*
G01*
X177518750Y-72690000D02*
X178081250Y-72690000D01*
G75*
G02*
X178325000Y-72933750I0J-243750D01*
G01*
X178325000Y-73421250D01*
G75*
G02*
X178081250Y-73665000I-243750J0D01*
G01*
X177518750Y-73665000D01*
G75*
G02*
X177275000Y-73421250I0J243750D01*
G01*
X177275000Y-72933750D01*
G75*
G02*
X177518750Y-72690000I243750J0D01*
G01*
G37*
G36*
G01*
X177518750Y-71115000D02*
X178081250Y-71115000D01*
G75*
G02*
X178325000Y-71358750I0J-243750D01*
G01*
X178325000Y-71846250D01*
G75*
G02*
X178081250Y-72090000I-243750J0D01*
G01*
X177518750Y-72090000D01*
G75*
G02*
X177275000Y-71846250I0J243750D01*
G01*
X177275000Y-71358750D01*
G75*
G02*
X177518750Y-71115000I243750J0D01*
G01*
G37*
%TD*%
%TO.C,R52*%
G36*
G01*
X180058750Y-72690000D02*
X180621250Y-72690000D01*
G75*
G02*
X180865000Y-72933750I0J-243750D01*
G01*
X180865000Y-73421250D01*
G75*
G02*
X180621250Y-73665000I-243750J0D01*
G01*
X180058750Y-73665000D01*
G75*
G02*
X179815000Y-73421250I0J243750D01*
G01*
X179815000Y-72933750D01*
G75*
G02*
X180058750Y-72690000I243750J0D01*
G01*
G37*
G36*
G01*
X180058750Y-71115000D02*
X180621250Y-71115000D01*
G75*
G02*
X180865000Y-71358750I0J-243750D01*
G01*
X180865000Y-71846250D01*
G75*
G02*
X180621250Y-72090000I-243750J0D01*
G01*
X180058750Y-72090000D01*
G75*
G02*
X179815000Y-71846250I0J243750D01*
G01*
X179815000Y-71358750D01*
G75*
G02*
X180058750Y-71115000I243750J0D01*
G01*
G37*
%TD*%
%TO.C,R51*%
G36*
G01*
X182598750Y-72690000D02*
X183161250Y-72690000D01*
G75*
G02*
X183405000Y-72933750I0J-243750D01*
G01*
X183405000Y-73421250D01*
G75*
G02*
X183161250Y-73665000I-243750J0D01*
G01*
X182598750Y-73665000D01*
G75*
G02*
X182355000Y-73421250I0J243750D01*
G01*
X182355000Y-72933750D01*
G75*
G02*
X182598750Y-72690000I243750J0D01*
G01*
G37*
G36*
G01*
X182598750Y-71115000D02*
X183161250Y-71115000D01*
G75*
G02*
X183405000Y-71358750I0J-243750D01*
G01*
X183405000Y-71846250D01*
G75*
G02*
X183161250Y-72090000I-243750J0D01*
G01*
X182598750Y-72090000D01*
G75*
G02*
X182355000Y-71846250I0J243750D01*
G01*
X182355000Y-71358750D01*
G75*
G02*
X182598750Y-71115000I243750J0D01*
G01*
G37*
%TD*%
%TO.C,R63*%
G36*
G01*
X126011250Y-79710000D02*
X125448750Y-79710000D01*
G75*
G02*
X125205000Y-79466250I0J243750D01*
G01*
X125205000Y-78978750D01*
G75*
G02*
X125448750Y-78735000I243750J0D01*
G01*
X126011250Y-78735000D01*
G75*
G02*
X126255000Y-78978750I0J-243750D01*
G01*
X126255000Y-79466250D01*
G75*
G02*
X126011250Y-79710000I-243750J0D01*
G01*
G37*
G36*
G01*
X126011250Y-81285000D02*
X125448750Y-81285000D01*
G75*
G02*
X125205000Y-81041250I0J243750D01*
G01*
X125205000Y-80553750D01*
G75*
G02*
X125448750Y-80310000I243750J0D01*
G01*
X126011250Y-80310000D01*
G75*
G02*
X126255000Y-80553750I0J-243750D01*
G01*
X126255000Y-81041250D01*
G75*
G02*
X126011250Y-81285000I-243750J0D01*
G01*
G37*
%TD*%
%TO.C,R62*%
G36*
G01*
X119026250Y-79710000D02*
X118463750Y-79710000D01*
G75*
G02*
X118220000Y-79466250I0J243750D01*
G01*
X118220000Y-78978750D01*
G75*
G02*
X118463750Y-78735000I243750J0D01*
G01*
X119026250Y-78735000D01*
G75*
G02*
X119270000Y-78978750I0J-243750D01*
G01*
X119270000Y-79466250D01*
G75*
G02*
X119026250Y-79710000I-243750J0D01*
G01*
G37*
G36*
G01*
X119026250Y-81285000D02*
X118463750Y-81285000D01*
G75*
G02*
X118220000Y-81041250I0J243750D01*
G01*
X118220000Y-80553750D01*
G75*
G02*
X118463750Y-80310000I243750J0D01*
G01*
X119026250Y-80310000D01*
G75*
G02*
X119270000Y-80553750I0J-243750D01*
G01*
X119270000Y-81041250D01*
G75*
G02*
X119026250Y-81285000I-243750J0D01*
G01*
G37*
%TD*%
%TO.C,R42*%
G36*
G01*
X148290000Y-111478750D02*
X148290000Y-112041250D01*
G75*
G02*
X148046250Y-112285000I-243750J0D01*
G01*
X147558750Y-112285000D01*
G75*
G02*
X147315000Y-112041250I0J243750D01*
G01*
X147315000Y-111478750D01*
G75*
G02*
X147558750Y-111235000I243750J0D01*
G01*
X148046250Y-111235000D01*
G75*
G02*
X148290000Y-111478750I0J-243750D01*
G01*
G37*
G36*
G01*
X149865000Y-111478750D02*
X149865000Y-112041250D01*
G75*
G02*
X149621250Y-112285000I-243750J0D01*
G01*
X149133750Y-112285000D01*
G75*
G02*
X148890000Y-112041250I0J243750D01*
G01*
X148890000Y-111478750D01*
G75*
G02*
X149133750Y-111235000I243750J0D01*
G01*
X149621250Y-111235000D01*
G75*
G02*
X149865000Y-111478750I0J-243750D01*
G01*
G37*
%TD*%
%TO.C,R41*%
G36*
G01*
X143210000Y-114653750D02*
X143210000Y-115216250D01*
G75*
G02*
X142966250Y-115460000I-243750J0D01*
G01*
X142478750Y-115460000D01*
G75*
G02*
X142235000Y-115216250I0J243750D01*
G01*
X142235000Y-114653750D01*
G75*
G02*
X142478750Y-114410000I243750J0D01*
G01*
X142966250Y-114410000D01*
G75*
G02*
X143210000Y-114653750I0J-243750D01*
G01*
G37*
G36*
G01*
X144785000Y-114653750D02*
X144785000Y-115216250D01*
G75*
G02*
X144541250Y-115460000I-243750J0D01*
G01*
X144053750Y-115460000D01*
G75*
G02*
X143810000Y-115216250I0J243750D01*
G01*
X143810000Y-114653750D01*
G75*
G02*
X144053750Y-114410000I243750J0D01*
G01*
X144541250Y-114410000D01*
G75*
G02*
X144785000Y-114653750I0J-243750D01*
G01*
G37*
%TD*%
%TO.C,R40*%
G36*
G01*
X143210000Y-111478750D02*
X143210000Y-112041250D01*
G75*
G02*
X142966250Y-112285000I-243750J0D01*
G01*
X142478750Y-112285000D01*
G75*
G02*
X142235000Y-112041250I0J243750D01*
G01*
X142235000Y-111478750D01*
G75*
G02*
X142478750Y-111235000I243750J0D01*
G01*
X142966250Y-111235000D01*
G75*
G02*
X143210000Y-111478750I0J-243750D01*
G01*
G37*
G36*
G01*
X144785000Y-111478750D02*
X144785000Y-112041250D01*
G75*
G02*
X144541250Y-112285000I-243750J0D01*
G01*
X144053750Y-112285000D01*
G75*
G02*
X143810000Y-112041250I0J243750D01*
G01*
X143810000Y-111478750D01*
G75*
G02*
X144053750Y-111235000I243750J0D01*
G01*
X144541250Y-111235000D01*
G75*
G02*
X144785000Y-111478750I0J-243750D01*
G01*
G37*
%TD*%
%TO.C,R39*%
G36*
G01*
X143210000Y-117828750D02*
X143210000Y-118391250D01*
G75*
G02*
X142966250Y-118635000I-243750J0D01*
G01*
X142478750Y-118635000D01*
G75*
G02*
X142235000Y-118391250I0J243750D01*
G01*
X142235000Y-117828750D01*
G75*
G02*
X142478750Y-117585000I243750J0D01*
G01*
X142966250Y-117585000D01*
G75*
G02*
X143210000Y-117828750I0J-243750D01*
G01*
G37*
G36*
G01*
X144785000Y-117828750D02*
X144785000Y-118391250D01*
G75*
G02*
X144541250Y-118635000I-243750J0D01*
G01*
X144053750Y-118635000D01*
G75*
G02*
X143810000Y-118391250I0J243750D01*
G01*
X143810000Y-117828750D01*
G75*
G02*
X144053750Y-117585000I243750J0D01*
G01*
X144541250Y-117585000D01*
G75*
G02*
X144785000Y-117828750I0J-243750D01*
G01*
G37*
%TD*%
%TO.C,R38*%
G36*
G01*
X129186250Y-112730000D02*
X128623750Y-112730000D01*
G75*
G02*
X128380000Y-112486250I0J243750D01*
G01*
X128380000Y-111998750D01*
G75*
G02*
X128623750Y-111755000I243750J0D01*
G01*
X129186250Y-111755000D01*
G75*
G02*
X129430000Y-111998750I0J-243750D01*
G01*
X129430000Y-112486250D01*
G75*
G02*
X129186250Y-112730000I-243750J0D01*
G01*
G37*
G36*
G01*
X129186250Y-114305000D02*
X128623750Y-114305000D01*
G75*
G02*
X128380000Y-114061250I0J243750D01*
G01*
X128380000Y-113573750D01*
G75*
G02*
X128623750Y-113330000I243750J0D01*
G01*
X129186250Y-113330000D01*
G75*
G02*
X129430000Y-113573750I0J-243750D01*
G01*
X129430000Y-114061250D01*
G75*
G02*
X129186250Y-114305000I-243750J0D01*
G01*
G37*
%TD*%
%TO.C,R37*%
G36*
G01*
X126011250Y-112730000D02*
X125448750Y-112730000D01*
G75*
G02*
X125205000Y-112486250I0J243750D01*
G01*
X125205000Y-111998750D01*
G75*
G02*
X125448750Y-111755000I243750J0D01*
G01*
X126011250Y-111755000D01*
G75*
G02*
X126255000Y-111998750I0J-243750D01*
G01*
X126255000Y-112486250D01*
G75*
G02*
X126011250Y-112730000I-243750J0D01*
G01*
G37*
G36*
G01*
X126011250Y-114305000D02*
X125448750Y-114305000D01*
G75*
G02*
X125205000Y-114061250I0J243750D01*
G01*
X125205000Y-113573750D01*
G75*
G02*
X125448750Y-113330000I243750J0D01*
G01*
X126011250Y-113330000D01*
G75*
G02*
X126255000Y-113573750I0J-243750D01*
G01*
X126255000Y-114061250D01*
G75*
G02*
X126011250Y-114305000I-243750J0D01*
G01*
G37*
%TD*%
%TO.C,R36*%
G36*
G01*
X119098750Y-113330000D02*
X119661250Y-113330000D01*
G75*
G02*
X119905000Y-113573750I0J-243750D01*
G01*
X119905000Y-114061250D01*
G75*
G02*
X119661250Y-114305000I-243750J0D01*
G01*
X119098750Y-114305000D01*
G75*
G02*
X118855000Y-114061250I0J243750D01*
G01*
X118855000Y-113573750D01*
G75*
G02*
X119098750Y-113330000I243750J0D01*
G01*
G37*
G36*
G01*
X119098750Y-111755000D02*
X119661250Y-111755000D01*
G75*
G02*
X119905000Y-111998750I0J-243750D01*
G01*
X119905000Y-112486250D01*
G75*
G02*
X119661250Y-112730000I-243750J0D01*
G01*
X119098750Y-112730000D01*
G75*
G02*
X118855000Y-112486250I0J243750D01*
G01*
X118855000Y-111998750D01*
G75*
G02*
X119098750Y-111755000I243750J0D01*
G01*
G37*
%TD*%
%TO.C,R35*%
G36*
G01*
X148290000Y-98143750D02*
X148290000Y-98706250D01*
G75*
G02*
X148046250Y-98950000I-243750J0D01*
G01*
X147558750Y-98950000D01*
G75*
G02*
X147315000Y-98706250I0J243750D01*
G01*
X147315000Y-98143750D01*
G75*
G02*
X147558750Y-97900000I243750J0D01*
G01*
X148046250Y-97900000D01*
G75*
G02*
X148290000Y-98143750I0J-243750D01*
G01*
G37*
G36*
G01*
X149865000Y-98143750D02*
X149865000Y-98706250D01*
G75*
G02*
X149621250Y-98950000I-243750J0D01*
G01*
X149133750Y-98950000D01*
G75*
G02*
X148890000Y-98706250I0J243750D01*
G01*
X148890000Y-98143750D01*
G75*
G02*
X149133750Y-97900000I243750J0D01*
G01*
X149621250Y-97900000D01*
G75*
G02*
X149865000Y-98143750I0J-243750D01*
G01*
G37*
%TD*%
%TO.C,R34*%
G36*
G01*
X143210000Y-101318750D02*
X143210000Y-101881250D01*
G75*
G02*
X142966250Y-102125000I-243750J0D01*
G01*
X142478750Y-102125000D01*
G75*
G02*
X142235000Y-101881250I0J243750D01*
G01*
X142235000Y-101318750D01*
G75*
G02*
X142478750Y-101075000I243750J0D01*
G01*
X142966250Y-101075000D01*
G75*
G02*
X143210000Y-101318750I0J-243750D01*
G01*
G37*
G36*
G01*
X144785000Y-101318750D02*
X144785000Y-101881250D01*
G75*
G02*
X144541250Y-102125000I-243750J0D01*
G01*
X144053750Y-102125000D01*
G75*
G02*
X143810000Y-101881250I0J243750D01*
G01*
X143810000Y-101318750D01*
G75*
G02*
X144053750Y-101075000I243750J0D01*
G01*
X144541250Y-101075000D01*
G75*
G02*
X144785000Y-101318750I0J-243750D01*
G01*
G37*
%TD*%
%TO.C,R33*%
G36*
G01*
X143210000Y-98143750D02*
X143210000Y-98706250D01*
G75*
G02*
X142966250Y-98950000I-243750J0D01*
G01*
X142478750Y-98950000D01*
G75*
G02*
X142235000Y-98706250I0J243750D01*
G01*
X142235000Y-98143750D01*
G75*
G02*
X142478750Y-97900000I243750J0D01*
G01*
X142966250Y-97900000D01*
G75*
G02*
X143210000Y-98143750I0J-243750D01*
G01*
G37*
G36*
G01*
X144785000Y-98143750D02*
X144785000Y-98706250D01*
G75*
G02*
X144541250Y-98950000I-243750J0D01*
G01*
X144053750Y-98950000D01*
G75*
G02*
X143810000Y-98706250I0J243750D01*
G01*
X143810000Y-98143750D01*
G75*
G02*
X144053750Y-97900000I243750J0D01*
G01*
X144541250Y-97900000D01*
G75*
G02*
X144785000Y-98143750I0J-243750D01*
G01*
G37*
%TD*%
%TO.C,R32*%
G36*
G01*
X143210000Y-104493750D02*
X143210000Y-105056250D01*
G75*
G02*
X142966250Y-105300000I-243750J0D01*
G01*
X142478750Y-105300000D01*
G75*
G02*
X142235000Y-105056250I0J243750D01*
G01*
X142235000Y-104493750D01*
G75*
G02*
X142478750Y-104250000I243750J0D01*
G01*
X142966250Y-104250000D01*
G75*
G02*
X143210000Y-104493750I0J-243750D01*
G01*
G37*
G36*
G01*
X144785000Y-104493750D02*
X144785000Y-105056250D01*
G75*
G02*
X144541250Y-105300000I-243750J0D01*
G01*
X144053750Y-105300000D01*
G75*
G02*
X143810000Y-105056250I0J243750D01*
G01*
X143810000Y-104493750D01*
G75*
G02*
X144053750Y-104250000I243750J0D01*
G01*
X144541250Y-104250000D01*
G75*
G02*
X144785000Y-104493750I0J-243750D01*
G01*
G37*
%TD*%
%TO.C,R31*%
G36*
G01*
X129186250Y-99395000D02*
X128623750Y-99395000D01*
G75*
G02*
X128380000Y-99151250I0J243750D01*
G01*
X128380000Y-98663750D01*
G75*
G02*
X128623750Y-98420000I243750J0D01*
G01*
X129186250Y-98420000D01*
G75*
G02*
X129430000Y-98663750I0J-243750D01*
G01*
X129430000Y-99151250D01*
G75*
G02*
X129186250Y-99395000I-243750J0D01*
G01*
G37*
G36*
G01*
X129186250Y-100970000D02*
X128623750Y-100970000D01*
G75*
G02*
X128380000Y-100726250I0J243750D01*
G01*
X128380000Y-100238750D01*
G75*
G02*
X128623750Y-99995000I243750J0D01*
G01*
X129186250Y-99995000D01*
G75*
G02*
X129430000Y-100238750I0J-243750D01*
G01*
X129430000Y-100726250D01*
G75*
G02*
X129186250Y-100970000I-243750J0D01*
G01*
G37*
%TD*%
%TO.C,R30*%
G36*
G01*
X126011250Y-99395000D02*
X125448750Y-99395000D01*
G75*
G02*
X125205000Y-99151250I0J243750D01*
G01*
X125205000Y-98663750D01*
G75*
G02*
X125448750Y-98420000I243750J0D01*
G01*
X126011250Y-98420000D01*
G75*
G02*
X126255000Y-98663750I0J-243750D01*
G01*
X126255000Y-99151250D01*
G75*
G02*
X126011250Y-99395000I-243750J0D01*
G01*
G37*
G36*
G01*
X126011250Y-100970000D02*
X125448750Y-100970000D01*
G75*
G02*
X125205000Y-100726250I0J243750D01*
G01*
X125205000Y-100238750D01*
G75*
G02*
X125448750Y-99995000I243750J0D01*
G01*
X126011250Y-99995000D01*
G75*
G02*
X126255000Y-100238750I0J-243750D01*
G01*
X126255000Y-100726250D01*
G75*
G02*
X126011250Y-100970000I-243750J0D01*
G01*
G37*
%TD*%
%TO.C,R29*%
G36*
G01*
X119098750Y-99995000D02*
X119661250Y-99995000D01*
G75*
G02*
X119905000Y-100238750I0J-243750D01*
G01*
X119905000Y-100726250D01*
G75*
G02*
X119661250Y-100970000I-243750J0D01*
G01*
X119098750Y-100970000D01*
G75*
G02*
X118855000Y-100726250I0J243750D01*
G01*
X118855000Y-100238750D01*
G75*
G02*
X119098750Y-99995000I243750J0D01*
G01*
G37*
G36*
G01*
X119098750Y-98420000D02*
X119661250Y-98420000D01*
G75*
G02*
X119905000Y-98663750I0J-243750D01*
G01*
X119905000Y-99151250D01*
G75*
G02*
X119661250Y-99395000I-243750J0D01*
G01*
X119098750Y-99395000D01*
G75*
G02*
X118855000Y-99151250I0J243750D01*
G01*
X118855000Y-98663750D01*
G75*
G02*
X119098750Y-98420000I243750J0D01*
G01*
G37*
%TD*%
%TO.C,R28*%
G36*
G01*
X148290000Y-84808750D02*
X148290000Y-85371250D01*
G75*
G02*
X148046250Y-85615000I-243750J0D01*
G01*
X147558750Y-85615000D01*
G75*
G02*
X147315000Y-85371250I0J243750D01*
G01*
X147315000Y-84808750D01*
G75*
G02*
X147558750Y-84565000I243750J0D01*
G01*
X148046250Y-84565000D01*
G75*
G02*
X148290000Y-84808750I0J-243750D01*
G01*
G37*
G36*
G01*
X149865000Y-84808750D02*
X149865000Y-85371250D01*
G75*
G02*
X149621250Y-85615000I-243750J0D01*
G01*
X149133750Y-85615000D01*
G75*
G02*
X148890000Y-85371250I0J243750D01*
G01*
X148890000Y-84808750D01*
G75*
G02*
X149133750Y-84565000I243750J0D01*
G01*
X149621250Y-84565000D01*
G75*
G02*
X149865000Y-84808750I0J-243750D01*
G01*
G37*
%TD*%
%TO.C,R27*%
G36*
G01*
X143210000Y-87983750D02*
X143210000Y-88546250D01*
G75*
G02*
X142966250Y-88790000I-243750J0D01*
G01*
X142478750Y-88790000D01*
G75*
G02*
X142235000Y-88546250I0J243750D01*
G01*
X142235000Y-87983750D01*
G75*
G02*
X142478750Y-87740000I243750J0D01*
G01*
X142966250Y-87740000D01*
G75*
G02*
X143210000Y-87983750I0J-243750D01*
G01*
G37*
G36*
G01*
X144785000Y-87983750D02*
X144785000Y-88546250D01*
G75*
G02*
X144541250Y-88790000I-243750J0D01*
G01*
X144053750Y-88790000D01*
G75*
G02*
X143810000Y-88546250I0J243750D01*
G01*
X143810000Y-87983750D01*
G75*
G02*
X144053750Y-87740000I243750J0D01*
G01*
X144541250Y-87740000D01*
G75*
G02*
X144785000Y-87983750I0J-243750D01*
G01*
G37*
%TD*%
%TO.C,R26*%
G36*
G01*
X143210000Y-84808750D02*
X143210000Y-85371250D01*
G75*
G02*
X142966250Y-85615000I-243750J0D01*
G01*
X142478750Y-85615000D01*
G75*
G02*
X142235000Y-85371250I0J243750D01*
G01*
X142235000Y-84808750D01*
G75*
G02*
X142478750Y-84565000I243750J0D01*
G01*
X142966250Y-84565000D01*
G75*
G02*
X143210000Y-84808750I0J-243750D01*
G01*
G37*
G36*
G01*
X144785000Y-84808750D02*
X144785000Y-85371250D01*
G75*
G02*
X144541250Y-85615000I-243750J0D01*
G01*
X144053750Y-85615000D01*
G75*
G02*
X143810000Y-85371250I0J243750D01*
G01*
X143810000Y-84808750D01*
G75*
G02*
X144053750Y-84565000I243750J0D01*
G01*
X144541250Y-84565000D01*
G75*
G02*
X144785000Y-84808750I0J-243750D01*
G01*
G37*
%TD*%
%TO.C,R25*%
G36*
G01*
X143210000Y-93063750D02*
X143210000Y-93626250D01*
G75*
G02*
X142966250Y-93870000I-243750J0D01*
G01*
X142478750Y-93870000D01*
G75*
G02*
X142235000Y-93626250I0J243750D01*
G01*
X142235000Y-93063750D01*
G75*
G02*
X142478750Y-92820000I243750J0D01*
G01*
X142966250Y-92820000D01*
G75*
G02*
X143210000Y-93063750I0J-243750D01*
G01*
G37*
G36*
G01*
X144785000Y-93063750D02*
X144785000Y-93626250D01*
G75*
G02*
X144541250Y-93870000I-243750J0D01*
G01*
X144053750Y-93870000D01*
G75*
G02*
X143810000Y-93626250I0J243750D01*
G01*
X143810000Y-93063750D01*
G75*
G02*
X144053750Y-92820000I243750J0D01*
G01*
X144541250Y-92820000D01*
G75*
G02*
X144785000Y-93063750I0J-243750D01*
G01*
G37*
%TD*%
%TO.C,R24*%
G36*
G01*
X129186250Y-86060000D02*
X128623750Y-86060000D01*
G75*
G02*
X128380000Y-85816250I0J243750D01*
G01*
X128380000Y-85328750D01*
G75*
G02*
X128623750Y-85085000I243750J0D01*
G01*
X129186250Y-85085000D01*
G75*
G02*
X129430000Y-85328750I0J-243750D01*
G01*
X129430000Y-85816250D01*
G75*
G02*
X129186250Y-86060000I-243750J0D01*
G01*
G37*
G36*
G01*
X129186250Y-87635000D02*
X128623750Y-87635000D01*
G75*
G02*
X128380000Y-87391250I0J243750D01*
G01*
X128380000Y-86903750D01*
G75*
G02*
X128623750Y-86660000I243750J0D01*
G01*
X129186250Y-86660000D01*
G75*
G02*
X129430000Y-86903750I0J-243750D01*
G01*
X129430000Y-87391250D01*
G75*
G02*
X129186250Y-87635000I-243750J0D01*
G01*
G37*
%TD*%
%TO.C,R23*%
G36*
G01*
X126011250Y-86060000D02*
X125448750Y-86060000D01*
G75*
G02*
X125205000Y-85816250I0J243750D01*
G01*
X125205000Y-85328750D01*
G75*
G02*
X125448750Y-85085000I243750J0D01*
G01*
X126011250Y-85085000D01*
G75*
G02*
X126255000Y-85328750I0J-243750D01*
G01*
X126255000Y-85816250D01*
G75*
G02*
X126011250Y-86060000I-243750J0D01*
G01*
G37*
G36*
G01*
X126011250Y-87635000D02*
X125448750Y-87635000D01*
G75*
G02*
X125205000Y-87391250I0J243750D01*
G01*
X125205000Y-86903750D01*
G75*
G02*
X125448750Y-86660000I243750J0D01*
G01*
X126011250Y-86660000D01*
G75*
G02*
X126255000Y-86903750I0J-243750D01*
G01*
X126255000Y-87391250D01*
G75*
G02*
X126011250Y-87635000I-243750J0D01*
G01*
G37*
%TD*%
%TO.C,R22*%
G36*
G01*
X119098750Y-86812500D02*
X119661250Y-86812500D01*
G75*
G02*
X119905000Y-87056250I0J-243750D01*
G01*
X119905000Y-87543750D01*
G75*
G02*
X119661250Y-87787500I-243750J0D01*
G01*
X119098750Y-87787500D01*
G75*
G02*
X118855000Y-87543750I0J243750D01*
G01*
X118855000Y-87056250D01*
G75*
G02*
X119098750Y-86812500I243750J0D01*
G01*
G37*
G36*
G01*
X119098750Y-85237500D02*
X119661250Y-85237500D01*
G75*
G02*
X119905000Y-85481250I0J-243750D01*
G01*
X119905000Y-85968750D01*
G75*
G02*
X119661250Y-86212500I-243750J0D01*
G01*
X119098750Y-86212500D01*
G75*
G02*
X118855000Y-85968750I0J243750D01*
G01*
X118855000Y-85481250D01*
G75*
G02*
X119098750Y-85237500I243750J0D01*
G01*
G37*
%TD*%
%TO.C,R21*%
G36*
G01*
X196550000Y-145768750D02*
X196550000Y-146331250D01*
G75*
G02*
X196306250Y-146575000I-243750J0D01*
G01*
X195818750Y-146575000D01*
G75*
G02*
X195575000Y-146331250I0J243750D01*
G01*
X195575000Y-145768750D01*
G75*
G02*
X195818750Y-145525000I243750J0D01*
G01*
X196306250Y-145525000D01*
G75*
G02*
X196550000Y-145768750I0J-243750D01*
G01*
G37*
G36*
G01*
X198125000Y-145768750D02*
X198125000Y-146331250D01*
G75*
G02*
X197881250Y-146575000I-243750J0D01*
G01*
X197393750Y-146575000D01*
G75*
G02*
X197150000Y-146331250I0J243750D01*
G01*
X197150000Y-145768750D01*
G75*
G02*
X197393750Y-145525000I243750J0D01*
G01*
X197881250Y-145525000D01*
G75*
G02*
X198125000Y-145768750I0J-243750D01*
G01*
G37*
%TD*%
%TO.C,R20*%
G36*
G01*
X196550000Y-138148750D02*
X196550000Y-138711250D01*
G75*
G02*
X196306250Y-138955000I-243750J0D01*
G01*
X195818750Y-138955000D01*
G75*
G02*
X195575000Y-138711250I0J243750D01*
G01*
X195575000Y-138148750D01*
G75*
G02*
X195818750Y-137905000I243750J0D01*
G01*
X196306250Y-137905000D01*
G75*
G02*
X196550000Y-138148750I0J-243750D01*
G01*
G37*
G36*
G01*
X198125000Y-138148750D02*
X198125000Y-138711250D01*
G75*
G02*
X197881250Y-138955000I-243750J0D01*
G01*
X197393750Y-138955000D01*
G75*
G02*
X197150000Y-138711250I0J243750D01*
G01*
X197150000Y-138148750D01*
G75*
G02*
X197393750Y-137905000I243750J0D01*
G01*
X197881250Y-137905000D01*
G75*
G02*
X198125000Y-138148750I0J-243750D01*
G01*
G37*
%TD*%
%TO.C,R19*%
G36*
G01*
X196550000Y-134973750D02*
X196550000Y-135536250D01*
G75*
G02*
X196306250Y-135780000I-243750J0D01*
G01*
X195818750Y-135780000D01*
G75*
G02*
X195575000Y-135536250I0J243750D01*
G01*
X195575000Y-134973750D01*
G75*
G02*
X195818750Y-134730000I243750J0D01*
G01*
X196306250Y-134730000D01*
G75*
G02*
X196550000Y-134973750I0J-243750D01*
G01*
G37*
G36*
G01*
X198125000Y-134973750D02*
X198125000Y-135536250D01*
G75*
G02*
X197881250Y-135780000I-243750J0D01*
G01*
X197393750Y-135780000D01*
G75*
G02*
X197150000Y-135536250I0J243750D01*
G01*
X197150000Y-134973750D01*
G75*
G02*
X197393750Y-134730000I243750J0D01*
G01*
X197881250Y-134730000D01*
G75*
G02*
X198125000Y-134973750I0J-243750D01*
G01*
G37*
%TD*%
%TO.C,R18*%
G36*
G01*
X182580000Y-145768750D02*
X182580000Y-146331250D01*
G75*
G02*
X182336250Y-146575000I-243750J0D01*
G01*
X181848750Y-146575000D01*
G75*
G02*
X181605000Y-146331250I0J243750D01*
G01*
X181605000Y-145768750D01*
G75*
G02*
X181848750Y-145525000I243750J0D01*
G01*
X182336250Y-145525000D01*
G75*
G02*
X182580000Y-145768750I0J-243750D01*
G01*
G37*
G36*
G01*
X184155000Y-145768750D02*
X184155000Y-146331250D01*
G75*
G02*
X183911250Y-146575000I-243750J0D01*
G01*
X183423750Y-146575000D01*
G75*
G02*
X183180000Y-146331250I0J243750D01*
G01*
X183180000Y-145768750D01*
G75*
G02*
X183423750Y-145525000I243750J0D01*
G01*
X183911250Y-145525000D01*
G75*
G02*
X184155000Y-145768750I0J-243750D01*
G01*
G37*
%TD*%
%TO.C,R17*%
G36*
G01*
X182580000Y-138148750D02*
X182580000Y-138711250D01*
G75*
G02*
X182336250Y-138955000I-243750J0D01*
G01*
X181848750Y-138955000D01*
G75*
G02*
X181605000Y-138711250I0J243750D01*
G01*
X181605000Y-138148750D01*
G75*
G02*
X181848750Y-137905000I243750J0D01*
G01*
X182336250Y-137905000D01*
G75*
G02*
X182580000Y-138148750I0J-243750D01*
G01*
G37*
G36*
G01*
X184155000Y-138148750D02*
X184155000Y-138711250D01*
G75*
G02*
X183911250Y-138955000I-243750J0D01*
G01*
X183423750Y-138955000D01*
G75*
G02*
X183180000Y-138711250I0J243750D01*
G01*
X183180000Y-138148750D01*
G75*
G02*
X183423750Y-137905000I243750J0D01*
G01*
X183911250Y-137905000D01*
G75*
G02*
X184155000Y-138148750I0J-243750D01*
G01*
G37*
%TD*%
%TO.C,R16*%
G36*
G01*
X182580000Y-134973750D02*
X182580000Y-135536250D01*
G75*
G02*
X182336250Y-135780000I-243750J0D01*
G01*
X181848750Y-135780000D01*
G75*
G02*
X181605000Y-135536250I0J243750D01*
G01*
X181605000Y-134973750D01*
G75*
G02*
X181848750Y-134730000I243750J0D01*
G01*
X182336250Y-134730000D01*
G75*
G02*
X182580000Y-134973750I0J-243750D01*
G01*
G37*
G36*
G01*
X184155000Y-134973750D02*
X184155000Y-135536250D01*
G75*
G02*
X183911250Y-135780000I-243750J0D01*
G01*
X183423750Y-135780000D01*
G75*
G02*
X183180000Y-135536250I0J243750D01*
G01*
X183180000Y-134973750D01*
G75*
G02*
X183423750Y-134730000I243750J0D01*
G01*
X183911250Y-134730000D01*
G75*
G02*
X184155000Y-134973750I0J-243750D01*
G01*
G37*
%TD*%
%TO.C,R15*%
G36*
G01*
X168610000Y-145768750D02*
X168610000Y-146331250D01*
G75*
G02*
X168366250Y-146575000I-243750J0D01*
G01*
X167878750Y-146575000D01*
G75*
G02*
X167635000Y-146331250I0J243750D01*
G01*
X167635000Y-145768750D01*
G75*
G02*
X167878750Y-145525000I243750J0D01*
G01*
X168366250Y-145525000D01*
G75*
G02*
X168610000Y-145768750I0J-243750D01*
G01*
G37*
G36*
G01*
X170185000Y-145768750D02*
X170185000Y-146331250D01*
G75*
G02*
X169941250Y-146575000I-243750J0D01*
G01*
X169453750Y-146575000D01*
G75*
G02*
X169210000Y-146331250I0J243750D01*
G01*
X169210000Y-145768750D01*
G75*
G02*
X169453750Y-145525000I243750J0D01*
G01*
X169941250Y-145525000D01*
G75*
G02*
X170185000Y-145768750I0J-243750D01*
G01*
G37*
%TD*%
%TO.C,R14*%
G36*
G01*
X168610000Y-138148750D02*
X168610000Y-138711250D01*
G75*
G02*
X168366250Y-138955000I-243750J0D01*
G01*
X167878750Y-138955000D01*
G75*
G02*
X167635000Y-138711250I0J243750D01*
G01*
X167635000Y-138148750D01*
G75*
G02*
X167878750Y-137905000I243750J0D01*
G01*
X168366250Y-137905000D01*
G75*
G02*
X168610000Y-138148750I0J-243750D01*
G01*
G37*
G36*
G01*
X170185000Y-138148750D02*
X170185000Y-138711250D01*
G75*
G02*
X169941250Y-138955000I-243750J0D01*
G01*
X169453750Y-138955000D01*
G75*
G02*
X169210000Y-138711250I0J243750D01*
G01*
X169210000Y-138148750D01*
G75*
G02*
X169453750Y-137905000I243750J0D01*
G01*
X169941250Y-137905000D01*
G75*
G02*
X170185000Y-138148750I0J-243750D01*
G01*
G37*
%TD*%
%TO.C,R13*%
G36*
G01*
X168610000Y-134973750D02*
X168610000Y-135536250D01*
G75*
G02*
X168366250Y-135780000I-243750J0D01*
G01*
X167878750Y-135780000D01*
G75*
G02*
X167635000Y-135536250I0J243750D01*
G01*
X167635000Y-134973750D01*
G75*
G02*
X167878750Y-134730000I243750J0D01*
G01*
X168366250Y-134730000D01*
G75*
G02*
X168610000Y-134973750I0J-243750D01*
G01*
G37*
G36*
G01*
X170185000Y-134973750D02*
X170185000Y-135536250D01*
G75*
G02*
X169941250Y-135780000I-243750J0D01*
G01*
X169453750Y-135780000D01*
G75*
G02*
X169210000Y-135536250I0J243750D01*
G01*
X169210000Y-134973750D01*
G75*
G02*
X169453750Y-134730000I243750J0D01*
G01*
X169941250Y-134730000D01*
G75*
G02*
X170185000Y-134973750I0J-243750D01*
G01*
G37*
%TD*%
%TO.C,R12*%
G36*
G01*
X154640000Y-145768750D02*
X154640000Y-146331250D01*
G75*
G02*
X154396250Y-146575000I-243750J0D01*
G01*
X153908750Y-146575000D01*
G75*
G02*
X153665000Y-146331250I0J243750D01*
G01*
X153665000Y-145768750D01*
G75*
G02*
X153908750Y-145525000I243750J0D01*
G01*
X154396250Y-145525000D01*
G75*
G02*
X154640000Y-145768750I0J-243750D01*
G01*
G37*
G36*
G01*
X156215000Y-145768750D02*
X156215000Y-146331250D01*
G75*
G02*
X155971250Y-146575000I-243750J0D01*
G01*
X155483750Y-146575000D01*
G75*
G02*
X155240000Y-146331250I0J243750D01*
G01*
X155240000Y-145768750D01*
G75*
G02*
X155483750Y-145525000I243750J0D01*
G01*
X155971250Y-145525000D01*
G75*
G02*
X156215000Y-145768750I0J-243750D01*
G01*
G37*
%TD*%
%TO.C,R11*%
G36*
G01*
X154640000Y-138148750D02*
X154640000Y-138711250D01*
G75*
G02*
X154396250Y-138955000I-243750J0D01*
G01*
X153908750Y-138955000D01*
G75*
G02*
X153665000Y-138711250I0J243750D01*
G01*
X153665000Y-138148750D01*
G75*
G02*
X153908750Y-137905000I243750J0D01*
G01*
X154396250Y-137905000D01*
G75*
G02*
X154640000Y-138148750I0J-243750D01*
G01*
G37*
G36*
G01*
X156215000Y-138148750D02*
X156215000Y-138711250D01*
G75*
G02*
X155971250Y-138955000I-243750J0D01*
G01*
X155483750Y-138955000D01*
G75*
G02*
X155240000Y-138711250I0J243750D01*
G01*
X155240000Y-138148750D01*
G75*
G02*
X155483750Y-137905000I243750J0D01*
G01*
X155971250Y-137905000D01*
G75*
G02*
X156215000Y-138148750I0J-243750D01*
G01*
G37*
%TD*%
%TO.C,R10*%
G36*
G01*
X154640000Y-134973750D02*
X154640000Y-135536250D01*
G75*
G02*
X154396250Y-135780000I-243750J0D01*
G01*
X153908750Y-135780000D01*
G75*
G02*
X153665000Y-135536250I0J243750D01*
G01*
X153665000Y-134973750D01*
G75*
G02*
X153908750Y-134730000I243750J0D01*
G01*
X154396250Y-134730000D01*
G75*
G02*
X154640000Y-134973750I0J-243750D01*
G01*
G37*
G36*
G01*
X156215000Y-134973750D02*
X156215000Y-135536250D01*
G75*
G02*
X155971250Y-135780000I-243750J0D01*
G01*
X155483750Y-135780000D01*
G75*
G02*
X155240000Y-135536250I0J243750D01*
G01*
X155240000Y-134973750D01*
G75*
G02*
X155483750Y-134730000I243750J0D01*
G01*
X155971250Y-134730000D01*
G75*
G02*
X156215000Y-134973750I0J-243750D01*
G01*
G37*
%TD*%
%TO.C,R9*%
G36*
G01*
X140670000Y-145768750D02*
X140670000Y-146331250D01*
G75*
G02*
X140426250Y-146575000I-243750J0D01*
G01*
X139938750Y-146575000D01*
G75*
G02*
X139695000Y-146331250I0J243750D01*
G01*
X139695000Y-145768750D01*
G75*
G02*
X139938750Y-145525000I243750J0D01*
G01*
X140426250Y-145525000D01*
G75*
G02*
X140670000Y-145768750I0J-243750D01*
G01*
G37*
G36*
G01*
X142245000Y-145768750D02*
X142245000Y-146331250D01*
G75*
G02*
X142001250Y-146575000I-243750J0D01*
G01*
X141513750Y-146575000D01*
G75*
G02*
X141270000Y-146331250I0J243750D01*
G01*
X141270000Y-145768750D01*
G75*
G02*
X141513750Y-145525000I243750J0D01*
G01*
X142001250Y-145525000D01*
G75*
G02*
X142245000Y-145768750I0J-243750D01*
G01*
G37*
%TD*%
%TO.C,R8*%
G36*
G01*
X140670000Y-138148750D02*
X140670000Y-138711250D01*
G75*
G02*
X140426250Y-138955000I-243750J0D01*
G01*
X139938750Y-138955000D01*
G75*
G02*
X139695000Y-138711250I0J243750D01*
G01*
X139695000Y-138148750D01*
G75*
G02*
X139938750Y-137905000I243750J0D01*
G01*
X140426250Y-137905000D01*
G75*
G02*
X140670000Y-138148750I0J-243750D01*
G01*
G37*
G36*
G01*
X142245000Y-138148750D02*
X142245000Y-138711250D01*
G75*
G02*
X142001250Y-138955000I-243750J0D01*
G01*
X141513750Y-138955000D01*
G75*
G02*
X141270000Y-138711250I0J243750D01*
G01*
X141270000Y-138148750D01*
G75*
G02*
X141513750Y-137905000I243750J0D01*
G01*
X142001250Y-137905000D01*
G75*
G02*
X142245000Y-138148750I0J-243750D01*
G01*
G37*
%TD*%
%TO.C,R7*%
G36*
G01*
X140670000Y-134973750D02*
X140670000Y-135536250D01*
G75*
G02*
X140426250Y-135780000I-243750J0D01*
G01*
X139938750Y-135780000D01*
G75*
G02*
X139695000Y-135536250I0J243750D01*
G01*
X139695000Y-134973750D01*
G75*
G02*
X139938750Y-134730000I243750J0D01*
G01*
X140426250Y-134730000D01*
G75*
G02*
X140670000Y-134973750I0J-243750D01*
G01*
G37*
G36*
G01*
X142245000Y-134973750D02*
X142245000Y-135536250D01*
G75*
G02*
X142001250Y-135780000I-243750J0D01*
G01*
X141513750Y-135780000D01*
G75*
G02*
X141270000Y-135536250I0J243750D01*
G01*
X141270000Y-134973750D01*
G75*
G02*
X141513750Y-134730000I243750J0D01*
G01*
X142001250Y-134730000D01*
G75*
G02*
X142245000Y-134973750I0J-243750D01*
G01*
G37*
%TD*%
%TO.C,R6*%
G36*
G01*
X126700000Y-145768750D02*
X126700000Y-146331250D01*
G75*
G02*
X126456250Y-146575000I-243750J0D01*
G01*
X125968750Y-146575000D01*
G75*
G02*
X125725000Y-146331250I0J243750D01*
G01*
X125725000Y-145768750D01*
G75*
G02*
X125968750Y-145525000I243750J0D01*
G01*
X126456250Y-145525000D01*
G75*
G02*
X126700000Y-145768750I0J-243750D01*
G01*
G37*
G36*
G01*
X128275000Y-145768750D02*
X128275000Y-146331250D01*
G75*
G02*
X128031250Y-146575000I-243750J0D01*
G01*
X127543750Y-146575000D01*
G75*
G02*
X127300000Y-146331250I0J243750D01*
G01*
X127300000Y-145768750D01*
G75*
G02*
X127543750Y-145525000I243750J0D01*
G01*
X128031250Y-145525000D01*
G75*
G02*
X128275000Y-145768750I0J-243750D01*
G01*
G37*
%TD*%
%TO.C,R5*%
G36*
G01*
X126700000Y-138148750D02*
X126700000Y-138711250D01*
G75*
G02*
X126456250Y-138955000I-243750J0D01*
G01*
X125968750Y-138955000D01*
G75*
G02*
X125725000Y-138711250I0J243750D01*
G01*
X125725000Y-138148750D01*
G75*
G02*
X125968750Y-137905000I243750J0D01*
G01*
X126456250Y-137905000D01*
G75*
G02*
X126700000Y-138148750I0J-243750D01*
G01*
G37*
G36*
G01*
X128275000Y-138148750D02*
X128275000Y-138711250D01*
G75*
G02*
X128031250Y-138955000I-243750J0D01*
G01*
X127543750Y-138955000D01*
G75*
G02*
X127300000Y-138711250I0J243750D01*
G01*
X127300000Y-138148750D01*
G75*
G02*
X127543750Y-137905000I243750J0D01*
G01*
X128031250Y-137905000D01*
G75*
G02*
X128275000Y-138148750I0J-243750D01*
G01*
G37*
%TD*%
%TO.C,R4*%
G36*
G01*
X126700000Y-134973750D02*
X126700000Y-135536250D01*
G75*
G02*
X126456250Y-135780000I-243750J0D01*
G01*
X125968750Y-135780000D01*
G75*
G02*
X125725000Y-135536250I0J243750D01*
G01*
X125725000Y-134973750D01*
G75*
G02*
X125968750Y-134730000I243750J0D01*
G01*
X126456250Y-134730000D01*
G75*
G02*
X126700000Y-134973750I0J-243750D01*
G01*
G37*
G36*
G01*
X128275000Y-134973750D02*
X128275000Y-135536250D01*
G75*
G02*
X128031250Y-135780000I-243750J0D01*
G01*
X127543750Y-135780000D01*
G75*
G02*
X127300000Y-135536250I0J243750D01*
G01*
X127300000Y-134973750D01*
G75*
G02*
X127543750Y-134730000I243750J0D01*
G01*
X128031250Y-134730000D01*
G75*
G02*
X128275000Y-134973750I0J-243750D01*
G01*
G37*
%TD*%
%TO.C,R3*%
G36*
G01*
X112730000Y-145768750D02*
X112730000Y-146331250D01*
G75*
G02*
X112486250Y-146575000I-243750J0D01*
G01*
X111998750Y-146575000D01*
G75*
G02*
X111755000Y-146331250I0J243750D01*
G01*
X111755000Y-145768750D01*
G75*
G02*
X111998750Y-145525000I243750J0D01*
G01*
X112486250Y-145525000D01*
G75*
G02*
X112730000Y-145768750I0J-243750D01*
G01*
G37*
G36*
G01*
X114305000Y-145768750D02*
X114305000Y-146331250D01*
G75*
G02*
X114061250Y-146575000I-243750J0D01*
G01*
X113573750Y-146575000D01*
G75*
G02*
X113330000Y-146331250I0J243750D01*
G01*
X113330000Y-145768750D01*
G75*
G02*
X113573750Y-145525000I243750J0D01*
G01*
X114061250Y-145525000D01*
G75*
G02*
X114305000Y-145768750I0J-243750D01*
G01*
G37*
%TD*%
%TO.C,R2*%
G36*
G01*
X112730000Y-138148750D02*
X112730000Y-138711250D01*
G75*
G02*
X112486250Y-138955000I-243750J0D01*
G01*
X111998750Y-138955000D01*
G75*
G02*
X111755000Y-138711250I0J243750D01*
G01*
X111755000Y-138148750D01*
G75*
G02*
X111998750Y-137905000I243750J0D01*
G01*
X112486250Y-137905000D01*
G75*
G02*
X112730000Y-138148750I0J-243750D01*
G01*
G37*
G36*
G01*
X114305000Y-138148750D02*
X114305000Y-138711250D01*
G75*
G02*
X114061250Y-138955000I-243750J0D01*
G01*
X113573750Y-138955000D01*
G75*
G02*
X113330000Y-138711250I0J243750D01*
G01*
X113330000Y-138148750D01*
G75*
G02*
X113573750Y-137905000I243750J0D01*
G01*
X114061250Y-137905000D01*
G75*
G02*
X114305000Y-138148750I0J-243750D01*
G01*
G37*
%TD*%
%TO.C,R1*%
G36*
G01*
X112730000Y-134973750D02*
X112730000Y-135536250D01*
G75*
G02*
X112486250Y-135780000I-243750J0D01*
G01*
X111998750Y-135780000D01*
G75*
G02*
X111755000Y-135536250I0J243750D01*
G01*
X111755000Y-134973750D01*
G75*
G02*
X111998750Y-134730000I243750J0D01*
G01*
X112486250Y-134730000D01*
G75*
G02*
X112730000Y-134973750I0J-243750D01*
G01*
G37*
G36*
G01*
X114305000Y-134973750D02*
X114305000Y-135536250D01*
G75*
G02*
X114061250Y-135780000I-243750J0D01*
G01*
X113573750Y-135780000D01*
G75*
G02*
X113330000Y-135536250I0J243750D01*
G01*
X113330000Y-134973750D01*
G75*
G02*
X113573750Y-134730000I243750J0D01*
G01*
X114061250Y-134730000D01*
G75*
G02*
X114305000Y-134973750I0J-243750D01*
G01*
G37*
%TD*%
D15*
%TO.C,Q24*%
X123555000Y-80010000D03*
X121555000Y-79060000D03*
X121555000Y-80960000D03*
%TD*%
D16*
%TO.C,Q23*%
X148590000Y-115935000D03*
X149540000Y-113935000D03*
X147640000Y-113935000D03*
%TD*%
D17*
%TO.C,Q22*%
X161290000Y-116155000D03*
D18*
X163570000Y-109855000D03*
X161290000Y-109855000D03*
X159010000Y-109855000D03*
%TD*%
D15*
%TO.C,Q21*%
X123555000Y-113030000D03*
X121555000Y-112080000D03*
X121555000Y-113980000D03*
%TD*%
D16*
%TO.C,Q20*%
X148590000Y-102600000D03*
X149540000Y-100600000D03*
X147640000Y-100600000D03*
%TD*%
D17*
%TO.C,Q19*%
X161290000Y-102185000D03*
D18*
X163570000Y-95885000D03*
X161290000Y-95885000D03*
X159010000Y-95885000D03*
%TD*%
D15*
%TO.C,Q18*%
X123555000Y-99695000D03*
X121555000Y-98745000D03*
X121555000Y-100645000D03*
%TD*%
D16*
%TO.C,Q17*%
X148590000Y-89265000D03*
X149540000Y-87265000D03*
X147640000Y-87265000D03*
%TD*%
D17*
%TO.C,Q16*%
X161925000Y-88215000D03*
D18*
X164205000Y-81915000D03*
X161925000Y-81915000D03*
X159645000Y-81915000D03*
%TD*%
D15*
%TO.C,Q15*%
X123555000Y-86360000D03*
X121555000Y-85410000D03*
X121555000Y-87310000D03*
%TD*%
D17*
%TO.C,Q14*%
X189865000Y-139115000D03*
D18*
X187585000Y-145415000D03*
X189865000Y-145415000D03*
X192145000Y-145415000D03*
%TD*%
D16*
%TO.C,Q13*%
X196850000Y-143240000D03*
X197800000Y-141240000D03*
X195900000Y-141240000D03*
%TD*%
D17*
%TO.C,Q12*%
X175895000Y-139115000D03*
D18*
X173615000Y-145415000D03*
X175895000Y-145415000D03*
X178175000Y-145415000D03*
%TD*%
D16*
%TO.C,Q11*%
X182880000Y-143240000D03*
X183830000Y-141240000D03*
X181930000Y-141240000D03*
%TD*%
D17*
%TO.C,Q10*%
X161925000Y-139115000D03*
D18*
X159645000Y-145415000D03*
X161925000Y-145415000D03*
X164205000Y-145415000D03*
%TD*%
D16*
%TO.C,Q9*%
X168910000Y-144510000D03*
X169860000Y-142510000D03*
X167960000Y-142510000D03*
%TD*%
D17*
%TO.C,Q8*%
X147955000Y-139115000D03*
D18*
X145675000Y-145415000D03*
X147955000Y-145415000D03*
X150235000Y-145415000D03*
%TD*%
D16*
%TO.C,Q7*%
X154940000Y-143240000D03*
X155890000Y-141240000D03*
X153990000Y-141240000D03*
%TD*%
D17*
%TO.C,Q6*%
X133985000Y-139115000D03*
D18*
X131705000Y-145415000D03*
X133985000Y-145415000D03*
X136265000Y-145415000D03*
%TD*%
D16*
%TO.C,Q5*%
X140970000Y-144510000D03*
X141920000Y-142510000D03*
X140020000Y-142510000D03*
%TD*%
D17*
%TO.C,Q4*%
X120015000Y-139115000D03*
D18*
X117735000Y-145415000D03*
X120015000Y-145415000D03*
X122295000Y-145415000D03*
%TD*%
D16*
%TO.C,Q3*%
X127000000Y-143240000D03*
X127950000Y-141240000D03*
X126050000Y-141240000D03*
%TD*%
D17*
%TO.C,Q2*%
X106045000Y-139115000D03*
D18*
X103765000Y-145415000D03*
X106045000Y-145415000D03*
X108325000Y-145415000D03*
%TD*%
D16*
%TO.C,Q1*%
X113030000Y-143240000D03*
X113980000Y-141240000D03*
X112080000Y-141240000D03*
%TD*%
D10*
%TO.C,J10*%
X101600000Y-123190000D03*
D11*
X101600000Y-120650000D03*
%TD*%
D10*
%TO.C,J9*%
X101600000Y-111760000D03*
D11*
X101600000Y-109220000D03*
%TD*%
D19*
%TO.C,J7*%
X194945000Y-76795000D03*
G36*
G01*
X194159706Y-73395000D02*
X195730294Y-73395000D01*
G75*
G02*
X195995000Y-73659706I0J-264706D01*
G01*
X195995000Y-74930294D01*
G75*
G02*
X195730294Y-75195000I-264706J0D01*
G01*
X194159706Y-75195000D01*
G75*
G02*
X193895000Y-74930294I0J264706D01*
G01*
X193895000Y-73659706D01*
G75*
G02*
X194159706Y-73395000I264706J0D01*
G01*
G37*
%TD*%
%TO.C,J6*%
X106680000Y-76795000D03*
G36*
G01*
X105894706Y-73395000D02*
X107465294Y-73395000D01*
G75*
G02*
X107730000Y-73659706I0J-264706D01*
G01*
X107730000Y-74930294D01*
G75*
G02*
X107465294Y-75195000I-264706J0D01*
G01*
X105894706Y-75195000D01*
G75*
G02*
X105630000Y-74930294I0J264706D01*
G01*
X105630000Y-73659706D01*
G75*
G02*
X105894706Y-73395000I264706J0D01*
G01*
G37*
%TD*%
D20*
%TO.C,J5*%
X194945000Y-67125000D03*
X194945000Y-63165000D03*
X194945000Y-59205000D03*
G36*
G01*
X193804260Y-53845000D02*
X196085740Y-53845000D01*
G75*
G02*
X196345000Y-54104260I0J-259260D01*
G01*
X196345000Y-56385740D01*
G75*
G02*
X196085740Y-56645000I-259260J0D01*
G01*
X193804260Y-56645000D01*
G75*
G02*
X193545000Y-56385740I0J259260D01*
G01*
X193545000Y-54104260D01*
G75*
G02*
X193804260Y-53845000I259260J0D01*
G01*
G37*
%TD*%
%TO.C,J4*%
X106680000Y-67125000D03*
X106680000Y-63165000D03*
X106680000Y-59205000D03*
G36*
G01*
X105539260Y-53845000D02*
X107820740Y-53845000D01*
G75*
G02*
X108080000Y-54104260I0J-259260D01*
G01*
X108080000Y-56385740D01*
G75*
G02*
X107820740Y-56645000I-259260J0D01*
G01*
X105539260Y-56645000D01*
G75*
G02*
X105280000Y-56385740I0J259260D01*
G01*
X105280000Y-54104260D01*
G75*
G02*
X105539260Y-53845000I259260J0D01*
G01*
G37*
%TD*%
%TO.C,J3*%
X196630000Y-114300000D03*
X192670000Y-114300000D03*
X188710000Y-114300000D03*
X184750000Y-114300000D03*
X180790000Y-114300000D03*
X176830000Y-114300000D03*
X172870000Y-114300000D03*
G36*
G01*
X167510000Y-115440740D02*
X167510000Y-113159260D01*
G75*
G02*
X167769260Y-112900000I259260J0D01*
G01*
X170050740Y-112900000D01*
G75*
G02*
X170310000Y-113159260I0J-259260D01*
G01*
X170310000Y-115440740D01*
G75*
G02*
X170050740Y-115700000I-259260J0D01*
G01*
X167769260Y-115700000D01*
G75*
G02*
X167510000Y-115440740I0J259260D01*
G01*
G37*
%TD*%
%TO.C,J2*%
X196630000Y-100330000D03*
X192670000Y-100330000D03*
X188710000Y-100330000D03*
X184750000Y-100330000D03*
X180790000Y-100330000D03*
X176830000Y-100330000D03*
X172870000Y-100330000D03*
G36*
G01*
X167510000Y-101470740D02*
X167510000Y-99189260D01*
G75*
G02*
X167769260Y-98930000I259260J0D01*
G01*
X170050740Y-98930000D01*
G75*
G02*
X170310000Y-99189260I0J-259260D01*
G01*
X170310000Y-101470740D01*
G75*
G02*
X170050740Y-101730000I-259260J0D01*
G01*
X167769260Y-101730000D01*
G75*
G02*
X167510000Y-101470740I0J259260D01*
G01*
G37*
%TD*%
%TO.C,J1*%
X196630000Y-86360000D03*
X192670000Y-86360000D03*
X188710000Y-86360000D03*
X184750000Y-86360000D03*
X180790000Y-86360000D03*
X176830000Y-86360000D03*
X172870000Y-86360000D03*
G36*
G01*
X167510000Y-87500740D02*
X167510000Y-85219260D01*
G75*
G02*
X167769260Y-84960000I259260J0D01*
G01*
X170050740Y-84960000D01*
G75*
G02*
X170310000Y-85219260I0J-259260D01*
G01*
X170310000Y-87500740D01*
G75*
G02*
X170050740Y-87760000I-259260J0D01*
G01*
X167769260Y-87760000D01*
G75*
G02*
X167510000Y-87500740I0J259260D01*
G01*
G37*
%TD*%
D21*
%TO.C,DS1*%
X162560000Y-58420000D03*
X165100000Y-58420000D03*
X167640000Y-58420000D03*
X170180000Y-58420000D03*
X172720000Y-58420000D03*
X175260000Y-58420000D03*
X175260000Y-66040000D03*
X172720000Y-66040000D03*
X170180000Y-66040000D03*
X167640000Y-66040000D03*
X165100000Y-66040000D03*
D22*
X162560000Y-66040000D03*
%TD*%
D23*
%TO.C,D6*%
X133220000Y-119380000D03*
X136020000Y-119380000D03*
%TD*%
%TO.C,D5*%
X161925000Y-73790000D03*
X161925000Y-70990000D03*
%TD*%
%TO.C,D4*%
X133220000Y-106045000D03*
X136020000Y-106045000D03*
%TD*%
%TO.C,D3*%
X165735000Y-73790000D03*
X165735000Y-70990000D03*
%TD*%
%TO.C,D2*%
X133220000Y-92710000D03*
X136020000Y-92710000D03*
%TD*%
%TO.C,D1*%
X169545000Y-73790000D03*
X169545000Y-70990000D03*
%TD*%
%TO.C,C7*%
G36*
G01*
X139981250Y-114000000D02*
X139418750Y-114000000D01*
G75*
G02*
X139175000Y-113756250I0J243750D01*
G01*
X139175000Y-113268750D01*
G75*
G02*
X139418750Y-113025000I243750J0D01*
G01*
X139981250Y-113025000D01*
G75*
G02*
X140225000Y-113268750I0J-243750D01*
G01*
X140225000Y-113756250D01*
G75*
G02*
X139981250Y-114000000I-243750J0D01*
G01*
G37*
G36*
G01*
X139981250Y-115575000D02*
X139418750Y-115575000D01*
G75*
G02*
X139175000Y-115331250I0J243750D01*
G01*
X139175000Y-114843750D01*
G75*
G02*
X139418750Y-114600000I243750J0D01*
G01*
X139981250Y-114600000D01*
G75*
G02*
X140225000Y-114843750I0J-243750D01*
G01*
X140225000Y-115331250D01*
G75*
G02*
X139981250Y-115575000I-243750J0D01*
G01*
G37*
%TD*%
%TO.C,C6*%
G36*
G01*
X129186250Y-117810000D02*
X128623750Y-117810000D01*
G75*
G02*
X128380000Y-117566250I0J243750D01*
G01*
X128380000Y-117078750D01*
G75*
G02*
X128623750Y-116835000I243750J0D01*
G01*
X129186250Y-116835000D01*
G75*
G02*
X129430000Y-117078750I0J-243750D01*
G01*
X129430000Y-117566250D01*
G75*
G02*
X129186250Y-117810000I-243750J0D01*
G01*
G37*
G36*
G01*
X129186250Y-119385000D02*
X128623750Y-119385000D01*
G75*
G02*
X128380000Y-119141250I0J243750D01*
G01*
X128380000Y-118653750D01*
G75*
G02*
X128623750Y-118410000I243750J0D01*
G01*
X129186250Y-118410000D01*
G75*
G02*
X129430000Y-118653750I0J-243750D01*
G01*
X129430000Y-119141250D01*
G75*
G02*
X129186250Y-119385000I-243750J0D01*
G01*
G37*
%TD*%
%TO.C,C5*%
G36*
G01*
X139981250Y-100665000D02*
X139418750Y-100665000D01*
G75*
G02*
X139175000Y-100421250I0J243750D01*
G01*
X139175000Y-99933750D01*
G75*
G02*
X139418750Y-99690000I243750J0D01*
G01*
X139981250Y-99690000D01*
G75*
G02*
X140225000Y-99933750I0J-243750D01*
G01*
X140225000Y-100421250D01*
G75*
G02*
X139981250Y-100665000I-243750J0D01*
G01*
G37*
G36*
G01*
X139981250Y-102240000D02*
X139418750Y-102240000D01*
G75*
G02*
X139175000Y-101996250I0J243750D01*
G01*
X139175000Y-101508750D01*
G75*
G02*
X139418750Y-101265000I243750J0D01*
G01*
X139981250Y-101265000D01*
G75*
G02*
X140225000Y-101508750I0J-243750D01*
G01*
X140225000Y-101996250D01*
G75*
G02*
X139981250Y-102240000I-243750J0D01*
G01*
G37*
%TD*%
%TO.C,C4*%
G36*
G01*
X129186250Y-104475000D02*
X128623750Y-104475000D01*
G75*
G02*
X128380000Y-104231250I0J243750D01*
G01*
X128380000Y-103743750D01*
G75*
G02*
X128623750Y-103500000I243750J0D01*
G01*
X129186250Y-103500000D01*
G75*
G02*
X129430000Y-103743750I0J-243750D01*
G01*
X129430000Y-104231250D01*
G75*
G02*
X129186250Y-104475000I-243750J0D01*
G01*
G37*
G36*
G01*
X129186250Y-106050000D02*
X128623750Y-106050000D01*
G75*
G02*
X128380000Y-105806250I0J243750D01*
G01*
X128380000Y-105318750D01*
G75*
G02*
X128623750Y-105075000I243750J0D01*
G01*
X129186250Y-105075000D01*
G75*
G02*
X129430000Y-105318750I0J-243750D01*
G01*
X129430000Y-105806250D01*
G75*
G02*
X129186250Y-106050000I-243750J0D01*
G01*
G37*
%TD*%
%TO.C,C3*%
G36*
G01*
X139981250Y-87330000D02*
X139418750Y-87330000D01*
G75*
G02*
X139175000Y-87086250I0J243750D01*
G01*
X139175000Y-86598750D01*
G75*
G02*
X139418750Y-86355000I243750J0D01*
G01*
X139981250Y-86355000D01*
G75*
G02*
X140225000Y-86598750I0J-243750D01*
G01*
X140225000Y-87086250D01*
G75*
G02*
X139981250Y-87330000I-243750J0D01*
G01*
G37*
G36*
G01*
X139981250Y-88905000D02*
X139418750Y-88905000D01*
G75*
G02*
X139175000Y-88661250I0J243750D01*
G01*
X139175000Y-88173750D01*
G75*
G02*
X139418750Y-87930000I243750J0D01*
G01*
X139981250Y-87930000D01*
G75*
G02*
X140225000Y-88173750I0J-243750D01*
G01*
X140225000Y-88661250D01*
G75*
G02*
X139981250Y-88905000I-243750J0D01*
G01*
G37*
%TD*%
%TO.C,C2*%
G36*
G01*
X129186250Y-91140000D02*
X128623750Y-91140000D01*
G75*
G02*
X128380000Y-90896250I0J243750D01*
G01*
X128380000Y-90408750D01*
G75*
G02*
X128623750Y-90165000I243750J0D01*
G01*
X129186250Y-90165000D01*
G75*
G02*
X129430000Y-90408750I0J-243750D01*
G01*
X129430000Y-90896250D01*
G75*
G02*
X129186250Y-91140000I-243750J0D01*
G01*
G37*
G36*
G01*
X129186250Y-92715000D02*
X128623750Y-92715000D01*
G75*
G02*
X128380000Y-92471250I0J243750D01*
G01*
X128380000Y-91983750D01*
G75*
G02*
X128623750Y-91740000I243750J0D01*
G01*
X129186250Y-91740000D01*
G75*
G02*
X129430000Y-91983750I0J-243750D01*
G01*
X129430000Y-92471250D01*
G75*
G02*
X129186250Y-92715000I-243750J0D01*
G01*
G37*
%TD*%
%TO.C,C1*%
G36*
G01*
X108938750Y-113330000D02*
X109501250Y-113330000D01*
G75*
G02*
X109745000Y-113573750I0J-243750D01*
G01*
X109745000Y-114061250D01*
G75*
G02*
X109501250Y-114305000I-243750J0D01*
G01*
X108938750Y-114305000D01*
G75*
G02*
X108695000Y-114061250I0J243750D01*
G01*
X108695000Y-113573750D01*
G75*
G02*
X108938750Y-113330000I243750J0D01*
G01*
G37*
G36*
G01*
X108938750Y-111755000D02*
X109501250Y-111755000D01*
G75*
G02*
X109745000Y-111998750I0J-243750D01*
G01*
X109745000Y-112486250D01*
G75*
G02*
X109501250Y-112730000I-243750J0D01*
G01*
X108938750Y-112730000D01*
G75*
G02*
X108695000Y-112486250I0J243750D01*
G01*
X108695000Y-111998750D01*
G75*
G02*
X108938750Y-111755000I243750J0D01*
G01*
G37*
%TD*%
M02*
